# SSTK version 0.8.0
# 103
mtllib original_103.mtl
o mesh11/mesh11-geometry#mesh11-geometry
v 0.898293 0.006166 0.099122
v 0.819173 -0.003839 0.257176
v 0.819173 0.006166 0.099122
v 0.898293 -0.003839 0.257176
v 0.827085 0.009159 0.247696
v 0.827085 0.018183 0.105125
v 0.890381 0.009159 0.247696
v 0.890381 0.018183 0.105125
vn 0 -0.9980025297987037 -0.06317397023606494
vn -0.8424712732884583 0.5376651744126966 0.03403401104026072
vn 0 0.4468759636707734 -0.8945959272729325
vn 0.8424712732884583 0.5376651744126966 0.03403401104026072
vn 0 0.5892707373217256 0.8079356398478221
vn 0 0.9980025297987037 0.06317397023606494
vn 0.8424712732884583 -0.5376651744126966 -0.03403401104026072
vn 0 -0.4468759636707734 0.8945959272729325
vn -0.8424712732884583 -0.5376651744126966 -0.03403401104026072
vn 0 -0.5892707373217256 -0.8079356398478221
usemtl material_0_0
f 1//1 2//1 3//1
f 2//1 1//1 4//1
f 5//2 3//2 2//2
f 6//3 1//3 3//3
f 1//4 7//4 4//4
f 7//5 2//5 4//5
f 3//2 5//2 6//2
f 2//5 7//5 5//5
f 1//3 6//3 8//3
f 7//4 1//4 8//4
f 7//6 6//6 5//6
f 6//6 7//6 8//6
usemtl material_1_0
f 3//6 2//6 1//6
f 4//6 1//6 2//6
f 2//7 3//7 5//7
f 3//8 1//8 6//8
f 4//9 7//9 1//9
f 4//10 2//10 7//10
f 6//7 5//7 3//7
f 5//10 7//10 2//10
f 8//8 6//8 1//8
f 8//9 1//9 7//9
f 5//1 6//1 7//1
f 8//1 7//1 6//1
