# SSTK version 0.8.0
# 153
mtllib original_153.mtl
o mesh70/mesh70-geometry#mesh70-geometry
v 0.216583 0.011406 0.218191
v 0.215313 0.011879 0.210712
v 0.215313 0.011406 0.218191
v 0.216456 0.011808 0.211846
v 0.216583 0.011654 0.214275
v 0.216456 0.011879 0.210712
v 0.216636 0.011703 0.213504
v 0.216876 0.011849 0.211186
v 0.216794 0.011747 0.212797
v 0.216983 0.011772 0.212401
v 0.217264 0.011874 0.210797
v 0.217267 0.011791 0.212103
v 0.217653 0.011886 0.210606
v 0.217620 0.011803 0.211915
v 0.218015 0.011807 0.211853
v 0.218079 0.011890 0.210543
v 0.218481 0.011803 0.211922
v 0.218726 0.011884 0.210645
v 0.218947 0.011790 0.212128
v 0.219384 0.011864 0.210951
vn 0 0.998002551082325 0.06317363400321015
vn 0 -0.998002551082325 -0.06317363400321015
usemtl material_0_0
f 1//1 2//1 3//1
f 2//1 1//1 4//1
f 3//2 2//2 1//2
f 4//2 1//2 2//2
f 4//1 1//1 5//1
f 5//2 1//2 4//2
f 6//1 2//1 4//1
f 4//2 2//2 6//2
f 4//1 5//1 7//1
f 7//2 5//2 4//2
f 4//1 7//1 8//1
f 8//2 7//2 4//2
f 8//1 7//1 9//1
f 9//2 7//2 8//2
f 8//1 9//1 10//1
f 10//2 9//2 8//2
f 8//1 10//1 11//1
f 11//2 10//2 8//2
f 11//1 10//1 12//1
f 12//2 10//2 11//2
f 11//1 12//1 13//1
f 13//2 12//2 11//2
f 13//1 12//1 14//1
f 14//2 12//2 13//2
f 13//1 14//1 15//1
f 15//2 14//2 13//2
f 13//1 15//1 16//1
f 16//2 15//2 13//2
f 16//1 15//1 17//1
f 17//2 15//2 16//2
f 16//1 17//1 18//1
f 18//2 17//2 16//2
f 18//1 17//1 19//1
f 19//2 17//2 18//2
f 18//1 19//1 20//1
f 20//2 19//2 18//2
