# SSTK version 0.8.0
# 296
mtllib original_296.mtl
o mesh213/mesh213-geometry#mesh213-geometry
v -0.027911 0.019573 0.085164
v -0.027919 0.019689 0.083341
v -0.028758 0.019656 0.083863
v -0.027335 0.019734 0.082621
v -0.026636 0.019623 0.084389
v -0.026979 0.019798 0.081621
v -0.026827 0.019884 0.080263
v -0.025083 0.020103 0.076798
v -0.028554 0.020103 0.076798
v -0.025760 0.019688 0.083348
v -0.028554 0.019884 0.080263
v -0.025252 0.019774 0.081989
v -0.025083 0.019884 0.080263
vn 0 0.998002551082325 0.06317363400321015
vn 0 -0.998002551082325 -0.06317363400321015
usemtl material_0_0
f 1//1 2//1 3//1
f 2//1 1//1 4//1
f 3//2 2//2 1//2
f 4//2 1//2 2//2
f 4//1 1//1 5//1
f 5//2 1//2 4//2
f 4//1 5//1 6//1
f 6//2 5//2 4//2
f 6//1 5//1 7//1
f 7//2 5//2 6//2
f 8//1 7//1 5//1
f 5//2 7//2 8//2
f 9//1 7//1 8//1
f 8//2 7//2 9//2
f 8//1 5//1 10//1
f 10//2 5//2 8//2
f 7//1 9//1 11//1
f 11//2 9//2 7//2
f 8//1 10//1 12//1
f 12//2 10//2 8//2
f 8//1 12//1 13//1
f 13//2 12//2 8//2
