# SSTK version 0.8.0
# 288
mtllib original_288.mtl
o mesh205/mesh205-geometry#mesh205-geometry
v 0.085358 0.037849 -0.203542
v 0.083326 0.038667 -0.216466
v 0.083326 0.037849 -0.203542
v 0.083331 0.038830 -0.219041
v 0.084048 0.038898 -0.220128
v 0.082478 0.038622 -0.215767
v 0.085358 0.038898 -0.220128
v 0.082242 0.038759 -0.217919
v 0.081401 0.038578 -0.215069
v 0.080859 0.038692 -0.216866
v 0.079261 0.038636 -0.215981
v 0.079261 0.038512 -0.214021
vn 0 0.998002551082325 0.06317363400321015
vn 0 -0.998002551082325 -0.06317363400321015
usemtl material_0_0
f 1//1 2//1 3//1
f 2//1 1//1 4//1
f 3//2 2//2 1//2
f 4//2 1//2 2//2
f 4//1 1//1 5//1
f 5//2 1//2 4//2
f 4//1 6//1 2//1
f 2//2 6//2 4//2
f 5//1 1//1 7//1
f 7//2 1//2 5//2
f 8//1 6//1 4//1
f 4//2 6//2 8//2
f 8//1 9//1 6//1
f 6//2 9//2 8//2
f 10//1 9//1 8//1
f 8//2 9//2 10//2
f 11//1 9//1 10//1
f 10//2 9//2 11//2
f 9//1 11//1 12//1
f 12//2 11//2 9//2
