# SSTK version 0.8.0
# 306
mtllib original_306.mtl
o mesh223/mesh223-geometry#mesh223-geometry
v 0.430148 0.037842 -0.203436
v 0.428878 0.038315 -0.210915
v 0.428878 0.037842 -0.203436
v 0.430021 0.038244 -0.209781
v 0.430148 0.038090 -0.207352
v 0.430021 0.038315 -0.210915
v 0.430201 0.038139 -0.208123
v 0.430442 0.038285 -0.210442
v 0.430360 0.038183 -0.208831
v 0.430548 0.038208 -0.209226
v 0.430829 0.038310 -0.210831
v 0.430832 0.038227 -0.209524
v 0.431218 0.038322 -0.211021
v 0.431185 0.038239 -0.209712
v 0.431580 0.038243 -0.209774
v 0.431644 0.038326 -0.211084
v 0.432046 0.038239 -0.209706
v 0.432291 0.038320 -0.210982
v 0.432512 0.038226 -0.209500
v 0.432949 0.038300 -0.210676
vn 0 0.998002551082325 0.06317363400321015
vn 0 -0.998002551082325 -0.06317363400321015
usemtl material_0_0
f 1//1 2//1 3//1
f 2//1 1//1 4//1
f 3//2 2//2 1//2
f 4//2 1//2 2//2
f 4//1 1//1 5//1
f 5//2 1//2 4//2
f 6//1 2//1 4//1
f 4//2 2//2 6//2
f 4//1 5//1 7//1
f 7//2 5//2 4//2
f 4//1 7//1 8//1
f 8//2 7//2 4//2
f 8//1 7//1 9//1
f 9//2 7//2 8//2
f 8//1 9//1 10//1
f 10//2 9//2 8//2
f 8//1 10//1 11//1
f 11//2 10//2 8//2
f 11//1 10//1 12//1
f 12//2 10//2 11//2
f 11//1 12//1 13//1
f 13//2 12//2 11//2
f 13//1 12//1 14//1
f 14//2 12//2 13//2
f 13//1 14//1 15//1
f 15//2 14//2 13//2
f 13//1 15//1 16//1
f 16//2 15//2 13//2
f 16//1 15//1 17//1
f 17//2 15//2 16//2
f 16//1 17//1 18//1
f 18//2 17//2 16//2
f 18//1 17//1 19//1
f 19//2 17//2 18//2
f 18//1 19//1 20//1
f 20//2 19//2 18//2
