# SSTK version 0.8.0
# 149
mtllib original_149.mtl
o mesh66/mesh66-geometry#mesh66-geometry
v 0.859722 0.013931 0.176301
v 0.859902 0.014024 0.174835
v 0.859835 0.014068 0.174138
v 0.860336 0.013928 0.176356
v 0.859835 0.014573 0.166166
v 0.860121 0.014008 0.175081
v 0.859263 0.013941 0.176138
v 0.859835 0.014345 0.169764
v 0.860555 0.014002 0.175173
v 0.858939 0.013957 0.175885
v 0.859835 0.014407 0.168778
v 0.861295 0.013935 0.176243
v 0.858727 0.013978 0.175564
v 0.861112 0.014345 0.169764
v 0.861112 0.014006 0.175124
v 0.858610 0.014013 0.175012
v 0.861112 0.014407 0.168778
v 0.858572 0.014524 0.166926
v 0.858572 0.014407 0.168778
v 0.858572 0.014345 0.169764
v 0.858572 0.014072 0.174067
v 0.857640 0.014407 0.168778
v 0.857640 0.014345 0.169764
vn 0 0.998002551082325 0.06317363400321015
vn 0 -0.998002551082325 -0.06317363400321015
usemtl material_0_0
f 1//1 2//1 3//1
f 2//1 1//1 4//1
f 3//2 2//2 1//2
f 4//2 1//2 2//2
f 5//1 1//1 3//1
f 3//2 1//2 5//2
f 2//1 4//1 6//1
f 6//2 4//2 2//2
f 5//1 7//1 1//1
f 1//2 7//2 5//2
f 5//1 3//1 8//1
f 8//2 3//2 5//2
f 6//1 4//1 9//1
f 9//2 4//2 6//2
f 5//1 10//1 7//1
f 7//2 10//2 5//2
f 5//1 8//1 11//1
f 11//2 8//2 5//2
f 9//1 4//1 12//1
f 12//2 4//2 9//2
f 5//1 13//1 10//1
f 10//2 13//2 5//2
f 14//1 11//1 8//1
f 8//2 11//2 14//2
f 9//1 12//1 15//1
f 15//2 12//2 9//2
f 5//1 16//1 13//1
f 13//2 16//2 5//2
f 11//1 14//1 17//1
f 17//2 14//2 11//2
f 18//1 16//1 5//1
f 5//2 16//2 18//2
f 19//1 16//1 18//1
f 18//2 16//2 19//2
f 20//1 16//1 19//1
f 19//2 16//2 20//2
f 16//1 20//1 21//1
f 21//2 20//2 16//2
f 22//1 20//1 19//1
f 19//2 20//2 22//2
f 20//1 22//1 23//1
f 23//2 22//2 20//2
