# SSTK version 0.8.0
# 194
mtllib original_194.mtl
o mesh111/mesh111-geometry#mesh111-geometry
v 0.127028 0.016754 0.129700
v 0.125568 0.016817 0.128714
v 0.125568 0.016754 0.129700
v 0.127028 0.016817 0.128714
v 0.125568 0.016860 0.128024
v 0.125568 0.016343 0.136193
v 0.125084 0.016989 0.125999
v 0.124692 0.016966 0.126352
v 0.125639 0.017003 0.125770
v 0.124439 0.016938 0.126799
v 0.125628 0.016896 0.127455
v 0.124338 0.016909 0.127262
v 0.125808 0.016919 0.127101
v 0.124305 0.016867 0.127918
v 0.126379 0.017008 0.125693
v 0.124305 0.016817 0.128714
v 0.126132 0.016931 0.126917
v 0.124305 0.016754 0.129700
v 0.126626 0.016934 0.126855
v 0.124305 0.016343 0.136193
v 0.123183 0.016817 0.128714
v 0.127565 0.017000 0.125820
v 0.123183 0.016754 0.129700
v 0.127374 0.016930 0.126925
vn 0 0.998002551082325 0.06317363400321015
vn 0 -0.998002551082325 -0.06317363400321015
usemtl material_0_0
f 1//1 2//1 3//1
f 2//1 1//1 4//1
f 3//2 2//2 1//2
f 4//2 1//2 2//2
f 5//1 3//1 2//1
f 2//2 3//2 5//2
f 5//1 6//1 3//1
f 3//2 6//2 5//2
f 7//1 6//1 5//1
f 5//2 6//2 7//2
f 8//1 6//1 7//1
f 7//2 6//2 8//2
f 7//1 5//1 9//1
f 9//2 5//2 7//2
f 10//1 6//1 8//1
f 8//2 6//2 10//2
f 9//1 5//1 11//1
f 11//2 5//2 9//2
f 12//1 6//1 10//1
f 10//2 6//2 12//2
f 9//1 11//1 13//1
f 13//2 11//2 9//2
f 14//1 6//1 12//1
f 12//2 6//2 14//2
f 9//1 13//1 15//1
f 15//2 13//2 9//2
f 16//1 6//1 14//1
f 14//2 6//2 16//2
f 15//1 13//1 17//1
f 17//2 13//2 15//2
f 18//1 6//1 16//1
f 16//2 6//2 18//2
f 15//1 17//1 19//1
f 19//2 17//2 15//2
f 6//1 18//1 20//1
f 20//2 18//2 6//2
f 21//1 18//1 16//1
f 16//2 18//2 21//2
f 15//1 19//1 22//1
f 22//2 19//2 15//2
f 18//1 21//1 23//1
f 23//2 21//2 18//2
f 22//1 19//1 24//1
f 24//2 19//2 22//2
