# SSTK version 0.8.0
# 242
mtllib original_242.mtl
o mesh159/mesh159-geometry#mesh159-geometry
v -0.538578 0.016955 0.126537
v -0.538814 0.017291 0.121228
v -0.538906 0.017172 0.123101
v -0.538536 0.017401 0.119478
v -0.537594 0.016752 0.129744
v -0.538073 0.017504 0.117852
v -0.537424 0.017599 0.116349
v -0.536862 0.016659 0.131199
v -0.536605 0.017685 0.114995
v -0.535981 0.016579 0.132471
v -0.535629 0.017760 0.113814
v -0.535519 0.017173 0.123084
v -0.534949 0.016510 0.133561
v -0.535324 0.017326 0.120670
v -0.535288 0.016986 0.126044
v -0.534497 0.017824 0.112806
v -0.534596 0.016824 0.128603
v -0.534740 0.017474 0.118327
v -0.533766 0.016453 0.134468
v -0.533675 0.017605 0.116254
v -0.533417 0.016693 0.130663
v -0.533208 0.017877 0.111972
v -0.532415 0.016407 0.135181
v -0.532039 0.017707 0.114651
v -0.532635 0.016642 0.131469
v -0.531806 0.017918 0.111317
v -0.531726 0.016601 0.132127
v -0.531019 0.017745 0.114052
v -0.530877 0.016375 0.135691
v -0.530335 0.017948 0.110850
v -0.529698 0.016545 0.133001
v -0.529882 0.017772 0.113624
v -0.529151 0.016356 0.135997
v -0.528795 0.017965 0.110570
v -0.527509 0.016527 0.133293
v -0.527255 0.017794 0.113282
v -0.527238 0.016349 0.136098
v -0.527187 0.017971 0.110476
v -0.526182 0.016533 0.133194
v -0.524977 0.017774 0.113590
v -0.525373 0.016358 0.135966
v -0.525398 0.017964 0.110594
v -0.524960 0.016552 0.132896
v -0.523758 0.017941 0.110949
v -0.523658 0.016383 0.135568
v -0.523123 0.017716 0.114515
v -0.523845 0.016584 0.132399
v -0.522265 0.017904 0.111541
v -0.522835 0.016628 0.131704
v -0.522350 0.017671 0.115224
v -0.522092 0.016425 0.134905
v -0.521675 0.017614 0.116117
v -0.521955 0.016684 0.130814
v -0.520921 0.017851 0.112369
v -0.520676 0.016484 0.133977
v -0.520616 0.017466 0.118453
v -0.521230 0.016752 0.129731
v -0.519747 0.017785 0.113412
v -0.520660 0.016833 0.128456
v -0.517382 0.017514 0.117693
v -0.519437 0.016558 0.132797
v -0.518766 0.017707 0.114646
v -0.520244 0.016926 0.126989
v -0.517978 0.017617 0.116074
v -0.516958 0.016874 0.127817
v -0.518404 0.016648 0.131377
v -0.517578 0.016753 0.129717
vn 0 0.998002551082325 0.06317363400321015
vn 0 -0.998002551082325 -0.06317363400321015
usemtl material_0_0
f 1//1 2//1 3//1
f 2//1 1//1 4//1
f 3//2 2//2 1//2
f 4//2 1//2 2//2
f 4//1 1//1 5//1
f 5//2 1//2 4//2
f 4//1 5//1 6//1
f 6//2 5//2 4//2
f 6//1 5//1 7//1
f 7//2 5//2 6//2
f 7//1 5//1 8//1
f 8//2 5//2 7//2
f 7//1 8//1 9//1
f 9//2 8//2 7//2
f 9//1 8//1 10//1
f 10//2 8//2 9//2
f 9//1 10//1 11//1
f 11//2 10//2 9//2
f 11//1 10//1 12//1
f 12//2 10//2 11//2
f 12//1 10//1 13//1
f 13//2 10//2 12//2
f 14//1 11//1 12//1
f 12//2 11//2 14//2
f 12//1 13//1 15//1
f 15//2 13//2 12//2
f 11//1 14//1 16//1
f 16//2 14//2 11//2
f 15//1 13//1 17//1
f 17//2 13//2 15//2
f 16//1 14//1 18//1
f 18//2 14//2 16//2
f 17//1 13//1 19//1
f 19//2 13//2 17//2
f 16//1 18//1 20//1
f 20//2 18//2 16//2
f 17//1 19//1 21//1
f 21//2 19//2 17//2
f 16//1 20//1 22//1
f 22//2 20//2 16//2
f 21//1 19//1 23//1
f 23//2 19//2 21//2
f 22//1 20//1 24//1
f 24//2 20//2 22//2
f 21//1 23//1 25//1
f 25//2 23//2 21//2
f 22//1 24//1 26//1
f 26//2 24//2 22//2
f 25//1 23//1 27//1
f 27//2 23//2 25//2
f 26//1 24//1 28//1
f 28//2 24//2 26//2
f 27//1 23//1 29//1
f 29//2 23//2 27//2
f 26//1 28//1 30//1
f 30//2 28//2 26//2
f 27//1 29//1 31//1
f 31//2 29//2 27//2
f 30//1 28//1 32//1
f 32//2 28//2 30//2
f 31//1 29//1 33//1
f 33//2 29//2 31//2
f 30//1 32//1 34//1
f 34//2 32//2 30//2
f 31//1 33//1 35//1
f 35//2 33//2 31//2
f 34//1 32//1 36//1
f 36//2 32//2 34//2
f 35//1 33//1 37//1
f 37//2 33//2 35//2
f 34//1 36//1 38//1
f 38//2 36//2 34//2
f 35//1 37//1 39//1
f 39//2 37//2 35//2
f 38//1 36//1 40//1
f 40//2 36//2 38//2
f 39//1 37//1 41//1
f 41//2 37//2 39//2
f 38//1 40//1 42//1
f 42//2 40//2 38//2
f 39//1 41//1 43//1
f 43//2 41//2 39//2
f 42//1 40//1 44//1
f 44//2 40//2 42//2
f 43//1 41//1 45//1
f 45//2 41//2 43//2
f 44//1 40//1 46//1
f 46//2 40//2 44//2
f 43//1 45//1 47//1
f 47//2 45//2 43//2
f 44//1 46//1 48//1
f 48//2 46//2 44//2
f 47//1 45//1 49//1
f 49//2 45//2 47//2
f 48//1 46//1 50//1
f 50//2 46//2 48//2
f 49//1 45//1 51//1
f 51//2 45//2 49//2
f 48//1 50//1 52//1
f 52//2 50//2 48//2
f 49//1 51//1 53//1
f 53//2 51//2 49//2
f 48//1 52//1 54//1
f 54//2 52//2 48//2
f 53//1 51//1 55//1
f 55//2 51//2 53//2
f 54//1 52//1 56//1
f 56//2 52//2 54//2
f 53//1 55//1 57//1
f 57//2 55//2 53//2
f 54//1 56//1 58//1
f 58//2 56//2 54//2
f 57//1 55//1 59//1
f 59//2 55//2 57//2
f 58//1 56//1 60//1
f 60//2 56//2 58//2
f 59//1 55//1 61//1
f 61//2 55//2 59//2
f 58//1 60//1 62//1
f 62//2 60//2 58//2
f 59//1 61//1 63//1
f 63//2 61//2 59//2
f 62//1 60//1 64//1
f 64//2 60//2 62//2
f 63//1 61//1 65//1
f 65//2 61//2 63//2
f 65//1 61//1 66//1
f 66//2 61//2 65//2
f 65//1 66//1 67//1
f 67//2 66//2 65//2
