# SSTK version 0.8.0
# 241
mtllib original_241.mtl
o mesh158/mesh158-geometry#mesh158-geometry
v -0.448867 0.016349 0.136098
v -0.454930 0.017918 0.111321
v -0.458486 0.017918 0.111321
v -0.448477 0.016778 0.129321
v -0.447173 0.016522 0.133377
v -0.445497 0.016349 0.136098
v -0.445836 0.016778 0.129321
v -0.439129 0.017918 0.111321
v -0.435776 0.017918 0.111321
vn 0 0.998002551082325 0.06317363400321015
vn 0 -0.998002551082325 -0.06317363400321015
usemtl material_0_0
f 1//1 2//1 3//1
f 2//1 1//1 4//1
f 3//2 2//2 1//2
f 4//2 1//2 2//2
f 4//1 1//1 5//1
f 5//2 1//2 4//2
f 5//1 1//1 6//1
f 6//2 1//2 5//2
f 5//1 6//1 7//1
f 7//2 6//2 5//2
f 7//1 6//1 8//1
f 8//2 6//2 7//2
f 8//1 6//1 9//1
f 9//2 6//2 8//2
