# SSTK version 0.8.0
# 102
mtllib original_102.mtl
o mesh10/mesh10-geometry#mesh10-geometry
v -0.743334 0.013941 0.170145
v -0.918959 0.001392 0.176544
v -0.731551 0.001392 0.176544
v -0.911202 0.013941 0.170145
v -0.731551 0.006292 0.099130
v -0.911202 0.018253 0.102020
v -0.918959 0.006292 0.099130
v -0.743334 0.018253 0.102020
vn 0 0.45426524526218737 0.8908664809874063
vn 0 -0.9980025297987037 -0.06317397023606494
vn 0.7170117364978766 0.6956687443414356 0.04403598381675705
vn 0 0.9980025297987037 0.06317397023606494
vn -0.8422712674691794 0.5379771708384435 0.034054010814091346
vn 0 0.23489305333364846 -0.9720212207023032
vn 0 -0.45426524526218737 -0.8908664809874063
vn -0.7170117364978766 -0.6956687443414356 -0.04403598381675705
vn 0.8422712674691794 -0.5379771708384435 -0.034054010814091346
vn 0 -0.23489305333364846 0.9720212207023032
usemtl material_0_0
f 1//1 2//1 3//1
f 2//1 1//1 4//1
f 2//2 5//2 3//2
f 5//3 1//3 3//3
f 1//4 6//4 4//4
f 4//5 7//5 2//5
f 5//2 2//2 7//2
f 1//3 5//3 8//3
f 6//4 1//4 8//4
f 7//5 4//5 6//5
f 6//6 5//6 7//6
f 5//6 6//6 8//6
usemtl material_1_0
f 3//7 2//7 1//7
f 4//7 1//7 2//7
f 3//4 5//4 2//4
f 3//8 1//8 5//8
f 4//2 6//2 1//2
f 2//9 7//9 4//9
f 7//4 2//4 5//4
f 8//8 5//8 1//8
f 8//2 1//2 6//2
f 6//9 4//9 7//9
f 7//10 5//10 6//10
f 8//10 6//10 5//10
