# SSTK version 0.8.0
# 94
mtllib original_94.mtl
o key86/key/mesh1/mesh1-geometry#mesh1-geometry
v -0.396984 0.016501 -0.062150
v -0.474553 0.011601 0.015264
v -0.474553 0.016501 -0.062150
v -0.396984 0.011601 0.015264
v -0.466796 0.024346 0.005769
v -0.466796 0.028266 -0.056163
v -0.404741 0.024346 0.005769
v -0.404741 0.028266 -0.056163
vn 0 -0.998002551082325 -0.06317363400321015
vn -0.8422711000851708 0.5379774329130191 0.034054010595439964
vn 0 0.45352785540209994 -0.8912421019983133
vn 0.8422711000851708 0.5379774329130191 0.034054010595439964
vn 0 0.5974439284968164 0.8019106884823838
vn 0 0.998002551082325 0.06317363400321015
vn 0.8422711000851708 -0.5379774329130191 -0.034054010595439964
vn 0 -0.45352785540209994 0.8912421019983133
vn -0.8422711000851708 -0.5379774329130191 -0.034054010595439964
vn 0 -0.5974439284968164 -0.8019106884823838
usemtl material_0_0
f 1//1 2//1 3//1
f 2//1 1//1 4//1
f 5//2 3//2 2//2
f 6//3 1//3 3//3
f 1//4 7//4 4//4
f 7//5 2//5 4//5
f 3//2 5//2 6//2
f 2//5 7//5 5//5
f 1//3 6//3 8//3
f 7//4 1//4 8//4
f 7//6 6//6 5//6
f 6//6 7//6 8//6
usemtl material_1_0
f 3//6 2//6 1//6
f 4//6 1//6 2//6
f 2//7 3//7 5//7
f 3//8 1//8 6//8
f 4//9 7//9 1//9
f 4//10 2//10 7//10
f 6//7 5//7 3//7
f 5//10 7//10 2//10
f 8//8 6//8 1//8
f 8//9 1//9 7//9
f 5//1 6//1 7//1
f 8//1 7//1 6//1
