# SSTK version 0.8.0
# 167
mtllib original_167.mtl
o mesh84/mesh84-geometry#mesh84-geometry
v -0.683789 0.011599 0.215142
v -0.687719 0.011669 0.214029
v -0.688114 0.011599 0.215142
v -0.684212 0.011669 0.214029
v -0.686731 0.012054 0.207944
v -0.681022 0.011401 0.218268
v -0.689250 0.011401 0.218268
v -0.686583 0.011861 0.211001
v -0.685256 0.012054 0.207944
v -0.682582 0.011401 0.218268
v -0.690704 0.011401 0.218268
v -0.686025 0.011986 0.209029
v -0.685292 0.011850 0.211170
v -0.686264 0.011923 0.210018
vn 0 0.998002551082325 0.06317363400321015
vn 0 -0.998002551082325 -0.06317363400321015
usemtl material_0_0
f 1//1 2//1 3//1
f 2//1 1//1 4//1
f 3//2 2//2 1//2
f 4//2 1//2 2//2
f 5//1 3//1 2//1
f 2//2 3//2 5//2
f 6//1 4//1 1//1
f 1//2 4//2 6//2
f 5//1 7//1 3//1
f 3//2 7//2 5//2
f 5//1 2//1 8//1
f 8//2 2//2 5//2
f 9//1 4//1 6//1
f 6//2 4//2 9//2
f 6//1 1//1 10//1
f 10//2 1//2 6//2
f 7//1 5//1 11//1
f 11//2 5//2 7//2
f 5//1 8//1 12//1
f 12//2 8//2 5//2
f 9//1 13//1 4//1
f 4//2 13//2 9//2
f 12//1 8//1 14//1
f 14//2 8//2 12//2
f 5//1 12//1 9//1
f 9//2 12//2 5//2
f 9//1 12//1 13//1
f 13//2 12//2 9//2
