# SSTK version 0.8.0
# 250
mtllib original_250.mtl
o mesh167/mesh167-geometry#mesh167-geometry
v -0.259870 0.021816 0.049742
v -0.256985 0.021951 0.047600
v -0.259949 0.021926 0.048005
v -0.259566 0.021720 0.051250
v -0.259036 0.021639 0.052531
v -0.258281 0.021573 0.053583
v -0.257317 0.021521 0.054403
v -0.256162 0.021484 0.054990
v -0.256659 0.021800 0.049991
v -0.256341 0.021746 0.050851
v -0.255919 0.021705 0.051487
v -0.254815 0.021461 0.055342
v -0.254788 0.021656 0.052273
v -0.253277 0.021454 0.055459
v -0.253294 0.021639 0.052535
v -0.252142 0.021648 0.052393
v -0.251217 0.021468 0.055235
v -0.251160 0.021675 0.051969
v -0.249441 0.021511 0.054563
v -0.250402 0.021717 0.051301
v -0.249923 0.021772 0.050431
v -0.249669 0.021852 0.049169
v -0.249585 0.021968 0.047329
v -0.249585 0.023049 0.030259
v -0.246299 0.023049 0.030259
v -0.248027 0.021580 0.053464
v -0.247053 0.021675 0.051960
v -0.246488 0.021806 0.049902
v -0.246299 0.021980 0.047143
vn 0 0.998002551082325 0.06317363400321015
vn 0 -0.998002551082325 -0.06317363400321015
usemtl material_0_0
f 1//1 2//1 3//1
f 2//1 1//1 4//1
f 3//2 2//2 1//2
f 4//2 1//2 2//2
f 2//1 4//1 5//1
f 5//2 4//2 2//2
f 2//1 5//1 6//1
f 6//2 5//2 2//2
f 2//1 6//1 7//1
f 7//2 6//2 2//2
f 2//1 7//1 8//1
f 8//2 7//2 2//2
f 2//1 8//1 9//1
f 9//2 8//2 2//2
f 9//1 8//1 10//1
f 10//2 8//2 9//2
f 10//1 8//1 11//1
f 11//2 8//2 10//2
f 11//1 8//1 12//1
f 12//2 8//2 11//2
f 11//1 12//1 13//1
f 13//2 12//2 11//2
f 13//1 12//1 14//1
f 14//2 12//2 13//2
f 13//1 14//1 15//1
f 15//2 14//2 13//2
f 15//1 14//1 16//1
f 16//2 14//2 15//2
f 16//1 14//1 17//1
f 17//2 14//2 16//2
f 16//1 17//1 18//1
f 18//2 17//2 16//2
f 18//1 17//1 19//1
f 19//2 17//2 18//2
f 18//1 19//1 20//1
f 20//2 19//2 18//2
f 20//1 19//1 21//1
f 21//2 19//2 20//2
f 21//1 19//1 22//1
f 22//2 19//2 21//2
f 22//1 19//1 23//1
f 23//2 19//2 22//2
f 23//1 19//1 24//1
f 24//2 19//2 23//2
f 24//1 19//1 25//1
f 25//2 19//2 24//2
f 25//1 19//1 26//1
f 26//2 19//2 25//2
f 25//1 26//1 27//1
f 27//2 26//2 25//2
f 25//1 27//1 28//1
f 28//2 27//2 25//2
f 25//1 28//1 29//1
f 29//2 28//2 25//2
