# SSTK version 0.8.0
# 120
mtllib original_120.mtl
o mesh37/mesh37-geometry#mesh37-geometry
v 0.166503 0.021465 0.055290
v 0.165233 0.021938 0.047811
v 0.165233 0.021465 0.055290
v 0.166376 0.021866 0.048945
v 0.166503 0.021712 0.051374
v 0.166376 0.021938 0.047811
v 0.166556 0.021761 0.050603
v 0.166797 0.021908 0.048284
v 0.166715 0.021806 0.049895
v 0.166904 0.021831 0.049500
v 0.167184 0.021933 0.047895
v 0.167188 0.021850 0.049202
v 0.167573 0.021945 0.047705
v 0.167541 0.021862 0.049014
v 0.167936 0.021866 0.048952
v 0.167999 0.021949 0.047642
v 0.168401 0.021861 0.049020
v 0.168647 0.021942 0.047744
v 0.168867 0.021848 0.049226
v 0.169305 0.021923 0.048050
vn 0 0.998002551082325 0.06317363400321015
vn 0 -0.998002551082325 -0.06317363400321015
usemtl material_0_0
f 1//1 2//1 3//1
f 2//1 1//1 4//1
f 3//2 2//2 1//2
f 4//2 1//2 2//2
f 4//1 1//1 5//1
f 5//2 1//2 4//2
f 6//1 2//1 4//1
f 4//2 2//2 6//2
f 4//1 5//1 7//1
f 7//2 5//2 4//2
f 4//1 7//1 8//1
f 8//2 7//2 4//2
f 8//1 7//1 9//1
f 9//2 7//2 8//2
f 8//1 9//1 10//1
f 10//2 9//2 8//2
f 8//1 10//1 11//1
f 11//2 10//2 8//2
f 11//1 10//1 12//1
f 12//2 10//2 11//2
f 11//1 12//1 13//1
f 13//2 12//2 11//2
f 13//1 12//1 14//1
f 14//2 12//2 13//2
f 13//1 14//1 15//1
f 15//2 14//2 13//2
f 13//1 15//1 16//1
f 16//2 15//2 13//2
f 16//1 15//1 17//1
f 17//2 15//2 16//2
f 16//1 17//1 18//1
f 18//2 17//2 16//2
f 18//1 17//1 19//1
f 19//2 17//2 18//2
f 18//1 19//1 20//1
f 20//2 19//2 18//2
