# SSTK version 0.8.0
# 192
mtllib original_192.mtl
o mesh109/mesh109-geometry#mesh109-geometry
v -0.893461 0.026569 -0.025350
v -0.894830 0.027145 -0.034456
v -0.894830 0.026569 -0.025350
v -0.893461 0.027145 -0.034456
v -0.890039 0.027223 -0.035674
v -0.898238 0.027223 -0.035674
v -0.890039 0.027145 -0.034456
v -0.898238 0.027145 -0.034456
vn 0 0.998002551082325 0.06317363400321015
vn 0 -0.998002551082325 -0.06317363400321015
usemtl material_0_0
f 1//1 2//1 3//1
f 4//1 2//1 1//1
f 3//2 2//2 1//2
f 1//2 2//2 4//2
f 5//1 2//1 4//1
f 4//2 2//2 5//2
f 6//1 2//1 5//1
f 5//2 2//2 6//2
f 5//1 4//1 7//1
f 7//2 4//2 5//2
f 2//1 6//1 8//1
f 8//2 6//2 2//2
