# SSTK version 0.8.0
# 207
mtllib original_207.mtl
o mesh124/mesh124-geometry#mesh124-geometry
v -0.108353 0.038559 -0.214759
v -0.108425 0.038684 -0.216734
v -0.108506 0.038629 -0.215869
v -0.108181 0.038734 -0.217528
v -0.107896 0.038499 -0.213818
v -0.107775 0.038780 -0.218250
v -0.107123 0.038451 -0.213060
v -0.107207 0.038821 -0.218900
v -0.106505 0.038855 -0.219437
v -0.106428 0.038633 -0.215936
v -0.106022 0.038416 -0.212500
v -0.105695 0.038879 -0.219821
v -0.106239 0.038566 -0.214872
v -0.106236 0.038694 -0.216900
v -0.105672 0.038512 -0.214021
v -0.105661 0.038746 -0.217717
v -0.105638 0.038326 -0.211089
v -0.104777 0.038894 -0.220051
v -0.106141 0.038300 -0.210674
v -0.104803 0.038477 -0.213463
v -0.104794 0.038781 -0.218274
v -0.106553 0.038268 -0.210172
v -0.105075 0.038345 -0.211384
v -0.103730 0.038793 -0.218460
v -0.106848 0.038233 -0.209610
v -0.104450 0.038356 -0.211562
v -0.103753 0.038898 -0.220128
v -0.107361 0.038380 -0.211932
v -0.103707 0.038465 -0.213277
v -0.102722 0.038894 -0.220049
v -0.107024 0.038193 -0.208989
v -0.103764 0.038360 -0.211621
v -0.102673 0.038781 -0.218270
v -0.107083 0.038150 -0.208308
v -0.103061 0.038356 -0.211561
v -0.101797 0.038879 -0.219814
v -0.106860 0.037882 -0.204075
v -0.102639 0.038477 -0.213462
v -0.101805 0.038745 -0.217700
v -0.107670 0.037922 -0.204708
v -0.106980 0.038096 -0.207455
v -0.102419 0.038345 -0.211381
v -0.101225 0.038691 -0.216850
v -0.108327 0.037971 -0.205477
v -0.106671 0.038044 -0.206629
v -0.101783 0.038512 -0.214015
v -0.100977 0.038854 -0.219421
v -0.108353 0.038322 -0.211018
v -0.105932 0.037854 -0.203622
v -0.101839 0.038326 -0.211082
v -0.101032 0.038626 -0.215824
v -0.108797 0.038025 -0.206335
v -0.106159 0.037998 -0.205910
v -0.101320 0.038299 -0.210663
v -0.100308 0.038451 -0.213059
v -0.108967 0.038245 -0.209800
v -0.105446 0.037965 -0.205373
v -0.101382 0.038416 -0.212500
v -0.101219 0.038564 -0.214836
v -0.100264 0.038819 -0.218872
v -0.109078 0.038085 -0.207283
v -0.104884 0.037837 -0.203351
v -0.100040 0.038375 -0.211852
v -0.099547 0.038499 -0.213812
v -0.109172 0.038151 -0.208320
v -0.104602 0.037943 -0.205039
v -0.100892 0.038267 -0.210153
v -0.099686 0.038777 -0.218209
v -0.103719 0.037831 -0.203260
v -0.100587 0.038231 -0.209579
v -0.099273 0.038731 -0.217479
v -0.103696 0.037936 -0.204928
v -0.100404 0.038190 -0.208941
v -0.099094 0.038557 -0.214738
v -0.102553 0.037836 -0.203351
v -0.100343 0.038146 -0.208241
v -0.099026 0.038680 -0.216680
v -0.103000 0.037940 -0.204986
v -0.099767 0.037922 -0.204703
v -0.098943 0.038625 -0.215812
v -0.102367 0.037951 -0.205162
v -0.100402 0.038102 -0.207551
v -0.099062 0.038314 -0.210900
v -0.101506 0.037854 -0.203621
v -0.100577 0.037882 -0.204072
v -0.099110 0.037970 -0.205466
v -0.101797 0.037970 -0.205454
v -0.100580 0.038063 -0.206925
v -0.098641 0.038024 -0.206314
v -0.101291 0.037996 -0.205863
v -0.100876 0.038027 -0.206362
v -0.098465 0.038238 -0.209689
v -0.098360 0.038083 -0.207246
v -0.098266 0.038147 -0.208263
vn 0 0.998002551082325 0.06317363400321015
vn 0 -0.998002551082325 -0.06317363400321015
usemtl material_0_0
f 1//1 2//1 3//1
f 2//1 1//1 4//1
f 3//2 2//2 1//2
f 4//2 1//2 2//2
f 4//1 1//1 5//1
f 5//2 1//2 4//2
f 4//1 5//1 6//1
f 6//2 5//2 4//2
f 6//1 5//1 7//1
f 7//2 5//2 6//2
f 6//1 7//1 8//1
f 8//2 7//2 6//2
f 8//1 7//1 9//1
f 9//2 7//2 8//2
f 9//1 7//1 10//1
f 10//2 7//2 9//2
f 10//1 7//1 11//1
f 11//2 7//2 10//2
f 10//1 12//1 9//1
f 9//2 12//2 10//2
f 10//1 11//1 13//1
f 13//2 11//2 10//2
f 12//1 10//1 14//1
f 14//2 10//2 12//2
f 13//1 11//1 15//1
f 15//2 11//2 13//2
f 12//1 14//1 16//1
f 16//2 14//2 12//2
f 11//1 17//1 15//1
f 15//2 17//2 11//2
f 12//1 16//1 18//1
f 18//2 16//2 12//2
f 11//1 19//1 17//1
f 17//2 19//2 11//2
f 15//1 17//1 20//1
f 20//2 17//2 15//2
f 18//1 16//1 21//1
f 21//2 16//2 18//2
f 11//1 22//1 19//1
f 19//2 22//2 11//2
f 20//1 17//1 23//1
f 23//2 17//2 20//2
f 18//1 21//1 24//1
f 24//2 21//2 18//2
f 11//1 25//1 22//1
f 22//2 25//2 11//2
f 20//1 23//1 26//1
f 26//2 23//2 20//2
f 18//1 24//1 27//1
f 27//2 24//2 18//2
f 28//1 25//1 11//1
f 11//2 25//2 28//2
f 20//1 26//1 29//1
f 29//2 26//2 20//2
f 27//1 24//1 30//1
f 30//2 24//2 27//2
f 25//1 28//1 31//1
f 31//2 28//2 25//2
f 29//1 26//1 32//1
f 32//2 26//2 29//2
f 30//1 24//1 33//1
f 33//2 24//2 30//2
f 31//1 28//1 34//1
f 34//2 28//2 31//2
f 29//1 32//1 35//1
f 35//2 32//2 29//2
f 30//1 33//1 36//1
f 36//2 33//2 30//2
f 28//1 37//1 34//1
f 34//2 37//2 28//2
f 29//1 35//1 38//1
f 38//2 35//2 29//2
f 36//1 33//1 39//1
f 39//2 33//2 36//2
f 28//1 40//1 37//1
f 37//2 40//2 28//2
f 34//1 37//1 41//1
f 41//2 37//2 34//2
f 38//1 35//1 42//1
f 42//2 35//2 38//2
f 36//1 39//1 43//1
f 43//2 39//2 36//2
f 28//1 44//1 40//1
f 40//2 44//2 28//2
f 41//1 37//1 45//1
f 45//2 37//2 41//2
f 38//1 42//1 46//1
f 46//2 42//2 38//2
f 36//1 43//1 47//1
f 47//2 43//2 36//2
f 48//1 44//1 28//1
f 28//2 44//2 48//2
f 45//1 37//1 49//1
f 49//2 37//2 45//2
f 46//1 42//1 50//1
f 50//2 42//2 46//2
f 47//1 43//1 51//1
f 51//2 43//2 47//2
f 48//1 52//1 44//1
f 44//2 52//2 48//2
f 45//1 49//1 53//1
f 53//2 49//2 45//2
f 46//1 50//1 54//1
f 54//2 50//2 46//2
f 51//1 55//1 47//1
f 47//2 55//2 51//2
f 56//1 52//1 48//1
f 48//2 52//2 56//2
f 53//1 49//1 57//1
f 57//2 49//2 53//2
f 46//1 54//1 58//1
f 58//2 54//2 46//2
f 59//1 55//1 51//1
f 51//2 55//2 59//2
f 47//1 55//1 60//1
f 60//2 55//2 47//2
f 56//1 61//1 52//1
f 52//2 61//2 56//2
f 57//1 49//1 62//1
f 62//2 49//2 57//2
f 58//1 54//1 63//1
f 63//2 54//2 58//2
f 58//1 59//1 46//1
f 46//2 59//2 58//2
f 59//1 58//1 55//1
f 55//2 58//2 59//2
f 60//1 55//1 64//1
f 64//2 55//2 60//2
f 61//1 56//1 65//1
f 65//2 56//2 61//2
f 57//1 62//1 66//1
f 66//2 62//2 57//2
f 63//1 54//1 67//1
f 67//2 54//2 63//2
f 60//1 64//1 68//1
f 68//2 64//2 60//2
f 66//1 62//1 69//1
f 69//2 62//2 66//2
f 63//1 67//1 70//1
f 70//2 67//2 63//2
f 68//1 64//1 71//1
f 71//2 64//2 68//2
f 66//1 69//1 72//1
f 72//2 69//2 66//2
f 63//1 70//1 73//1
f 73//2 70//2 63//2
f 71//1 64//1 74//1
f 74//2 64//2 71//2
f 72//1 69//1 75//1
f 75//2 69//2 72//2
f 63//1 73//1 76//1
f 76//2 73//2 63//2
f 71//1 74//1 77//1
f 77//2 74//2 71//2
f 72//1 75//1 78//1
f 78//2 75//2 72//2
f 76//1 79//1 63//1
f 63//2 79//2 76//2
f 77//1 74//1 80//1
f 80//2 74//2 77//2
f 78//1 75//1 81//1
f 81//2 75//2 78//2
f 82//1 79//1 76//1
f 76//2 79//2 82//2
f 63//1 79//1 83//1
f 83//2 79//2 63//2
f 81//1 75//1 84//1
f 84//2 75//2 81//2
f 82//1 85//1 79//1
f 79//2 85//2 82//2
f 83//1 79//1 86//1
f 86//2 79//2 83//2
f 81//1 84//1 87//1
f 87//2 84//2 81//2
f 88//1 85//1 82//1
f 82//2 85//2 88//2
f 83//1 86//1 89//1
f 89//2 86//2 83//2
f 87//1 84//1 90//1
f 90//2 84//2 87//2
f 91//1 85//1 88//1
f 88//2 85//2 91//2
f 83//1 89//1 92//1
f 92//2 89//2 83//2
f 90//1 84//1 85//1
f 85//2 84//2 90//2
f 90//1 85//1 91//1
f 91//2 85//2 90//2
f 92//1 89//1 93//1
f 93//2 89//2 92//2
f 92//1 93//1 94//1
f 94//2 93//2 92//2
