# SSTK version 0.8.0
# 217
mtllib original_217.mtl
o mesh134/mesh134-geometry#mesh134-geometry
v 0.690179 0.027650 -0.042429
v 0.690072 0.027838 -0.045392
v 0.689950 0.027756 -0.044094
v 0.690437 0.027913 -0.046582
v 0.690865 0.027561 -0.041018
v 0.691046 0.027982 -0.047665
v 0.692025 0.027489 -0.039881
v 0.691898 0.028043 -0.048640
v 0.692952 0.028094 -0.049446
v 0.693066 0.027762 -0.044195
v 0.693676 0.027436 -0.039040
v 0.694167 0.028131 -0.050022
v 0.693350 0.027661 -0.042598
v 0.693354 0.027853 -0.045640
v 0.694201 0.027580 -0.041322
v 0.694218 0.027931 -0.046865
v 0.694251 0.027302 -0.036923
v 0.695543 0.028153 -0.050367
v 0.693498 0.027262 -0.036302
v 0.695505 0.027527 -0.040485
v 0.695518 0.027984 -0.047702
v 0.692880 0.027215 -0.035548
v 0.695097 0.027330 -0.037367
v 0.697114 0.028002 -0.047981
v 0.692438 0.027161 -0.034705
v 0.696034 0.027347 -0.037633
v 0.697080 0.028160 -0.050482
v 0.691667 0.027382 -0.038189
v 0.697148 0.027509 -0.040206
v 0.698626 0.028152 -0.050365
v 0.692173 0.027102 -0.033773
v 0.697063 0.027352 -0.037722
v 0.698699 0.027984 -0.047696
v 0.692084 0.027038 -0.032753
v 0.698118 0.027346 -0.037632
v 0.700014 0.028130 -0.050011
v 0.692419 0.026636 -0.026403
v 0.698750 0.027527 -0.040483
v 0.700001 0.027929 -0.046840
v 0.691204 0.026696 -0.027353
v 0.692239 0.026957 -0.031473
v 0.699081 0.027329 -0.037363
v 0.700871 0.027849 -0.045566
v 0.690218 0.026769 -0.028506
v 0.692702 0.026878 -0.030234
v 0.700035 0.027580 -0.041313
v 0.701243 0.028093 -0.049422
v 0.690179 0.027295 -0.036818
v 0.693812 0.026593 -0.025724
v 0.699951 0.027301 -0.036914
v 0.701161 0.027751 -0.044026
v 0.689514 0.026850 -0.029793
v 0.693471 0.026810 -0.029155
v 0.700730 0.027261 -0.036285
v 0.702247 0.027489 -0.039879
v 0.689258 0.027179 -0.034990
v 0.694540 0.026759 -0.028350
v 0.700636 0.027436 -0.039040
v 0.700880 0.027657 -0.042545
v 0.702313 0.028041 -0.048598
v 0.689092 0.026940 -0.031214
v 0.695382 0.026567 -0.025317
v 0.702650 0.027374 -0.038068
v 0.703388 0.027560 -0.041009
v 0.688951 0.027039 -0.032770
v 0.695806 0.026727 -0.027849
v 0.701370 0.027213 -0.035519
v 0.703180 0.027978 -0.047604
v 0.697131 0.026558 -0.025181
v 0.701828 0.027158 -0.034658
v 0.703799 0.027908 -0.046508
v 0.697165 0.026717 -0.027682
v 0.702103 0.027098 -0.033702
v 0.704068 0.027648 -0.042397
v 0.698879 0.026567 -0.025316
v 0.702194 0.027031 -0.032651
v 0.704171 0.027833 -0.045310
v 0.698209 0.026722 -0.027770
v 0.703058 0.026695 -0.027344
v 0.704294 0.027750 -0.044009
v 0.699159 0.026739 -0.028033
v 0.702106 0.026966 -0.031617
v 0.704117 0.027284 -0.036640
v 0.700450 0.026593 -0.025722
v 0.701843 0.026635 -0.026398
v 0.704044 0.026768 -0.028489
v 0.700013 0.026767 -0.028471
v 0.701839 0.026906 -0.030678
v 0.704747 0.026848 -0.029761
v 0.700772 0.026805 -0.029085
v 0.701394 0.026853 -0.029834
v 0.705012 0.027169 -0.034823
v 0.705170 0.026937 -0.031160
v 0.705311 0.027033 -0.032685
vn 0 0.998002551082325 0.06317363400321015
vn 0 -0.998002551082325 -0.06317363400321015
usemtl material_0_0
f 1//1 2//1 3//1
f 2//1 1//1 4//1
f 3//2 2//2 1//2
f 4//2 1//2 2//2
f 4//1 1//1 5//1
f 5//2 1//2 4//2
f 4//1 5//1 6//1
f 6//2 5//2 4//2
f 6//1 5//1 7//1
f 7//2 5//2 6//2
f 6//1 7//1 8//1
f 8//2 7//2 6//2
f 8//1 7//1 9//1
f 9//2 7//2 8//2
f 9//1 7//1 10//1
f 10//2 7//2 9//2
f 10//1 7//1 11//1
f 11//2 7//2 10//2
f 10//1 12//1 9//1
f 9//2 12//2 10//2
f 10//1 11//1 13//1
f 13//2 11//2 10//2
f 12//1 10//1 14//1
f 14//2 10//2 12//2
f 13//1 11//1 15//1
f 15//2 11//2 13//2
f 12//1 14//1 16//1
f 16//2 14//2 12//2
f 11//1 17//1 15//1
f 15//2 17//2 11//2
f 12//1 16//1 18//1
f 18//2 16//2 12//2
f 11//1 19//1 17//1
f 17//2 19//2 11//2
f 15//1 17//1 20//1
f 20//2 17//2 15//2
f 18//1 16//1 21//1
f 21//2 16//2 18//2
f 11//1 22//1 19//1
f 19//2 22//2 11//2
f 20//1 17//1 23//1
f 23//2 17//2 20//2
f 18//1 21//1 24//1
f 24//2 21//2 18//2
f 11//1 25//1 22//1
f 22//2 25//2 11//2
f 20//1 23//1 26//1
f 26//2 23//2 20//2
f 18//1 24//1 27//1
f 27//2 24//2 18//2
f 28//1 25//1 11//1
f 11//2 25//2 28//2
f 20//1 26//1 29//1
f 29//2 26//2 20//2
f 27//1 24//1 30//1
f 30//2 24//2 27//2
f 25//1 28//1 31//1
f 31//2 28//2 25//2
f 29//1 26//1 32//1
f 32//2 26//2 29//2
f 30//1 24//1 33//1
f 33//2 24//2 30//2
f 31//1 28//1 34//1
f 34//2 28//2 31//2
f 29//1 32//1 35//1
f 35//2 32//2 29//2
f 30//1 33//1 36//1
f 36//2 33//2 30//2
f 28//1 37//1 34//1
f 34//2 37//2 28//2
f 29//1 35//1 38//1
f 38//2 35//2 29//2
f 36//1 33//1 39//1
f 39//2 33//2 36//2
f 28//1 40//1 37//1
f 37//2 40//2 28//2
f 34//1 37//1 41//1
f 41//2 37//2 34//2
f 38//1 35//1 42//1
f 42//2 35//2 38//2
f 36//1 39//1 43//1
f 43//2 39//2 36//2
f 28//1 44//1 40//1
f 40//2 44//2 28//2
f 41//1 37//1 45//1
f 45//2 37//2 41//2
f 38//1 42//1 46//1
f 46//2 42//2 38//2
f 36//1 43//1 47//1
f 47//2 43//2 36//2
f 48//1 44//1 28//1
f 28//2 44//2 48//2
f 45//1 37//1 49//1
f 49//2 37//2 45//2
f 46//1 42//1 50//1
f 50//2 42//2 46//2
f 47//1 43//1 51//1
f 51//2 43//2 47//2
f 48//1 52//1 44//1
f 44//2 52//2 48//2
f 45//1 49//1 53//1
f 53//2 49//2 45//2
f 46//1 50//1 54//1
f 54//2 50//2 46//2
f 51//1 55//1 47//1
f 47//2 55//2 51//2
f 56//1 52//1 48//1
f 48//2 52//2 56//2
f 53//1 49//1 57//1
f 57//2 49//2 53//2
f 46//1 54//1 58//1
f 58//2 54//2 46//2
f 59//1 55//1 51//1
f 51//2 55//2 59//2
f 47//1 55//1 60//1
f 60//2 55//2 47//2
f 56//1 61//1 52//1
f 52//2 61//2 56//2
f 57//1 49//1 62//1
f 62//2 49//2 57//2
f 58//1 54//1 63//1
f 63//2 54//2 58//2
f 58//1 59//1 46//1
f 46//2 59//2 58//2
f 59//1 58//1 55//1
f 55//2 58//2 59//2
f 60//1 55//1 64//1
f 64//2 55//2 60//2
f 61//1 56//1 65//1
f 65//2 56//2 61//2
f 57//1 62//1 66//1
f 66//2 62//2 57//2
f 63//1 54//1 67//1
f 67//2 54//2 63//2
f 60//1 64//1 68//1
f 68//2 64//2 60//2
f 66//1 62//1 69//1
f 69//2 62//2 66//2
f 63//1 67//1 70//1
f 70//2 67//2 63//2
f 68//1 64//1 71//1
f 71//2 64//2 68//2
f 66//1 69//1 72//1
f 72//2 69//2 66//2
f 63//1 70//1 73//1
f 73//2 70//2 63//2
f 71//1 64//1 74//1
f 74//2 64//2 71//2
f 72//1 69//1 75//1
f 75//2 69//2 72//2
f 63//1 73//1 76//1
f 76//2 73//2 63//2
f 71//1 74//1 77//1
f 77//2 74//2 71//2
f 72//1 75//1 78//1
f 78//2 75//2 72//2
f 76//1 79//1 63//1
f 63//2 79//2 76//2
f 77//1 74//1 80//1
f 80//2 74//2 77//2
f 78//1 75//1 81//1
f 81//2 75//2 78//2
f 82//1 79//1 76//1
f 76//2 79//2 82//2
f 63//1 79//1 83//1
f 83//2 79//2 63//2
f 81//1 75//1 84//1
f 84//2 75//2 81//2
f 82//1 85//1 79//1
f 79//2 85//2 82//2
f 83//1 79//1 86//1
f 86//2 79//2 83//2
f 81//1 84//1 87//1
f 87//2 84//2 81//2
f 88//1 85//1 82//1
f 82//2 85//2 88//2
f 83//1 86//1 89//1
f 89//2 86//2 83//2
f 87//1 84//1 90//1
f 90//2 84//2 87//2
f 91//1 85//1 88//1
f 88//2 85//2 91//2
f 83//1 89//1 92//1
f 92//2 89//2 83//2
f 90//1 84//1 85//1
f 85//2 84//2 90//2
f 90//1 85//1 91//1
f 91//2 85//2 90//2
f 92//1 89//1 93//1
f 93//2 89//2 92//2
f 92//1 93//1 94//1
f 94//2 93//2 92//2
