# SSTK version 0.8.0
# 245
mtllib original_245.mtl
o mesh162/mesh162-geometry#mesh162-geometry
v -0.666637 0.021835 0.049431
v -0.663912 0.022002 0.046805
v -0.667012 0.021984 0.047076
v -0.665648 0.021703 0.051529
v -0.664107 0.021594 0.053251
v -0.663546 0.021894 0.048498
v -0.662075 0.021516 0.054478
v -0.662888 0.021808 0.049856
v -0.661861 0.021740 0.050933
v -0.659524 0.021469 0.055214
v -0.660390 0.021687 0.051783
v -0.658591 0.021652 0.052334
v -0.656427 0.021454 0.055459
v -0.656580 0.021640 0.052518
v -0.654810 0.021649 0.052378
v -0.653902 0.021469 0.055216
v -0.653260 0.021675 0.051960
v -0.651643 0.021515 0.054487
v -0.652005 0.021717 0.051299
v -0.651118 0.021772 0.050431
v -0.649765 0.021589 0.053321
v -0.650591 0.021836 0.049414
v -0.650415 0.021906 0.048309
v -0.649598 0.022235 0.043119
v -0.650584 0.021976 0.047217
v -0.648383 0.021688 0.051766
v -0.651093 0.022035 0.046273
v -0.648281 0.022147 0.044515
v -0.651482 0.022307 0.041988
v -0.647532 0.021802 0.049959
v -0.651990 0.022086 0.045472
v -0.647506 0.022042 0.046161
v -0.653328 0.022128 0.044811
v -0.647248 0.021924 0.048039
v -0.653601 0.022353 0.041255
v -0.656977 0.022407 0.040408
v -0.657748 0.022204 0.043602
v -0.660218 0.022463 0.039514
v -0.660657 0.022255 0.042806
v -0.661931 0.022518 0.038642
v -0.662541 0.022302 0.042056
v -0.662655 0.022580 0.037662
v -0.662896 0.022657 0.036445
v -0.663684 0.022956 0.031723
v -0.664092 0.022368 0.041014
v -0.661880 0.023022 0.030681
v -0.664996 0.022866 0.033157
v -0.662556 0.022748 0.035019
v -0.665191 0.022448 0.039749
v -0.661533 0.022824 0.033817
v -0.665796 0.022758 0.034850
v -0.659717 0.023062 0.030048
v -0.665845 0.022541 0.038289
v -0.660750 0.022854 0.033340
v -0.666063 0.022644 0.036664
v -0.659765 0.022876 0.032999
v -0.657189 0.022893 0.032726
v -0.657325 0.023076 0.029836
v -0.654727 0.023062 0.030058
v -0.654676 0.022874 0.033026
v -0.652456 0.023020 0.030724
v -0.653682 0.022850 0.033401
v -0.652862 0.022817 0.033926
v -0.652205 0.022774 0.034598
v -0.650591 0.022950 0.031820
v -0.651700 0.022723 0.035414
v -0.651143 0.022592 0.037476
v -0.647993 0.022607 0.037239
v -0.649213 0.022854 0.033335
v -0.648341 0.022738 0.035173
vn 0 0.998002551082325 0.06317363400321015
vn 0 -0.998002551082325 -0.06317363400321015
usemtl material_0_0
f 1//1 2//1 3//1
f 2//1 1//1 4//1
f 3//2 2//2 1//2
f 4//2 1//2 2//2
f 2//1 4//1 5//1
f 5//2 4//2 2//2
f 2//1 5//1 6//1
f 6//2 5//2 2//2
f 6//1 5//1 7//1
f 7//2 5//2 6//2
f 6//1 7//1 8//1
f 8//2 7//2 6//2
f 8//1 7//1 9//1
f 9//2 7//2 8//2
f 9//1 7//1 10//1
f 10//2 7//2 9//2
f 9//1 10//1 11//1
f 11//2 10//2 9//2
f 11//1 10//1 12//1
f 12//2 10//2 11//2
f 12//1 10//1 13//1
f 13//2 10//2 12//2
f 12//1 13//1 14//1
f 14//2 13//2 12//2
f 14//1 13//1 15//1
f 15//2 13//2 14//2
f 15//1 13//1 16//1
f 16//2 13//2 15//2
f 15//1 16//1 17//1
f 17//2 16//2 15//2
f 17//1 16//1 18//1
f 18//2 16//2 17//2
f 17//1 18//1 19//1
f 19//2 18//2 17//2
f 19//1 18//1 20//1
f 20//2 18//2 19//2
f 20//1 18//1 21//1
f 21//2 18//2 20//2
f 20//1 21//1 22//1
f 22//2 21//2 20//2
f 22//1 21//1 23//1
f 23//2 21//2 22//2
f 24//1 23//1 21//1
f 21//2 23//2 24//2
f 24//1 25//1 23//1
f 23//2 25//2 24//2
f 24//1 21//1 26//1
f 26//2 21//2 24//2
f 24//1 27//1 25//1
f 25//2 27//2 24//2
f 24//1 26//1 28//1
f 28//2 26//2 24//2
f 29//1 27//1 24//1
f 24//2 27//2 29//2
f 28//1 26//1 30//1
f 30//2 26//2 28//2
f 29//1 31//1 27//1
f 27//2 31//2 29//2
f 28//1 30//1 32//1
f 32//2 30//2 28//2
f 29//1 33//1 31//1
f 31//2 33//2 29//2
f 32//1 30//1 34//1
f 34//2 30//2 32//2
f 35//1 33//1 29//1
f 29//2 33//2 35//2
f 36//1 33//1 35//1
f 35//2 33//2 36//2
f 36//1 37//1 33//1
f 33//2 37//2 36//2
f 38//1 37//1 36//1
f 36//2 37//2 38//2
f 38//1 39//1 37//1
f 37//2 39//2 38//2
f 40//1 39//1 38//1
f 38//2 39//2 40//2
f 40//1 41//1 39//1
f 39//2 41//2 40//2
f 42//1 41//1 40//1
f 40//2 41//2 42//2
f 43//1 41//1 42//1
f 42//2 41//2 43//2
f 44//1 41//1 43//1
f 43//2 41//2 44//2
f 44//1 45//1 41//1
f 41//2 45//2 44//2
f 43//1 46//1 44//1
f 44//2 46//2 43//2
f 47//1 45//1 44//1
f 44//2 45//2 47//2
f 46//1 43//1 48//1
f 48//2 43//2 46//2
f 47//1 49//1 45//1
f 45//2 49//2 47//2
f 46//1 48//1 50//1
f 50//2 48//2 46//2
f 51//1 49//1 47//1
f 47//2 49//2 51//2
f 46//1 50//1 52//1
f 52//2 50//2 46//2
f 51//1 53//1 49//1
f 49//2 53//2 51//2
f 52//1 50//1 54//1
f 54//2 50//2 52//2
f 53//1 51//1 55//1
f 55//2 51//2 53//2
f 52//1 54//1 56//1
f 56//2 54//2 52//2
f 52//1 56//1 57//1
f 57//2 56//2 52//2
f 52//1 57//1 58//1
f 58//2 57//2 52//2
f 58//1 57//1 59//1
f 59//2 57//2 58//2
f 59//1 57//1 60//1
f 60//2 57//2 59//2
f 59//1 60//1 61//1
f 61//2 60//2 59//2
f 61//1 60//1 62//1
f 62//2 60//2 61//2
f 61//1 62//1 63//1
f 63//2 62//2 61//2
f 61//1 63//1 64//1
f 64//2 63//2 61//2
f 61//1 64//1 65//1
f 65//2 64//2 61//2
f 65//1 64//1 66//1
f 66//2 64//2 65//2
f 65//1 66//1 67//1
f 67//2 66//2 65//2
f 65//1 67//1 68//1
f 68//2 67//2 65//2
f 65//1 68//1 69//1
f 69//2 68//2 65//2
f 69//1 68//1 70//1
f 70//2 68//2 69//2
