# SSTK version 0.8.0
# 323
mtllib original_323.mtl
o mesh240/mesh240-geometry#mesh240-geometry
v 0.497013 0.032218 -0.114591
v 0.494360 0.032295 -0.115810
v 0.494360 0.032218 -0.114591
v 0.497034 0.032295 -0.115810
v 0.494360 0.032529 -0.119500
v 0.498025 0.032222 -0.114648
v 0.494360 0.031952 -0.110394
v 0.498168 0.032303 -0.115933
v 0.492991 0.032606 -0.120718
v 0.498869 0.032232 -0.114819
v 0.492991 0.031952 -0.110394
v 0.496893 0.032606 -0.120718
v 0.498591 0.032313 -0.116087
v 0.497006 0.032529 -0.119500
v 0.498918 0.032326 -0.116303
v 0.498466 0.032600 -0.120619
v 0.499542 0.032250 -0.115104
v 0.498283 0.032523 -0.119408
v 0.499162 0.032344 -0.116574
v 0.498767 0.032509 -0.119182
v 0.499336 0.032364 -0.116896
v 0.499167 0.032588 -0.120435
v 0.499475 0.032414 -0.117690
v 0.499147 0.032484 -0.118799
v 0.499744 0.032569 -0.120137
v 0.499393 0.032452 -0.118291
v 0.500047 0.032276 -0.115503
v 0.500208 0.032542 -0.119710
v 0.500414 0.032306 -0.115985
v 0.500573 0.032506 -0.119141
v 0.500677 0.032340 -0.116516
v 0.500808 0.032463 -0.118468
v 0.500834 0.032377 -0.117099
v 0.500887 0.032417 -0.117732
vn 0 0.998002551082325 0.06317363400321015
vn 0 -0.998002551082325 -0.06317363400321015
usemtl material_0_0
f 1//1 2//1 3//1
f 2//1 1//1 4//1
f 3//2 2//2 1//2
f 4//2 1//2 2//2
f 5//1 3//1 2//1
f 2//2 3//2 5//2
f 4//1 1//1 6//1
f 6//2 1//2 4//2
f 5//1 7//1 3//1
f 3//2 7//2 5//2
f 4//1 6//1 8//1
f 8//2 6//2 4//2
f 9//1 7//1 5//1
f 5//2 7//2 9//2
f 8//1 6//1 10//1
f 10//2 6//2 8//2
f 7//1 9//1 11//1
f 11//2 9//2 7//2
f 9//1 5//1 12//1
f 12//2 5//2 9//2
f 8//1 10//1 13//1
f 13//2 10//2 8//2
f 12//1 5//1 14//1
f 14//2 5//2 12//2
f 13//1 10//1 15//1
f 15//2 10//2 13//2
f 12//1 14//1 16//1
f 16//2 14//2 12//2
f 15//1 10//1 17//1
f 17//2 10//2 15//2
f 16//1 14//1 18//1
f 18//2 14//2 16//2
f 15//1 17//1 19//1
f 19//2 17//2 15//2
f 16//1 18//1 20//1
f 20//2 18//2 16//2
f 19//1 17//1 21//1
f 21//2 17//2 19//2
f 16//1 20//1 22//1
f 22//2 20//2 16//2
f 21//1 17//1 23//1
f 23//2 17//2 21//2
f 22//1 20//1 24//1
f 24//2 20//2 22//2
f 25//1 23//1 17//1
f 17//2 23//2 25//2
f 22//1 24//1 26//1
f 26//2 24//2 22//2
f 25//1 26//1 23//1
f 23//2 26//2 25//2
f 25//1 17//1 27//1
f 27//2 17//2 25//2
f 22//1 26//1 25//1
f 25//2 26//2 22//2
f 25//1 27//1 28//1
f 28//2 27//2 25//2
f 28//1 27//1 29//1
f 29//2 27//2 28//2
f 28//1 29//1 30//1
f 30//2 29//2 28//2
f 30//1 29//1 31//1
f 31//2 29//2 30//2
f 30//1 31//1 32//1
f 32//2 31//2 30//2
f 32//1 31//1 33//1
f 33//2 31//2 32//2
f 32//1 33//1 34//1
f 34//2 33//2 32//2
