# SSTK version 0.8.0
# 118
mtllib original_118.mtl
o mesh35/mesh35-geometry#mesh35-geometry
v -0.280844 0.026677 -0.027048
v -0.280494 0.027071 -0.033279
v -0.280644 0.027248 -0.036082
v -0.279814 0.026634 -0.026381
v -0.280644 0.028153 -0.050381
v -0.280043 0.026947 -0.031325
v -0.281715 0.026727 -0.027849
v -0.279226 0.026862 -0.029970
v -0.282427 0.026786 -0.028785
v -0.278625 0.026601 -0.025856
v -0.282981 0.026854 -0.029854
v -0.277977 0.026798 -0.028967
v -0.283692 0.027024 -0.032544
v -0.277278 0.026577 -0.025481
v -0.283929 0.028153 -0.050381
v -0.276349 0.026759 -0.028346
v -0.283929 0.027247 -0.036065
v -0.274107 0.026558 -0.025181
v -0.274395 0.026746 -0.028139
v -0.272713 0.026752 -0.028241
v -0.272398 0.026564 -0.025267
v -0.271291 0.026772 -0.028549
v -0.270862 0.026580 -0.025525
v -0.270130 0.026804 -0.029061
v -0.269498 0.026607 -0.025956
v -0.269230 0.026849 -0.029778
v -0.268307 0.026646 -0.026558
v -0.268555 0.026913 -0.030787
v -0.268074 0.027001 -0.032174
v -0.266437 0.026746 -0.028141
v -0.267785 0.027113 -0.033939
v -0.267688 0.027248 -0.036082
v -0.267688 0.028153 -0.050381
v -0.264403 0.028153 -0.050381
v -0.265758 0.026806 -0.029086
v -0.265250 0.026872 -0.030133
v -0.264615 0.027035 -0.032715
v -0.264403 0.027247 -0.036065
vn 0 0.998002551082325 0.06317363400321015
vn 0 -0.998002551082325 -0.06317363400321015
usemtl material_0_0
f 1//1 2//1 3//1
f 2//1 1//1 4//1
f 3//2 2//2 1//2
f 4//2 1//2 2//2
f 5//1 1//1 3//1
f 3//2 1//2 5//2
f 2//1 4//1 6//1
f 6//2 4//2 2//2
f 5//1 7//1 1//1
f 1//2 7//2 5//2
f 6//1 4//1 8//1
f 8//2 4//2 6//2
f 5//1 9//1 7//1
f 7//2 9//2 5//2
f 8//1 4//1 10//1
f 10//2 4//2 8//2
f 5//1 11//1 9//1
f 9//2 11//2 5//2
f 8//1 10//1 12//1
f 12//2 10//2 8//2
f 5//1 13//1 11//1
f 11//2 13//2 5//2
f 12//1 10//1 14//1
f 14//2 10//2 12//2
f 15//1 13//1 5//1
f 5//2 13//2 15//2
f 12//1 14//1 16//1
f 16//2 14//2 12//2
f 13//1 15//1 17//1
f 17//2 15//2 13//2
f 16//1 14//1 18//1
f 18//2 14//2 16//2
f 16//1 18//1 19//1
f 19//2 18//2 16//2
f 19//1 18//1 20//1
f 20//2 18//2 19//2
f 20//1 18//1 21//1
f 21//2 18//2 20//2
f 20//1 21//1 22//1
f 22//2 21//2 20//2
f 22//1 21//1 23//1
f 23//2 21//2 22//2
f 22//1 23//1 24//1
f 24//2 23//2 22//2
f 24//1 23//1 25//1
f 25//2 23//2 24//2
f 24//1 25//1 26//1
f 26//2 25//2 24//2
f 26//1 25//1 27//1
f 27//2 25//2 26//2
f 26//1 27//1 28//1
f 28//2 27//2 26//2
f 28//1 27//1 29//1
f 29//2 27//2 28//2
f 29//1 27//1 30//1
f 30//2 27//2 29//2
f 29//1 30//1 31//1
f 31//2 30//2 29//2
f 31//1 30//1 32//1
f 32//2 30//2 31//2
f 32//1 30//1 33//1
f 33//2 30//2 32//2
f 33//1 30//1 34//1
f 34//2 30//2 33//2
f 34//1 30//1 35//1
f 35//2 30//2 34//2
f 34//1 35//1 36//1
f 36//2 35//2 34//2
f 34//1 36//1 37//1
f 37//2 36//2 34//2
f 34//1 37//1 38//1
f 38//2 37//2 34//2
