# SSTK version 0.8.0
# 148
mtllib original_148.mtl
o mesh65/mesh65-geometry#mesh65-geometry
v 0.861991 0.014112 0.173442
v 0.861991 0.014223 0.171690
v 0.861930 0.014166 0.172581
v 0.862171 0.014064 0.174202
v 0.862174 0.014273 0.170905
v 0.862472 0.014022 0.174860
v 0.862478 0.014316 0.170226
v 0.862894 0.013987 0.175416
v 0.862904 0.014352 0.169652
v 0.863418 0.013959 0.175858
v 0.863243 0.014150 0.172842
v 0.863313 0.014113 0.173422
v 0.863427 0.014381 0.169196
v 0.863453 0.014081 0.173930
v 0.863314 0.014216 0.171800
v 0.864027 0.013939 0.176174
v 0.868832 0.014150 0.172842
v 0.863510 0.014272 0.170919
v 0.863662 0.014054 0.174366
v 0.865406 0.014216 0.171800
v 0.864023 0.014401 0.168870
v 0.863942 0.014031 0.174729
v 0.867498 0.014216 0.171800
v 0.863708 0.014295 0.170553
v 0.864275 0.014012 0.175016
v 0.867886 0.014353 0.169631
v 0.863973 0.014315 0.170236
v 0.864721 0.013927 0.176363
v 0.868303 0.014318 0.170193
v 0.867375 0.014382 0.169184
v 0.864289 0.014331 0.169980
v 0.864647 0.013999 0.175220
v 0.868600 0.014275 0.170859
v 0.867336 0.014268 0.170974
v 0.864690 0.014414 0.168675
v 0.865058 0.013992 0.175343
v 0.868779 0.014227 0.171630
v 0.867018 0.014306 0.170384
v 0.864639 0.014343 0.169798
v 0.865501 0.013923 0.176426
v 0.868839 0.014171 0.172504
v 0.866796 0.014402 0.168865
v 0.865445 0.014352 0.169652
v 0.865508 0.013989 0.175384
v 0.866692 0.014326 0.170064
v 0.865430 0.014418 0.168609
v 0.866125 0.013926 0.176387
v 0.866321 0.014340 0.169835
v 0.866148 0.014414 0.168673
v 0.866155 0.013995 0.175293
v 0.865905 0.014349 0.169697
v 0.866690 0.013933 0.176268
v 0.866701 0.014012 0.175018
v 0.867197 0.013946 0.176070
v 0.867143 0.014042 0.174543
v 0.867484 0.014086 0.173849
v 0.867646 0.013963 0.175793
v 0.868796 0.014076 0.174011
v 0.868033 0.013985 0.175443
v 0.868354 0.014011 0.175030
v 0.868608 0.014042 0.174553
vn 0 0.998002551082325 0.06317363400321015
vn 0 -0.998002551082325 -0.06317363400321015
usemtl material_0_0
f 1//1 2//1 3//1
f 2//1 1//1 4//1
f 3//2 2//2 1//2
f 4//2 1//2 2//2
f 2//1 4//1 5//1
f 5//2 4//2 2//2
f 5//1 4//1 6//1
f 6//2 4//2 5//2
f 5//1 6//1 7//1
f 7//2 6//2 5//2
f 7//1 6//1 8//1
f 8//2 6//2 7//2
f 7//1 8//1 9//1
f 9//2 8//2 7//2
f 9//1 8//1 10//1
f 10//2 8//2 9//2
f 9//1 10//1 11//1
f 11//2 10//2 9//2
f 11//1 10//1 12//1
f 12//2 10//2 11//2
f 11//1 13//1 9//1
f 9//2 13//2 11//2
f 12//1 10//1 14//1
f 14//2 10//2 12//2
f 13//1 11//1 15//1
f 15//2 11//2 13//2
f 14//1 10//1 16//1
f 16//2 10//2 14//2
f 17//1 15//1 11//1
f 11//2 15//2 17//2
f 13//1 15//1 18//1
f 18//2 15//2 13//2
f 14//1 16//1 19//1
f 19//2 16//2 14//2
f 15//1 17//1 20//1
f 20//2 17//2 15//2
f 13//1 18//1 21//1
f 21//2 18//2 13//2
f 19//1 16//1 22//1
f 22//2 16//2 19//2
f 20//1 17//1 23//1
f 23//2 17//2 20//2
f 21//1 18//1 24//1
f 24//2 18//2 21//2
f 22//1 16//1 25//1
f 25//2 16//2 22//2
f 23//1 17//1 26//1
f 26//2 17//2 23//2
f 21//1 24//1 27//1
f 27//2 24//2 21//2
f 25//1 16//1 28//1
f 28//2 16//2 25//2
f 26//1 17//1 29//1
f 29//2 17//2 26//2
f 30//1 23//1 26//1
f 26//2 23//2 30//2
f 21//1 27//1 31//1
f 31//2 27//2 21//2
f 25//1 28//1 32//1
f 32//2 28//2 25//2
f 29//1 17//1 33//1
f 33//2 17//2 29//2
f 30//1 34//1 23//1
f 23//2 34//2 30//2
f 21//1 31//1 35//1
f 35//2 31//2 21//2
f 32//1 28//1 36//1
f 36//2 28//2 32//2
f 33//1 17//1 37//1
f 37//2 17//2 33//2
f 30//1 38//1 34//1
f 34//2 38//2 30//2
f 35//1 31//1 39//1
f 39//2 31//2 35//2
f 36//1 28//1 40//1
f 40//2 28//2 36//2
f 37//1 17//1 41//1
f 41//2 17//2 37//2
f 42//1 38//1 30//1
f 30//2 38//2 42//2
f 35//1 39//1 43//1
f 43//2 39//2 35//2
f 36//1 40//1 44//1
f 44//2 40//2 36//2
f 42//1 45//1 38//1
f 38//2 45//2 42//2
f 35//1 43//1 46//1
f 46//2 43//2 35//2
f 44//1 40//1 47//1
f 47//2 40//2 44//2
f 42//1 48//1 45//1
f 45//2 48//2 42//2
f 46//1 43//1 49//1
f 49//2 43//2 46//2
f 44//1 47//1 50//1
f 50//2 47//2 44//2
f 49//1 48//1 42//1
f 42//2 48//2 49//2
f 49//1 43//1 51//1
f 51//2 43//2 49//2
f 50//1 47//1 52//1
f 52//2 47//2 50//2
f 49//1 51//1 48//1
f 48//2 51//2 49//2
f 50//1 52//1 53//1
f 53//2 52//2 50//2
f 53//1 52//1 54//1
f 54//2 52//2 53//2
f 53//1 54//1 55//1
f 55//2 54//2 53//2
f 55//1 54//1 56//1
f 56//2 54//2 55//2
f 56//1 54//1 57//1
f 57//2 54//2 56//2
f 56//1 57//1 58//1
f 58//2 57//2 56//2
f 58//1 57//1 59//1
f 59//2 57//2 58//2
f 58//1 59//1 60//1
f 60//2 59//2 58//2
f 58//1 60//1 61//1
f 61//2 60//2 58//2
