# SSTK version 0.8.0
# 316
mtllib original_316.mtl
o mesh233/mesh233-geometry#mesh233-geometry
v 0.518174 0.038156 -0.208400
v 0.519290 0.038204 -0.209155
v 0.518034 0.038191 -0.208958
v 0.518384 0.038125 -0.207914
v 0.518663 0.038099 -0.207502
v 0.519011 0.038078 -0.207162
v 0.519437 0.038061 -0.206897
v 0.519490 0.038162 -0.208490
v 0.519950 0.038049 -0.206708
v 0.519879 0.038131 -0.208000
v 0.520458 0.038112 -0.207699
v 0.520550 0.038042 -0.206594
v 0.521230 0.038105 -0.207599
v 0.521237 0.038039 -0.206557
v 0.521992 0.038111 -0.207688
v 0.522073 0.038044 -0.206633
v 0.522528 0.038128 -0.207955
v 0.522818 0.038059 -0.206863
v 0.522846 0.038152 -0.208341
v 0.523434 0.038082 -0.207233
v 0.522952 0.038181 -0.208789
v 0.523118 0.038300 -0.210673
v 0.523593 0.038282 -0.210392
v 0.522858 0.038205 -0.209173
v 0.523887 0.038114 -0.207729
v 0.522578 0.038224 -0.209465
v 0.523954 0.038258 -0.210007
v 0.521279 0.038251 -0.209895
v 0.524165 0.038150 -0.208308
v 0.521237 0.038337 -0.211261
v 0.524181 0.038227 -0.209518
v 0.520115 0.038358 -0.211585
v 0.524257 0.038189 -0.208923
v 0.520097 0.038272 -0.210223
v 0.519828 0.038367 -0.211736
v 0.519628 0.038379 -0.211923
v 0.519512 0.038392 -0.212132
v 0.519343 0.038289 -0.210504
v 0.519473 0.038407 -0.212366
v 0.519099 0.038501 -0.213852
v 0.518868 0.038309 -0.210810
v 0.519907 0.038525 -0.214222
v 0.518745 0.038481 -0.213535
v 0.519567 0.038430 -0.212729
v 0.518524 0.038334 -0.211215
v 0.519847 0.038450 -0.213043
v 0.518475 0.038456 -0.213145
v 0.520346 0.038464 -0.213259
v 0.518315 0.038365 -0.211693
v 0.520437 0.038532 -0.214336
v 0.518303 0.038428 -0.212700
v 0.521096 0.038468 -0.213331
v 0.518245 0.038398 -0.212219
v 0.521004 0.038534 -0.214374
v 0.521833 0.038530 -0.214310
v 0.521753 0.038463 -0.213250
v 0.522243 0.038448 -0.213007
v 0.522553 0.038518 -0.214120
v 0.522568 0.038423 -0.212620
v 0.523133 0.038499 -0.213822
v 0.522733 0.038391 -0.212106
v 0.523975 0.038401 -0.212275
v 0.523537 0.038475 -0.213433
v 0.523806 0.038443 -0.212927
vn 0 0.998002551082325 0.06317363400321015
vn 0 -0.998002551082325 -0.06317363400321015
usemtl material_0_0
f 1//1 2//1 3//1
f 2//1 1//1 4//1
f 3//2 2//2 1//2
f 4//2 1//2 2//2
f 2//1 4//1 5//1
f 5//2 4//2 2//2
f 2//1 5//1 6//1
f 6//2 5//2 2//2
f 2//1 6//1 7//1
f 7//2 6//2 2//2
f 2//1 7//1 8//1
f 8//2 7//2 2//2
f 8//1 7//1 9//1
f 9//2 7//2 8//2
f 8//1 9//1 10//1
f 10//2 9//2 8//2
f 10//1 9//1 11//1
f 11//2 9//2 10//2
f 11//1 9//1 12//1
f 12//2 9//2 11//2
f 11//1 12//1 13//1
f 13//2 12//2 11//2
f 13//1 12//1 14//1
f 14//2 12//2 13//2
f 13//1 14//1 15//1
f 15//2 14//2 13//2
f 15//1 14//1 16//1
f 16//2 14//2 15//2
f 15//1 16//1 17//1
f 17//2 16//2 15//2
f 17//1 16//1 18//1
f 18//2 16//2 17//2
f 17//1 18//1 19//1
f 19//2 18//2 17//2
f 19//1 18//1 20//1
f 20//2 18//2 19//2
f 19//1 20//1 21//1
f 21//2 20//2 19//2
f 21//1 20//1 22//1
f 22//2 20//2 21//2
f 22//1 20//1 23//1
f 23//2 20//2 22//2
f 22//1 24//1 21//1
f 21//2 24//2 22//2
f 23//1 20//1 25//1
f 25//2 20//2 23//2
f 22//1 26//1 24//1
f 24//2 26//2 22//2
f 23//1 25//1 27//1
f 27//2 25//2 23//2
f 22//1 28//1 26//1
f 26//2 28//2 22//2
f 27//1 25//1 29//1
f 29//2 25//2 27//2
f 30//1 28//1 22//1
f 22//2 28//2 30//2
f 27//1 29//1 31//1
f 31//2 29//2 27//2
f 32//1 28//1 30//1
f 30//2 28//2 32//2
f 31//1 29//1 33//1
f 33//2 29//2 31//2
f 32//1 34//1 28//1
f 28//2 34//2 32//2
f 35//1 34//1 32//1
f 32//2 34//2 35//2
f 36//1 34//1 35//1
f 35//2 34//2 36//2
f 37//1 34//1 36//1
f 36//2 34//2 37//2
f 37//1 38//1 34//1
f 34//2 38//2 37//2
f 38//1 37//1 39//1
f 39//2 37//2 38//2
f 40//1 38//1 39//1
f 39//2 38//2 40//2
f 40//1 41//1 38//1
f 38//2 41//2 40//2
f 40//1 39//1 42//1
f 42//2 39//2 40//2
f 43//1 41//1 40//1
f 40//2 41//2 43//2
f 42//1 39//1 44//1
f 44//2 39//2 42//2
f 43//1 45//1 41//1
f 41//2 45//2 43//2
f 42//1 44//1 46//1
f 46//2 44//2 42//2
f 47//1 45//1 43//1
f 43//2 45//2 47//2
f 42//1 46//1 48//1
f 48//2 46//2 42//2
f 47//1 49//1 45//1
f 45//2 49//2 47//2
f 42//1 48//1 50//1
f 50//2 48//2 42//2
f 51//1 49//1 47//1
f 47//2 49//2 51//2
f 50//1 48//1 52//1
f 52//2 48//2 50//2
f 49//1 51//1 53//1
f 53//2 51//2 49//2
f 50//1 52//1 54//1
f 54//2 52//2 50//2
f 54//1 52//1 55//1
f 55//2 52//2 54//2
f 55//1 52//1 56//1
f 56//2 52//2 55//2
f 55//1 56//1 57//1
f 57//2 56//2 55//2
f 55//1 57//1 58//1
f 58//2 57//2 55//2
f 58//1 57//1 59//1
f 59//2 57//2 58//2
f 58//1 59//1 60//1
f 60//2 59//2 58//2
f 60//1 59//1 61//1
f 61//2 59//2 60//2
f 60//1 61//1 62//1
f 62//2 61//2 60//2
f 60//1 62//1 63//1
f 63//2 62//2 60//2
f 63//1 62//1 64//1
f 64//2 62//2 63//2
