# SSTK version 0.8.0
# 315
mtllib original_315.mtl
o mesh232/mesh232-geometry#mesh232-geometry
v 0.525404 0.038228 -0.209541
v 0.525405 0.038339 -0.211293
v 0.525344 0.038283 -0.210402
v 0.525585 0.038180 -0.208781
v 0.525587 0.038389 -0.212078
v 0.525886 0.038139 -0.208123
v 0.525892 0.038432 -0.212757
v 0.526307 0.038103 -0.207567
v 0.526318 0.038468 -0.213331
v 0.526831 0.038075 -0.207125
v 0.526656 0.038266 -0.210141
v 0.526727 0.038230 -0.209561
v 0.526841 0.038497 -0.213787
v 0.526866 0.038197 -0.209053
v 0.526727 0.038332 -0.211183
v 0.527441 0.038055 -0.206809
v 0.532245 0.038266 -0.210141
v 0.526924 0.038388 -0.212064
v 0.527076 0.038170 -0.208617
v 0.528819 0.038332 -0.211183
v 0.527436 0.038518 -0.214113
v 0.527355 0.038147 -0.208254
v 0.530911 0.038332 -0.211183
v 0.527122 0.038411 -0.212430
v 0.527688 0.038129 -0.207967
v 0.531299 0.038470 -0.213352
v 0.527387 0.038431 -0.212747
v 0.528135 0.038043 -0.206620
v 0.531716 0.038434 -0.212790
v 0.530789 0.038498 -0.213799
v 0.527702 0.038447 -0.213002
v 0.528061 0.038116 -0.207763
v 0.532014 0.038392 -0.212124
v 0.530749 0.038385 -0.212009
v 0.528104 0.038530 -0.214308
v 0.528472 0.038108 -0.207640
v 0.532193 0.038343 -0.211353
v 0.530432 0.038422 -0.212599
v 0.528053 0.038459 -0.213185
v 0.528914 0.038039 -0.206557
v 0.532252 0.038288 -0.210479
v 0.530209 0.038518 -0.214118
v 0.528858 0.038468 -0.213331
v 0.528921 0.038105 -0.207599
v 0.530106 0.038442 -0.212919
v 0.528844 0.038534 -0.214374
v 0.529538 0.038042 -0.206596
v 0.529735 0.038457 -0.213148
v 0.529561 0.038530 -0.214310
v 0.529569 0.038111 -0.207690
v 0.529319 0.038465 -0.213285
v 0.530103 0.038049 -0.206715
v 0.530114 0.038129 -0.207965
v 0.530611 0.038062 -0.206913
v 0.530557 0.038159 -0.208440
v 0.530897 0.038203 -0.209134
v 0.531060 0.038080 -0.207190
v 0.532210 0.038192 -0.208972
v 0.531446 0.038102 -0.207539
v 0.531767 0.038128 -0.207953
v 0.532021 0.038158 -0.208430
vn 0 0.998002551082325 0.06317363400321015
vn 0 -0.998002551082325 -0.06317363400321015
usemtl material_0_0
f 1//1 2//1 3//1
f 2//1 1//1 4//1
f 3//2 2//2 1//2
f 4//2 1//2 2//2
f 2//1 4//1 5//1
f 5//2 4//2 2//2
f 5//1 4//1 6//1
f 6//2 4//2 5//2
f 5//1 6//1 7//1
f 7//2 6//2 5//2
f 7//1 6//1 8//1
f 8//2 6//2 7//2
f 7//1 8//1 9//1
f 9//2 8//2 7//2
f 9//1 8//1 10//1
f 10//2 8//2 9//2
f 9//1 10//1 11//1
f 11//2 10//2 9//2
f 11//1 10//1 12//1
f 12//2 10//2 11//2
f 11//1 13//1 9//1
f 9//2 13//2 11//2
f 12//1 10//1 14//1
f 14//2 10//2 12//2
f 13//1 11//1 15//1
f 15//2 11//2 13//2
f 14//1 10//1 16//1
f 16//2 10//2 14//2
f 17//1 15//1 11//1
f 11//2 15//2 17//2
f 13//1 15//1 18//1
f 18//2 15//2 13//2
f 14//1 16//1 19//1
f 19//2 16//2 14//2
f 15//1 17//1 20//1
f 20//2 17//2 15//2
f 13//1 18//1 21//1
f 21//2 18//2 13//2
f 19//1 16//1 22//1
f 22//2 16//2 19//2
f 20//1 17//1 23//1
f 23//2 17//2 20//2
f 21//1 18//1 24//1
f 24//2 18//2 21//2
f 22//1 16//1 25//1
f 25//2 16//2 22//2
f 23//1 17//1 26//1
f 26//2 17//2 23//2
f 21//1 24//1 27//1
f 27//2 24//2 21//2
f 25//1 16//1 28//1
f 28//2 16//2 25//2
f 26//1 17//1 29//1
f 29//2 17//2 26//2
f 30//1 23//1 26//1
f 26//2 23//2 30//2
f 21//1 27//1 31//1
f 31//2 27//2 21//2
f 25//1 28//1 32//1
f 32//2 28//2 25//2
f 29//1 17//1 33//1
f 33//2 17//2 29//2
f 30//1 34//1 23//1
f 23//2 34//2 30//2
f 21//1 31//1 35//1
f 35//2 31//2 21//2
f 32//1 28//1 36//1
f 36//2 28//2 32//2
f 33//1 17//1 37//1
f 37//2 17//2 33//2
f 30//1 38//1 34//1
f 34//2 38//2 30//2
f 35//1 31//1 39//1
f 39//2 31//2 35//2
f 36//1 28//1 40//1
f 40//2 28//2 36//2
f 37//1 17//1 41//1
f 41//2 17//2 37//2
f 42//1 38//1 30//1
f 30//2 38//2 42//2
f 35//1 39//1 43//1
f 43//2 39//2 35//2
f 36//1 40//1 44//1
f 44//2 40//2 36//2
f 42//1 45//1 38//1
f 38//2 45//2 42//2
f 35//1 43//1 46//1
f 46//2 43//2 35//2
f 44//1 40//1 47//1
f 47//2 40//2 44//2
f 42//1 48//1 45//1
f 45//2 48//2 42//2
f 46//1 43//1 49//1
f 49//2 43//2 46//2
f 44//1 47//1 50//1
f 50//2 47//2 44//2
f 49//1 48//1 42//1
f 42//2 48//2 49//2
f 49//1 43//1 51//1
f 51//2 43//2 49//2
f 50//1 47//1 52//1
f 52//2 47//2 50//2
f 49//1 51//1 48//1
f 48//2 51//2 49//2
f 50//1 52//1 53//1
f 53//2 52//2 50//2
f 53//1 52//1 54//1
f 54//2 52//2 53//2
f 53//1 54//1 55//1
f 55//2 54//2 53//2
f 55//1 54//1 56//1
f 56//2 54//2 55//2
f 56//1 54//1 57//1
f 57//2 54//2 56//2
f 56//1 57//1 58//1
f 58//2 57//2 56//2
f 58//1 57//1 59//1
f 59//2 57//2 58//2
f 58//1 59//1 60//1
f 60//2 59//2 58//2
f 58//1 60//1 61//1
f 61//2 60//2 58//2
