# SSTK version 0.8.0
# 113
mtllib original_113.mtl
o mesh30/mesh30-geometry#mesh30-geometry
v -0.240718 0.032755 -0.123069
v -0.240824 0.032942 -0.126032
v -0.240946 0.032860 -0.124733
v -0.240459 0.033018 -0.127222
v -0.240032 0.032665 -0.121657
v -0.239851 0.033086 -0.128305
v -0.238872 0.032593 -0.120521
v -0.238999 0.033148 -0.129280
v -0.237944 0.033199 -0.130086
v -0.237830 0.032866 -0.124835
v -0.237220 0.032540 -0.119680
v -0.236729 0.033235 -0.130661
v -0.237546 0.032765 -0.123238
v -0.237542 0.032958 -0.126280
v -0.236695 0.032685 -0.121961
v -0.236678 0.033035 -0.127505
v -0.236645 0.032406 -0.117563
v -0.235353 0.033257 -0.131007
v -0.237398 0.032367 -0.116942
v -0.235391 0.032632 -0.121125
v -0.235379 0.033088 -0.128342
v -0.238017 0.032319 -0.116188
v -0.235800 0.032434 -0.118007
v -0.233783 0.033106 -0.128621
v -0.238459 0.032266 -0.115345
v -0.234863 0.032451 -0.118273
v -0.233816 0.033264 -0.131122
v -0.239229 0.032486 -0.118828
v -0.233749 0.032614 -0.120846
v -0.232270 0.033257 -0.131004
v -0.238724 0.032207 -0.114413
v -0.233833 0.032457 -0.118362
v -0.232197 0.033088 -0.128335
v -0.238812 0.032142 -0.113393
v -0.232779 0.032451 -0.118272
v -0.230882 0.033235 -0.130651
v -0.238478 0.031740 -0.107042
v -0.232146 0.032631 -0.121123
v -0.230895 0.033034 -0.127480
v -0.239693 0.031800 -0.107993
v -0.238658 0.032061 -0.112112
v -0.231816 0.032434 -0.118002
v -0.230025 0.032953 -0.126206
v -0.240678 0.031873 -0.109146
v -0.238194 0.031983 -0.110874
v -0.230861 0.032684 -0.121953
v -0.229654 0.033197 -0.130062
v -0.240718 0.032399 -0.117457
v -0.237085 0.031697 -0.106364
v -0.230945 0.032406 -0.117553
v -0.229735 0.032856 -0.124666
v -0.241382 0.031955 -0.110433
v -0.237426 0.031914 -0.109795
v -0.230167 0.032366 -0.116925
v -0.228649 0.032593 -0.120519
v -0.241638 0.032284 -0.115630
v -0.236357 0.031863 -0.108990
v -0.230260 0.032540 -0.119680
v -0.230017 0.032762 -0.123185
v -0.228583 0.033145 -0.129238
v -0.241805 0.032045 -0.111854
v -0.235514 0.031671 -0.105956
v -0.228247 0.032479 -0.118708
v -0.227508 0.032665 -0.121649
v -0.241945 0.032143 -0.113409
v -0.235091 0.031832 -0.108489
v -0.229526 0.032317 -0.116159
v -0.227717 0.033082 -0.128244
v -0.233766 0.031663 -0.105821
v -0.229068 0.032263 -0.115298
v -0.227097 0.033013 -0.127148
v -0.233732 0.031821 -0.108322
v -0.228794 0.032202 -0.114342
v -0.226829 0.032753 -0.123037
v -0.232017 0.031671 -0.105956
v -0.228702 0.032136 -0.113291
v -0.226726 0.032937 -0.125950
v -0.232687 0.031827 -0.108410
v -0.227838 0.031800 -0.107984
v -0.226602 0.032855 -0.124649
v -0.231738 0.031843 -0.108673
v -0.228791 0.032070 -0.112257
v -0.226780 0.032388 -0.117280
v -0.230446 0.031697 -0.106362
v -0.229053 0.031740 -0.107038
v -0.226853 0.031872 -0.109129
v -0.230883 0.031871 -0.109111
v -0.229058 0.032011 -0.111318
v -0.226149 0.031953 -0.110401
v -0.230125 0.031910 -0.109725
v -0.229502 0.031957 -0.110474
v -0.225884 0.032273 -0.115463
v -0.225727 0.032041 -0.111800
v -0.225586 0.032138 -0.113325
vn 0 0.998002551082325 0.06317363400321015
vn 0 -0.998002551082325 -0.06317363400321015
usemtl material_0_0
f 1//1 2//1 3//1
f 2//1 1//1 4//1
f 3//2 2//2 1//2
f 4//2 1//2 2//2
f 4//1 1//1 5//1
f 5//2 1//2 4//2
f 4//1 5//1 6//1
f 6//2 5//2 4//2
f 6//1 5//1 7//1
f 7//2 5//2 6//2
f 6//1 7//1 8//1
f 8//2 7//2 6//2
f 8//1 7//1 9//1
f 9//2 7//2 8//2
f 9//1 7//1 10//1
f 10//2 7//2 9//2
f 10//1 7//1 11//1
f 11//2 7//2 10//2
f 10//1 12//1 9//1
f 9//2 12//2 10//2
f 10//1 11//1 13//1
f 13//2 11//2 10//2
f 12//1 10//1 14//1
f 14//2 10//2 12//2
f 13//1 11//1 15//1
f 15//2 11//2 13//2
f 12//1 14//1 16//1
f 16//2 14//2 12//2
f 11//1 17//1 15//1
f 15//2 17//2 11//2
f 12//1 16//1 18//1
f 18//2 16//2 12//2
f 11//1 19//1 17//1
f 17//2 19//2 11//2
f 15//1 17//1 20//1
f 20//2 17//2 15//2
f 18//1 16//1 21//1
f 21//2 16//2 18//2
f 11//1 22//1 19//1
f 19//2 22//2 11//2
f 20//1 17//1 23//1
f 23//2 17//2 20//2
f 18//1 21//1 24//1
f 24//2 21//2 18//2
f 11//1 25//1 22//1
f 22//2 25//2 11//2
f 20//1 23//1 26//1
f 26//2 23//2 20//2
f 18//1 24//1 27//1
f 27//2 24//2 18//2
f 28//1 25//1 11//1
f 11//2 25//2 28//2
f 20//1 26//1 29//1
f 29//2 26//2 20//2
f 27//1 24//1 30//1
f 30//2 24//2 27//2
f 25//1 28//1 31//1
f 31//2 28//2 25//2
f 29//1 26//1 32//1
f 32//2 26//2 29//2
f 30//1 24//1 33//1
f 33//2 24//2 30//2
f 31//1 28//1 34//1
f 34//2 28//2 31//2
f 29//1 32//1 35//1
f 35//2 32//2 29//2
f 30//1 33//1 36//1
f 36//2 33//2 30//2
f 28//1 37//1 34//1
f 34//2 37//2 28//2
f 29//1 35//1 38//1
f 38//2 35//2 29//2
f 36//1 33//1 39//1
f 39//2 33//2 36//2
f 28//1 40//1 37//1
f 37//2 40//2 28//2
f 34//1 37//1 41//1
f 41//2 37//2 34//2
f 38//1 35//1 42//1
f 42//2 35//2 38//2
f 36//1 39//1 43//1
f 43//2 39//2 36//2
f 28//1 44//1 40//1
f 40//2 44//2 28//2
f 41//1 37//1 45//1
f 45//2 37//2 41//2
f 38//1 42//1 46//1
f 46//2 42//2 38//2
f 36//1 43//1 47//1
f 47//2 43//2 36//2
f 48//1 44//1 28//1
f 28//2 44//2 48//2
f 45//1 37//1 49//1
f 49//2 37//2 45//2
f 46//1 42//1 50//1
f 50//2 42//2 46//2
f 47//1 43//1 51//1
f 51//2 43//2 47//2
f 48//1 52//1 44//1
f 44//2 52//2 48//2
f 45//1 49//1 53//1
f 53//2 49//2 45//2
f 46//1 50//1 54//1
f 54//2 50//2 46//2
f 51//1 55//1 47//1
f 47//2 55//2 51//2
f 56//1 52//1 48//1
f 48//2 52//2 56//2
f 53//1 49//1 57//1
f 57//2 49//2 53//2
f 46//1 54//1 58//1
f 58//2 54//2 46//2
f 59//1 55//1 51//1
f 51//2 55//2 59//2
f 47//1 55//1 60//1
f 60//2 55//2 47//2
f 56//1 61//1 52//1
f 52//2 61//2 56//2
f 57//1 49//1 62//1
f 62//2 49//2 57//2
f 58//1 54//1 63//1
f 63//2 54//2 58//2
f 58//1 59//1 46//1
f 46//2 59//2 58//2
f 59//1 58//1 55//1
f 55//2 58//2 59//2
f 60//1 55//1 64//1
f 64//2 55//2 60//2
f 61//1 56//1 65//1
f 65//2 56//2 61//2
f 57//1 62//1 66//1
f 66//2 62//2 57//2
f 63//1 54//1 67//1
f 67//2 54//2 63//2
f 60//1 64//1 68//1
f 68//2 64//2 60//2
f 66//1 62//1 69//1
f 69//2 62//2 66//2
f 63//1 67//1 70//1
f 70//2 67//2 63//2
f 68//1 64//1 71//1
f 71//2 64//2 68//2
f 66//1 69//1 72//1
f 72//2 69//2 66//2
f 63//1 70//1 73//1
f 73//2 70//2 63//2
f 71//1 64//1 74//1
f 74//2 64//2 71//2
f 72//1 69//1 75//1
f 75//2 69//2 72//2
f 63//1 73//1 76//1
f 76//2 73//2 63//2
f 71//1 74//1 77//1
f 77//2 74//2 71//2
f 72//1 75//1 78//1
f 78//2 75//2 72//2
f 76//1 79//1 63//1
f 63//2 79//2 76//2
f 77//1 74//1 80//1
f 80//2 74//2 77//2
f 78//1 75//1 81//1
f 81//2 75//2 78//2
f 82//1 79//1 76//1
f 76//2 79//2 82//2
f 63//1 79//1 83//1
f 83//2 79//2 63//2
f 81//1 75//1 84//1
f 84//2 75//2 81//2
f 82//1 85//1 79//1
f 79//2 85//2 82//2
f 83//1 79//1 86//1
f 86//2 79//2 83//2
f 81//1 84//1 87//1
f 87//2 84//2 81//2
f 88//1 85//1 82//1
f 82//2 85//2 88//2
f 83//1 86//1 89//1
f 89//2 86//2 83//2
f 87//1 84//1 90//1
f 90//2 84//2 87//2
f 91//1 85//1 88//1
f 88//2 85//2 91//2
f 83//1 89//1 92//1
f 92//2 89//2 83//2
f 90//1 84//1 85//1
f 85//2 84//2 90//2
f 90//1 85//1 91//1
f 91//2 85//2 90//2
f 92//1 89//1 93//1
f 93//2 89//2 92//2
f 92//1 93//1 94//1
f 94//2 93//2 92//2
