# SSTK version 0.8.0
# 239
mtllib original_239.mtl
o mesh156/mesh156-geometry#mesh156-geometry
v -0.292159 0.016349 0.136098
v -0.295309 0.017918 0.111321
v -0.295309 0.016349 0.136098
v -0.292159 0.017582 0.116628
v -0.291939 0.017918 0.111321
v -0.279119 0.016349 0.136098
v -0.278899 0.016686 0.130775
v -0.275749 0.016349 0.136098
v -0.278899 0.017918 0.111321
v -0.275749 0.017918 0.111321
vn 0 0.998002551082325 0.06317363400321015
vn 0 -0.998002551082325 -0.06317363400321015
usemtl material_0_0
f 1//1 2//1 3//1
f 2//1 1//1 4//1
f 3//2 2//2 1//2
f 4//2 1//2 2//2
f 2//1 4//1 5//1
f 5//2 4//2 2//2
f 5//1 4//1 6//1
f 6//2 4//2 5//2
f 5//1 6//1 7//1
f 7//2 6//2 5//2
f 7//1 6//1 8//1
f 8//2 6//2 7//2
f 7//1 8//1 9//1
f 9//2 8//2 7//2
f 9//1 8//1 10//1
f 10//2 8//2 9//2
