# SSTK version 0.8.0
# 292
mtllib original_292.mtl
o mesh209/mesh209-geometry#mesh209-geometry
v -0.538215 0.038063 -0.206931
v -0.536362 0.038142 -0.208184
v -0.538394 0.038125 -0.207914
v -0.537882 0.038007 -0.206043
v -0.537394 0.037957 -0.205252
v -0.536751 0.037913 -0.204556
v -0.535985 0.037877 -0.203989
v -0.535889 0.038049 -0.206701
v -0.535127 0.037851 -0.203584
v -0.535171 0.037985 -0.205700
v -0.534238 0.037949 -0.205129
v -0.534176 0.037836 -0.203341
v -0.533122 0.037937 -0.204939
v -0.533133 0.037831 -0.203260
v -0.531977 0.037837 -0.203354
v -0.532433 0.037941 -0.205001
v -0.531799 0.037953 -0.205187
v -0.530926 0.037855 -0.203636
v -0.531222 0.037972 -0.205497
v -0.530700 0.038000 -0.205931
v -0.529979 0.037884 -0.204106
v -0.530268 0.038033 -0.206456
v -0.529959 0.038070 -0.207041
v -0.529136 0.037926 -0.204765
v -0.529774 0.038111 -0.207684
v -0.529712 0.038155 -0.208387
v -0.529345 0.038383 -0.211980
v -0.528368 0.038327 -0.211097
v -0.529941 0.038236 -0.209662
v -0.528445 0.037976 -0.205558
v -0.530226 0.038271 -0.210207
v -0.527951 0.038032 -0.206434
v -0.530626 0.038301 -0.210691
v -0.527759 0.038251 -0.209898
v -0.530649 0.038416 -0.212500
v -0.527654 0.038092 -0.207392
v -0.530717 0.038553 -0.214666
v -0.527556 0.038158 -0.208432
v -0.531041 0.038523 -0.214191
v -0.530522 0.038589 -0.215233
v -0.531115 0.038326 -0.211088
v -0.529658 0.038454 -0.213108
v -0.531496 0.038498 -0.213807
v -0.530457 0.038630 -0.215891
v -0.531665 0.038344 -0.211372
v -0.529711 0.038819 -0.218873
v -0.532599 0.038466 -0.213300
v -0.528972 0.038762 -0.217976
v -0.530646 0.038695 -0.216911
v -0.532952 0.038359 -0.211598
v -0.528944 0.038504 -0.213897
v -0.530717 0.038862 -0.219559
v -0.533833 0.038456 -0.213131
v -0.528519 0.038697 -0.216942
v -0.531214 0.038747 -0.217739
v -0.534160 0.038457 -0.213153
v -0.528512 0.038563 -0.214824
v -0.531911 0.038890 -0.219994
v -0.534386 0.038344 -0.211373
v -0.528368 0.038627 -0.215846
v -0.532080 0.038782 -0.218288
v -0.533167 0.038794 -0.218472
v -0.533212 0.038899 -0.220139
v -0.534154 0.038895 -0.220069
v -0.534253 0.038782 -0.218286
v -0.535016 0.038881 -0.219859
v -0.535143 0.038747 -0.217728
v -0.535792 0.038688 -0.216798
v -0.535797 0.038859 -0.219509
v -0.536159 0.038605 -0.215497
v -0.536497 0.038828 -0.219018
v -0.537099 0.038789 -0.218400
v -0.537581 0.038743 -0.217667
v -0.537945 0.038689 -0.216820
v -0.538191 0.038628 -0.215858
vn 0 0.998002551082325 0.06317363400321015
vn 0 -0.998002551082325 -0.06317363400321015
usemtl material_0_0
f 1//1 2//1 3//1
f 2//1 1//1 4//1
f 3//2 2//2 1//2
f 4//2 1//2 2//2
f 2//1 4//1 5//1
f 5//2 4//2 2//2
f 2//1 5//1 6//1
f 6//2 5//2 2//2
f 2//1 6//1 7//1
f 7//2 6//2 2//2
f 2//1 7//1 8//1
f 8//2 7//2 2//2
f 8//1 7//1 9//1
f 9//2 7//2 8//2
f 8//1 9//1 10//1
f 10//2 9//2 8//2
f 10//1 9//1 11//1
f 11//2 9//2 10//2
f 11//1 9//1 12//1
f 12//2 9//2 11//2
f 11//1 12//1 13//1
f 13//2 12//2 11//2
f 13//1 12//1 14//1
f 14//2 12//2 13//2
f 13//1 14//1 15//1
f 15//2 14//2 13//2
f 13//1 15//1 16//1
f 16//2 15//2 13//2
f 16//1 15//1 17//1
f 17//2 15//2 16//2
f 17//1 15//1 18//1
f 18//2 15//2 17//2
f 17//1 18//1 19//1
f 19//2 18//2 17//2
f 19//1 18//1 20//1
f 20//2 18//2 19//2
f 20//1 18//1 21//1
f 21//2 18//2 20//2
f 20//1 21//1 22//1
f 22//2 21//2 20//2
f 22//1 21//1 23//1
f 23//2 21//2 22//2
f 23//1 21//1 24//1
f 24//2 21//2 23//2
f 23//1 24//1 25//1
f 25//2 24//2 23//2
f 25//1 24//1 26//1
f 26//2 24//2 25//2
f 26//1 24//1 27//1
f 27//2 24//2 26//2
f 27//1 24//1 28//1
f 28//2 24//2 27//2
f 27//1 29//1 26//1
f 26//2 29//2 27//2
f 28//1 24//1 30//1
f 30//2 24//2 28//2
f 27//1 31//1 29//1
f 29//2 31//2 27//2
f 28//1 30//1 32//1
f 32//2 30//2 28//2
f 27//1 33//1 31//1
f 31//2 33//2 27//2
f 28//1 32//1 34//1
f 34//2 32//2 28//2
f 35//1 33//1 27//1
f 27//2 33//2 35//2
f 34//1 32//1 36//1
f 36//2 32//2 34//2
f 37//1 33//1 35//1
f 35//2 33//2 37//2
f 34//1 36//1 38//1
f 38//2 36//2 34//2
f 39//1 33//1 37//1
f 37//2 33//2 39//2
f 35//1 40//1 37//1
f 37//2 40//2 35//2
f 39//1 41//1 33//1
f 33//2 41//2 39//2
f 40//1 35//1 42//1
f 42//2 35//2 40//2
f 43//1 41//1 39//1
f 39//2 41//2 43//2
f 40//1 42//1 44//1
f 44//2 42//2 40//2
f 43//1 45//1 41//1
f 41//2 45//2 43//2
f 44//1 42//1 46//1
f 46//2 42//2 44//2
f 47//1 45//1 43//1
f 43//2 45//2 47//2
f 46//1 42//1 48//1
f 48//2 42//2 46//2
f 46//1 49//1 44//1
f 44//2 49//2 46//2
f 47//1 50//1 45//1
f 45//2 50//2 47//2
f 48//1 42//1 51//1
f 51//2 42//2 48//2
f 52//1 49//1 46//1
f 46//2 49//2 52//2
f 53//1 50//1 47//1
f 47//2 50//2 53//2
f 48//1 51//1 54//1
f 54//2 51//2 48//2
f 52//1 55//1 49//1
f 49//2 55//2 52//2
f 56//1 50//1 53//1
f 53//2 50//2 56//2
f 54//1 51//1 57//1
f 57//2 51//2 54//2
f 58//1 55//1 52//1
f 52//2 55//2 58//2
f 50//1 56//1 59//1
f 59//2 56//2 50//2
f 54//1 57//1 60//1
f 60//2 57//2 54//2
f 58//1 61//1 55//1
f 55//2 61//2 58//2
f 58//1 62//1 61//1
f 61//2 62//2 58//2
f 63//1 62//1 58//1
f 58//2 62//2 63//2
f 64//1 62//1 63//1
f 63//2 62//2 64//2
f 64//1 65//1 62//1
f 62//2 65//2 64//2
f 66//1 65//1 64//1
f 64//2 65//2 66//2
f 66//1 67//1 65//1
f 65//2 67//2 66//2
f 66//1 68//1 67//1
f 67//2 68//2 66//2
f 69//1 68//1 66//1
f 66//2 68//2 69//2
f 69//1 70//1 68//1
f 68//2 70//2 69//2
f 71//1 70//1 69//1
f 69//2 70//2 71//2
f 72//1 70//1 71//1
f 71//2 70//2 72//2
f 73//1 70//1 72//1
f 72//2 70//2 73//2
f 74//1 70//1 73//1
f 73//2 70//2 74//2
f 70//1 74//1 75//1
f 75//2 74//2 70//2
