# SSTK version 0.8.0
# 175
mtllib original_175.mtl
o mesh92/mesh92-geometry#mesh92-geometry
v -0.897721 0.011647 0.214383
v -0.897819 0.011787 0.212171
v -0.897857 0.011738 0.212951
v -0.897703 0.011833 0.211442
v -0.897311 0.011562 0.215719
v -0.897510 0.011876 0.210764
v -0.897240 0.011916 0.210138
v -0.897006 0.011524 0.216325
v -0.896899 0.011951 0.209574
v -0.896638 0.011490 0.216856
v -0.896492 0.011983 0.209082
v -0.896446 0.011738 0.212944
v -0.896208 0.011462 0.217310
v -0.896365 0.011802 0.211938
v -0.896350 0.011660 0.214178
v -0.896020 0.012009 0.208662
v -0.896062 0.011592 0.215244
v -0.896122 0.011863 0.210962
v -0.895716 0.011438 0.217687
v -0.895678 0.011918 0.210098
v -0.895570 0.011538 0.216102
v -0.895483 0.012031 0.208314
v -0.895153 0.011419 0.217985
v -0.894996 0.011960 0.209430
v -0.895245 0.011517 0.216438
v -0.894899 0.012048 0.208042
v -0.894866 0.011500 0.216712
v -0.894571 0.011976 0.209181
v -0.894512 0.011406 0.218197
v -0.894286 0.012061 0.207847
v -0.894021 0.011476 0.217076
v -0.894097 0.011988 0.209003
v -0.893793 0.011397 0.218324
v -0.893645 0.012068 0.207730
v -0.893109 0.011469 0.217198
v -0.893003 0.011997 0.208860
v -0.892996 0.011395 0.218367
v -0.892974 0.012071 0.207691
v -0.892555 0.011471 0.217157
v -0.892054 0.011988 0.208988
v -0.892219 0.011398 0.218312
v -0.892229 0.012067 0.207740
v -0.892047 0.011479 0.217032
v -0.891546 0.012058 0.207888
v -0.891504 0.011409 0.218146
v -0.891281 0.011964 0.209374
v -0.891582 0.011492 0.216826
v -0.890924 0.012042 0.208135
v -0.891161 0.011511 0.216536
v -0.890959 0.011945 0.209669
v -0.890852 0.011426 0.217870
v -0.890678 0.011922 0.210041
v -0.890795 0.011534 0.216165
v -0.890364 0.012021 0.208480
v -0.890261 0.011451 0.217483
v -0.890237 0.011860 0.211015
v -0.890492 0.011563 0.215714
v -0.889875 0.011993 0.208914
v -0.890255 0.011596 0.215183
v -0.888889 0.011880 0.210698
v -0.889745 0.011482 0.216991
v -0.889466 0.011961 0.209429
v -0.890081 0.011635 0.214571
v -0.889137 0.011923 0.210023
v -0.888712 0.011613 0.214916
v -0.889315 0.011519 0.216400
v -0.888971 0.011563 0.215708
vn 0 0.998002551082325 0.06317363400321015
vn 0 -0.998002551082325 -0.06317363400321015
usemtl material_0_0
f 1//1 2//1 3//1
f 2//1 1//1 4//1
f 3//2 2//2 1//2
f 4//2 1//2 2//2
f 4//1 1//1 5//1
f 5//2 1//2 4//2
f 4//1 5//1 6//1
f 6//2 5//2 4//2
f 6//1 5//1 7//1
f 7//2 5//2 6//2
f 7//1 5//1 8//1
f 8//2 5//2 7//2
f 7//1 8//1 9//1
f 9//2 8//2 7//2
f 9//1 8//1 10//1
f 10//2 8//2 9//2
f 9//1 10//1 11//1
f 11//2 10//2 9//2
f 11//1 10//1 12//1
f 12//2 10//2 11//2
f 12//1 10//1 13//1
f 13//2 10//2 12//2
f 14//1 11//1 12//1
f 12//2 11//2 14//2
f 12//1 13//1 15//1
f 15//2 13//2 12//2
f 11//1 14//1 16//1
f 16//2 14//2 11//2
f 15//1 13//1 17//1
f 17//2 13//2 15//2
f 16//1 14//1 18//1
f 18//2 14//2 16//2
f 17//1 13//1 19//1
f 19//2 13//2 17//2
f 16//1 18//1 20//1
f 20//2 18//2 16//2
f 17//1 19//1 21//1
f 21//2 19//2 17//2
f 16//1 20//1 22//1
f 22//2 20//2 16//2
f 21//1 19//1 23//1
f 23//2 19//2 21//2
f 22//1 20//1 24//1
f 24//2 20//2 22//2
f 21//1 23//1 25//1
f 25//2 23//2 21//2
f 22//1 24//1 26//1
f 26//2 24//2 22//2
f 25//1 23//1 27//1
f 27//2 23//2 25//2
f 26//1 24//1 28//1
f 28//2 24//2 26//2
f 27//1 23//1 29//1
f 29//2 23//2 27//2
f 26//1 28//1 30//1
f 30//2 28//2 26//2
f 27//1 29//1 31//1
f 31//2 29//2 27//2
f 30//1 28//1 32//1
f 32//2 28//2 30//2
f 31//1 29//1 33//1
f 33//2 29//2 31//2
f 30//1 32//1 34//1
f 34//2 32//2 30//2
f 31//1 33//1 35//1
f 35//2 33//2 31//2
f 34//1 32//1 36//1
f 36//2 32//2 34//2
f 35//1 33//1 37//1
f 37//2 33//2 35//2
f 34//1 36//1 38//1
f 38//2 36//2 34//2
f 35//1 37//1 39//1
f 39//2 37//2 35//2
f 38//1 36//1 40//1
f 40//2 36//2 38//2
f 39//1 37//1 41//1
f 41//2 37//2 39//2
f 38//1 40//1 42//1
f 42//2 40//2 38//2
f 39//1 41//1 43//1
f 43//2 41//2 39//2
f 42//1 40//1 44//1
f 44//2 40//2 42//2
f 43//1 41//1 45//1
f 45//2 41//2 43//2
f 44//1 40//1 46//1
f 46//2 40//2 44//2
f 43//1 45//1 47//1
f 47//2 45//2 43//2
f 44//1 46//1 48//1
f 48//2 46//2 44//2
f 47//1 45//1 49//1
f 49//2 45//2 47//2
f 48//1 46//1 50//1
f 50//2 46//2 48//2
f 49//1 45//1 51//1
f 51//2 45//2 49//2
f 48//1 50//1 52//1
f 52//2 50//2 48//2
f 49//1 51//1 53//1
f 53//2 51//2 49//2
f 48//1 52//1 54//1
f 54//2 52//2 48//2
f 53//1 51//1 55//1
f 55//2 51//2 53//2
f 54//1 52//1 56//1
f 56//2 52//2 54//2
f 53//1 55//1 57//1
f 57//2 55//2 53//2
f 54//1 56//1 58//1
f 58//2 56//2 54//2
f 57//1 55//1 59//1
f 59//2 55//2 57//2
f 58//1 56//1 60//1
f 60//2 56//2 58//2
f 59//1 55//1 61//1
f 61//2 55//2 59//2
f 58//1 60//1 62//1
f 62//2 60//2 58//2
f 59//1 61//1 63//1
f 63//2 61//2 59//2
f 62//1 60//1 64//1
f 64//2 60//2 62//2
f 63//1 61//1 65//1
f 65//2 61//2 63//2
f 65//1 61//1 66//1
f 66//2 61//2 65//2
f 65//1 66//1 67//1
f 67//2 66//2 65//2
