# SSTK version 0.8.0
# 263
mtllib original_263.mtl
o mesh180/mesh180-geometry#mesh180-geometry
v 0.424408 0.011245 0.216738
v 0.420411 0.012284 0.200327
v 0.417380 0.012284 0.200327
v 0.425814 0.011461 0.213324
v 0.427253 0.011245 0.216738
v 0.431165 0.012284 0.200327
v 0.434196 0.012284 0.200327
vn 0 0.998002551082325 0.06317363400321015
vn 0 -0.998002551082325 -0.06317363400321015
usemtl material_0_0
f 1//1 2//1 3//1
f 2//1 1//1 4//1
f 3//2 2//2 1//2
f 4//2 1//2 2//2
f 4//1 1//1 5//1
f 5//2 1//2 4//2
f 4//1 5//1 6//1
f 6//2 5//2 4//2
f 6//1 5//1 7//1
f 7//2 5//2 6//2
