# SSTK version 0.8.0
# 131
mtllib original_131.mtl
o mesh48/mesh48-geometry#mesh48-geometry
v 0.364737 0.031671 -0.105946
v 0.364917 0.031764 -0.107412
v 0.364849 0.031808 -0.108109
v 0.365350 0.031667 -0.105891
v 0.364849 0.032312 -0.116081
v 0.365135 0.031748 -0.107166
v 0.364278 0.031681 -0.106109
v 0.364849 0.032085 -0.112483
v 0.365569 0.031742 -0.107074
v 0.363953 0.031697 -0.106362
v 0.364849 0.032147 -0.113469
v 0.366310 0.031674 -0.106004
v 0.363742 0.031717 -0.106683
v 0.366127 0.032085 -0.112483
v 0.366127 0.031745 -0.107124
v 0.363625 0.031752 -0.107235
v 0.366127 0.032147 -0.113469
v 0.363586 0.032264 -0.115321
v 0.363586 0.032147 -0.113469
v 0.363586 0.032085 -0.112483
v 0.363586 0.031812 -0.108180
v 0.362655 0.032147 -0.113469
v 0.362655 0.032085 -0.112483
vn 0 0.998002551082325 0.06317363400321015
vn 0 -0.998002551082325 -0.06317363400321015
usemtl material_0_0
f 1//1 2//1 3//1
f 2//1 1//1 4//1
f 3//2 2//2 1//2
f 4//2 1//2 2//2
f 5//1 1//1 3//1
f 3//2 1//2 5//2
f 2//1 4//1 6//1
f 6//2 4//2 2//2
f 5//1 7//1 1//1
f 1//2 7//2 5//2
f 5//1 3//1 8//1
f 8//2 3//2 5//2
f 6//1 4//1 9//1
f 9//2 4//2 6//2
f 5//1 10//1 7//1
f 7//2 10//2 5//2
f 5//1 8//1 11//1
f 11//2 8//2 5//2
f 9//1 4//1 12//1
f 12//2 4//2 9//2
f 5//1 13//1 10//1
f 10//2 13//2 5//2
f 14//1 11//1 8//1
f 8//2 11//2 14//2
f 9//1 12//1 15//1
f 15//2 12//2 9//2
f 5//1 16//1 13//1
f 13//2 16//2 5//2
f 11//1 14//1 17//1
f 17//2 14//2 11//2
f 18//1 16//1 5//1
f 5//2 16//2 18//2
f 19//1 16//1 18//1
f 18//2 16//2 19//2
f 20//1 16//1 19//1
f 19//2 16//2 20//2
f 16//1 20//1 21//1
f 21//2 20//2 16//2
f 22//1 20//1 19//1
f 19//2 20//2 22//2
f 20//1 22//1 23//1
f 23//2 22//2 20//2
