# SSTK version 0.8.0
# 201
mtllib original_201.mtl
o mesh118/mesh118-geometry#mesh118-geometry
v 0.201879 0.031941 -0.110211
v 0.201900 0.032002 -0.111184
v 0.201837 0.031969 -0.110659
v 0.202003 0.031915 -0.109806
v 0.202088 0.032033 -0.111662
v 0.202211 0.031892 -0.109442
v 0.202377 0.032059 -0.112072
v 0.202501 0.031872 -0.109120
v 0.202744 0.032079 -0.112391
v 0.202868 0.031855 -0.108857
v 0.203176 0.032094 -0.112632
v 0.203192 0.031971 -0.110694
v 0.203307 0.031843 -0.108668
v 0.203236 0.031991 -0.111010
v 0.203288 0.031942 -0.110229
v 0.203658 0.032105 -0.112807
v 0.203577 0.031918 -0.109849
v 0.203369 0.032009 -0.111296
v 0.203817 0.031836 -0.108556
v 0.203582 0.032025 -0.111535
v 0.204050 0.031902 -0.109595
v 0.203870 0.032036 -0.111708
v 0.204399 0.031834 -0.108518
v 0.204787 0.032117 -0.112997
v 0.204702 0.031896 -0.109511
v 0.204978 0.032052 -0.111962
v 0.205123 0.031837 -0.108579
v 0.206122 0.032130 -0.113197
v 0.205396 0.031901 -0.109591
v 0.206188 0.032065 -0.112180
v 0.205800 0.031849 -0.108764
v 0.207052 0.032145 -0.113433
v 0.206008 0.031917 -0.109831
v 0.207052 0.032082 -0.112440
v 0.206466 0.031870 -0.109099
v 0.207158 0.031903 -0.109609
v 0.206503 0.031941 -0.110211
v 0.207052 0.032052 -0.111976
v 0.207059 0.032166 -0.113764
v 0.207001 0.032006 -0.111240
v 0.207516 0.032298 -0.115855
v 0.206847 0.031972 -0.110708
v 0.206996 0.032314 -0.116109
v 0.207250 0.031871 -0.109115
v 0.206969 0.032207 -0.114425
v 0.207412 0.031844 -0.108687
v 0.206699 0.032235 -0.114856
v 0.208417 0.031901 -0.109585
v 0.206306 0.032325 -0.116278
v 0.208538 0.031872 -0.109126
v 0.207878 0.032278 -0.115543
v 0.206094 0.032255 -0.115178
v 0.208739 0.031844 -0.108687
v 0.208118 0.032254 -0.115156
v 0.205436 0.032328 -0.116335
v 0.208336 0.032043 -0.111821
v 0.205253 0.032262 -0.115285
v 0.208273 0.032224 -0.114680
v 0.204528 0.032324 -0.116269
v 0.208336 0.032150 -0.113511
v 0.204474 0.032257 -0.115207
v 0.203930 0.032242 -0.114972
v 0.203736 0.032312 -0.116071
v 0.203558 0.032215 -0.114538
v 0.203298 0.032172 -0.113863
v 0.203088 0.032291 -0.115750
v 0.202614 0.032264 -0.115317
v 0.202280 0.032228 -0.114751
v 0.202056 0.032183 -0.114032
vn 0 0.998002551082325 0.06317363400321015
vn 0 -0.998002551082325 -0.06317363400321015
usemtl material_0_0
f 1//1 2//1 3//1
f 2//1 1//1 4//1
f 3//2 2//2 1//2
f 4//2 1//2 2//2
f 2//1 4//1 5//1
f 5//2 4//2 2//2
f 5//1 4//1 6//1
f 6//2 4//2 5//2
f 5//1 6//1 7//1
f 7//2 6//2 5//2
f 7//1 6//1 8//1
f 8//2 6//2 7//2
f 7//1 8//1 9//1
f 9//2 8//2 7//2
f 9//1 8//1 10//1
f 10//2 8//2 9//2
f 9//1 10//1 11//1
f 11//2 10//2 9//2
f 11//1 10//1 12//1
f 12//2 10//2 11//2
f 12//1 10//1 13//1
f 13//2 10//2 12//2
f 14//1 11//1 12//1
f 12//2 11//2 14//2
f 12//1 13//1 15//1
f 15//2 13//2 12//2
f 11//1 14//1 16//1
f 16//2 14//2 11//2
f 15//1 13//1 17//1
f 17//2 13//2 15//2
f 16//1 14//1 18//1
f 18//2 14//2 16//2
f 17//1 13//1 19//1
f 19//2 13//2 17//2
f 16//1 18//1 20//1
f 20//2 18//2 16//2
f 17//1 19//1 21//1
f 21//2 19//2 17//2
f 16//1 20//1 22//1
f 22//2 20//2 16//2
f 21//1 19//1 23//1
f 23//2 19//2 21//2
f 16//1 22//1 24//1
f 24//2 22//2 16//2
f 21//1 23//1 25//1
f 25//2 23//2 21//2
f 24//1 22//1 26//1
f 26//2 22//2 24//2
f 25//1 23//1 27//1
f 27//2 23//2 25//2
f 24//1 26//1 28//1
f 28//2 26//2 24//2
f 25//1 27//1 29//1
f 29//2 27//2 25//2
f 28//1 26//1 30//1
f 30//2 26//2 28//2
f 29//1 27//1 31//1
f 31//2 27//2 29//2
f 28//1 30//1 32//1
f 32//2 30//2 28//2
f 29//1 31//1 33//1
f 33//2 31//2 29//2
f 32//1 30//1 34//1
f 34//2 30//2 32//2
f 33//1 31//1 35//1
f 35//2 31//2 33//2
f 34//1 36//1 32//1
f 32//2 36//2 34//2
f 33//1 35//1 37//1
f 37//2 35//2 33//2
f 38//1 36//1 34//1
f 34//2 36//2 38//2
f 32//1 36//1 39//1
f 39//2 36//2 32//2
f 37//1 35//1 36//1
f 36//2 35//2 37//2
f 40//1 36//1 38//1
f 38//2 36//2 40//2
f 41//1 39//1 36//1
f 36//2 39//2 41//2
f 37//1 36//1 42//1
f 42//2 36//2 37//2
f 42//1 36//1 40//1
f 40//2 36//2 42//2
f 43//1 39//1 41//1
f 41//2 39//2 43//2
f 41//1 36//1 44//1
f 44//2 36//2 41//2
f 43//1 45//1 39//1
f 39//2 45//2 43//2
f 41//1 44//1 46//1
f 46//2 44//2 41//2
f 43//1 47//1 45//1
f 45//2 47//2 43//2
f 41//1 46//1 48//1
f 48//2 46//2 41//2
f 49//1 47//1 43//1
f 43//2 47//2 49//2
f 48//1 46//1 50//1
f 50//2 46//2 48//2
f 41//1 48//1 51//1
f 51//2 48//2 41//2
f 49//1 52//1 47//1
f 47//2 52//2 49//2
f 50//1 46//1 53//1
f 53//2 46//2 50//2
f 51//1 48//1 54//1
f 54//2 48//2 51//2
f 55//1 52//1 49//1
f 49//2 52//2 55//2
f 54//1 48//1 56//1
f 56//2 48//2 54//2
f 55//1 57//1 52//1
f 52//2 57//2 55//2
f 54//1 56//1 58//1
f 58//2 56//2 54//2
f 59//1 57//1 55//1
f 55//2 57//2 59//2
f 60//1 58//1 56//1
f 56//2 58//2 60//2
f 59//1 61//1 57//1
f 57//2 61//2 59//2
f 59//1 62//1 61//1
f 61//2 62//2 59//2
f 63//1 62//1 59//1
f 59//2 62//2 63//2
f 63//1 64//1 62//1
f 62//2 64//2 63//2
f 63//1 65//1 64//1
f 64//2 65//2 63//2
f 66//1 65//1 63//1
f 63//2 65//2 66//2
f 67//1 65//1 66//1
f 66//2 65//2 67//2
f 68//1 65//1 67//1
f 67//2 65//2 68//2
f 65//1 68//1 69//1
f 69//2 68//2 65//2
