# SSTK version 0.8.0
# 254
mtllib original_254.mtl
o mesh171/mesh171-geometry#mesh171-geometry
v -0.124080 0.027148 -0.034494
v -0.124228 0.027534 -0.040588
v -0.124435 0.027349 -0.037671
v -0.123606 0.027697 -0.043170
v -0.123013 0.026957 -0.031485
v -0.122568 0.027839 -0.045418
v -0.122218 0.026870 -0.030100
v -0.121116 0.027960 -0.047330
v -0.121256 0.026792 -0.028870
v -0.121048 0.027346 -0.037620
v -0.120898 0.027212 -0.035500
v -0.120891 0.027510 -0.040217
v -0.120127 0.026724 -0.027793
v -0.119336 0.028057 -0.048857
v -0.120445 0.027092 -0.033617
v -0.120420 0.027649 -0.042414
v -0.119691 0.026988 -0.031972
v -0.119634 0.027763 -0.044210
v -0.118830 0.026665 -0.026871
v -0.118534 0.027851 -0.045606
v -0.118635 0.026899 -0.030564
v -0.117314 0.028126 -0.049948
v -0.117403 0.026619 -0.026132
v -0.117215 0.027917 -0.046653
v -0.117352 0.026828 -0.029436
v -0.115051 0.028168 -0.050602
v -0.115883 0.026585 -0.025604
v -0.115775 0.027965 -0.047400
v -0.115915 0.026777 -0.028631
v -0.114213 0.027993 -0.047848
v -0.114325 0.026746 -0.028148
v -0.112547 0.028181 -0.050820
v -0.114270 0.026565 -0.025287
v -0.112530 0.028003 -0.047998
v -0.112581 0.026736 -0.027987
v -0.110870 0.028175 -0.050718
v -0.112564 0.026558 -0.025181
v -0.110195 0.027983 -0.047687
v -0.110808 0.026746 -0.028149
v -0.109278 0.028155 -0.050410
v -0.110974 0.026564 -0.025277
v -0.108101 0.027924 -0.046756
v -0.109439 0.026583 -0.025563
v -0.107771 0.028123 -0.049898
v -0.109200 0.026777 -0.028637
v -0.106366 0.027829 -0.045260
v -0.107960 0.026613 -0.026041
v -0.106349 0.028078 -0.049181
v -0.107756 0.026829 -0.029451
v -0.105104 0.027703 -0.043257
v -0.106535 0.026655 -0.026711
v -0.105051 0.028021 -0.048280
v -0.106476 0.026901 -0.030589
v -0.104336 0.027548 -0.040808
v -0.105217 0.026709 -0.027566
v -0.103916 0.027953 -0.047218
v -0.105427 0.026992 -0.032027
v -0.104079 0.027368 -0.037975
v -0.104678 0.027100 -0.033737
v -0.104058 0.026775 -0.028601
v -0.104154 0.027297 -0.036848
v -0.103058 0.026852 -0.029818
v -0.104229 0.027225 -0.035720
v -0.102946 0.027876 -0.045994
v -0.102217 0.026940 -0.031215
v -0.102140 0.027788 -0.044609
v -0.101550 0.027038 -0.032752
v -0.101507 0.027692 -0.043094
v -0.101073 0.027141 -0.034388
v -0.101054 0.027590 -0.041480
v -0.100788 0.027251 -0.036124
v -0.100783 0.027482 -0.039768
v -0.100692 0.027367 -0.037958
vn 0 0.998002551082325 0.06317363400321015
vn 0 -0.998002551082325 -0.06317363400321015
usemtl material_0_0
f 1//1 2//1 3//1
f 2//1 1//1 4//1
f 3//2 2//2 1//2
f 4//2 1//2 2//2
f 4//1 1//1 5//1
f 5//2 1//2 4//2
f 4//1 5//1 6//1
f 6//2 5//2 4//2
f 6//1 5//1 7//1
f 7//2 5//2 6//2
f 6//1 7//1 8//1
f 8//2 7//2 6//2
f 8//1 7//1 9//1
f 9//2 7//2 8//2
f 8//1 9//1 10//1
f 10//2 9//2 8//2
f 10//1 9//1 11//1
f 11//2 9//2 10//2
f 12//1 8//1 10//1
f 10//2 8//2 12//2
f 11//1 9//1 13//1
f 13//2 9//2 11//2
f 8//1 12//1 14//1
f 14//2 12//2 8//2
f 11//1 13//1 15//1
f 15//2 13//2 11//2
f 14//1 12//1 16//1
f 16//2 12//2 14//2
f 15//1 13//1 17//1
f 17//2 13//2 15//2
f 14//1 16//1 18//1
f 18//2 16//2 14//2
f 17//1 13//1 19//1
f 19//2 13//2 17//2
f 14//1 18//1 20//1
f 20//2 18//2 14//2
f 17//1 19//1 21//1
f 21//2 19//2 17//2
f 14//1 20//1 22//1
f 22//2 20//2 14//2
f 21//1 19//1 23//1
f 23//2 19//2 21//2
f 22//1 20//1 24//1
f 24//2 20//2 22//2
f 21//1 23//1 25//1
f 25//2 23//2 21//2
f 22//1 24//1 26//1
f 26//2 24//2 22//2
f 25//1 23//1 27//1
f 27//2 23//2 25//2
f 26//1 24//1 28//1
f 28//2 24//2 26//2
f 25//1 27//1 29//1
f 29//2 27//2 25//2
f 26//1 28//1 30//1
f 30//2 28//2 26//2
f 29//1 27//1 31//1
f 31//2 27//2 29//2
f 26//1 30//1 32//1
f 32//2 30//2 26//2
f 31//1 27//1 33//1
f 33//2 27//2 31//2
f 32//1 30//1 34//1
f 34//2 30//2 32//2
f 31//1 33//1 35//1
f 35//2 33//2 31//2
f 32//1 34//1 36//1
f 36//2 34//2 32//2
f 35//1 33//1 37//1
f 37//2 33//2 35//2
f 36//1 34//1 38//1
f 38//2 34//2 36//2
f 35//1 37//1 39//1
f 39//2 37//2 35//2
f 36//1 38//1 40//1
f 40//2 38//2 36//2
f 39//1 37//1 41//1
f 41//2 37//2 39//2
f 40//1 38//1 42//1
f 42//2 38//2 40//2
f 39//1 41//1 43//1
f 43//2 41//2 39//2
f 40//1 42//1 44//1
f 44//2 42//2 40//2
f 39//1 43//1 45//1
f 45//2 43//2 39//2
f 44//1 42//1 46//1
f 46//2 42//2 44//2
f 45//1 43//1 47//1
f 47//2 43//2 45//2
f 44//1 46//1 48//1
f 48//2 46//2 44//2
f 45//1 47//1 49//1
f 49//2 47//2 45//2
f 48//1 46//1 50//1
f 50//2 46//2 48//2
f 49//1 47//1 51//1
f 51//2 47//2 49//2
f 48//1 50//1 52//1
f 52//2 50//2 48//2
f 49//1 51//1 53//1
f 53//2 51//2 49//2
f 52//1 50//1 54//1
f 54//2 50//2 52//2
f 53//1 51//1 55//1
f 55//2 51//2 53//2
f 52//1 54//1 56//1
f 56//2 54//2 52//2
f 53//1 55//1 57//1
f 57//2 55//2 53//2
f 56//1 54//1 58//1
f 58//2 54//2 56//2
f 57//1 55//1 59//1
f 59//2 55//2 57//2
f 56//1 58//1 60//1
f 60//2 58//2 56//2
f 59//1 55//1 60//1
f 60//2 55//2 59//2
f 61//1 60//1 58//1
f 58//2 60//2 61//2
f 56//1 60//1 62//1
f 62//2 60//2 56//2
f 59//1 60//1 63//1
f 63//2 60//2 59//2
f 63//1 60//1 61//1
f 61//2 60//2 63//2
f 56//1 62//1 64//1
f 64//2 62//2 56//2
f 64//1 62//1 65//1
f 65//2 62//2 64//2
f 64//1 65//1 66//1
f 66//2 65//2 64//2
f 66//1 65//1 67//1
f 67//2 65//2 66//2
f 66//1 67//1 68//1
f 68//2 67//2 66//2
f 68//1 67//1 69//1
f 69//2 67//2 68//2
f 68//1 69//1 70//1
f 70//2 69//2 68//2
f 70//1 69//1 71//1
f 71//2 69//2 70//2
f 70//1 71//1 72//1
f 72//2 71//2 70//2
f 72//1 71//1 73//1
f 73//2 71//2 72//2
