# SSTK version 0.8.0
# 190
mtllib original_190.mtl
o mesh107/mesh107-geometry#mesh107-geometry
v -0.879589 0.026569 -0.025350
v -0.880767 0.027223 -0.035674
v -0.880767 0.026569 -0.025350
v -0.879603 0.026809 -0.029146
v -0.879589 0.026628 -0.026287
v -0.879497 0.027223 -0.035674
v -0.879511 0.026736 -0.027987
v -0.879565 0.026850 -0.029789
v -0.879175 0.026598 -0.025803
v -0.879497 0.026989 -0.031991
v -0.879236 0.026686 -0.027202
v -0.879451 0.026886 -0.030351
v -0.878909 0.026659 -0.026774
v -0.879067 0.027017 -0.032431
v -0.878691 0.026576 -0.025457
v -0.879261 0.026916 -0.030833
v -0.878530 0.026640 -0.026468
v -0.878996 0.026941 -0.031234
v -0.878135 0.026563 -0.025250
v -0.878581 0.027037 -0.032746
v -0.878098 0.026628 -0.026284
v -0.878678 0.026961 -0.031550
v -0.877507 0.026558 -0.025181
v -0.878333 0.026976 -0.031775
v -0.877613 0.026624 -0.026223
v -0.878040 0.027049 -0.032935
v -0.877211 0.026627 -0.026268
v -0.877959 0.026984 -0.031910
v -0.876864 0.026562 -0.025247
v -0.877443 0.027053 -0.032998
v -0.876837 0.026636 -0.026404
v -0.877556 0.026987 -0.031956
v -0.876269 0.026575 -0.025443
v -0.877159 0.026984 -0.031912
v -0.876491 0.026650 -0.026629
v -0.876770 0.027049 -0.032928
v -0.876173 0.026670 -0.026945
v -0.876792 0.026976 -0.031781
v -0.875721 0.026596 -0.025771
v -0.876455 0.026962 -0.031563
v -0.875908 0.026696 -0.027350
v -0.876135 0.027036 -0.032720
v -0.875718 0.026727 -0.027844
v -0.876149 0.026943 -0.031258
v -0.875221 0.026625 -0.026230
v -0.875894 0.026918 -0.030862
v -0.875604 0.026764 -0.028426
v -0.875572 0.027014 -0.032385
v -0.875567 0.026806 -0.029096
v -0.875712 0.026887 -0.030369
v -0.875118 0.026986 -0.031938
v -0.875603 0.026850 -0.029781
v -0.874804 0.026661 -0.026809
v -0.874763 0.026951 -0.031383
v -0.874506 0.026705 -0.027498
v -0.874494 0.026909 -0.030723
v -0.874328 0.026755 -0.028295
v -0.874325 0.026863 -0.029987
v -0.874268 0.026813 -0.029202
vn 0 0.998002551082325 0.06317363400321015
vn 0 -0.998002551082325 -0.06317363400321015
usemtl material_0_0
f 1//1 2//1 3//1
f 2//1 1//1 4//1
f 3//2 2//2 1//2
f 4//2 1//2 2//2
f 4//1 1//1 5//1
f 5//2 1//2 4//2
f 4//1 6//1 2//1
f 2//2 6//2 4//2
f 4//1 5//1 7//1
f 7//2 5//2 4//2
f 6//1 4//1 8//1
f 8//2 4//2 6//2
f 7//1 5//1 9//1
f 9//2 5//2 7//2
f 6//1 8//1 10//1
f 10//2 8//2 6//2
f 7//1 9//1 11//1
f 11//2 9//2 7//2
f 12//1 10//1 8//1
f 8//2 10//2 12//2
f 11//1 9//1 13//1
f 13//2 9//2 11//2
f 10//1 12//1 14//1
f 14//2 12//2 10//2
f 13//1 9//1 15//1
f 15//2 9//2 13//2
f 14//1 12//1 16//1
f 16//2 12//2 14//2
f 13//1 15//1 17//1
f 17//2 15//2 13//2
f 14//1 16//1 18//1
f 18//2 16//2 14//2
f 17//1 15//1 19//1
f 19//2 15//2 17//2
f 14//1 18//1 20//1
f 20//2 18//2 14//2
f 17//1 19//1 21//1
f 21//2 19//2 17//2
f 20//1 18//1 22//1
f 22//2 18//2 20//2
f 21//1 19//1 23//1
f 23//2 19//2 21//2
f 20//1 22//1 24//1
f 24//2 22//2 20//2
f 21//1 23//1 25//1
f 25//2 23//2 21//2
f 20//1 24//1 26//1
f 26//2 24//2 20//2
f 25//1 23//1 27//1
f 27//2 23//2 25//2
f 26//1 24//1 28//1
f 28//2 24//2 26//2
f 27//1 23//1 29//1
f 29//2 23//2 27//2
f 26//1 28//1 30//1
f 30//2 28//2 26//2
f 27//1 29//1 31//1
f 31//2 29//2 27//2
f 30//1 28//1 32//1
f 32//2 28//2 30//2
f 31//1 29//1 33//1
f 33//2 29//2 31//2
f 30//1 32//1 34//1
f 34//2 32//2 30//2
f 31//1 33//1 35//1
f 35//2 33//2 31//2
f 30//1 34//1 36//1
f 36//2 34//2 30//2
f 35//1 33//1 37//1
f 37//2 33//2 35//2
f 36//1 34//1 38//1
f 38//2 34//2 36//2
f 37//1 33//1 39//1
f 39//2 33//2 37//2
f 36//1 38//1 40//1
f 40//2 38//2 36//2
f 37//1 39//1 41//1
f 41//2 39//2 37//2
f 36//1 40//1 42//1
f 42//2 40//2 36//2
f 41//1 39//1 43//1
f 43//2 39//2 41//2
f 42//1 40//1 44//1
f 44//2 40//2 42//2
f 43//1 39//1 45//1
f 45//2 39//2 43//2
f 42//1 44//1 46//1
f 46//2 44//2 42//2
f 43//1 45//1 47//1
f 47//2 45//2 43//2
f 42//1 46//1 48//1
f 48//2 46//2 42//2
f 47//1 45//1 49//1
f 49//2 45//2 47//2
f 48//1 46//1 50//1
f 50//2 46//2 48//2
f 51//1 49//1 45//1
f 45//2 49//2 51//2
f 48//1 50//1 52//1
f 52//2 50//2 48//2
f 48//1 49//1 51//1
f 51//2 49//2 48//2
f 51//1 45//1 53//1
f 53//2 45//2 51//2
f 48//1 52//1 49//1
f 49//2 52//2 48//2
f 51//1 53//1 54//1
f 54//2 53//2 51//2
f 54//1 53//1 55//1
f 55//2 53//2 54//2
f 54//1 55//1 56//1
f 56//2 55//2 54//2
f 56//1 55//1 57//1
f 57//2 55//2 56//2
f 56//1 57//1 58//1
f 58//2 57//2 56//2
f 58//1 57//1 59//1
f 59//2 57//2 58//2
