# SSTK version 0.8.0
# 235
mtllib original_235.mtl
o mesh152/mesh152-geometry#mesh152-geometry
v -0.645632 0.032011 -0.111326
v -0.642852 0.032130 -0.113207
v -0.645900 0.032105 -0.112801
v -0.645132 0.031927 -0.109995
v -0.644400 0.031852 -0.108808
v -0.643436 0.031786 -0.107764
v -0.642287 0.031732 -0.106914
v -0.642143 0.031990 -0.110982
v -0.641000 0.031694 -0.106307
v -0.641065 0.031894 -0.109480
v -0.639666 0.031840 -0.108624
v -0.639573 0.031671 -0.105942
v -0.637991 0.031822 -0.108339
v -0.638008 0.031663 -0.105821
v -0.636275 0.031672 -0.105962
v -0.636958 0.031828 -0.108432
v -0.636008 0.031846 -0.108711
v -0.634698 0.031699 -0.106385
v -0.635142 0.031875 -0.109176
v -0.634359 0.031916 -0.109826
v -0.633277 0.031743 -0.107090
v -0.633711 0.031966 -0.110614
v -0.633247 0.032022 -0.111491
v -0.632013 0.031806 -0.108077
v -0.632970 0.032083 -0.112457
v -0.632877 0.032150 -0.113511
v -0.632327 0.032491 -0.118900
v -0.630862 0.032407 -0.117576
v -0.633220 0.032271 -0.115423
v -0.630976 0.031881 -0.109267
v -0.633649 0.032322 -0.116241
v -0.630235 0.031964 -0.110581
v -0.634249 0.032368 -0.116967
v -0.629947 0.032293 -0.115778
v -0.634283 0.032540 -0.119680
v -0.629791 0.032055 -0.112018
v -0.634384 0.032746 -0.122929
v -0.629642 0.032154 -0.113578
v -0.634871 0.032701 -0.122216
v -0.634092 0.032800 -0.123779
v -0.634981 0.032406 -0.117562
v -0.632797 0.032598 -0.120592
v -0.635553 0.032664 -0.121640
v -0.633995 0.032862 -0.124767
v -0.635807 0.032433 -0.117988
v -0.632875 0.033145 -0.129240
v -0.637208 0.032616 -0.120880
v -0.631768 0.033060 -0.127894
v -0.634278 0.032959 -0.126297
v -0.637737 0.032455 -0.118328
v -0.631725 0.032673 -0.121776
v -0.634384 0.033210 -0.130269
v -0.639058 0.032600 -0.120626
v -0.631088 0.032962 -0.126343
v -0.635129 0.033038 -0.127539
v -0.639550 0.032602 -0.120660
v -0.631078 0.032761 -0.123166
v -0.636175 0.033252 -0.130921
v -0.639888 0.032433 -0.117990
v -0.630862 0.032858 -0.124700
v -0.636429 0.033090 -0.128363
v -0.638059 0.033107 -0.128638
v -0.638127 0.033265 -0.131139
v -0.639540 0.033259 -0.131034
v -0.639689 0.033089 -0.128359
v -0.640832 0.033239 -0.130719
v -0.641023 0.033037 -0.127522
v -0.641997 0.032948 -0.126128
v -0.642004 0.033206 -0.130193
v -0.642547 0.032825 -0.124176
v -0.643055 0.033159 -0.129457
v -0.643957 0.033100 -0.128530
v -0.644681 0.033031 -0.127431
v -0.645227 0.032950 -0.126160
v -0.645595 0.032859 -0.124716
vn 0 0.998002551082325 0.06317363400321015
vn 0 -0.998002551082325 -0.06317363400321015
usemtl material_0_0
f 1//1 2//1 3//1
f 2//1 1//1 4//1
f 3//2 2//2 1//2
f 4//2 1//2 2//2
f 2//1 4//1 5//1
f 5//2 4//2 2//2
f 2//1 5//1 6//1
f 6//2 5//2 2//2
f 2//1 6//1 7//1
f 7//2 6//2 2//2
f 2//1 7//1 8//1
f 8//2 7//2 2//2
f 8//1 7//1 9//1
f 9//2 7//2 8//2
f 8//1 9//1 10//1
f 10//2 9//2 8//2
f 10//1 9//1 11//1
f 11//2 9//2 10//2
f 11//1 9//1 12//1
f 12//2 9//2 11//2
f 11//1 12//1 13//1
f 13//2 12//2 11//2
f 13//1 12//1 14//1
f 14//2 12//2 13//2
f 13//1 14//1 15//1
f 15//2 14//2 13//2
f 13//1 15//1 16//1
f 16//2 15//2 13//2
f 16//1 15//1 17//1
f 17//2 15//2 16//2
f 17//1 15//1 18//1
f 18//2 15//2 17//2
f 17//1 18//1 19//1
f 19//2 18//2 17//2
f 19//1 18//1 20//1
f 20//2 18//2 19//2
f 20//1 18//1 21//1
f 21//2 18//2 20//2
f 20//1 21//1 22//1
f 22//2 21//2 20//2
f 22//1 21//1 23//1
f 23//2 21//2 22//2
f 23//1 21//1 24//1
f 24//2 21//2 23//2
f 23//1 24//1 25//1
f 25//2 24//2 23//2
f 25//1 24//1 26//1
f 26//2 24//2 25//2
f 26//1 24//1 27//1
f 27//2 24//2 26//2
f 27//1 24//1 28//1
f 28//2 24//2 27//2
f 27//1 29//1 26//1
f 26//2 29//2 27//2
f 28//1 24//1 30//1
f 30//2 24//2 28//2
f 27//1 31//1 29//1
f 29//2 31//2 27//2
f 28//1 30//1 32//1
f 32//2 30//2 28//2
f 27//1 33//1 31//1
f 31//2 33//2 27//2
f 28//1 32//1 34//1
f 34//2 32//2 28//2
f 35//1 33//1 27//1
f 27//2 33//2 35//2
f 34//1 32//1 36//1
f 36//2 32//2 34//2
f 37//1 33//1 35//1
f 35//2 33//2 37//2
f 34//1 36//1 38//1
f 38//2 36//2 34//2
f 39//1 33//1 37//1
f 37//2 33//2 39//2
f 35//1 40//1 37//1
f 37//2 40//2 35//2
f 39//1 41//1 33//1
f 33//2 41//2 39//2
f 40//1 35//1 42//1
f 42//2 35//2 40//2
f 43//1 41//1 39//1
f 39//2 41//2 43//2
f 40//1 42//1 44//1
f 44//2 42//2 40//2
f 43//1 45//1 41//1
f 41//2 45//2 43//2
f 44//1 42//1 46//1
f 46//2 42//2 44//2
f 47//1 45//1 43//1
f 43//2 45//2 47//2
f 46//1 42//1 48//1
f 48//2 42//2 46//2
f 46//1 49//1 44//1
f 44//2 49//2 46//2
f 47//1 50//1 45//1
f 45//2 50//2 47//2
f 48//1 42//1 51//1
f 51//2 42//2 48//2
f 52//1 49//1 46//1
f 46//2 49//2 52//2
f 53//1 50//1 47//1
f 47//2 50//2 53//2
f 48//1 51//1 54//1
f 54//2 51//2 48//2
f 52//1 55//1 49//1
f 49//2 55//2 52//2
f 56//1 50//1 53//1
f 53//2 50//2 56//2
f 54//1 51//1 57//1
f 57//2 51//2 54//2
f 58//1 55//1 52//1
f 52//2 55//2 58//2
f 50//1 56//1 59//1
f 59//2 56//2 50//2
f 54//1 57//1 60//1
f 60//2 57//2 54//2
f 58//1 61//1 55//1
f 55//2 61//2 58//2
f 58//1 62//1 61//1
f 61//2 62//2 58//2
f 63//1 62//1 58//1
f 58//2 62//2 63//2
f 64//1 62//1 63//1
f 63//2 62//2 64//2
f 64//1 65//1 62//1
f 62//2 65//2 64//2
f 66//1 65//1 64//1
f 64//2 65//2 66//2
f 66//1 67//1 65//1
f 65//2 67//2 66//2
f 66//1 68//1 67//1
f 67//2 68//2 66//2
f 69//1 68//1 66//1
f 66//2 68//2 69//2
f 69//1 70//1 68//1
f 68//2 70//2 69//2
f 71//1 70//1 69//1
f 69//2 70//2 71//2
f 72//1 70//1 71//1
f 71//2 70//2 72//2
f 73//1 70//1 72//1
f 72//2 70//2 73//2
f 74//1 70//1 73//1
f 73//2 70//2 74//2
f 70//1 74//1 75//1
f 75//2 74//2 70//2
