# SSTK version 0.8.0
# 321
mtllib original_321.mtl
o mesh238/mesh238-geometry#mesh238-geometry
v 0.518178 0.032131 -0.113209
v 0.518179 0.032241 -0.114961
v 0.518118 0.032185 -0.114070
v 0.518359 0.032082 -0.112450
v 0.518362 0.032291 -0.115746
v 0.518660 0.032041 -0.111792
v 0.518666 0.032334 -0.116426
v 0.519081 0.032006 -0.111236
v 0.519092 0.032370 -0.117000
v 0.519606 0.031978 -0.110794
v 0.519431 0.032169 -0.113810
v 0.519501 0.032132 -0.113229
v 0.519615 0.032399 -0.117456
v 0.519641 0.032100 -0.112722
v 0.519501 0.032235 -0.114852
v 0.520215 0.031958 -0.110478
v 0.525019 0.032169 -0.113810
v 0.519698 0.032290 -0.115732
v 0.519850 0.032072 -0.112286
v 0.523686 0.032235 -0.114852
v 0.520210 0.032420 -0.117781
v 0.520129 0.032049 -0.111922
v 0.524074 0.032372 -0.117021
v 0.519896 0.032313 -0.116098
v 0.520463 0.032031 -0.111636
v 0.524491 0.032336 -0.116458
v 0.523563 0.032400 -0.117468
v 0.520161 0.032333 -0.116415
v 0.520909 0.031946 -0.110288
v 0.524788 0.032294 -0.115792
v 0.523523 0.032287 -0.115678
v 0.520477 0.032350 -0.116671
v 0.520835 0.032018 -0.111431
v 0.524967 0.032245 -0.115022
v 0.523206 0.032324 -0.116267
v 0.520878 0.032432 -0.117977
v 0.521246 0.032010 -0.111308
v 0.525026 0.032190 -0.114148
v 0.522984 0.032420 -0.117787
v 0.520827 0.032361 -0.116854
v 0.521689 0.031942 -0.110225
v 0.522880 0.032344 -0.116588
v 0.521632 0.032370 -0.117000
v 0.521696 0.032008 -0.111267
v 0.522509 0.032359 -0.116817
v 0.521618 0.032436 -0.118042
v 0.522312 0.031944 -0.110265
v 0.522335 0.032432 -0.117978
v 0.522343 0.032013 -0.111359
v 0.522093 0.032368 -0.116954
v 0.522878 0.031952 -0.110384
v 0.522888 0.032031 -0.111634
v 0.523385 0.031964 -0.110582
v 0.523331 0.032061 -0.112109
v 0.523672 0.032105 -0.112803
v 0.523834 0.031982 -0.110859
v 0.524984 0.032095 -0.112641
v 0.524221 0.032004 -0.111208
v 0.524541 0.032030 -0.111621
v 0.524796 0.032060 -0.112099
vn 0 0.998002551082325 0.06317363400321015
vn 0 -0.998002551082325 -0.06317363400321015
usemtl material_0_0
f 1//1 2//1 3//1
f 2//1 1//1 4//1
f 3//2 2//2 1//2
f 4//2 1//2 2//2
f 2//1 4//1 5//1
f 5//2 4//2 2//2
f 5//1 4//1 6//1
f 6//2 4//2 5//2
f 5//1 6//1 7//1
f 7//2 6//2 5//2
f 7//1 6//1 8//1
f 8//2 6//2 7//2
f 7//1 8//1 9//1
f 9//2 8//2 7//2
f 9//1 8//1 10//1
f 10//2 8//2 9//2
f 9//1 10//1 11//1
f 11//2 10//2 9//2
f 11//1 10//1 12//1
f 12//2 10//2 11//2
f 11//1 13//1 9//1
f 9//2 13//2 11//2
f 12//1 10//1 14//1
f 14//2 10//2 12//2
f 13//1 11//1 15//1
f 15//2 11//2 13//2
f 14//1 10//1 16//1
f 16//2 10//2 14//2
f 17//1 15//1 11//1
f 11//2 15//2 17//2
f 13//1 15//1 18//1
f 18//2 15//2 13//2
f 14//1 16//1 19//1
f 19//2 16//2 14//2
f 15//1 17//1 20//1
f 20//2 17//2 15//2
f 13//1 18//1 21//1
f 21//2 18//2 13//2
f 19//1 16//1 22//1
f 22//2 16//2 19//2
f 20//1 17//1 23//1
f 23//2 17//2 20//2
f 21//1 18//1 24//1
f 24//2 18//2 21//2
f 22//1 16//1 25//1
f 25//2 16//2 22//2
f 23//1 17//1 26//1
f 26//2 17//2 23//2
f 27//1 20//1 23//1
f 23//2 20//2 27//2
f 21//1 24//1 28//1
f 28//2 24//2 21//2
f 25//1 16//1 29//1
f 29//2 16//2 25//2
f 26//1 17//1 30//1
f 30//2 17//2 26//2
f 27//1 31//1 20//1
f 20//2 31//2 27//2
f 21//1 28//1 32//1
f 32//2 28//2 21//2
f 25//1 29//1 33//1
f 33//2 29//2 25//2
f 30//1 17//1 34//1
f 34//2 17//2 30//2
f 27//1 35//1 31//1
f 31//2 35//2 27//2
f 21//1 32//1 36//1
f 36//2 32//2 21//2
f 33//1 29//1 37//1
f 37//2 29//2 33//2
f 34//1 17//1 38//1
f 38//2 17//2 34//2
f 39//1 35//1 27//1
f 27//2 35//2 39//2
f 36//1 32//1 40//1
f 40//2 32//2 36//2
f 37//1 29//1 41//1
f 41//2 29//2 37//2
f 39//1 42//1 35//1
f 35//2 42//2 39//2
f 36//1 40//1 43//1
f 43//2 40//2 36//2
f 37//1 41//1 44//1
f 44//2 41//2 37//2
f 39//1 45//1 42//1
f 42//2 45//2 39//2
f 36//1 43//1 46//1
f 46//2 43//2 36//2
f 44//1 41//1 47//1
f 47//2 41//2 44//2
f 48//1 45//1 39//1
f 39//2 45//2 48//2
f 46//1 43//1 48//1
f 48//2 43//2 46//2
f 44//1 47//1 49//1
f 49//2 47//2 44//2
f 48//1 50//1 45//1
f 45//2 50//2 48//2
f 48//1 43//1 50//1
f 50//2 43//2 48//2
f 49//1 47//1 51//1
f 51//2 47//2 49//2
f 49//1 51//1 52//1
f 52//2 51//2 49//2
f 52//1 51//1 53//1
f 53//2 51//2 52//2
f 52//1 53//1 54//1
f 54//2 53//2 52//2
f 54//1 53//1 55//1
f 55//2 53//2 54//2
f 55//1 53//1 56//1
f 56//2 53//2 55//2
f 55//1 56//1 57//1
f 57//2 56//2 55//2
f 57//1 56//1 58//1
f 58//2 56//2 57//2
f 57//1 58//1 59//1
f 59//2 58//2 57//2
f 57//1 59//1 60//1
f 60//2 59//2 57//2
