# SSTK version 0.8.0
# 240
mtllib original_240.mtl
o mesh157/mesh157-geometry#mesh157-geometry
v -0.375704 0.016349 0.136098
v -0.372418 0.016534 0.133175
v -0.375704 0.017918 0.111321
v -0.366237 0.016349 0.136098
v -0.372418 0.017733 0.114245
v -0.366237 0.016534 0.133175
v -0.366389 0.017918 0.111321
v -0.372418 0.017074 0.124656
v -0.364050 0.016356 0.135995
v -0.367456 0.017733 0.114245
v -0.372418 0.017259 0.121732
v -0.364001 0.016542 0.133056
v -0.365174 0.017727 0.114332
v -0.366677 0.017074 0.124656
v -0.362232 0.016376 0.135684
v -0.363826 0.017906 0.111509
v -0.367050 0.017259 0.121732
v -0.362960 0.016559 0.132786
v -0.363680 0.017711 0.114592
v -0.365174 0.017263 0.121661
v -0.362105 0.016585 0.132380
v -0.361825 0.017870 0.112073
v -0.364584 0.017067 0.124760
v -0.360735 0.016408 0.135171
v -0.362706 0.017679 0.115086
v -0.363917 0.017277 0.121445
v -0.361410 0.016621 0.131799
v -0.361986 0.017629 0.115876
v -0.363045 0.017047 0.125070
v -0.360851 0.016672 0.131003
v -0.361542 0.017565 0.116888
v -0.362818 0.017308 0.120951
v -0.360483 0.016734 0.130029
v -0.360293 0.017810 0.113028
v -0.361920 0.017012 0.125637
v -0.359514 0.016453 0.134459
v -0.361393 0.017492 0.118048
v -0.362028 0.017355 0.120211
v -0.360360 0.016804 0.128915
v -0.360106 0.017247 0.121918
v -0.361552 0.017417 0.119239
v -0.359638 0.017127 0.123807
v -0.359133 0.017724 0.114389
v -0.361630 0.017184 0.122915
v -0.358167 0.017042 0.125163
v -0.360538 0.016886 0.127620
v -0.359022 0.017327 0.120651
v -0.361072 0.016956 0.126507
v -0.358517 0.016515 0.133477
v -0.358402 0.017622 0.115988
v -0.357693 0.016599 0.132152
v -0.358375 0.017419 0.119201
v -0.357259 0.016932 0.126896
v -0.358159 0.017517 0.117659
v -0.357141 0.016698 0.130595
v -0.356956 0.016804 0.128915
vn 0 0.998002551082325 0.06317363400321015
vn 0 -0.998002551082325 -0.06317363400321015
usemtl material_0_0
f 1//1 2//1 3//1
f 2//1 1//1 4//1
f 3//2 2//2 1//2
f 4//2 1//2 2//2
f 5//1 3//1 2//1
f 2//2 3//2 5//2
f 2//1 4//1 6//1
f 6//2 4//2 2//2
f 3//1 5//1 7//1
f 7//2 5//2 3//2
f 5//1 2//1 8//1
f 8//2 2//2 5//2
f 6//1 4//1 9//1
f 9//2 4//2 6//2
f 7//1 5//1 10//1
f 10//2 5//2 7//2
f 5//1 8//1 11//1
f 11//2 8//2 5//2
f 6//1 9//1 12//1
f 12//2 9//2 6//2
f 7//1 10//1 13//1
f 13//2 10//2 7//2
f 14//1 11//1 8//1
f 8//2 11//2 14//2
f 12//1 9//1 15//1
f 15//2 9//2 12//2
f 7//1 13//1 16//1
f 16//2 13//2 7//2
f 11//1 14//1 17//1
f 17//2 14//2 11//2
f 12//1 15//1 18//1
f 18//2 15//2 12//2
f 16//1 13//1 19//1
f 19//2 13//2 16//2
f 17//1 14//1 20//1
f 20//2 14//2 17//2
f 18//1 15//1 21//1
f 21//2 15//2 18//2
f 16//1 19//1 22//1
f 22//2 19//2 16//2
f 20//1 14//1 23//1
f 23//2 14//2 20//2
f 21//1 15//1 24//1
f 24//2 15//2 21//2
f 22//1 19//1 25//1
f 25//2 19//2 22//2
f 20//1 23//1 26//1
f 26//2 23//2 20//2
f 21//1 24//1 27//1
f 27//2 24//2 21//2
f 22//1 25//1 28//1
f 28//2 25//2 22//2
f 26//1 23//1 29//1
f 29//2 23//2 26//2
f 27//1 24//1 30//1
f 30//2 24//2 27//2
f 22//1 28//1 31//1
f 31//2 28//2 22//2
f 26//1 29//1 32//1
f 32//2 29//2 26//2
f 30//1 24//1 33//1
f 33//2 24//2 30//2
f 22//1 31//1 34//1
f 34//2 31//2 22//2
f 32//1 29//1 35//1
f 35//2 29//2 32//2
f 33//1 24//1 36//1
f 36//2 24//2 33//2
f 34//1 31//1 37//1
f 37//2 31//2 34//2
f 32//1 35//1 38//1
f 38//2 35//2 32//2
f 33//1 36//1 39//1
f 39//2 36//2 33//2
f 37//1 40//1 34//1
f 34//2 40//2 37//2
f 38//1 35//1 41//1
f 41//2 35//2 38//2
f 39//1 36//1 42//1
f 42//2 36//2 39//2
f 41//1 40//1 37//1
f 37//2 40//2 41//2
f 34//1 40//1 43//1
f 43//2 40//2 34//2
f 41//1 35//1 44//1
f 44//2 35//2 41//2
f 42//1 36//1 45//1
f 45//2 36//2 42//2
f 42//1 46//1 39//1
f 39//2 46//2 42//2
f 41//1 44//1 40//1
f 40//2 44//2 41//2
f 43//1 40//1 47//1
f 47//2 40//2 43//2
f 48//1 44//1 35//1
f 35//2 44//2 48//2
f 45//1 36//1 49//1
f 49//2 36//2 45//2
f 42//1 48//1 46//1
f 46//2 48//2 42//2
f 43//1 47//1 50//1
f 50//2 47//2 43//2
f 44//1 48//1 42//1
f 42//2 48//2 44//2
f 45//1 49//1 51//1
f 51//2 49//2 45//2
f 50//1 47//1 52//1
f 52//2 47//2 50//2
f 45//1 51//1 53//1
f 53//2 51//2 45//2
f 50//1 52//1 54//1
f 54//2 52//2 50//2
f 53//1 51//1 55//1
f 55//2 51//2 53//2
f 53//1 55//1 56//1
f 56//2 55//2 53//2
