# SSTK version 0.8.0
# 183
mtllib original_183.mtl
o mesh100/mesh100-geometry#mesh100-geometry
v -0.842747 0.021660 0.052197
v -0.842882 0.021872 0.048846
v -0.843252 0.021688 0.051758
v -0.842845 0.021828 0.049548
v -0.842844 0.021916 0.048153
v -0.842737 0.021790 0.050147
v -0.842561 0.022091 0.045399
v -0.842166 0.021640 0.052511
v -0.843278 0.022055 0.045967
v -0.842732 0.021954 0.047560
v -0.842556 0.021759 0.050643
v -0.843661 0.021723 0.051202
v -0.842544 0.021985 0.047067
v -0.842303 0.021734 0.051036
v -0.843785 0.022004 0.046762
v -0.841702 0.022112 0.045058
v -0.841992 0.021715 0.051335
v -0.843953 0.021765 0.050537
v -0.842282 0.022010 0.046674
v -0.841510 0.021629 0.052699
v -0.844086 0.021942 0.047746
v -0.841959 0.022029 0.046373
v -0.841636 0.021701 0.051549
v -0.844129 0.021814 0.049764
v -0.841592 0.022043 0.046159
v -0.841237 0.021693 0.051677
v -0.844187 0.021870 0.048881
v -0.840772 0.022119 0.044945
v -0.840779 0.021625 0.052762
v -0.841180 0.022051 0.046030
v -0.840793 0.021691 0.051719
v -0.840722 0.022053 0.045987
v -0.840107 0.021698 0.051605
v -0.840189 0.022117 0.044983
v -0.840189 0.021627 0.052716
v -0.840134 0.022047 0.046082
v -0.839647 0.021636 0.052579
v -0.839662 0.022110 0.045099
v -0.839544 0.021720 0.051262
v -0.839639 0.022029 0.046367
v -0.839153 0.021651 0.052352
v -0.839191 0.022097 0.045291
v -0.839135 0.021756 0.050681
v -0.839259 0.021999 0.046841
v -0.838708 0.021671 0.052033
v -0.839015 0.021958 0.047501
v -0.838909 0.021809 0.049853
v -0.838775 0.022080 0.045561
v -0.837660 0.021798 0.050015
v -0.837780 0.021970 0.047311
v -0.838326 0.021696 0.051633
v -0.838422 0.022059 0.045901
v -0.838024 0.021726 0.051164
v -0.838138 0.022033 0.046306
v -0.837802 0.021760 0.050624
v -0.837924 0.022003 0.046776
vn 0 0.998002551082325 0.06317363400321015
vn 0 -0.998002551082325 -0.06317363400321015
usemtl material_0_0
f 1//1 2//1 3//1
f 2//1 1//1 4//1
f 3//2 2//2 1//2
f 4//2 1//2 2//2
f 5//1 3//1 2//1
f 2//2 3//2 5//2
f 4//1 1//1 6//1
f 6//2 1//2 4//2
f 7//1 3//1 5//1
f 5//2 3//2 7//2
f 6//1 1//1 8//1
f 8//2 1//2 6//2
f 9//1 3//1 7//1
f 7//2 3//2 9//2
f 7//1 5//1 10//1
f 10//2 5//2 7//2
f 6//1 8//1 11//1
f 11//2 8//2 6//2
f 9//1 12//1 3//1
f 3//2 12//2 9//2
f 7//1 10//1 13//1
f 13//2 10//2 7//2
f 11//1 8//1 14//1
f 14//2 8//2 11//2
f 15//1 12//1 9//1
f 9//2 12//2 15//2
f 7//1 13//1 16//1
f 16//2 13//2 7//2
f 14//1 8//1 17//1
f 17//2 8//2 14//2
f 15//1 18//1 12//1
f 12//2 18//2 15//2
f 16//1 13//1 19//1
f 19//2 13//2 16//2
f 17//1 8//1 20//1
f 20//2 8//2 17//2
f 21//1 18//1 15//1
f 15//2 18//2 21//2
f 16//1 19//1 22//1
f 22//2 19//2 16//2
f 17//1 20//1 23//1
f 23//2 20//2 17//2
f 21//1 24//1 18//1
f 18//2 24//2 21//2
f 16//1 22//1 25//1
f 25//2 22//2 16//2
f 23//1 20//1 26//1
f 26//2 20//2 23//2
f 24//1 21//1 27//1
f 27//2 21//2 24//2
f 16//1 25//1 28//1
f 28//2 25//2 16//2
f 26//1 20//1 29//1
f 29//2 20//2 26//2
f 28//1 25//1 30//1
f 30//2 25//2 28//2
f 26//1 29//1 31//1
f 31//2 29//2 26//2
f 28//1 30//1 32//1
f 32//2 30//2 28//2
f 31//1 29//1 33//1
f 33//2 29//2 31//2
f 28//1 32//1 34//1
f 34//2 32//2 28//2
f 33//1 29//1 35//1
f 35//2 29//2 33//2
f 34//1 32//1 36//1
f 36//2 32//2 34//2
f 33//1 35//1 37//1
f 37//2 35//2 33//2
f 34//1 36//1 38//1
f 38//2 36//2 34//2
f 33//1 37//1 39//1
f 39//2 37//2 33//2
f 38//1 36//1 40//1
f 40//2 36//2 38//2
f 39//1 37//1 41//1
f 41//2 37//2 39//2
f 38//1 40//1 42//1
f 42//2 40//2 38//2
f 39//1 41//1 43//1
f 43//2 41//2 39//2
f 42//1 40//1 44//1
f 44//2 40//2 42//2
f 43//1 41//1 45//1
f 45//2 41//2 43//2
f 42//1 44//1 46//1
f 46//2 44//2 42//2
f 43//1 45//1 47//1
f 47//2 45//2 43//2
f 42//1 46//1 48//1
f 48//2 46//2 42//2
f 47//1 45//1 49//1
f 49//2 45//2 47//2
f 48//1 46//1 50//1
f 50//2 46//2 48//2
f 49//1 45//1 51//1
f 51//2 45//2 49//2
f 48//1 50//1 52//1
f 52//2 50//2 48//2
f 49//1 51//1 53//1
f 53//2 51//2 49//2
f 52//1 50//1 54//1
f 54//2 50//2 52//2
f 49//1 53//1 55//1
f 55//2 53//2 49//2
f 54//1 50//1 56//1
f 56//2 50//2 54//2
