# SSTK version 0.8.0
# 180
mtllib original_180.mtl
o mesh97/mesh97-geometry#mesh97-geometry
v -0.881882 0.016360 0.135922
v -0.883152 0.016660 0.131183
v -0.883152 0.016360 0.135922
v -0.883025 0.016824 0.128602
v -0.882498 0.016799 0.128992
v -0.883255 0.016712 0.130362
v -0.882147 0.016767 0.129507
v -0.883565 0.016748 0.129799
v -0.881948 0.016722 0.130215
v -0.883694 0.016839 0.128356
v -0.881882 0.016660 0.131183
v -0.884063 0.016769 0.129474
v -0.884472 0.016845 0.128275
v -0.884733 0.016775 0.129366
v -0.885120 0.016841 0.128339
v -0.885280 0.016771 0.129439
v -0.885710 0.016828 0.128532
v -0.885795 0.016757 0.129658
v -0.886221 0.016735 0.130003
v -0.886242 0.016808 0.128853
v -0.886504 0.016707 0.130451
v -0.886663 0.016669 0.131046
v -0.886716 0.016780 0.129303
v -0.886716 0.016619 0.131831
v -0.886716 0.017014 0.125599
v -0.886716 0.016360 0.135922
v -0.887986 0.017014 0.125599
v -0.887986 0.016360 0.135922
vn 0 0.998002551082325 0.06317363400321015
vn 0 -0.998002551082325 -0.06317363400321015
usemtl material_0_0
f 1//1 2//1 3//1
f 2//1 1//1 4//1
f 3//2 2//2 1//2
f 4//2 1//2 2//2
f 4//1 1//1 5//1
f 5//2 1//2 4//2
f 4//1 6//1 2//1
f 2//2 6//2 4//2
f 5//1 1//1 7//1
f 7//2 1//2 5//2
f 4//1 8//1 6//1
f 6//2 8//2 4//2
f 7//1 1//1 9//1
f 9//2 1//2 7//2
f 10//1 8//1 4//1
f 4//2 8//2 10//2
f 9//1 1//1 11//1
f 11//2 1//2 9//2
f 10//1 12//1 8//1
f 8//2 12//2 10//2
f 13//1 12//1 10//1
f 10//2 12//2 13//2
f 13//1 14//1 12//1
f 12//2 14//2 13//2
f 15//1 14//1 13//1
f 13//2 14//2 15//2
f 15//1 16//1 14//1
f 14//2 16//2 15//2
f 17//1 16//1 15//1
f 15//2 16//2 17//2
f 17//1 18//1 16//1
f 16//2 18//2 17//2
f 17//1 19//1 18//1
f 18//2 19//2 17//2
f 20//1 19//1 17//1
f 17//2 19//2 20//2
f 20//1 21//1 19//1
f 19//2 21//2 20//2
f 20//1 22//1 21//1
f 21//2 22//2 20//2
f 23//1 22//1 20//1
f 20//2 22//2 23//2
f 22//1 23//1 24//1
f 24//2 23//2 22//2
f 25//1 24//1 23//1
f 23//2 24//2 25//2
f 25//1 26//1 24//1
f 24//2 26//2 25//2
f 27//1 26//1 25//1
f 25//2 26//2 27//2
f 26//1 27//1 28//1
f 28//2 27//2 26//2
