# SSTK version 0.8.0
# 133
mtllib original_133.mtl
o mesh50/mesh50-geometry#mesh50-geometry
v 0.350141 0.031852 -0.108805
v 0.350141 0.031963 -0.110557
v 0.350081 0.031906 -0.109666
v 0.350321 0.031804 -0.108045
v 0.350324 0.032012 -0.111342
v 0.350622 0.031762 -0.107387
v 0.350628 0.032055 -0.112021
v 0.351044 0.031727 -0.106831
v 0.351054 0.032092 -0.112595
v 0.351568 0.031699 -0.106389
v 0.351393 0.031890 -0.109405
v 0.351463 0.031853 -0.108825
v 0.351577 0.032121 -0.113051
v 0.351603 0.031821 -0.108317
v 0.351464 0.031956 -0.110447
v 0.352177 0.031679 -0.106073
v 0.356982 0.031890 -0.109405
v 0.351660 0.032011 -0.111328
v 0.351812 0.031793 -0.107881
v 0.355648 0.031956 -0.110447
v 0.352173 0.032141 -0.113377
v 0.352092 0.031770 -0.107518
v 0.356036 0.032093 -0.112616
v 0.351859 0.032035 -0.111694
v 0.352425 0.031752 -0.107231
v 0.356453 0.032057 -0.112054
v 0.355525 0.032121 -0.113063
v 0.352123 0.032055 -0.112011
v 0.352872 0.031667 -0.105884
v 0.356751 0.032015 -0.111388
v 0.355486 0.032008 -0.111273
v 0.352439 0.032071 -0.112267
v 0.352797 0.031739 -0.107027
v 0.356929 0.031966 -0.110617
v 0.355168 0.032045 -0.111863
v 0.352840 0.032154 -0.113572
v 0.353208 0.031731 -0.106904
v 0.356989 0.031911 -0.109743
v 0.354946 0.032141 -0.113382
v 0.352789 0.032082 -0.112449
v 0.353651 0.031663 -0.105821
v 0.354842 0.032066 -0.112183
v 0.353595 0.032092 -0.112595
v 0.353658 0.031729 -0.106863
v 0.354471 0.032080 -0.112412
v 0.353581 0.032158 -0.113638
v 0.354275 0.031665 -0.105860
v 0.354298 0.032154 -0.113574
v 0.354306 0.031735 -0.106955
v 0.354056 0.032089 -0.112550
v 0.354840 0.031673 -0.105979
v 0.354851 0.031752 -0.107229
v 0.355347 0.031685 -0.106177
v 0.355293 0.031782 -0.107705
v 0.355634 0.031826 -0.108398
v 0.355796 0.031703 -0.106455
v 0.356946 0.031816 -0.108236
v 0.356183 0.031725 -0.106804
v 0.356504 0.031751 -0.107217
v 0.356758 0.031781 -0.107694
vn 0 0.998002551082325 0.06317363400321015
vn 0 -0.998002551082325 -0.06317363400321015
usemtl material_0_0
f 1//1 2//1 3//1
f 2//1 1//1 4//1
f 3//2 2//2 1//2
f 4//2 1//2 2//2
f 2//1 4//1 5//1
f 5//2 4//2 2//2
f 5//1 4//1 6//1
f 6//2 4//2 5//2
f 5//1 6//1 7//1
f 7//2 6//2 5//2
f 7//1 6//1 8//1
f 8//2 6//2 7//2
f 7//1 8//1 9//1
f 9//2 8//2 7//2
f 9//1 8//1 10//1
f 10//2 8//2 9//2
f 9//1 10//1 11//1
f 11//2 10//2 9//2
f 11//1 10//1 12//1
f 12//2 10//2 11//2
f 11//1 13//1 9//1
f 9//2 13//2 11//2
f 12//1 10//1 14//1
f 14//2 10//2 12//2
f 13//1 11//1 15//1
f 15//2 11//2 13//2
f 14//1 10//1 16//1
f 16//2 10//2 14//2
f 17//1 15//1 11//1
f 11//2 15//2 17//2
f 13//1 15//1 18//1
f 18//2 15//2 13//2
f 14//1 16//1 19//1
f 19//2 16//2 14//2
f 15//1 17//1 20//1
f 20//2 17//2 15//2
f 13//1 18//1 21//1
f 21//2 18//2 13//2
f 19//1 16//1 22//1
f 22//2 16//2 19//2
f 20//1 17//1 23//1
f 23//2 17//2 20//2
f 21//1 18//1 24//1
f 24//2 18//2 21//2
f 22//1 16//1 25//1
f 25//2 16//2 22//2
f 23//1 17//1 26//1
f 26//2 17//2 23//2
f 27//1 20//1 23//1
f 23//2 20//2 27//2
f 21//1 24//1 28//1
f 28//2 24//2 21//2
f 25//1 16//1 29//1
f 29//2 16//2 25//2
f 26//1 17//1 30//1
f 30//2 17//2 26//2
f 27//1 31//1 20//1
f 20//2 31//2 27//2
f 21//1 28//1 32//1
f 32//2 28//2 21//2
f 25//1 29//1 33//1
f 33//2 29//2 25//2
f 30//1 17//1 34//1
f 34//2 17//2 30//2
f 27//1 35//1 31//1
f 31//2 35//2 27//2
f 21//1 32//1 36//1
f 36//2 32//2 21//2
f 33//1 29//1 37//1
f 37//2 29//2 33//2
f 34//1 17//1 38//1
f 38//2 17//2 34//2
f 39//1 35//1 27//1
f 27//2 35//2 39//2
f 36//1 32//1 40//1
f 40//2 32//2 36//2
f 37//1 29//1 41//1
f 41//2 29//2 37//2
f 39//1 42//1 35//1
f 35//2 42//2 39//2
f 36//1 40//1 43//1
f 43//2 40//2 36//2
f 37//1 41//1 44//1
f 44//2 41//2 37//2
f 39//1 45//1 42//1
f 42//2 45//2 39//2
f 36//1 43//1 46//1
f 46//2 43//2 36//2
f 44//1 41//1 47//1
f 47//2 41//2 44//2
f 48//1 45//1 39//1
f 39//2 45//2 48//2
f 46//1 43//1 48//1
f 48//2 43//2 46//2
f 44//1 47//1 49//1
f 49//2 47//2 44//2
f 48//1 50//1 45//1
f 45//2 50//2 48//2
f 48//1 43//1 50//1
f 50//2 43//2 48//2
f 49//1 47//1 51//1
f 51//2 47//2 49//2
f 49//1 51//1 52//1
f 52//2 51//2 49//2
f 52//1 51//1 53//1
f 53//2 51//2 52//2
f 52//1 53//1 54//1
f 54//2 53//2 52//2
f 54//1 53//1 55//1
f 55//2 53//2 54//2
f 55//1 53//1 56//1
f 56//2 53//2 55//2
f 55//1 56//1 57//1
f 57//2 56//2 55//2
f 57//1 56//1 58//1
f 58//2 56//2 57//2
f 57//1 58//1 59//1
f 59//2 58//2 57//2
f 57//1 59//1 60//1
f 60//2 59//2 57//2
