# SSTK version 0.8.0
# 101
mtllib original_101.mtl
o mesh9/mesh9-geometry#mesh9-geometry
v 0.121941 0.019242 0.086408
v 0.112105 0.011397 0.018490
v 0.112105 0.006496 0.095904
v 0.121941 0.023162 0.024477
v 0.281409 0.011397 0.018490
v 0.271573 0.019242 0.086408
v 0.281409 0.006496 0.095904
v 0.271573 0.023162 0.024477
vn -0.7764832629196068 0.6288792129404241 0.03980801347911521
vn 0 -0.9980025297987037 -0.06317397023606494
vn 0 0.5974438252306793 0.8019107654182811
vn 0 0.9980025297987037 0.06317397023606494
vn 0 0.4535280114860507 -0.8912420225715956
vn 0.7764832629196068 0.6288792129404241 0.03980801347911521
vn 0.7764832629196068 -0.6288792129404241 -0.03980801347911521
vn 0 -0.5974438252306793 -0.8019107654182811
vn 0 -0.4535280114860507 0.8912420225715956
vn -0.7764832629196068 -0.6288792129404241 -0.03980801347911521
usemtl material_0_0
f 1//1 2//1 3//1
f 2//1 1//1 4//1
f 5//2 3//2 2//2
f 3//3 6//3 1//3
f 6//4 4//4 1//4
f 4//5 5//5 2//5
f 3//2 5//2 7//2
f 6//3 3//3 7//3
f 4//4 6//4 8//4
f 5//5 4//5 8//5
f 5//6 6//6 7//6
f 6//6 5//6 8//6
usemtl material_1_0
f 3//7 2//7 1//7
f 4//7 1//7 2//7
f 2//4 3//4 5//4
f 1//8 6//8 3//8
f 1//2 4//2 6//2
f 2//9 5//9 4//9
f 7//4 5//4 3//4
f 7//8 3//8 6//8
f 8//2 6//2 4//2
f 8//9 4//9 5//9
f 7//10 6//10 5//10
f 8//10 5//10 6//10
