# SSTK version 0.8.0
# 287
mtllib original_287.mtl
o mesh204/mesh204-geometry#mesh204-geometry
v 0.092200 0.037939 -0.204973
v 0.092711 0.038246 -0.209825
v 0.092651 0.038364 -0.211689
v 0.092947 0.037892 -0.204224
v 0.092717 0.038483 -0.213562
v 0.092890 0.038150 -0.208301
v 0.092962 0.038837 -0.219159
v 0.093188 0.038075 -0.207118
v 0.091918 0.038763 -0.217986
v 0.092914 0.038581 -0.215117
v 0.093823 0.037858 -0.203689
v 0.091484 0.038015 -0.206166
v 0.093242 0.038659 -0.216351
v 0.093605 0.038022 -0.206274
v 0.091167 0.038663 -0.216404
v 0.093596 0.038864 -0.219583
v 0.094110 0.037984 -0.205685
v 0.090972 0.038111 -0.207683
v 0.093701 0.038717 -0.217266
v 0.094827 0.037838 -0.203367
v 0.090714 0.038532 -0.214332
v 0.094307 0.038883 -0.219886
v 0.094671 0.037958 -0.205265
v 0.090665 0.038227 -0.209524
v 0.094154 0.038750 -0.217784
v 0.095287 0.037942 -0.205012
v 0.090563 0.038364 -0.211689
v 0.094678 0.038774 -0.218153
v 0.095959 0.037831 -0.203260
v 0.095095 0.038895 -0.220067
v 0.095959 0.037936 -0.204928
v 0.095272 0.038788 -0.218375
v 0.096829 0.037835 -0.203321
v 0.095959 0.038898 -0.220128
v 0.096632 0.037942 -0.205012
v 0.095937 0.038792 -0.218449
v 0.097248 0.037958 -0.205266
v 0.096619 0.038787 -0.218365
v 0.097620 0.037846 -0.203504
v 0.097210 0.038890 -0.219994
v 0.097809 0.037984 -0.205689
v 0.097242 0.038771 -0.218114
v 0.098334 0.037865 -0.203809
v 0.098296 0.038865 -0.219593
v 0.098313 0.038022 -0.206280
v 0.097807 0.038744 -0.217695
v 0.098731 0.038075 -0.207125
v 0.098313 0.038707 -0.217108
v 0.098968 0.037892 -0.204235
v 0.099214 0.038823 -0.218939
v 0.099029 0.038150 -0.208308
v 0.098731 0.038654 -0.216267
v 0.100011 0.037967 -0.205412
v 0.099029 0.038579 -0.215083
v 0.099208 0.038247 -0.209829
v 0.099208 0.038483 -0.213557
v 0.099238 0.038305 -0.210759
v 0.099267 0.038364 -0.211689
v 0.099956 0.038767 -0.218049
v 0.100540 0.038696 -0.216931
v 0.100758 0.038067 -0.206996
v 0.100984 0.038611 -0.215593
v 0.101207 0.038198 -0.209062
v 0.101263 0.038504 -0.213893
v 0.101356 0.038364 -0.211689
vn 0 0.998002551082325 0.06317363400321015
vn 0 -0.998002551082325 -0.06317363400321015
usemtl material_0_0
f 1//1 2//1 3//1
f 2//1 1//1 4//1
f 3//2 2//2 1//2
f 4//2 1//2 2//2
f 5//1 1//1 3//1
f 3//2 1//2 5//2
f 2//1 4//1 6//1
f 6//2 4//2 2//2
f 7//1 1//1 5//1
f 5//2 1//2 7//2
f 6//1 4//1 8//1
f 8//2 4//2 6//2
f 9//1 1//1 7//1
f 7//2 1//2 9//2
f 7//1 5//1 10//1
f 10//2 5//2 7//2
f 8//1 4//1 11//1
f 11//2 4//2 8//2
f 9//1 12//1 1//1
f 1//2 12//2 9//2
f 7//1 10//1 13//1
f 13//2 10//2 7//2
f 8//1 11//1 14//1
f 14//2 11//2 8//2
f 15//1 12//1 9//1
f 9//2 12//2 15//2
f 7//1 13//1 16//1
f 16//2 13//2 7//2
f 14//1 11//1 17//1
f 17//2 11//2 14//2
f 15//1 18//1 12//1
f 12//2 18//2 15//2
f 16//1 13//1 19//1
f 19//2 13//2 16//2
f 17//1 11//1 20//1
f 20//2 11//2 17//2
f 21//1 18//1 15//1
f 15//2 18//2 21//2
f 16//1 19//1 22//1
f 22//2 19//2 16//2
f 17//1 20//1 23//1
f 23//2 20//2 17//2
f 21//1 24//1 18//1
f 18//2 24//2 21//2
f 22//1 19//1 25//1
f 25//2 19//2 22//2
f 23//1 20//1 26//1
f 26//2 20//2 23//2
f 24//1 21//1 27//1
f 27//2 21//2 24//2
f 22//1 25//1 28//1
f 28//2 25//2 22//2
f 26//1 20//1 29//1
f 29//2 20//2 26//2
f 22//1 28//1 30//1
f 30//2 28//2 22//2
f 26//1 29//1 31//1
f 31//2 29//2 26//2
f 30//1 28//1 32//1
f 32//2 28//2 30//2
f 31//1 29//1 33//1
f 33//2 29//2 31//2
f 30//1 32//1 34//1
f 34//2 32//2 30//2
f 31//1 33//1 35//1
f 35//2 33//2 31//2
f 34//1 32//1 36//1
f 36//2 32//2 34//2
f 35//1 33//1 37//1
f 37//2 33//2 35//2
f 34//1 36//1 38//1
f 38//2 36//2 34//2
f 37//1 33//1 39//1
f 39//2 33//2 37//2
f 34//1 38//1 40//1
f 40//2 38//2 34//2
f 37//1 39//1 41//1
f 41//2 39//2 37//2
f 40//1 38//1 42//1
f 42//2 38//2 40//2
f 41//1 39//1 43//1
f 43//2 39//2 41//2
f 40//1 42//1 44//1
f 44//2 42//2 40//2
f 41//1 43//1 45//1
f 45//2 43//2 41//2
f 44//1 42//1 46//1
f 46//2 42//2 44//2
f 45//1 43//1 47//1
f 47//2 43//2 45//2
f 44//1 46//1 48//1
f 48//2 46//2 44//2
f 47//1 43//1 49//1
f 49//2 43//2 47//2
f 44//1 48//1 50//1
f 50//2 48//2 44//2
f 47//1 49//1 51//1
f 51//2 49//2 47//2
f 50//1 48//1 52//1
f 52//2 48//2 50//2
f 51//1 49//1 53//1
f 53//2 49//2 51//2
f 50//1 52//1 54//1
f 54//2 52//2 50//2
f 51//1 53//1 55//1
f 55//2 53//2 51//2
f 50//1 54//1 56//1
f 56//2 54//2 50//2
f 55//1 53//1 57//1
f 57//2 53//2 55//2
f 50//1 56//1 58//1
f 58//2 56//2 50//2
f 57//1 53//1 58//1
f 58//2 53//2 57//2
f 50//1 58//1 59//1
f 59//2 58//2 50//2
f 58//1 53//1 59//1
f 59//2 53//2 58//2
f 59//1 53//1 60//1
f 60//2 53//2 59//2
f 60//1 53//1 61//1
f 61//2 53//2 60//2
f 60//1 61//1 62//1
f 62//2 61//2 60//2
f 62//1 61//1 63//1
f 63//2 61//2 62//2
f 62//1 63//1 64//1
f 64//2 63//2 62//2
f 64//1 63//1 65//1
f 65//2 63//2 64//2
