# SSTK version 0.8.0
# 270
mtllib original_270.mtl
o mesh187/mesh187-geometry#mesh187-geometry
v -0.895798 0.032932 -0.125864
v -0.897104 0.033079 -0.128185
v -0.897104 0.032859 -0.124721
v -0.896136 0.033135 -0.129073
v -0.895029 0.033175 -0.129707
v -0.894724 0.032975 -0.126554
v -0.893782 0.033199 -0.130087
v -0.893736 0.032997 -0.126903
v -0.892396 0.033207 -0.130214
v -0.892684 0.033005 -0.127019
v -0.891179 0.032991 -0.126795
v -0.890262 0.033188 -0.129918
v -0.889339 0.032948 -0.126123
v -0.887078 0.033114 -0.128743
v -0.886409 0.032876 -0.124991
v -0.885325 0.033073 -0.128101
v -0.884470 0.032861 -0.124754
v -0.884148 0.033064 -0.127949
v -0.883151 0.032869 -0.124869
v -0.883029 0.033074 -0.128114
v -0.881972 0.032890 -0.125211
v -0.881871 0.033105 -0.128608
v -0.880869 0.032928 -0.125807
v -0.880759 0.033152 -0.129352
v -0.879779 0.032983 -0.126681
v -0.879779 0.033210 -0.130264
vn 0 0.998002551082325 0.06317363400321015
vn 0 -0.998002551082325 -0.06317363400321015
usemtl material_0_0
f 1//1 2//1 3//1
f 2//1 1//1 4//1
f 3//2 2//2 1//2
f 4//2 1//2 2//2
f 4//1 1//1 5//1
f 5//2 1//2 4//2
f 5//1 1//1 6//1
f 6//2 1//2 5//2
f 5//1 6//1 7//1
f 7//2 6//2 5//2
f 7//1 6//1 8//1
f 8//2 6//2 7//2
f 7//1 8//1 9//1
f 9//2 8//2 7//2
f 9//1 8//1 10//1
f 10//2 8//2 9//2
f 9//1 10//1 11//1
f 11//2 10//2 9//2
f 9//1 11//1 12//1
f 12//2 11//2 9//2
f 12//1 11//1 13//1
f 13//2 11//2 12//2
f 12//1 13//1 14//1
f 14//2 13//2 12//2
f 14//1 13//1 15//1
f 15//2 13//2 14//2
f 14//1 15//1 16//1
f 16//2 15//2 14//2
f 16//1 15//1 17//1
f 17//2 15//2 16//2
f 16//1 17//1 18//1
f 18//2 17//2 16//2
f 18//1 17//1 19//1
f 19//2 17//2 18//2
f 18//1 19//1 20//1
f 20//2 19//2 18//2
f 20//1 19//1 21//1
f 21//2 19//2 20//2
f 20//1 21//1 22//1
f 22//2 21//2 20//2
f 22//1 21//1 23//1
f 23//2 21//2 22//2
f 22//1 23//1 24//1
f 24//2 23//2 22//2
f 24//1 23//1 25//1
f 25//2 23//2 24//2
f 24//1 25//1 26//1
f 26//2 25//2 24//2
