# SSTK version 0.8.0
# 297
mtllib original_297.mtl
o mesh214/mesh214-geometry#mesh214-geometry
v -0.888353 0.037947 -0.205103
v -0.887238 0.037995 -0.205859
v -0.888494 0.037983 -0.205662
v -0.888144 0.037917 -0.204618
v -0.887865 0.037891 -0.204205
v -0.887516 0.037869 -0.203866
v -0.887090 0.037852 -0.203601
v -0.887037 0.037953 -0.205193
v -0.886577 0.037840 -0.203412
v -0.886648 0.037922 -0.204704
v -0.886069 0.037903 -0.204403
v -0.885977 0.037833 -0.203298
v -0.885297 0.037897 -0.204303
v -0.885290 0.037831 -0.203260
v -0.884535 0.037902 -0.204392
v -0.884454 0.037836 -0.203337
v -0.883999 0.037919 -0.204658
v -0.883710 0.037850 -0.203567
v -0.883681 0.037944 -0.205045
v -0.883093 0.037874 -0.203936
v -0.883575 0.037972 -0.205493
v -0.883410 0.038091 -0.207377
v -0.882934 0.038074 -0.207096
v -0.883669 0.037996 -0.205877
v -0.882640 0.037905 -0.204433
v -0.883949 0.038015 -0.206169
v -0.882573 0.038049 -0.206711
v -0.885248 0.038042 -0.206598
v -0.882363 0.037942 -0.205011
v -0.885290 0.038129 -0.207965
v -0.882346 0.038018 -0.206222
v -0.886412 0.038149 -0.208289
v -0.882270 0.037981 -0.205627
v -0.886431 0.038063 -0.206927
v -0.886700 0.038159 -0.208440
v -0.886899 0.038170 -0.208627
v -0.887015 0.038184 -0.208836
v -0.887185 0.038081 -0.207208
v -0.887054 0.038199 -0.209070
v -0.887428 0.038293 -0.210556
v -0.887659 0.038100 -0.207514
v -0.886620 0.038316 -0.210926
v -0.887782 0.038272 -0.210238
v -0.886961 0.038222 -0.209433
v -0.888003 0.038126 -0.207919
v -0.886680 0.038241 -0.209746
v -0.888053 0.038248 -0.209848
v -0.886181 0.038255 -0.209963
v -0.888212 0.038156 -0.208397
v -0.886090 0.038323 -0.211039
v -0.888225 0.038220 -0.209404
v -0.885431 0.038260 -0.210035
v -0.888282 0.038189 -0.208922
v -0.885523 0.038326 -0.211077
v -0.884695 0.038322 -0.211014
v -0.884774 0.038254 -0.209954
v -0.884285 0.038239 -0.209711
v -0.883974 0.038310 -0.210824
v -0.883959 0.038215 -0.209324
v -0.883395 0.038291 -0.210525
v -0.883794 0.038182 -0.208810
v -0.882552 0.038193 -0.208979
v -0.882990 0.038266 -0.210137
v -0.882722 0.038234 -0.209631
vn 0 0.998002551082325 0.06317363400321015
vn 0 -0.998002551082325 -0.06317363400321015
usemtl material_0_0
f 1//1 2//1 3//1
f 2//1 1//1 4//1
f 3//2 2//2 1//2
f 4//2 1//2 2//2
f 2//1 4//1 5//1
f 5//2 4//2 2//2
f 2//1 5//1 6//1
f 6//2 5//2 2//2
f 2//1 6//1 7//1
f 7//2 6//2 2//2
f 2//1 7//1 8//1
f 8//2 7//2 2//2
f 8//1 7//1 9//1
f 9//2 7//2 8//2
f 8//1 9//1 10//1
f 10//2 9//2 8//2
f 10//1 9//1 11//1
f 11//2 9//2 10//2
f 11//1 9//1 12//1
f 12//2 9//2 11//2
f 11//1 12//1 13//1
f 13//2 12//2 11//2
f 13//1 12//1 14//1
f 14//2 12//2 13//2
f 13//1 14//1 15//1
f 15//2 14//2 13//2
f 15//1 14//1 16//1
f 16//2 14//2 15//2
f 15//1 16//1 17//1
f 17//2 16//2 15//2
f 17//1 16//1 18//1
f 18//2 16//2 17//2
f 17//1 18//1 19//1
f 19//2 18//2 17//2
f 19//1 18//1 20//1
f 20//2 18//2 19//2
f 19//1 20//1 21//1
f 21//2 20//2 19//2
f 21//1 20//1 22//1
f 22//2 20//2 21//2
f 22//1 20//1 23//1
f 23//2 20//2 22//2
f 22//1 24//1 21//1
f 21//2 24//2 22//2
f 23//1 20//1 25//1
f 25//2 20//2 23//2
f 22//1 26//1 24//1
f 24//2 26//2 22//2
f 23//1 25//1 27//1
f 27//2 25//2 23//2
f 22//1 28//1 26//1
f 26//2 28//2 22//2
f 27//1 25//1 29//1
f 29//2 25//2 27//2
f 30//1 28//1 22//1
f 22//2 28//2 30//2
f 27//1 29//1 31//1
f 31//2 29//2 27//2
f 32//1 28//1 30//1
f 30//2 28//2 32//2
f 31//1 29//1 33//1
f 33//2 29//2 31//2
f 32//1 34//1 28//1
f 28//2 34//2 32//2
f 35//1 34//1 32//1
f 32//2 34//2 35//2
f 36//1 34//1 35//1
f 35//2 34//2 36//2
f 37//1 34//1 36//1
f 36//2 34//2 37//2
f 37//1 38//1 34//1
f 34//2 38//2 37//2
f 38//1 37//1 39//1
f 39//2 37//2 38//2
f 40//1 38//1 39//1
f 39//2 38//2 40//2
f 40//1 41//1 38//1
f 38//2 41//2 40//2
f 40//1 39//1 42//1
f 42//2 39//2 40//2
f 43//1 41//1 40//1
f 40//2 41//2 43//2
f 42//1 39//1 44//1
f 44//2 39//2 42//2
f 43//1 45//1 41//1
f 41//2 45//2 43//2
f 42//1 44//1 46//1
f 46//2 44//2 42//2
f 47//1 45//1 43//1
f 43//2 45//2 47//2
f 42//1 46//1 48//1
f 48//2 46//2 42//2
f 47//1 49//1 45//1
f 45//2 49//2 47//2
f 42//1 48//1 50//1
f 50//2 48//2 42//2
f 51//1 49//1 47//1
f 47//2 49//2 51//2
f 50//1 48//1 52//1
f 52//2 48//2 50//2
f 49//1 51//1 53//1
f 53//2 51//2 49//2
f 50//1 52//1 54//1
f 54//2 52//2 50//2
f 54//1 52//1 55//1
f 55//2 52//2 54//2
f 55//1 52//1 56//1
f 56//2 52//2 55//2
f 55//1 56//1 57//1
f 57//2 56//2 55//2
f 55//1 57//1 58//1
f 58//2 57//2 55//2
f 58//1 57//1 59//1
f 59//2 57//2 58//2
f 58//1 59//1 60//1
f 60//2 59//2 58//2
f 60//1 59//1 61//1
f 61//2 59//2 60//2
f 60//1 61//1 62//1
f 62//2 61//2 60//2
f 60//1 62//1 63//1
f 63//2 62//2 60//2
f 63//1 62//1 64//1
f 64//2 62//2 63//2
