# SSTK version 0.8.0
# 161
mtllib original_161.mtl
o mesh78/mesh78-geometry#mesh78-geometry
v -0.004963 0.011336 0.219291
v -0.006304 0.011990 0.208967
v -0.007708 0.011990 0.208967
v -0.004730 0.011561 0.215734
v -0.004293 0.011428 0.217847
v -0.003566 0.011336 0.219291
v -0.003827 0.011548 0.215939
v -0.001858 0.011990 0.208967
v -0.001371 0.011834 0.211425
v -0.001068 0.011911 0.210213
v -0.000207 0.011990 0.208967
v -0.000743 0.011834 0.211425
v 0.001437 0.011336 0.219291
v 0.001275 0.011659 0.214192
v 0.001755 0.011540 0.216078
v 0.002079 0.011428 0.217847
v 0.002757 0.011336 0.219291
v 0.002594 0.011570 0.215601
v 0.004217 0.011990 0.208967
v 0.005593 0.011990 0.208967
vn 0 0.998002551082325 0.06317363400321015
vn 0 -0.998002551082325 -0.06317363400321015
usemtl material_0_0
f 1//1 2//1 3//1
f 2//1 1//1 4//1
f 3//2 2//2 1//2
f 4//2 1//2 2//2
f 4//1 1//1 5//1
f 5//2 1//2 4//2
f 5//1 1//1 6//1
f 6//2 1//2 5//2
f 5//1 6//1 7//1
f 7//2 6//2 5//2
f 7//1 6//1 8//1
f 8//2 6//2 7//2
f 8//1 6//1 9//1
f 9//2 6//2 8//2
f 8//1 9//1 10//1
f 10//2 9//2 8//2
f 8//1 10//1 11//1
f 11//2 10//2 8//2
f 11//1 10//1 12//1
f 12//2 10//2 11//2
f 11//1 12//1 13//1
f 13//2 12//2 11//2
f 11//1 13//1 14//1
f 14//2 13//2 11//2
f 14//1 13//1 15//1
f 15//2 13//2 14//2
f 15//1 13//1 16//1
f 16//2 13//2 15//2
f 16//1 13//1 17//1
f 17//2 13//2 16//2
f 16//1 17//1 18//1
f 18//2 17//2 16//2
f 18//1 17//1 19//1
f 19//2 17//2 18//2
f 19//1 17//1 20//1
f 20//2 17//2 19//2
