# SSTK version 0.8.0
# 295
mtllib original_295.mtl
o mesh212/mesh212-geometry#mesh212-geometry
v -0.879708 0.037867 -0.203825
v -0.879843 0.038079 -0.207176
v -0.880213 0.037894 -0.204264
v -0.879806 0.038034 -0.206474
v -0.879805 0.038122 -0.207869
v -0.879698 0.037996 -0.205875
v -0.879522 0.038297 -0.210623
v -0.879127 0.037847 -0.203511
v -0.880239 0.038261 -0.210055
v -0.879693 0.038160 -0.208462
v -0.879517 0.037965 -0.205379
v -0.880622 0.037930 -0.204820
v -0.879505 0.038191 -0.208955
v -0.879264 0.037940 -0.204986
v -0.880746 0.038211 -0.209260
v -0.878663 0.038318 -0.210964
v -0.878953 0.037921 -0.204687
v -0.880914 0.037972 -0.205485
v -0.879243 0.038216 -0.209348
v -0.878471 0.037835 -0.203323
v -0.881048 0.038148 -0.208276
v -0.878920 0.038235 -0.209649
v -0.878597 0.037908 -0.204473
v -0.881090 0.038021 -0.206258
v -0.878553 0.038249 -0.209863
v -0.878198 0.037899 -0.204345
v -0.881148 0.038076 -0.207141
v -0.877733 0.038326 -0.211077
v -0.877740 0.037831 -0.203260
v -0.878141 0.038257 -0.209992
v -0.877754 0.037897 -0.204303
v -0.877683 0.038260 -0.210035
v -0.877068 0.037904 -0.204417
v -0.877150 0.038323 -0.211039
v -0.877150 0.037834 -0.203306
v -0.877095 0.038254 -0.209940
v -0.876608 0.037842 -0.203443
v -0.876623 0.038316 -0.210923
v -0.876505 0.037926 -0.204760
v -0.876600 0.038236 -0.209655
v -0.876114 0.037857 -0.203670
v -0.876152 0.038304 -0.210731
v -0.876096 0.037963 -0.205341
v -0.876220 0.038206 -0.209181
v -0.875669 0.037877 -0.203989
v -0.875976 0.038164 -0.208521
v -0.875870 0.038015 -0.206169
v -0.875736 0.038287 -0.210461
v -0.874621 0.038005 -0.206007
v -0.874741 0.038176 -0.208711
v -0.875287 0.037902 -0.204389
v -0.875383 0.038265 -0.210121
v -0.874985 0.037932 -0.204858
v -0.875099 0.038239 -0.209715
v -0.874763 0.037966 -0.205397
v -0.874885 0.038210 -0.209246
vn 0 0.998002551082325 0.06317363400321015
vn 0 -0.998002551082325 -0.06317363400321015
usemtl material_0_0
f 1//1 2//1 3//1
f 2//1 1//1 4//1
f 3//2 2//2 1//2
f 4//2 1//2 2//2
f 5//1 3//1 2//1
f 2//2 3//2 5//2
f 4//1 1//1 6//1
f 6//2 1//2 4//2
f 7//1 3//1 5//1
f 5//2 3//2 7//2
f 6//1 1//1 8//1
f 8//2 1//2 6//2
f 9//1 3//1 7//1
f 7//2 3//2 9//2
f 7//1 5//1 10//1
f 10//2 5//2 7//2
f 6//1 8//1 11//1
f 11//2 8//2 6//2
f 9//1 12//1 3//1
f 3//2 12//2 9//2
f 7//1 10//1 13//1
f 13//2 10//2 7//2
f 11//1 8//1 14//1
f 14//2 8//2 11//2
f 15//1 12//1 9//1
f 9//2 12//2 15//2
f 7//1 13//1 16//1
f 16//2 13//2 7//2
f 14//1 8//1 17//1
f 17//2 8//2 14//2
f 15//1 18//1 12//1
f 12//2 18//2 15//2
f 16//1 13//1 19//1
f 19//2 13//2 16//2
f 17//1 8//1 20//1
f 20//2 8//2 17//2
f 21//1 18//1 15//1
f 15//2 18//2 21//2
f 16//1 19//1 22//1
f 22//2 19//2 16//2
f 17//1 20//1 23//1
f 23//2 20//2 17//2
f 21//1 24//1 18//1
f 18//2 24//2 21//2
f 16//1 22//1 25//1
f 25//2 22//2 16//2
f 23//1 20//1 26//1
f 26//2 20//2 23//2
f 24//1 21//1 27//1
f 27//2 21//2 24//2
f 16//1 25//1 28//1
f 28//2 25//2 16//2
f 26//1 20//1 29//1
f 29//2 20//2 26//2
f 28//1 25//1 30//1
f 30//2 25//2 28//2
f 26//1 29//1 31//1
f 31//2 29//2 26//2
f 28//1 30//1 32//1
f 32//2 30//2 28//2
f 31//1 29//1 33//1
f 33//2 29//2 31//2
f 28//1 32//1 34//1
f 34//2 32//2 28//2
f 33//1 29//1 35//1
f 35//2 29//2 33//2
f 34//1 32//1 36//1
f 36//2 32//2 34//2
f 33//1 35//1 37//1
f 37//2 35//2 33//2
f 34//1 36//1 38//1
f 38//2 36//2 34//2
f 33//1 37//1 39//1
f 39//2 37//2 33//2
f 38//1 36//1 40//1
f 40//2 36//2 38//2
f 39//1 37//1 41//1
f 41//2 37//2 39//2
f 38//1 40//1 42//1
f 42//2 40//2 38//2
f 39//1 41//1 43//1
f 43//2 41//2 39//2
f 42//1 40//1 44//1
f 44//2 40//2 42//2
f 43//1 41//1 45//1
f 45//2 41//2 43//2
f 42//1 44//1 46//1
f 46//2 44//2 42//2
f 43//1 45//1 47//1
f 47//2 45//2 43//2
f 42//1 46//1 48//1
f 48//2 46//2 42//2
f 47//1 45//1 49//1
f 49//2 45//2 47//2
f 48//1 46//1 50//1
f 50//2 46//2 48//2
f 49//1 45//1 51//1
f 51//2 45//2 49//2
f 48//1 50//1 52//1
f 52//2 50//2 48//2
f 49//1 51//1 53//1
f 53//2 51//2 49//2
f 52//1 50//1 54//1
f 54//2 50//2 52//2
f 49//1 53//1 55//1
f 55//2 53//2 49//2
f 54//1 50//1 56//1
f 56//2 50//2 54//2
