# SSTK version 0.8.0
# 95
mtllib original_95.mtl
o mesh3/mesh3-geometry#mesh3-geometry
v -0.148328 0.009257 0.249893
v -0.597483 0.013256 0.186723
v -0.597483 0.009257 0.249893
v -0.148328 0.013256 0.186723
v -0.608035 0.001276 0.180617
v -0.608035 -0.003723 0.259580
v -0.135542 -0.003723 0.259580
v -0.135542 0.001276 0.180617
vn 0 0.9980025297987037 0.06317397023606494
vn -0.7600881000165791 0.6485220853361084 0.041051005401717564
vn 0 0.5981071230590578 0.8014161648893894
vn 0.6944997762513069 0.7180557686622152 0.045452985356300594
vn 0 0.45407199718271046 -0.8909649944720075
vn 0 -0.9980025297987037 -0.06317397023606494
vn 0.7600881000165791 -0.6485220853361084 -0.041051005401717564
vn 0 -0.5981071230590578 -0.8014161648893894
vn -0.6944997762513069 -0.7180557686622152 -0.045452985356300594
vn 0 -0.45407199718271046 0.8909649944720075
usemtl material_0_0
f 1//1 2//1 3//1
f 2//1 1//1 4//1
f 5//2 3//2 2//2
f 6//3 1//3 3//3
f 7//4 4//4 1//4
f 8//5 2//5 4//5
f 3//2 5//2 6//2
f 2//5 8//5 5//5
f 1//3 6//3 7//3
f 4//4 7//4 8//4
f 8//6 6//6 5//6
f 6//6 8//6 7//6
usemtl material_1_0
f 3//6 2//6 1//6
f 4//6 1//6 2//6
f 2//7 3//7 5//7
f 3//8 1//8 6//8
f 1//9 4//9 7//9
f 4//10 2//10 8//10
f 6//7 5//7 3//7
f 5//10 8//10 2//10
f 7//8 6//8 1//8
f 8//9 7//9 4//9
f 5//1 6//1 8//1
f 7//1 8//1 6//1
