# SSTK version 0.8.0
# 205
mtllib original_205.mtl
o mesh122/mesh122-geometry#mesh122-geometry
v -0.003009 0.038472 -0.213393
v -0.003005 0.038621 -0.215746
v -0.003098 0.038545 -0.214550
v -0.002742 0.038406 -0.212353
v -0.002727 0.038689 -0.216818
v -0.002298 0.038348 -0.211432
v -0.002263 0.038749 -0.217768
v -0.001675 0.038297 -0.210629
v -0.001613 0.038801 -0.218596
v -0.000924 0.038256 -0.209979
v -0.001009 0.038541 -0.214483
v -0.000950 0.038494 -0.213731
v -0.000824 0.038844 -0.219266
v -0.000771 0.038451 -0.213053
v -0.000946 0.038594 -0.215321
v -0.000095 0.038227 -0.209514
v -0.000758 0.038642 -0.216077
v -0.000473 0.038412 -0.212449
v 0.000059 0.038874 -0.219745
v -0.000055 0.038379 -0.211920
v -0.000444 0.038685 -0.216752
v 0.000814 0.038209 -0.209235
v -0.000004 0.038722 -0.217345
v 0.000450 0.038352 -0.211488
v 0.000520 0.038753 -0.217828
v 0.001010 0.038332 -0.211180
v 0.001036 0.038892 -0.220032
v 0.001802 0.038203 -0.209142
v 0.001088 0.038775 -0.218173
v 0.001627 0.038320 -0.210995
v 0.002107 0.038898 -0.220128
v 0.002299 0.038316 -0.210934
v 0.001700 0.038788 -0.218380
v 0.002989 0.038213 -0.209293
v 0.002355 0.038792 -0.218449
v 0.002973 0.038320 -0.210995
v 0.003652 0.038885 -0.219911
v 0.003585 0.038332 -0.211180
v 0.002986 0.038788 -0.218385
v 0.004088 0.038241 -0.209745
v 0.003570 0.038776 -0.218193
v 0.004133 0.038352 -0.211488
v 0.004107 0.038756 -0.217872
v 0.005032 0.038285 -0.210439
v 0.005059 0.038844 -0.219260
v 0.004619 0.038379 -0.211920
v 0.004596 0.038727 -0.217424
v 0.005017 0.038413 -0.212460
v 0.005004 0.038692 -0.216866
v 0.005301 0.038453 -0.213096
v 0.005295 0.038651 -0.216218
v 0.005754 0.038341 -0.211317
v 0.006236 0.038777 -0.218208
v 0.005528 0.038552 -0.214652
v 0.005470 0.038604 -0.215480
v 0.005765 0.038315 -0.210911
v 0.006241 0.037969 -0.205445
v 0.005689 0.038236 -0.209660
v 0.007092 0.038687 -0.216787
v 0.005686 0.037927 -0.204787
v 0.007097 0.038074 -0.207097
v 0.005460 0.038158 -0.208432
v 0.007395 0.038631 -0.215894
v 0.005119 0.038089 -0.207341
v 0.007614 0.038213 -0.209296
v 0.005048 0.037893 -0.204241
v 0.007612 0.038563 -0.214822
v 0.004704 0.038036 -0.206500
v 0.007786 0.038393 -0.212139
v 0.004338 0.037866 -0.203812
v 0.004189 0.037995 -0.205856
v 0.003570 0.037846 -0.203505
v 0.003546 0.037963 -0.205356
v 0.002783 0.037943 -0.205035
v 0.002744 0.037835 -0.203322
v 0.001904 0.037936 -0.204928
v 0.001859 0.037831 -0.203260
v 0.000932 0.037835 -0.203328
v 0.000907 0.037946 -0.205083
v 0.000109 0.037976 -0.205548
v 0.000094 0.037848 -0.203529
v -0.000479 0.038027 -0.206356
v -0.000654 0.037869 -0.203866
v -0.000840 0.038102 -0.207542
v -0.001314 0.037899 -0.204336
v -0.001868 0.037936 -0.204929
v -0.002299 0.037981 -0.205631
v -0.002607 0.038032 -0.206442
v -0.002793 0.038090 -0.207362
vn 0 0.998002551082325 0.06317363400321015
vn 0 -0.998002551082325 -0.06317363400321015
usemtl material_0_0
f 1//1 2//1 3//1
f 2//1 1//1 4//1
f 3//2 2//2 1//2
f 4//2 1//2 2//2
f 2//1 4//1 5//1
f 5//2 4//2 2//2
f 5//1 4//1 6//1
f 6//2 4//2 5//2
f 5//1 6//1 7//1
f 7//2 6//2 5//2
f 7//1 6//1 8//1
f 8//2 6//2 7//2
f 7//1 8//1 9//1
f 9//2 8//2 7//2
f 9//1 8//1 10//1
f 10//2 8//2 9//2
f 9//1 10//1 11//1
f 11//2 10//2 9//2
f 11//1 10//1 12//1
f 12//2 10//2 11//2
f 11//1 13//1 9//1
f 9//2 13//2 11//2
f 12//1 10//1 14//1
f 14//2 10//2 12//2
f 13//1 11//1 15//1
f 15//2 11//2 13//2
f 14//1 10//1 16//1
f 16//2 10//2 14//2
f 13//1 15//1 17//1
f 17//2 15//2 13//2
f 14//1 16//1 18//1
f 18//2 16//2 14//2
f 13//1 17//1 19//1
f 19//2 17//2 13//2
f 18//1 16//1 20//1
f 20//2 16//2 18//2
f 19//1 17//1 21//1
f 21//2 17//2 19//2
f 20//1 16//1 22//1
f 22//2 16//2 20//2
f 19//1 21//1 23//1
f 23//2 21//2 19//2
f 20//1 22//1 24//1
f 24//2 22//2 20//2
f 19//1 23//1 25//1
f 25//2 23//2 19//2
f 24//1 22//1 26//1
f 26//2 22//2 24//2
f 19//1 25//1 27//1
f 27//2 25//2 19//2
f 26//1 22//1 28//1
f 28//2 22//2 26//2
f 27//1 25//1 29//1
f 29//2 25//2 27//2
f 26//1 28//1 30//1
f 30//2 28//2 26//2
f 27//1 29//1 31//1
f 31//2 29//2 27//2
f 30//1 28//1 32//1
f 32//2 28//2 30//2
f 31//1 29//1 33//1
f 33//2 29//2 31//2
f 32//1 28//1 34//1
f 34//2 28//2 32//2
f 31//1 33//1 35//1
f 35//2 33//2 31//2
f 32//1 34//1 36//1
f 36//2 34//2 32//2
f 31//1 35//1 37//1
f 37//2 35//2 31//2
f 36//1 34//1 38//1
f 38//2 34//2 36//2
f 37//1 35//1 39//1
f 39//2 35//2 37//2
f 38//1 34//1 40//1
f 40//2 34//2 38//2
f 37//1 39//1 41//1
f 41//2 39//2 37//2
f 38//1 40//1 42//1
f 42//2 40//2 38//2
f 37//1 41//1 43//1
f 43//2 41//2 37//2
f 42//1 40//1 44//1
f 44//2 40//2 42//2
f 37//1 43//1 45//1
f 45//2 43//2 37//2
f 42//1 44//1 46//1
f 46//2 44//2 42//2
f 45//1 43//1 47//1
f 47//2 43//2 45//2
f 46//1 44//1 48//1
f 48//2 44//2 46//2
f 45//1 47//1 49//1
f 49//2 47//2 45//2
f 48//1 44//1 50//1
f 50//2 44//2 48//2
f 45//1 49//1 51//1
f 51//2 49//2 45//2
f 50//1 44//1 52//1
f 52//2 44//2 50//2
f 45//1 51//1 53//1
f 53//2 51//2 45//2
f 50//1 52//1 54//1
f 54//2 52//2 50//2
f 53//1 51//1 55//1
f 55//2 51//2 53//2
f 53//1 54//1 52//1
f 52//2 54//2 53//2
f 53//1 55//1 54//1
f 54//2 55//2 53//2
f 53//1 52//1 56//1
f 56//2 52//2 53//2
f 56//1 57//1 53//1
f 53//2 57//2 56//2
f 58//1 57//1 56//1
f 56//2 57//2 58//2
f 53//1 57//1 59//1
f 59//2 57//2 53//2
f 58//1 60//1 57//1
f 57//2 60//2 58//2
f 59//1 57//1 61//1
f 61//2 57//2 59//2
f 62//1 60//1 58//1
f 58//2 60//2 62//2
f 59//1 61//1 63//1
f 63//2 61//2 59//2
f 64//1 60//1 62//1
f 62//2 60//2 64//2
f 63//1 61//1 65//1
f 65//2 61//2 63//2
f 64//1 66//1 60//1
f 60//2 66//2 64//2
f 63//1 65//1 67//1
f 67//2 65//2 63//2
f 68//1 66//1 64//1
f 64//2 66//2 68//2
f 67//1 65//1 69//1
f 69//2 65//2 67//2
f 68//1 70//1 66//1
f 66//2 70//2 68//2
f 71//1 70//1 68//1
f 68//2 70//2 71//2
f 71//1 72//1 70//1
f 70//2 72//2 71//2
f 73//1 72//1 71//1
f 71//2 72//2 73//2
f 74//1 72//1 73//1
f 73//2 72//2 74//2
f 74//1 75//1 72//1
f 72//2 75//2 74//2
f 76//1 75//1 74//1
f 74//2 75//2 76//2
f 76//1 77//1 75//1
f 75//2 77//2 76//2
f 76//1 78//1 77//1
f 77//2 78//2 76//2
f 79//1 78//1 76//1
f 76//2 78//2 79//2
f 80//1 78//1 79//1
f 79//2 78//2 80//2
f 80//1 81//1 78//1
f 78//2 81//2 80//2
f 82//1 81//1 80//1
f 80//2 81//2 82//2
f 82//1 83//1 81//1
f 81//2 83//2 82//2
f 84//1 83//1 82//1
f 82//2 83//2 84//2
f 84//1 85//1 83//1
f 83//2 85//2 84//2
f 84//1 86//1 85//1
f 85//2 86//2 84//2
f 84//1 87//1 86//1
f 86//2 87//2 84//2
f 84//1 88//1 87//1
f 87//2 88//2 84//2
f 88//1 84//1 89//1
f 89//2 84//2 88//2
