# SSTK version 0.8.0
# 99
mtllib original_99.mtl
o mesh7/mesh7-geometry#mesh7-geometry
v 0.281409 0.021606 -0.142789
v 0.131464 0.016705 -0.065375
v 0.131464 0.021606 -0.142789
v 0.281409 0.016705 -0.065375
v 0.141300 0.029451 -0.074871
v 0.141300 0.033371 -0.136802
v 0.271573 0.029451 -0.074871
v 0.271573 0.033371 -0.136802
vn 0 -0.9980025297987037 -0.06317397023606494
vn -0.7764832629196068 0.6288792129404241 0.03980801347911521
vn 0 0.4535280114860507 -0.8912420225715956
vn 0.7764832629196068 0.6288792129404241 0.03980801347911521
vn 0 0.5974438252306793 0.8019107654182811
vn 0 0.9980025297987037 0.06317397023606494
vn 0.7764832629196068 -0.6288792129404241 -0.03980801347911521
vn 0 -0.4535280114860507 0.8912420225715956
vn -0.7764832629196068 -0.6288792129404241 -0.03980801347911521
vn 0 -0.5974438252306793 -0.8019107654182811
usemtl material_0_0
f 1//1 2//1 3//1
f 2//1 1//1 4//1
f 5//2 3//2 2//2
f 6//3 1//3 3//3
f 1//4 7//4 4//4
f 7//5 2//5 4//5
f 3//2 5//2 6//2
f 2//5 7//5 5//5
f 1//3 6//3 8//3
f 7//4 1//4 8//4
f 7//6 6//6 5//6
f 6//6 7//6 8//6
usemtl material_1_0
f 3//6 2//6 1//6
f 4//6 1//6 2//6
f 2//7 3//7 5//7
f 3//8 1//8 6//8
f 4//9 7//9 1//9
f 4//10 2//10 7//10
f 6//7 5//7 3//7
f 5//10 7//10 2//10
f 8//8 6//8 1//8
f 8//9 1//9 7//9
f 5//1 6//1 7//1
f 8//1 7//1 6//1
