# SSTK version 0.8.0
# 294
mtllib original_294.mtl
o mesh211/mesh211-geometry#mesh211-geometry
v -0.608526 0.037831 -0.203260
v -0.619418 0.037876 -0.203979
v -0.619466 0.037831 -0.203260
v -0.619229 0.037920 -0.204669
v -0.616644 0.037954 -0.205210
v -0.608526 0.037954 -0.205210
v -0.618686 0.037990 -0.205776
v -0.617891 0.038059 -0.206866
v -0.616766 0.038133 -0.208032
v -0.615232 0.038217 -0.209367
v -0.615786 0.038024 -0.206308
v -0.613437 0.038155 -0.208387
v -0.612972 0.038343 -0.211346
v -0.611559 0.038260 -0.210038
v -0.611586 0.038439 -0.212866
v -0.610874 0.038518 -0.214121
v -0.610304 0.038339 -0.211294
v -0.610637 0.038593 -0.215305
v -0.609937 0.038797 -0.218528
v -0.610694 0.038834 -0.219105
v -0.609496 0.038405 -0.212328
v -0.610853 0.038664 -0.216417
v -0.609330 0.038753 -0.217829
v -0.611501 0.038722 -0.217339
v -0.608955 0.038467 -0.213311
v -0.611574 0.038860 -0.219517
v -0.608896 0.038704 -0.217052
v -0.612496 0.038761 -0.217960
v -0.608650 0.038528 -0.214277
v -0.612579 0.038875 -0.219764
v -0.608635 0.038650 -0.216196
v -0.613708 0.038881 -0.219846
v -0.608549 0.038590 -0.215260
v -0.613753 0.038774 -0.218167
v -0.614828 0.038876 -0.219770
v -0.615074 0.038760 -0.217948
v -0.615625 0.038743 -0.217673
v -0.615828 0.038861 -0.219541
v -0.616102 0.038719 -0.217288
v -0.616488 0.038688 -0.216807
v -0.616708 0.038837 -0.219159
v -0.616765 0.038652 -0.216241
v -0.616994 0.038565 -0.214855
v -0.617468 0.038803 -0.218624
v -0.618094 0.038760 -0.217943
v -0.618571 0.038708 -0.217124
v -0.618901 0.038648 -0.216166
v -0.619082 0.038578 -0.215069
vn 0 0.998002551082325 0.06317363400321015
vn 0 -0.998002551082325 -0.06317363400321015
usemtl material_0_0
f 1//1 2//1 3//1
f 2//1 1//1 4//1
f 3//2 2//2 1//2
f 4//2 1//2 2//2
f 4//1 1//1 5//1
f 5//2 1//2 4//2
f 5//1 1//1 6//1
f 6//2 1//2 5//2
f 4//1 5//1 7//1
f 7//2 5//2 4//2
f 7//1 5//1 8//1
f 8//2 5//2 7//2
f 8//1 5//1 9//1
f 9//2 5//2 8//2
f 5//1 10//1 9//1
f 9//2 10//2 5//2
f 10//1 5//1 11//1
f 11//2 5//2 10//2
f 10//1 11//1 12//1
f 12//2 11//2 10//2
f 10//1 12//1 13//1
f 13//2 12//2 10//2
f 13//1 12//1 14//1
f 14//2 12//2 13//2
f 13//1 14//1 15//1
f 15//2 14//2 13//2
f 15//1 14//1 16//1
f 16//2 14//2 15//2
f 16//1 14//1 17//1
f 17//2 14//2 16//2
f 16//1 17//1 18//1
f 18//2 17//2 16//2
f 19//1 18//1 17//1
f 17//2 18//2 19//2
f 20//1 18//1 19//1
f 19//2 18//2 20//2
f 19//1 17//1 21//1
f 21//2 17//2 19//2
f 20//1 22//1 18//1
f 18//2 22//2 20//2
f 19//1 21//1 23//1
f 23//2 21//2 19//2
f 20//1 24//1 22//1
f 22//2 24//2 20//2
f 23//1 21//1 25//1
f 25//2 21//2 23//2
f 26//1 24//1 20//1
f 20//2 24//2 26//2
f 23//1 25//1 27//1
f 27//2 25//2 23//2
f 26//1 28//1 24//1
f 24//2 28//2 26//2
f 27//1 25//1 29//1
f 29//2 25//2 27//2
f 30//1 28//1 26//1
f 26//2 28//2 30//2
f 27//1 29//1 31//1
f 31//2 29//2 27//2
f 32//1 28//1 30//1
f 30//2 28//2 32//2
f 31//1 29//1 33//1
f 33//2 29//2 31//2
f 32//1 34//1 28//1
f 28//2 34//2 32//2
f 35//1 34//1 32//1
f 32//2 34//2 35//2
f 35//1 36//1 34//1
f 34//2 36//2 35//2
f 35//1 37//1 36//1
f 36//2 37//2 35//2
f 38//1 37//1 35//1
f 35//2 37//2 38//2
f 38//1 39//1 37//1
f 37//2 39//2 38//2
f 38//1 40//1 39//1
f 39//2 40//2 38//2
f 41//1 40//1 38//1
f 38//2 40//2 41//2
f 41//1 42//1 40//1
f 40//2 42//2 41//2
f 41//1 43//1 42//1
f 42//2 43//2 41//2
f 44//1 43//1 41//1
f 41//2 43//2 44//2
f 45//1 43//1 44//1
f 44//2 43//2 45//2
f 46//1 43//1 45//1
f 45//2 43//2 46//2
f 47//1 43//1 46//1
f 46//2 43//2 47//2
f 43//1 47//1 48//1
f 48//2 47//2 43//2
