# SSTK version 0.8.0
# 132
mtllib original_132.mtl
o mesh49/mesh49-geometry#mesh49-geometry
v 0.359797 0.031674 -0.105990
v 0.358527 0.032147 -0.113469
v 0.358527 0.031674 -0.105990
v 0.359670 0.032075 -0.112335
v 0.359797 0.031921 -0.109905
v 0.359670 0.032147 -0.113469
v 0.359850 0.031970 -0.110676
v 0.360091 0.032117 -0.112995
v 0.360009 0.032015 -0.111384
v 0.360198 0.032040 -0.111779
v 0.360478 0.032142 -0.113384
v 0.360482 0.032059 -0.112078
v 0.360867 0.032154 -0.113574
v 0.360834 0.032071 -0.112265
v 0.361230 0.032075 -0.112328
v 0.361293 0.032158 -0.113638
v 0.361695 0.032070 -0.112259
v 0.361941 0.032151 -0.113535
v 0.362161 0.032057 -0.112053
v 0.362599 0.032132 -0.113229
vn 0 0.998002551082325 0.06317363400321015
vn 0 -0.998002551082325 -0.06317363400321015
usemtl material_0_0
f 1//1 2//1 3//1
f 2//1 1//1 4//1
f 3//2 2//2 1//2
f 4//2 1//2 2//2
f 4//1 1//1 5//1
f 5//2 1//2 4//2
f 6//1 2//1 4//1
f 4//2 2//2 6//2
f 4//1 5//1 7//1
f 7//2 5//2 4//2
f 4//1 7//1 8//1
f 8//2 7//2 4//2
f 8//1 7//1 9//1
f 9//2 7//2 8//2
f 8//1 9//1 10//1
f 10//2 9//2 8//2
f 8//1 10//1 11//1
f 11//2 10//2 8//2
f 11//1 10//1 12//1
f 12//2 10//2 11//2
f 11//1 12//1 13//1
f 13//2 12//2 11//2
f 13//1 12//1 14//1
f 14//2 12//2 13//2
f 13//1 14//1 15//1
f 15//2 14//2 13//2
f 13//1 15//1 16//1
f 16//2 15//2 13//2
f 16//1 15//1 17//1
f 17//2 15//2 16//2
f 16//1 17//1 18//1
f 18//2 17//2 16//2
f 18//1 17//1 19//1
f 19//2 17//2 18//2
f 18//1 19//1 20//1
f 20//2 19//2 18//2
