# SSTK version 0.8.0
# 181
mtllib original_181.mtl
o mesh98/mesh98-geometry#mesh98-geometry
v -0.897772 0.016508 0.133587
v -0.896637 0.016578 0.132493
v -0.897928 0.016570 0.132606
v -0.897360 0.016453 0.134461
v -0.896718 0.016408 0.135179
v -0.896484 0.016533 0.133198
v -0.895871 0.016375 0.135690
v -0.896210 0.016497 0.133764
v -0.895782 0.016469 0.134213
v -0.894808 0.016356 0.135996
v -0.895169 0.016446 0.134567
v -0.894419 0.016432 0.134797
v -0.893518 0.016349 0.136098
v -0.893581 0.016427 0.134873
v -0.892844 0.016431 0.134815
v -0.892466 0.016356 0.135997
v -0.892198 0.016442 0.134641
v -0.891524 0.016375 0.135694
v -0.891675 0.016459 0.134365
v -0.891306 0.016482 0.134003
v -0.890742 0.016406 0.135208
v -0.891086 0.016509 0.133580
v -0.891013 0.016538 0.133120
v -0.890672 0.016675 0.130957
v -0.891083 0.016567 0.132665
v -0.890166 0.016447 0.134560
v -0.891295 0.016592 0.132271
v -0.890124 0.016638 0.131539
v -0.891457 0.016705 0.130486
v -0.889811 0.016494 0.133807
v -0.891669 0.016613 0.131937
v -0.889801 0.016595 0.132224
v -0.892226 0.016630 0.131662
v -0.889693 0.016545 0.133007
v -0.892340 0.016724 0.130180
v -0.893747 0.016746 0.129827
v -0.894068 0.016662 0.131158
v -0.895098 0.016770 0.129455
v -0.895280 0.016683 0.130826
v -0.895811 0.016793 0.129091
v -0.896065 0.016703 0.130514
v -0.896113 0.016819 0.128683
v -0.896213 0.016851 0.128176
v -0.896541 0.016975 0.126209
v -0.896712 0.016730 0.130080
v -0.895790 0.017003 0.125775
v -0.897088 0.016938 0.126806
v -0.896071 0.016888 0.127582
v -0.897169 0.016764 0.129553
v -0.895645 0.016920 0.127081
v -0.897422 0.016893 0.127511
v -0.894888 0.017020 0.125510
v -0.897442 0.016802 0.128944
v -0.895319 0.016933 0.126882
v -0.897533 0.016845 0.128268
v -0.894909 0.016942 0.126740
v -0.893835 0.016949 0.126627
v -0.893892 0.017025 0.125422
v -0.892810 0.017019 0.125515
v -0.892788 0.016941 0.126752
v -0.891863 0.017002 0.125792
v -0.892374 0.016931 0.126908
v -0.892032 0.016917 0.127127
v -0.891759 0.016900 0.127407
v -0.891086 0.016973 0.126249
v -0.891548 0.016878 0.127746
v -0.891316 0.016824 0.128606
v -0.890004 0.016830 0.128507
v -0.890512 0.016933 0.126880
v -0.890148 0.016884 0.127646
vn 0 0.998002551082325 0.06317363400321015
vn 0 -0.998002551082325 -0.06317363400321015
usemtl material_0_0
f 1//1 2//1 3//1
f 2//1 1//1 4//1
f 3//2 2//2 1//2
f 4//2 1//2 2//2
f 2//1 4//1 5//1
f 5//2 4//2 2//2
f 2//1 5//1 6//1
f 6//2 5//2 2//2
f 6//1 5//1 7//1
f 7//2 5//2 6//2
f 6//1 7//1 8//1
f 8//2 7//2 6//2
f 8//1 7//1 9//1
f 9//2 7//2 8//2
f 9//1 7//1 10//1
f 10//2 7//2 9//2
f 9//1 10//1 11//1
f 11//2 10//2 9//2
f 11//1 10//1 12//1
f 12//2 10//2 11//2
f 12//1 10//1 13//1
f 13//2 10//2 12//2
f 12//1 13//1 14//1
f 14//2 13//2 12//2
f 14//1 13//1 15//1
f 15//2 13//2 14//2
f 15//1 13//1 16//1
f 16//2 13//2 15//2
f 15//1 16//1 17//1
f 17//2 16//2 15//2
f 17//1 16//1 18//1
f 18//2 16//2 17//2
f 17//1 18//1 19//1
f 19//2 18//2 17//2
f 19//1 18//1 20//1
f 20//2 18//2 19//2
f 20//1 18//1 21//1
f 21//2 18//2 20//2
f 20//1 21//1 22//1
f 22//2 21//2 20//2
f 22//1 21//1 23//1
f 23//2 21//2 22//2
f 24//1 23//1 21//1
f 21//2 23//2 24//2
f 24//1 25//1 23//1
f 23//2 25//2 24//2
f 24//1 21//1 26//1
f 26//2 21//2 24//2
f 24//1 27//1 25//1
f 25//2 27//2 24//2
f 24//1 26//1 28//1
f 28//2 26//2 24//2
f 29//1 27//1 24//1
f 24//2 27//2 29//2
f 28//1 26//1 30//1
f 30//2 26//2 28//2
f 29//1 31//1 27//1
f 27//2 31//2 29//2
f 28//1 30//1 32//1
f 32//2 30//2 28//2
f 29//1 33//1 31//1
f 31//2 33//2 29//2
f 32//1 30//1 34//1
f 34//2 30//2 32//2
f 35//1 33//1 29//1
f 29//2 33//2 35//2
f 36//1 33//1 35//1
f 35//2 33//2 36//2
f 36//1 37//1 33//1
f 33//2 37//2 36//2
f 38//1 37//1 36//1
f 36//2 37//2 38//2
f 38//1 39//1 37//1
f 37//2 39//2 38//2
f 40//1 39//1 38//1
f 38//2 39//2 40//2
f 40//1 41//1 39//1
f 39//2 41//2 40//2
f 42//1 41//1 40//1
f 40//2 41//2 42//2
f 43//1 41//1 42//1
f 42//2 41//2 43//2
f 44//1 41//1 43//1
f 43//2 41//2 44//2
f 44//1 45//1 41//1
f 41//2 45//2 44//2
f 43//1 46//1 44//1
f 44//2 46//2 43//2
f 47//1 45//1 44//1
f 44//2 45//2 47//2
f 46//1 43//1 48//1
f 48//2 43//2 46//2
f 47//1 49//1 45//1
f 45//2 49//2 47//2
f 46//1 48//1 50//1
f 50//2 48//2 46//2
f 51//1 49//1 47//1
f 47//2 49//2 51//2
f 46//1 50//1 52//1
f 52//2 50//2 46//2
f 51//1 53//1 49//1
f 49//2 53//2 51//2
f 52//1 50//1 54//1
f 54//2 50//2 52//2
f 53//1 51//1 55//1
f 55//2 51//2 53//2
f 52//1 54//1 56//1
f 56//2 54//2 52//2
f 52//1 56//1 57//1
f 57//2 56//2 52//2
f 52//1 57//1 58//1
f 58//2 57//2 52//2
f 58//1 57//1 59//1
f 59//2 57//2 58//2
f 59//1 57//1 60//1
f 60//2 57//2 59//2
f 59//1 60//1 61//1
f 61//2 60//2 59//2
f 61//1 60//1 62//1
f 62//2 60//2 61//2
f 61//1 62//1 63//1
f 63//2 62//2 61//2
f 61//1 63//1 64//1
f 64//2 63//2 61//2
f 61//1 64//1 65//1
f 65//2 64//2 61//2
f 65//1 64//1 66//1
f 66//2 64//2 65//2
f 65//1 66//1 67//1
f 67//2 66//2 65//2
f 65//1 67//1 68//1
f 68//2 67//2 65//2
f 65//1 68//1 69//1
f 69//2 68//2 65//2
f 69//1 68//1 70//1
f 70//2 68//2 69//2
