# SSTK version 0.8.0
# 225
mtllib original_225.mtl
o mesh142/mesh142-geometry#mesh142-geometry
v 0.610690 0.011407 0.214169
v 0.611457 0.011868 0.206892
v 0.611368 0.012045 0.204096
v 0.611811 0.011336 0.215293
v 0.611466 0.012223 0.201285
v 0.611725 0.011723 0.209177
v 0.611833 0.012754 0.192890
v 0.612173 0.011611 0.210952
v 0.610267 0.012643 0.194650
v 0.611761 0.012371 0.198954
v 0.613125 0.011285 0.216096
v 0.609616 0.011521 0.212380
v 0.612254 0.012488 0.197102
v 0.612799 0.011531 0.212217
v 0.609141 0.012493 0.197023
v 0.612784 0.012795 0.192254
v 0.613556 0.011475 0.213101
v 0.608849 0.011665 0.210104
v 0.612943 0.012575 0.195730
v 0.614631 0.011255 0.216578
v 0.608461 0.012296 0.200131
v 0.613851 0.012823 0.191800
v 0.614397 0.011435 0.213732
v 0.608388 0.011840 0.207343
v 0.613622 0.012624 0.194953
v 0.615322 0.011411 0.214111
v 0.608235 0.012045 0.204096
v 0.614408 0.012659 0.194399
v 0.616330 0.011245 0.216738
v 0.615033 0.012841 0.191528
v 0.616330 0.011403 0.214237
v 0.615299 0.012680 0.194066
v 0.617634 0.011251 0.216647
v 0.616330 0.012846 0.191437
v 0.617338 0.011411 0.214110
v 0.616296 0.012687 0.193955
v 0.618262 0.011435 0.213730
v 0.617319 0.012679 0.194081
v 0.618821 0.011268 0.216373
v 0.618205 0.012834 0.191638
v 0.619103 0.011475 0.213096
v 0.618254 0.012655 0.194458
v 0.619891 0.011297 0.215916
v 0.619835 0.012796 0.192240
v 0.619861 0.011532 0.212209
v 0.619101 0.012615 0.195087
v 0.620487 0.011612 0.210941
v 0.619861 0.012560 0.195966
v 0.620843 0.011337 0.215276
v 0.621211 0.012734 0.193220
v 0.620934 0.011724 0.209166
v 0.620487 0.012480 0.197229
v 0.622407 0.011449 0.213510
v 0.620934 0.012367 0.199004
v 0.621202 0.011869 0.206885
v 0.621202 0.012222 0.201294
v 0.621292 0.012045 0.204096
v 0.622325 0.012649 0.194555
v 0.623201 0.012543 0.196233
v 0.623527 0.011599 0.211135
v 0.623866 0.012416 0.198240
v 0.624200 0.011796 0.208036
v 0.624285 0.012254 0.200790
v 0.624425 0.012045 0.204096
vn 0 0.998002551082325 0.06317363400321015
vn 0 -0.998002551082325 -0.06317363400321015
usemtl material_0_0
f 1//1 2//1 3//1
f 2//1 1//1 4//1
f 3//2 2//2 1//2
f 4//2 1//2 2//2
f 5//1 1//1 3//1
f 3//2 1//2 5//2
f 2//1 4//1 6//1
f 6//2 4//2 2//2
f 7//1 1//1 5//1
f 5//2 1//2 7//2
f 6//1 4//1 8//1
f 8//2 4//2 6//2
f 9//1 1//1 7//1
f 7//2 1//2 9//2
f 7//1 5//1 10//1
f 10//2 5//2 7//2
f 8//1 4//1 11//1
f 11//2 4//2 8//2
f 9//1 12//1 1//1
f 1//2 12//2 9//2
f 7//1 10//1 13//1
f 13//2 10//2 7//2
f 8//1 11//1 14//1
f 14//2 11//2 8//2
f 15//1 12//1 9//1
f 9//2 12//2 15//2
f 7//1 13//1 16//1
f 16//2 13//2 7//2
f 14//1 11//1 17//1
f 17//2 11//2 14//2
f 15//1 18//1 12//1
f 12//2 18//2 15//2
f 16//1 13//1 19//1
f 19//2 13//2 16//2
f 17//1 11//1 20//1
f 20//2 11//2 17//2
f 21//1 18//1 15//1
f 15//2 18//2 21//2
f 16//1 19//1 22//1
f 22//2 19//2 16//2
f 17//1 20//1 23//1
f 23//2 20//2 17//2
f 21//1 24//1 18//1
f 18//2 24//2 21//2
f 22//1 19//1 25//1
f 25//2 19//2 22//2
f 23//1 20//1 26//1
f 26//2 20//2 23//2
f 24//1 21//1 27//1
f 27//2 21//2 24//2
f 22//1 25//1 28//1
f 28//2 25//2 22//2
f 26//1 20//1 29//1
f 29//2 20//2 26//2
f 22//1 28//1 30//1
f 30//2 28//2 22//2
f 26//1 29//1 31//1
f 31//2 29//2 26//2
f 30//1 28//1 32//1
f 32//2 28//2 30//2
f 31//1 29//1 33//1
f 33//2 29//2 31//2
f 30//1 32//1 34//1
f 34//2 32//2 30//2
f 31//1 33//1 35//1
f 35//2 33//2 31//2
f 34//1 32//1 36//1
f 36//2 32//2 34//2
f 35//1 33//1 37//1
f 37//2 33//2 35//2
f 34//1 36//1 38//1
f 38//2 36//2 34//2
f 37//1 33//1 39//1
f 39//2 33//2 37//2
f 34//1 38//1 40//1
f 40//2 38//2 34//2
f 37//1 39//1 41//1
f 41//2 39//2 37//2
f 40//1 38//1 42//1
f 42//2 38//2 40//2
f 41//1 39//1 43//1
f 43//2 39//2 41//2
f 40//1 42//1 44//1
f 44//2 42//2 40//2
f 41//1 43//1 45//1
f 45//2 43//2 41//2
f 44//1 42//1 46//1
f 46//2 42//2 44//2
f 45//1 43//1 47//1
f 47//2 43//2 45//2
f 44//1 46//1 48//1
f 48//2 46//2 44//2
f 47//1 43//1 49//1
f 49//2 43//2 47//2
f 44//1 48//1 50//1
f 50//2 48//2 44//2
f 47//1 49//1 51//1
f 51//2 49//2 47//2
f 50//1 48//1 52//1
f 52//2 48//2 50//2
f 51//1 49//1 53//1
f 53//2 49//2 51//2
f 50//1 52//1 54//1
f 54//2 52//2 50//2
f 51//1 53//1 55//1
f 55//2 53//2 51//2
f 50//1 54//1 56//1
f 56//2 54//2 50//2
f 55//1 53//1 57//1
f 57//2 53//2 55//2
f 50//1 56//1 57//1
f 57//2 56//2 50//2
f 57//1 53//1 58//1
f 58//2 53//2 57//2
f 50//1 57//1 58//1
f 58//2 57//2 50//2
f 58//1 53//1 59//1
f 59//2 53//2 58//2
f 59//1 53//1 60//1
f 60//2 53//2 59//2
f 59//1 60//1 61//1
f 61//2 60//2 59//2
f 61//1 60//1 62//1
f 62//2 60//2 61//2
f 61//1 62//1 63//1
f 63//2 62//2 61//2
f 63//1 62//1 64//1
f 64//2 62//2 63//2
