# SSTK version 0.8.0
# 246
mtllib original_246.mtl
o mesh163/mesh163-geometry#mesh163-geometry
v -0.586591 0.021454 0.055459
v -0.583306 0.021639 0.052535
v -0.586591 0.023022 0.030681
v -0.577633 0.021454 0.055459
v -0.583306 0.022837 0.033605
v -0.578005 0.021639 0.052535
v -0.578039 0.023022 0.030681
v -0.575814 0.021646 0.052421
v -0.578090 0.022837 0.033605
v -0.575510 0.021461 0.055353
v -0.575562 0.022829 0.033732
v -0.574153 0.021668 0.052078
v -0.575486 0.023017 0.030770
v -0.573645 0.021481 0.055036
v -0.573839 0.022805 0.034112
v -0.572897 0.021703 0.051529
v -0.573619 0.023000 0.031036
v -0.572036 0.021514 0.054514
v -0.572148 0.022738 0.035167
v -0.571926 0.021749 0.050794
v -0.571642 0.022956 0.031725
v -0.570681 0.021559 0.053794
v -0.570732 0.022628 0.036910
v -0.570886 0.021836 0.049427
v -0.569978 0.022887 0.032811
v -0.570105 0.021948 0.047659
v -0.570172 0.022555 0.038066
v -0.569502 0.021621 0.052822
v -0.569773 0.022467 0.039447
v -0.569616 0.022085 0.045481
v -0.568261 0.022768 0.034698
v -0.569453 0.022250 0.042884
v -0.568420 0.021702 0.051546
v -0.567480 0.021804 0.049930
v -0.567040 0.022619 0.037045
v -0.566727 0.021930 0.047938
v -0.566309 0.022445 0.039806
v -0.566231 0.022078 0.045597
v -0.566066 0.022247 0.042935
vn 0 0.998002551082325 0.06317363400321015
vn 0 -0.998002551082325 -0.06317363400321015
usemtl material_0_0
f 1//1 2//1 3//1
f 2//1 1//1 4//1
f 3//2 2//2 1//2
f 4//2 1//2 2//2
f 5//1 3//1 2//1
f 2//2 3//2 5//2
f 2//1 4//1 6//1
f 6//2 4//2 2//2
f 3//1 5//1 7//1
f 7//2 5//2 3//2
f 6//1 4//1 8//1
f 8//2 4//2 6//2
f 7//1 5//1 9//1
f 9//2 5//2 7//2
f 8//1 4//1 10//1
f 10//2 4//2 8//2
f 7//1 9//1 11//1
f 11//2 9//2 7//2
f 8//1 10//1 12//1
f 12//2 10//2 8//2
f 7//1 11//1 13//1
f 13//2 11//2 7//2
f 12//1 10//1 14//1
f 14//2 10//2 12//2
f 13//1 11//1 15//1
f 15//2 11//2 13//2
f 12//1 14//1 16//1
f 16//2 14//2 12//2
f 13//1 15//1 17//1
f 17//2 15//2 13//2
f 16//1 14//1 18//1
f 18//2 14//2 16//2
f 17//1 15//1 19//1
f 19//2 15//2 17//2
f 16//1 18//1 20//1
f 20//2 18//2 16//2
f 17//1 19//1 21//1
f 21//2 19//2 17//2
f 20//1 18//1 22//1
f 22//2 18//2 20//2
f 21//1 19//1 23//1
f 23//2 19//2 21//2
f 20//1 22//1 24//1
f 24//2 22//2 20//2
f 21//1 23//1 25//1
f 25//2 23//2 21//2
f 24//1 22//1 26//1
f 26//2 22//2 24//2
f 25//1 23//1 27//1
f 27//2 23//2 25//2
f 26//1 22//1 28//1
f 28//2 22//2 26//2
f 25//1 27//1 29//1
f 29//2 27//2 25//2
f 26//1 28//1 30//1
f 30//2 28//2 26//2
f 25//1 29//1 31//1
f 31//2 29//2 25//2
f 30//1 28//1 32//1
f 32//2 28//2 30//2
f 31//1 29//1 32//1
f 32//2 29//2 31//2
f 32//1 28//1 33//1
f 33//2 28//2 32//2
f 31//1 32//1 33//1
f 33//2 32//2 31//2
f 31//1 33//1 34//1
f 34//2 33//2 31//2
f 31//1 34//1 35//1
f 35//2 34//2 31//2
f 35//1 34//1 36//1
f 36//2 34//2 35//2
f 35//1 36//1 37//1
f 37//2 36//2 35//2
f 37//1 36//1 38//1
f 38//2 36//2 37//2
f 37//1 38//1 39//1
f 39//2 38//2 37//2
