# SSTK version 0.8.0
# 97
mtllib original_97.mtl
o mesh5/mesh5-geometry#mesh5-geometry
v -0.809668 0.024229 0.007627
v -0.911202 0.028384 -0.058021
v -0.911202 0.024229 0.007627
v -0.809668 0.028384 -0.058021
v -0.918959 0.016501 -0.062150
v -0.918959 0.011601 0.015264
v -0.800990 0.016501 -0.062150
v -0.800990 0.011601 0.015264
vn 0 0.9980025297987037 0.06317397023606494
vn -0.8422712674691794 0.5379771708384435 0.034054010814091346
vn 0 0.517534284799195 0.8556624708711873
vn 0.813073775100166 0.5809978392934054 0.03677698982732065
vn 0 0.3282320429601617 -0.9445971236321857
vn 0 -0.9980025297987037 -0.06317397023606494
vn 0.8422712674691794 -0.5379771708384435 -0.034054010814091346
vn 0 -0.517534284799195 -0.8556624708711873
vn -0.813073775100166 -0.5809978392934054 -0.03677698982732065
vn 0 -0.3282320429601617 0.9445971236321857
usemtl material_0_0
f 1//1 2//1 3//1
f 2//1 1//1 4//1
f 5//2 3//2 2//2
f 6//3 1//3 3//3
f 1//4 7//4 4//4
f 7//5 2//5 4//5
f 3//2 5//2 6//2
f 2//5 7//5 5//5
f 1//3 6//3 8//3
f 7//4 1//4 8//4
f 7//6 6//6 5//6
f 6//6 7//6 8//6
usemtl material_1_0
f 3//6 2//6 1//6
f 4//6 1//6 2//6
f 2//7 3//7 5//7
f 3//8 1//8 6//8
f 4//9 7//9 1//9
f 4//10 2//10 7//10
f 6//7 5//7 3//7
f 5//10 7//10 2//10
f 8//8 6//8 1//8
f 8//9 1//9 7//9
f 5//1 6//1 7//1
f 8//1 7//1 6//1
