# SSTK version 0.8.0
# 322
mtllib original_322.mtl
o mesh239/mesh239-geometry#mesh239-geometry
v 0.510311 0.031877 -0.109207
v 0.511506 0.031902 -0.109591
v 0.510272 0.031913 -0.109774
v 0.510457 0.031846 -0.108715
v 0.510710 0.031820 -0.108300
v 0.511069 0.031798 -0.107961
v 0.511514 0.031782 -0.107698
v 0.511653 0.031870 -0.109098
v 0.512023 0.031770 -0.107509
v 0.511937 0.031849 -0.108760
v 0.512496 0.031832 -0.108496
v 0.512597 0.031763 -0.107397
v 0.513228 0.031827 -0.108408
v 0.513235 0.031760 -0.107359
v 0.514010 0.031832 -0.108496
v 0.514275 0.031767 -0.107465
v 0.514590 0.031849 -0.108760
v 0.515137 0.031787 -0.107781
v 0.514992 0.031876 -0.109183
v 0.515239 0.031911 -0.109746
v 0.515806 0.031819 -0.108281
v 0.515331 0.032014 -0.111373
v 0.515400 0.032152 -0.113555
v 0.515437 0.032195 -0.114225
v 0.515289 0.032116 -0.112979
v 0.515451 0.032369 -0.116972
v 0.515103 0.032086 -0.112500
v 0.515451 0.032426 -0.117873
v 0.515399 0.032236 -0.114869
v 0.514889 0.031987 -0.110945
v 0.516622 0.032426 -0.117873
v 0.515284 0.032271 -0.115429
v 0.514844 0.032061 -0.112116
v 0.516266 0.031860 -0.108933
v 0.515093 0.032301 -0.115905
v 0.514530 0.032043 -0.111822
v 0.516533 0.031922 -0.109916
v 0.514991 0.032398 -0.117440
v 0.514396 0.031968 -0.110639
v 0.516622 0.032017 -0.111408
v 0.514826 0.032326 -0.116295
v 0.514181 0.032029 -0.111612
v 0.514506 0.032345 -0.116601
v 0.513852 0.031956 -0.110455
v 0.514474 0.032420 -0.117774
v 0.513796 0.032021 -0.111485
v 0.514153 0.032359 -0.116818
v 0.513376 0.032019 -0.111443
v 0.513898 0.032432 -0.117975
v 0.513256 0.031952 -0.110394
v 0.513770 0.032367 -0.116949
v 0.512954 0.032021 -0.111486
v 0.513355 0.032370 -0.116993
v 0.512568 0.032029 -0.111612
v 0.513263 0.032436 -0.118042
v 0.512527 0.031957 -0.110464
v 0.512948 0.032367 -0.116950
v 0.512220 0.032043 -0.111824
v 0.512572 0.032359 -0.116821
v 0.511909 0.032062 -0.112119
v 0.512333 0.032429 -0.117919
v 0.511886 0.031970 -0.110672
v 0.512228 0.032346 -0.116606
v 0.511652 0.032086 -0.112507
v 0.511916 0.032327 -0.116306
v 0.511469 0.032117 -0.112994
v 0.511656 0.032302 -0.115921
v 0.511360 0.032154 -0.113581
v 0.511531 0.032405 -0.117549
v 0.511331 0.031992 -0.111020
v 0.511471 0.032273 -0.115453
v 0.511323 0.032198 -0.114267
v 0.511360 0.032238 -0.114902
v 0.510881 0.032368 -0.116953
v 0.510864 0.032023 -0.111507
v 0.510494 0.032060 -0.112091
v 0.510406 0.032317 -0.116151
v 0.510229 0.032100 -0.112730
v 0.510115 0.032257 -0.115205
v 0.510070 0.032144 -0.113425
v 0.510018 0.032192 -0.114176
vn 0 0.998002551082325 0.06317363400321015
vn 0 -0.998002551082325 -0.06317363400321015
usemtl material_0_0
f 1//1 2//1 3//1
f 2//1 1//1 4//1
f 3//2 2//2 1//2
f 4//2 1//2 2//2
f 2//1 4//1 5//1
f 5//2 4//2 2//2
f 2//1 5//1 6//1
f 6//2 5//2 2//2
f 2//1 6//1 7//1
f 7//2 6//2 2//2
f 2//1 7//1 8//1
f 8//2 7//2 2//2
f 8//1 7//1 9//1
f 9//2 7//2 8//2
f 8//1 9//1 10//1
f 10//2 9//2 8//2
f 10//1 9//1 11//1
f 11//2 9//2 10//2
f 11//1 9//1 12//1
f 12//2 9//2 11//2
f 11//1 12//1 13//1
f 13//2 12//2 11//2
f 13//1 12//1 14//1
f 14//2 12//2 13//2
f 13//1 14//1 15//1
f 15//2 14//2 13//2
f 15//1 14//1 16//1
f 16//2 14//2 15//2
f 15//1 16//1 17//1
f 17//2 16//2 15//2
f 17//1 16//1 18//1
f 18//2 16//2 17//2
f 17//1 18//1 19//1
f 19//2 18//2 17//2
f 19//1 18//1 20//1
f 20//2 18//2 19//2
f 20//1 18//1 21//1
f 21//2 18//2 20//2
f 20//1 21//1 22//1
f 22//2 21//2 20//2
f 22//1 21//1 23//1
f 23//2 21//2 22//2
f 23//1 21//1 24//1
f 24//2 21//2 23//2
f 25//1 22//1 23//1
f 23//2 22//2 25//2
f 24//1 21//1 26//1
f 26//2 21//2 24//2
f 27//1 22//1 25//1
f 25//2 22//2 27//2
f 26//1 21//1 28//1
f 28//2 21//2 26//2
f 26//1 29//1 24//1
f 24//2 29//2 26//2
f 27//1 30//1 22//1
f 22//2 30//2 27//2
f 28//1 21//1 31//1
f 31//2 21//2 28//2
f 26//1 32//1 29//1
f 29//2 32//2 26//2
f 33//1 30//1 27//1
f 27//2 30//2 33//2
f 31//1 21//1 34//1
f 34//2 21//2 31//2
f 26//1 35//1 32//1
f 32//2 35//2 26//2
f 36//1 30//1 33//1
f 33//2 30//2 36//2
f 31//1 34//1 37//1
f 37//2 34//2 31//2
f 38//1 35//1 26//1
f 26//2 35//2 38//2
f 36//1 39//1 30//1
f 30//2 39//2 36//2
f 31//1 37//1 40//1
f 40//2 37//2 31//2
f 38//1 41//1 35//1
f 35//2 41//2 38//2
f 42//1 39//1 36//1
f 36//2 39//2 42//2
f 38//1 43//1 41//1
f 41//2 43//2 38//2
f 42//1 44//1 39//1
f 39//2 44//2 42//2
f 45//1 43//1 38//1
f 38//2 43//2 45//2
f 46//1 44//1 42//1
f 42//2 44//2 46//2
f 45//1 47//1 43//1
f 43//2 47//2 45//2
f 48//1 44//1 46//1
f 46//2 44//2 48//2
f 49//1 47//1 45//1
f 45//2 47//2 49//2
f 48//1 50//1 44//1
f 44//2 50//2 48//2
f 49//1 51//1 47//1
f 47//2 51//2 49//2
f 52//1 50//1 48//1
f 48//2 50//2 52//2
f 49//1 53//1 51//1
f 51//2 53//2 49//2
f 54//1 50//1 52//1
f 52//2 50//2 54//2
f 55//1 53//1 49//1
f 49//2 53//2 55//2
f 54//1 56//1 50//1
f 50//2 56//2 54//2
f 55//1 57//1 53//1
f 53//2 57//2 55//2
f 58//1 56//1 54//1
f 54//2 56//2 58//2
f 55//1 59//1 57//1
f 57//2 59//2 55//2
f 60//1 56//1 58//1
f 58//2 56//2 60//2
f 61//1 59//1 55//1
f 55//2 59//2 61//2
f 60//1 62//1 56//1
f 56//2 62//2 60//2
f 61//1 63//1 59//1
f 59//2 63//2 61//2
f 64//1 62//1 60//1
f 60//2 62//2 64//2
f 61//1 65//1 63//1
f 63//2 65//2 61//2
f 66//1 62//1 64//1
f 64//2 62//2 66//2
f 61//1 67//1 65//1
f 65//2 67//2 61//2
f 68//1 62//1 66//1
f 66//2 62//2 68//2
f 69//1 67//1 61//1
f 61//2 67//2 69//2
f 68//1 70//1 62//1
f 62//2 70//2 68//2
f 69//1 71//1 67//1
f 67//2 71//2 69//2
f 72//1 70//1 68//1
f 68//2 70//2 72//2
f 69//1 73//1 71//1
f 71//2 73//2 69//2
f 74//1 70//1 72//1
f 72//2 70//2 74//2
f 74//1 73//1 69//1
f 69//2 73//2 74//2
f 74//1 75//1 70//1
f 70//2 75//2 74//2
f 73//1 74//1 72//1
f 72//2 74//2 73//2
f 74//1 76//1 75//1
f 75//2 76//2 74//2
f 77//1 76//1 74//1
f 74//2 76//2 77//2
f 77//1 78//1 76//1
f 76//2 78//2 77//2
f 79//1 78//1 77//1
f 77//2 78//2 79//2
f 79//1 80//1 78//1
f 78//2 80//2 79//2
f 80//1 79//1 81//1
f 81//2 79//2 80//2
