# SSTK version 0.8.0
# 229
mtllib original_229.mtl
o mesh146/mesh146-geometry#mesh146-geometry
v 0.504535 0.030670 -0.090141
v 0.503265 0.031325 -0.100486
v 0.503265 0.030670 -0.090141
v 0.504415 0.031086 -0.096704
v 0.504451 0.031043 -0.096029
v 0.504422 0.031325 -0.100486
v 0.504535 0.030901 -0.093781
v 0.504422 0.031264 -0.099514
v 0.504561 0.031006 -0.095449
v 0.504454 0.031129 -0.097383
v 0.504904 0.030877 -0.093408
v 0.504858 0.031295 -0.100013
v 0.504744 0.030976 -0.094962
v 0.504571 0.031166 -0.097976
v 0.505001 0.030951 -0.094570
v 0.504766 0.031198 -0.098483
v 0.505364 0.030858 -0.093105
v 0.505039 0.031225 -0.098905
v 0.505309 0.030932 -0.094268
v 0.505346 0.031318 -0.100369
v 0.505648 0.030918 -0.094053
v 0.505363 0.031246 -0.099236
v 0.505901 0.030845 -0.092905
v 0.505916 0.031331 -0.100583
v 0.506018 0.030910 -0.093923
v 0.505711 0.031261 -0.099472
v 0.506504 0.030841 -0.092838
v 0.506081 0.031270 -0.099614
v 0.506419 0.030907 -0.093880
v 0.506595 0.031336 -0.100655
v 0.506827 0.030910 -0.093925
v 0.506475 0.031273 -0.099662
v 0.507351 0.030849 -0.092960
v 0.506870 0.031270 -0.099617
v 0.507205 0.030918 -0.094059
v 0.507498 0.031328 -0.100531
v 0.507552 0.030932 -0.094282
v 0.507236 0.031262 -0.099484
v 0.508158 0.030872 -0.093327
v 0.507574 0.031248 -0.099262
v 0.507869 0.030952 -0.094595
v 0.508289 0.031305 -0.100162
v 0.508133 0.030978 -0.095001
v 0.507883 0.031228 -0.098950
v 0.508321 0.031010 -0.095506
v 0.508141 0.031203 -0.098550
v 0.508852 0.030910 -0.093924
v 0.508325 0.031172 -0.098060
v 0.508435 0.031048 -0.096109
v 0.508933 0.031267 -0.099568
v 0.508472 0.031092 -0.096810
v 0.508435 0.031135 -0.097480
v 0.509358 0.030961 -0.094736
v 0.509397 0.031217 -0.098771
v 0.509667 0.031023 -0.095712
v 0.509677 0.031157 -0.097830
v 0.509771 0.031092 -0.096803
vn 0 0.998002551082325 0.06317363400321015
vn 0 -0.998002551082325 -0.06317363400321015
usemtl material_0_0
f 1//1 2//1 3//1
f 2//1 1//1 4//1
f 3//2 2//2 1//2
f 4//2 1//2 2//2
f 4//1 1//1 5//1
f 5//2 1//2 4//2
f 4//1 6//1 2//1
f 2//2 6//2 4//2
f 5//1 1//1 7//1
f 7//2 1//2 5//2
f 6//1 4//1 8//1
f 8//2 4//2 6//2
f 5//1 7//1 9//1
f 9//2 7//2 5//2
f 10//1 8//1 4//1
f 4//2 8//2 10//2
f 9//1 7//1 11//1
f 11//2 7//2 9//2
f 8//1 10//1 12//1
f 12//2 10//2 8//2
f 9//1 11//1 13//1
f 13//2 11//2 9//2
f 12//1 10//1 14//1
f 14//2 10//2 12//2
f 13//1 11//1 15//1
f 15//2 11//2 13//2
f 12//1 14//1 16//1
f 16//2 14//2 12//2
f 15//1 11//1 17//1
f 17//2 11//2 15//2
f 12//1 16//1 18//1
f 18//2 16//2 12//2
f 15//1 17//1 19//1
f 19//2 17//2 15//2
f 12//1 18//1 20//1
f 20//2 18//2 12//2
f 19//1 17//1 21//1
f 21//2 17//2 19//2
f 20//1 18//1 22//1
f 22//2 18//2 20//2
f 21//1 17//1 23//1
f 23//2 17//2 21//2
f 20//1 22//1 24//1
f 24//2 22//2 20//2
f 21//1 23//1 25//1
f 25//2 23//2 21//2
f 24//1 22//1 26//1
f 26//2 22//2 24//2
f 25//1 23//1 27//1
f 27//2 23//2 25//2
f 24//1 26//1 28//1
f 28//2 26//2 24//2
f 25//1 27//1 29//1
f 29//2 27//2 25//2
f 24//1 28//1 30//1
f 30//2 28//2 24//2
f 29//1 27//1 31//1
f 31//2 27//2 29//2
f 30//1 28//1 32//1
f 32//2 28//2 30//2
f 31//1 27//1 33//1
f 33//2 27//2 31//2
f 30//1 32//1 34//1
f 34//2 32//2 30//2
f 31//1 33//1 35//1
f 35//2 33//2 31//2
f 30//1 34//1 36//1
f 36//2 34//2 30//2
f 35//1 33//1 37//1
f 37//2 33//2 35//2
f 36//1 34//1 38//1
f 38//2 34//2 36//2
f 37//1 33//1 39//1
f 39//2 33//2 37//2
f 36//1 38//1 40//1
f 40//2 38//2 36//2
f 37//1 39//1 41//1
f 41//2 39//2 37//2
f 36//1 40//1 42//1
f 42//2 40//2 36//2
f 41//1 39//1 43//1
f 43//2 39//2 41//2
f 42//1 40//1 44//1
f 44//2 40//2 42//2
f 43//1 39//1 45//1
f 45//2 39//2 43//2
f 42//1 44//1 46//1
f 46//2 44//2 42//2
f 45//1 39//1 47//1
f 47//2 39//2 45//2
f 42//1 46//1 48//1
f 48//2 46//2 42//2
f 45//1 47//1 49//1
f 49//2 47//2 45//2
f 42//1 48//1 50//1
f 50//2 48//2 42//2
f 49//1 47//1 51//1
f 51//2 47//2 49//2
f 50//1 48//1 52//1
f 52//2 48//2 50//2
f 50//1 51//1 47//1
f 47//2 51//2 50//2
f 50//1 52//1 51//1
f 51//2 52//2 50//2
f 50//1 47//1 53//1
f 53//2 47//2 50//2
f 50//1 53//1 54//1
f 54//2 53//2 50//2
f 54//1 53//1 55//1
f 55//2 53//2 54//2
f 54//1 55//1 56//1
f 56//2 55//2 54//2
f 56//1 55//1 57//1
f 57//2 55//2 56//2
