# SSTK version 0.8.0
# 110
mtllib original_110.mtl
o mesh27/mesh27-geometry#mesh27-geometry
v -0.757440 0.026927 -0.031003
v -0.758313 0.027114 -0.033953
v -0.759109 0.026963 -0.031570
v -0.755717 0.027051 -0.032964
v -0.755857 0.026873 -0.030150
v -0.754580 0.026708 -0.027550
v -0.756069 0.026678 -0.027070
v -0.753622 0.026964 -0.031587
v -0.757466 0.026842 -0.029656
v -0.753164 0.026751 -0.028223
v -0.757629 0.026660 -0.026781
v -0.752355 0.027058 -0.033071
v -0.759176 0.026831 -0.029491
v -0.750501 0.026637 -0.026423
v -0.759261 0.026654 -0.026685
v -0.751081 0.026848 -0.029761
v -0.760907 0.026660 -0.026787
v -0.748884 0.026762 -0.028401
v -0.751450 0.027173 -0.034887
v -0.760956 0.026841 -0.029652
v -0.747830 0.026558 -0.025181
v -0.750907 0.027309 -0.037034
v -0.762474 0.026679 -0.027091
v -0.746864 0.026703 -0.027463
v -0.749439 0.026973 -0.031728
v -0.762570 0.026872 -0.030137
v -0.750726 0.027466 -0.039513
v -0.763964 0.026711 -0.027598
v -0.750563 0.028049 -0.048737
v -0.764017 0.026923 -0.030945
v -0.749593 0.027972 -0.047515
v -0.750982 0.027644 -0.042332
v -0.765298 0.026995 -0.032077
v -0.748787 0.027884 -0.046130
v -0.751697 0.028117 -0.049797
v -0.765375 0.026756 -0.028308
v -0.748270 0.027117 -0.034012
v -0.751750 0.027798 -0.044770
v -0.766347 0.027086 -0.033510
v -0.748153 0.027789 -0.044617
v -0.752995 0.028173 -0.050694
v -0.766667 0.026813 -0.029201
v -0.747571 0.027282 -0.036608
v -0.753012 0.027925 -0.046766
v -0.767096 0.027194 -0.035225
v -0.747701 0.027687 -0.043010
v -0.754417 0.028218 -0.051407
v -0.767545 0.027320 -0.037220
v -0.747429 0.027579 -0.041309
v -0.754748 0.028019 -0.048260
v -0.767803 0.026880 -0.030260
v -0.747339 0.027466 -0.039513
v -0.755925 0.028251 -0.051917
v -0.767695 0.027465 -0.039496
v -0.756841 0.028078 -0.049191
v -0.767786 0.028055 -0.048822
v -0.757517 0.028270 -0.052223
v -0.768767 0.027977 -0.047587
v -0.767543 0.027613 -0.041835
v -0.759176 0.028098 -0.049502
v -0.768780 0.026957 -0.031483
v -0.766646 0.028122 -0.049877
v -0.759193 0.028277 -0.052325
v -0.769591 0.027887 -0.046172
v -0.767089 0.027741 -0.043863
v -0.760854 0.028270 -0.052226
v -0.769600 0.027045 -0.032871
v -0.766332 0.027850 -0.045582
v -0.760935 0.028088 -0.049345
v -0.770243 0.027789 -0.044627
v -0.765349 0.028177 -0.050753
v -0.762434 0.028252 -0.051932
v -0.770248 0.027141 -0.034388
v -0.765273 0.027939 -0.046992
v -0.762538 0.028058 -0.048875
v -0.770709 0.027686 -0.042999
v -0.763932 0.028221 -0.051440
v -0.770711 0.027243 -0.035998
v -0.763984 0.028008 -0.048090
v -0.770989 0.027578 -0.041289
v -0.770989 0.027351 -0.037701
v -0.771082 0.027465 -0.039496
vn 0 0.998002551082325 0.06317363400321015
vn 0 -0.998002551082325 -0.06317363400321015
usemtl material_0_0
f 1//1 2//1 3//1
f 2//1 1//1 4//1
f 3//2 2//2 1//2
f 4//2 1//2 2//2
f 4//1 1//1 5//1
f 5//2 1//2 4//2
f 5//1 6//1 4//1
f 4//2 6//2 5//2
f 5//1 7//1 6//1
f 6//2 7//2 5//2
f 4//1 6//1 8//1
f 8//2 6//2 4//2
f 9//1 7//1 5//1
f 5//2 7//2 9//2
f 8//1 6//1 10//1
f 10//2 6//2 8//2
f 9//1 11//1 7//1
f 7//2 11//2 9//2
f 8//1 10//1 12//1
f 12//2 10//2 8//2
f 13//1 11//1 9//1
f 9//2 11//2 13//2
f 12//1 10//1 14//1
f 14//2 10//2 12//2
f 13//1 15//1 11//1
f 11//2 15//2 13//2
f 12//1 14//1 16//1
f 16//2 14//2 12//2
f 13//1 17//1 15//1
f 15//2 17//2 13//2
f 16//1 14//1 18//1
f 18//2 14//2 16//2
f 12//1 16//1 19//1
f 19//2 16//2 12//2
f 20//1 17//1 13//1
f 13//2 17//2 20//2
f 18//1 14//1 21//1
f 21//2 14//2 18//2
f 16//1 22//1 19//1
f 19//2 22//2 16//2
f 20//1 23//1 17//1
f 17//2 23//2 20//2
f 18//1 21//1 24//1
f 24//2 21//2 18//2
f 22//1 16//1 25//1
f 25//2 16//2 22//2
f 26//1 23//1 20//1
f 20//2 23//2 26//2
f 22//1 25//1 27//1
f 27//2 25//2 22//2
f 26//1 28//1 23//1
f 23//2 28//2 26//2
f 27//1 25//1 29//1
f 29//2 25//2 27//2
f 30//1 28//1 26//1
f 26//2 28//2 30//2
f 29//1 25//1 31//1
f 31//2 25//2 29//2
f 29//1 32//1 27//1
f 27//2 32//2 29//2
f 33//1 28//1 30//1
f 30//2 28//2 33//2
f 31//1 25//1 34//1
f 34//2 25//2 31//2
f 35//1 32//1 29//1
f 29//2 32//2 35//2
f 33//1 36//1 28//1
f 28//2 36//2 33//2
f 34//1 25//1 37//1
f 37//2 25//2 34//2
f 35//1 38//1 32//1
f 32//2 38//2 35//2
f 39//1 36//1 33//1
f 33//2 36//2 39//2
f 34//1 37//1 40//1
f 40//2 37//2 34//2
f 41//1 38//1 35//1
f 35//2 38//2 41//2
f 39//1 42//1 36//1
f 36//2 42//2 39//2
f 40//1 37//1 43//1
f 43//2 37//2 40//2
f 41//1 44//1 38//1
f 38//2 44//2 41//2
f 45//1 42//1 39//1
f 39//2 42//2 45//2
f 40//1 43//1 46//1
f 46//2 43//2 40//2
f 47//1 44//1 41//1
f 41//2 44//2 47//2
f 48//1 42//1 45//1
f 45//2 42//2 48//2
f 46//1 43//1 49//1
f 49//2 43//2 46//2
f 47//1 50//1 44//1
f 44//2 50//2 47//2
f 48//1 51//1 42//1
f 42//2 51//2 48//2
f 49//1 43//1 52//1
f 52//2 43//2 49//2
f 53//1 50//1 47//1
f 47//2 50//2 53//2
f 54//1 51//1 48//1
f 48//2 51//2 54//2
f 53//1 55//1 50//1
f 50//2 55//2 53//2
f 56//1 51//1 54//1
f 54//2 51//2 56//2
f 57//1 55//1 53//1
f 53//2 55//2 57//2
f 58//1 51//1 56//1
f 56//2 51//2 58//2
f 59//1 56//1 54//1
f 54//2 56//2 59//2
f 57//1 60//1 55//1
f 55//2 60//2 57//2
f 58//1 61//1 51//1
f 51//2 61//2 58//2
f 56//1 59//1 62//1
f 62//2 59//2 56//2
f 63//1 60//1 57//1
f 57//2 60//2 63//2
f 64//1 61//1 58//1
f 58//2 61//2 64//2
f 62//1 59//1 65//1
f 65//2 59//2 62//2
f 66//1 60//1 63//1
f 63//2 60//2 66//2
f 64//1 67//1 61//1
f 61//2 67//2 64//2
f 62//1 65//1 68//1
f 68//2 65//2 62//2
f 66//1 69//1 60//1
f 60//2 69//2 66//2
f 70//1 67//1 64//1
f 64//2 67//2 70//2
f 62//1 68//1 71//1
f 71//2 68//2 62//2
f 72//1 69//1 66//1
f 66//2 69//2 72//2
f 70//1 73//1 67//1
f 67//2 73//2 70//2
f 71//1 68//1 74//1
f 74//2 68//2 71//2
f 72//1 75//1 69//1
f 69//2 75//2 72//2
f 76//1 73//1 70//1
f 70//2 73//2 76//2
f 71//1 74//1 77//1
f 77//2 74//2 71//2
f 77//1 75//1 72//1
f 72//2 75//2 77//2
f 76//1 78//1 73//1
f 73//2 78//2 76//2
f 77//1 74//1 79//1
f 79//2 74//2 77//2
f 77//1 79//1 75//1
f 75//2 79//2 77//2
f 80//1 78//1 76//1
f 76//2 78//2 80//2
f 80//1 81//1 78//1
f 78//2 81//2 80//2
f 81//1 80//1 82//1
f 82//2 80//2 81//2
