# SSTK version 0.8.0
# 203
mtllib original_203.mtl
o mesh120/mesh120-geometry#mesh120-geometry
v 0.186637 0.031950 -0.110361
v 0.187753 0.031998 -0.111116
v 0.186497 0.031986 -0.110919
v 0.186847 0.031919 -0.109875
v 0.187126 0.031893 -0.109463
v 0.187474 0.031872 -0.109124
v 0.187901 0.031855 -0.108859
v 0.187953 0.031956 -0.110451
v 0.188414 0.031843 -0.108669
v 0.188342 0.031925 -0.109962
v 0.188922 0.031906 -0.109660
v 0.189014 0.031836 -0.108556
v 0.189694 0.031900 -0.109560
v 0.189701 0.031834 -0.108518
v 0.190456 0.031905 -0.109649
v 0.190537 0.031838 -0.108594
v 0.190992 0.031922 -0.109916
v 0.191281 0.031853 -0.108824
v 0.191309 0.031947 -0.110302
v 0.191898 0.031876 -0.109194
v 0.191415 0.031975 -0.110750
v 0.191581 0.032094 -0.112634
v 0.192056 0.032076 -0.112353
v 0.191322 0.031999 -0.111134
v 0.192350 0.031908 -0.109690
v 0.191041 0.032018 -0.111426
v 0.192417 0.032052 -0.111969
v 0.189743 0.032045 -0.111856
v 0.192628 0.031944 -0.110269
v 0.189701 0.032131 -0.113222
v 0.192645 0.032021 -0.111479
v 0.188579 0.032152 -0.113546
v 0.192721 0.031983 -0.110884
v 0.188560 0.032066 -0.112184
v 0.188291 0.032161 -0.113697
v 0.188092 0.032173 -0.113884
v 0.187975 0.032187 -0.114094
v 0.187806 0.032083 -0.112465
v 0.187936 0.032201 -0.114328
v 0.187562 0.032295 -0.115814
v 0.187331 0.032103 -0.112771
v 0.188370 0.032319 -0.116183
v 0.187209 0.032275 -0.115496
v 0.188030 0.032224 -0.114690
v 0.186987 0.032128 -0.113176
v 0.188310 0.032244 -0.115004
v 0.186938 0.032251 -0.115106
v 0.188810 0.032258 -0.115220
v 0.186778 0.032159 -0.113654
v 0.188901 0.032326 -0.116297
v 0.186766 0.032222 -0.114661
v 0.189559 0.032262 -0.115293
v 0.186709 0.032192 -0.114180
v 0.189468 0.032328 -0.116335
v 0.190296 0.032324 -0.116271
v 0.190217 0.032257 -0.115212
v 0.190706 0.032242 -0.114969
v 0.191017 0.032312 -0.116081
v 0.191032 0.032217 -0.114581
v 0.191596 0.032293 -0.115783
v 0.191197 0.032185 -0.114067
v 0.192438 0.032196 -0.114236
v 0.192001 0.032269 -0.115395
v 0.192269 0.032237 -0.114888
vn 0 0.998002551082325 0.06317363400321015
vn 0 -0.998002551082325 -0.06317363400321015
usemtl material_0_0
f 1//1 2//1 3//1
f 2//1 1//1 4//1
f 3//2 2//2 1//2
f 4//2 1//2 2//2
f 2//1 4//1 5//1
f 5//2 4//2 2//2
f 2//1 5//1 6//1
f 6//2 5//2 2//2
f 2//1 6//1 7//1
f 7//2 6//2 2//2
f 2//1 7//1 8//1
f 8//2 7//2 2//2
f 8//1 7//1 9//1
f 9//2 7//2 8//2
f 8//1 9//1 10//1
f 10//2 9//2 8//2
f 10//1 9//1 11//1
f 11//2 9//2 10//2
f 11//1 9//1 12//1
f 12//2 9//2 11//2
f 11//1 12//1 13//1
f 13//2 12//2 11//2
f 13//1 12//1 14//1
f 14//2 12//2 13//2
f 13//1 14//1 15//1
f 15//2 14//2 13//2
f 15//1 14//1 16//1
f 16//2 14//2 15//2
f 15//1 16//1 17//1
f 17//2 16//2 15//2
f 17//1 16//1 18//1
f 18//2 16//2 17//2
f 17//1 18//1 19//1
f 19//2 18//2 17//2
f 19//1 18//1 20//1
f 20//2 18//2 19//2
f 19//1 20//1 21//1
f 21//2 20//2 19//2
f 21//1 20//1 22//1
f 22//2 20//2 21//2
f 22//1 20//1 23//1
f 23//2 20//2 22//2
f 22//1 24//1 21//1
f 21//2 24//2 22//2
f 23//1 20//1 25//1
f 25//2 20//2 23//2
f 22//1 26//1 24//1
f 24//2 26//2 22//2
f 23//1 25//1 27//1
f 27//2 25//2 23//2
f 22//1 28//1 26//1
f 26//2 28//2 22//2
f 27//1 25//1 29//1
f 29//2 25//2 27//2
f 30//1 28//1 22//1
f 22//2 28//2 30//2
f 27//1 29//1 31//1
f 31//2 29//2 27//2
f 32//1 28//1 30//1
f 30//2 28//2 32//2
f 31//1 29//1 33//1
f 33//2 29//2 31//2
f 32//1 34//1 28//1
f 28//2 34//2 32//2
f 35//1 34//1 32//1
f 32//2 34//2 35//2
f 36//1 34//1 35//1
f 35//2 34//2 36//2
f 37//1 34//1 36//1
f 36//2 34//2 37//2
f 37//1 38//1 34//1
f 34//2 38//2 37//2
f 38//1 37//1 39//1
f 39//2 37//2 38//2
f 40//1 38//1 39//1
f 39//2 38//2 40//2
f 40//1 41//1 38//1
f 38//2 41//2 40//2
f 40//1 39//1 42//1
f 42//2 39//2 40//2
f 43//1 41//1 40//1
f 40//2 41//2 43//2
f 42//1 39//1 44//1
f 44//2 39//2 42//2
f 43//1 45//1 41//1
f 41//2 45//2 43//2
f 42//1 44//1 46//1
f 46//2 44//2 42//2
f 47//1 45//1 43//1
f 43//2 45//2 47//2
f 42//1 46//1 48//1
f 48//2 46//2 42//2
f 47//1 49//1 45//1
f 45//2 49//2 47//2
f 42//1 48//1 50//1
f 50//2 48//2 42//2
f 51//1 49//1 47//1
f 47//2 49//2 51//2
f 50//1 48//1 52//1
f 52//2 48//2 50//2
f 49//1 51//1 53//1
f 53//2 51//2 49//2
f 50//1 52//1 54//1
f 54//2 52//2 50//2
f 54//1 52//1 55//1
f 55//2 52//2 54//2
f 55//1 52//1 56//1
f 56//2 52//2 55//2
f 55//1 56//1 57//1
f 57//2 56//2 55//2
f 55//1 57//1 58//1
f 58//2 57//2 55//2
f 58//1 57//1 59//1
f 59//2 57//2 58//2
f 58//1 59//1 60//1
f 60//2 59//2 58//2
f 60//1 59//1 61//1
f 61//2 59//2 60//2
f 60//1 61//1 62//1
f 62//2 61//2 60//2
f 60//1 62//1 63//1
f 63//2 62//2 60//2
f 63//1 62//1 64//1
f 64//2 62//2 63//2
