# SSTK version 0.8.0
# 162
mtllib original_162.mtl
o mesh79/mesh79-geometry#mesh79-geometry
v -0.096734 0.011398 0.218312
v -0.096554 0.011491 0.216846
v -0.096621 0.011535 0.216149
v -0.096120 0.011395 0.218367
v -0.096621 0.012040 0.208177
v -0.096335 0.011475 0.217092
v -0.097193 0.011409 0.218149
v -0.096621 0.011812 0.211775
v -0.095901 0.011470 0.217184
v -0.097517 0.011425 0.217896
v -0.096621 0.011874 0.210790
v -0.095160 0.011402 0.218254
v -0.097729 0.011445 0.217575
v -0.095344 0.011812 0.211775
v -0.095344 0.011473 0.217135
v -0.097845 0.011480 0.217023
v -0.095344 0.011874 0.210790
v -0.097884 0.011992 0.208937
v -0.097884 0.011874 0.210790
v -0.097884 0.011812 0.211775
v -0.097884 0.011540 0.216078
v -0.098816 0.011874 0.210790
v -0.098816 0.011812 0.211775
vn 0 0.998002551082325 0.06317363400321015
vn 0 -0.998002551082325 -0.06317363400321015
usemtl material_0_0
f 1//1 2//1 3//1
f 2//1 1//1 4//1
f 3//2 2//2 1//2
f 4//2 1//2 2//2
f 5//1 1//1 3//1
f 3//2 1//2 5//2
f 2//1 4//1 6//1
f 6//2 4//2 2//2
f 5//1 7//1 1//1
f 1//2 7//2 5//2
f 5//1 3//1 8//1
f 8//2 3//2 5//2
f 6//1 4//1 9//1
f 9//2 4//2 6//2
f 5//1 10//1 7//1
f 7//2 10//2 5//2
f 5//1 8//1 11//1
f 11//2 8//2 5//2
f 9//1 4//1 12//1
f 12//2 4//2 9//2
f 5//1 13//1 10//1
f 10//2 13//2 5//2
f 14//1 11//1 8//1
f 8//2 11//2 14//2
f 9//1 12//1 15//1
f 15//2 12//2 9//2
f 5//1 16//1 13//1
f 13//2 16//2 5//2
f 11//1 14//1 17//1
f 17//2 14//2 11//2
f 18//1 16//1 5//1
f 5//2 16//2 18//2
f 19//1 16//1 18//1
f 18//2 16//2 19//2
f 20//1 16//1 19//1
f 19//2 16//2 20//2
f 16//1 20//1 21//1
f 21//2 20//2 16//2
f 22//1 20//1 19//1
f 19//2 20//2 22//2
f 20//1 22//1 23//1
f 23//2 22//2 20//2
