# SSTK version 0.8.0
# 209
mtllib original_209.mtl
o mesh126/mesh126-geometry#mesh126-geometry
v -0.185412 0.037831 -0.203260
v -0.187292 0.037967 -0.205412
v -0.187501 0.037831 -0.203260
v -0.186733 0.038129 -0.207970
v -0.185839 0.038301 -0.210681
v -0.184627 0.038466 -0.213294
v -0.185132 0.037981 -0.205629
v -0.184633 0.038118 -0.207801
v -0.183610 0.038302 -0.210703
v -0.183212 0.038615 -0.215656
v -0.182234 0.038481 -0.213525
v -0.181709 0.038739 -0.217615
v -0.180674 0.038639 -0.216032
v -0.179101 0.038863 -0.219565
v -0.189815 0.038863 -0.219565
v -0.179101 0.038763 -0.217987
v -0.189815 0.038739 -0.217615
vn 0 0.998002551082325 0.06317363400321015
vn 0 -0.998002551082325 -0.06317363400321015
usemtl material_0_0
f 1//1 2//1 3//1
f 2//1 1//1 4//1
f 3//2 2//2 1//2
f 4//2 1//2 2//2
f 4//1 1//1 5//1
f 5//2 1//2 4//2
f 5//1 1//1 6//1
f 6//2 1//2 5//2
f 6//1 1//1 7//1
f 7//2 1//2 6//2
f 6//1 7//1 8//1
f 8//2 7//2 6//2
f 6//1 8//1 9//1
f 9//2 8//2 6//2
f 6//1 9//1 10//1
f 10//2 9//2 6//2
f 10//1 9//1 11//1
f 11//2 9//2 10//2
f 10//1 11//1 12//1
f 12//2 11//2 10//2
f 12//1 11//1 13//1
f 13//2 11//2 12//2
f 14//1 12//1 13//1
f 13//2 12//2 14//2
f 15//1 12//1 14//1
f 14//2 12//2 15//2
f 14//1 13//1 16//1
f 16//2 13//2 14//2
f 12//1 15//1 17//1
f 17//2 15//2 12//2
