# SSTK version 0.8.0
# 226
mtllib original_226.mtl
o mesh143/mesh143-geometry#mesh143-geometry
v -0.077803 0.031825 -0.108390
v -0.077036 0.032286 -0.115667
v -0.077125 0.032463 -0.118463
v -0.076682 0.031754 -0.107266
v -0.077027 0.032641 -0.121274
v -0.076768 0.032141 -0.113382
v -0.076660 0.033172 -0.129669
v -0.076320 0.032029 -0.111607
v -0.078226 0.033061 -0.127909
v -0.076732 0.032789 -0.123605
v -0.075368 0.031703 -0.106463
v -0.078877 0.031939 -0.110179
v -0.076239 0.032906 -0.125457
v -0.075694 0.031949 -0.110342
v -0.079352 0.032911 -0.125536
v -0.075709 0.033213 -0.130304
v -0.074937 0.031893 -0.109458
v -0.079644 0.032083 -0.112454
v -0.075550 0.032993 -0.126829
v -0.073862 0.031673 -0.105981
v -0.080032 0.032714 -0.122428
v -0.074642 0.033241 -0.130759
v -0.074096 0.031853 -0.108827
v -0.080105 0.032258 -0.115216
v -0.074871 0.033042 -0.127605
v -0.073172 0.031829 -0.108448
v -0.080258 0.032463 -0.118463
v -0.074085 0.033077 -0.128160
v -0.072163 0.031663 -0.105821
v -0.073460 0.033259 -0.131031
v -0.072163 0.031821 -0.108322
v -0.073194 0.033098 -0.128493
v -0.070859 0.031669 -0.105912
v -0.072163 0.033264 -0.131122
v -0.071155 0.031829 -0.108449
v -0.072197 0.033105 -0.128604
v -0.070231 0.031853 -0.108829
v -0.071174 0.033097 -0.128478
v -0.069672 0.031686 -0.106186
v -0.070288 0.033252 -0.130921
v -0.069390 0.031893 -0.109463
v -0.070239 0.033073 -0.128101
v -0.068602 0.031715 -0.106643
v -0.068658 0.033214 -0.130319
v -0.068632 0.031950 -0.110350
v -0.069392 0.033033 -0.127472
v -0.068006 0.032030 -0.111618
v -0.068632 0.032978 -0.126592
v -0.067650 0.031755 -0.107283
v -0.067282 0.033152 -0.129339
v -0.067559 0.032142 -0.113393
v -0.068006 0.032898 -0.125330
v -0.066086 0.031867 -0.109049
v -0.067559 0.032785 -0.123554
v -0.067291 0.032287 -0.115674
v -0.067291 0.032640 -0.121265
v -0.067201 0.032463 -0.118463
v -0.066168 0.033067 -0.128004
v -0.065292 0.032961 -0.126326
v -0.064966 0.032017 -0.111424
v -0.064627 0.032834 -0.124319
v -0.064293 0.032214 -0.114523
v -0.064208 0.032672 -0.121769
v -0.064068 0.032463 -0.118463
vn 0 0.998002551082325 0.06317363400321015
vn 0 -0.998002551082325 -0.06317363400321015
usemtl material_0_0
f 1//1 2//1 3//1
f 2//1 1//1 4//1
f 3//2 2//2 1//2
f 4//2 1//2 2//2
f 5//1 1//1 3//1
f 3//2 1//2 5//2
f 2//1 4//1 6//1
f 6//2 4//2 2//2
f 7//1 1//1 5//1
f 5//2 1//2 7//2
f 6//1 4//1 8//1
f 8//2 4//2 6//2
f 9//1 1//1 7//1
f 7//2 1//2 9//2
f 7//1 5//1 10//1
f 10//2 5//2 7//2
f 8//1 4//1 11//1
f 11//2 4//2 8//2
f 9//1 12//1 1//1
f 1//2 12//2 9//2
f 7//1 10//1 13//1
f 13//2 10//2 7//2
f 8//1 11//1 14//1
f 14//2 11//2 8//2
f 15//1 12//1 9//1
f 9//2 12//2 15//2
f 7//1 13//1 16//1
f 16//2 13//2 7//2
f 14//1 11//1 17//1
f 17//2 11//2 14//2
f 15//1 18//1 12//1
f 12//2 18//2 15//2
f 16//1 13//1 19//1
f 19//2 13//2 16//2
f 17//1 11//1 20//1
f 20//2 11//2 17//2
f 21//1 18//1 15//1
f 15//2 18//2 21//2
f 16//1 19//1 22//1
f 22//2 19//2 16//2
f 17//1 20//1 23//1
f 23//2 20//2 17//2
f 21//1 24//1 18//1
f 18//2 24//2 21//2
f 22//1 19//1 25//1
f 25//2 19//2 22//2
f 23//1 20//1 26//1
f 26//2 20//2 23//2
f 24//1 21//1 27//1
f 27//2 21//2 24//2
f 22//1 25//1 28//1
f 28//2 25//2 22//2
f 26//1 20//1 29//1
f 29//2 20//2 26//2
f 22//1 28//1 30//1
f 30//2 28//2 22//2
f 26//1 29//1 31//1
f 31//2 29//2 26//2
f 30//1 28//1 32//1
f 32//2 28//2 30//2
f 31//1 29//1 33//1
f 33//2 29//2 31//2
f 30//1 32//1 34//1
f 34//2 32//2 30//2
f 31//1 33//1 35//1
f 35//2 33//2 31//2
f 34//1 32//1 36//1
f 36//2 32//2 34//2
f 35//1 33//1 37//1
f 37//2 33//2 35//2
f 34//1 36//1 38//1
f 38//2 36//2 34//2
f 37//1 33//1 39//1
f 39//2 33//2 37//2
f 34//1 38//1 40//1
f 40//2 38//2 34//2
f 37//1 39//1 41//1
f 41//2 39//2 37//2
f 40//1 38//1 42//1
f 42//2 38//2 40//2
f 41//1 39//1 43//1
f 43//2 39//2 41//2
f 40//1 42//1 44//1
f 44//2 42//2 40//2
f 41//1 43//1 45//1
f 45//2 43//2 41//2
f 44//1 42//1 46//1
f 46//2 42//2 44//2
f 45//1 43//1 47//1
f 47//2 43//2 45//2
f 44//1 46//1 48//1
f 48//2 46//2 44//2
f 47//1 43//1 49//1
f 49//2 43//2 47//2
f 44//1 48//1 50//1
f 50//2 48//2 44//2
f 47//1 49//1 51//1
f 51//2 49//2 47//2
f 50//1 48//1 52//1
f 52//2 48//2 50//2
f 51//1 49//1 53//1
f 53//2 49//2 51//2
f 50//1 52//1 54//1
f 54//2 52//2 50//2
f 51//1 53//1 55//1
f 55//2 53//2 51//2
f 50//1 54//1 56//1
f 56//2 54//2 50//2
f 55//1 53//1 57//1
f 57//2 53//2 55//2
f 50//1 56//1 57//1
f 57//2 56//2 50//2
f 57//1 53//1 58//1
f 58//2 53//2 57//2
f 50//1 57//1 58//1
f 58//2 57//2 50//2
f 58//1 53//1 59//1
f 59//2 53//2 58//2
f 59//1 53//1 60//1
f 60//2 53//2 59//2
f 59//1 60//1 61//1
f 61//2 60//2 59//2
f 61//1 60//1 62//1
f 62//2 60//2 61//2
f 61//1 62//1 63//1
f 63//2 62//2 61//2
f 63//1 62//1 64//1
f 64//2 62//2 63//2
