# SSTK version 0.8.0
# 136
mtllib original_136.mtl
o mesh53/mesh53-geometry#mesh53-geometry
v 0.341331 0.031674 -0.105990
v 0.340061 0.031962 -0.110539
v 0.340061 0.031674 -0.105990
v 0.340511 0.032124 -0.113114
v 0.340865 0.032102 -0.112757
v 0.340024 0.032004 -0.111216
v 0.341105 0.032075 -0.112326
v 0.340015 0.032142 -0.113395
v 0.341260 0.032043 -0.111821
v 0.339912 0.032035 -0.111697
v 0.341331 0.031965 -0.110588
v 0.339707 0.032057 -0.112043
v 0.339419 0.032154 -0.113577
v 0.339387 0.032074 -0.112310
v 0.338977 0.032084 -0.112482
v 0.338769 0.032158 -0.113638
v 0.338501 0.032088 -0.112539
v 0.338035 0.032153 -0.113561
v 0.337745 0.032080 -0.112410
v 0.337393 0.032138 -0.113329
v 0.337100 0.032056 -0.112025
v 0.336843 0.032114 -0.112944
v 0.336843 0.032036 -0.111710
v 0.336659 0.032008 -0.111280
v 0.336548 0.031974 -0.110735
v 0.336384 0.032080 -0.112405
v 0.336511 0.031932 -0.110074
v 0.336511 0.031674 -0.105990
v 0.335241 0.032147 -0.113469
v 0.335241 0.031674 -0.105990
v 0.336384 0.032147 -0.113469
vn 0 0.998002551082325 0.06317363400321015
vn 0 -0.998002551082325 -0.06317363400321015
usemtl material_0_0
f 1//1 2//1 3//1
f 2//1 1//1 4//1
f 3//2 2//2 1//2
f 4//2 1//2 2//2
f 4//1 1//1 5//1
f 5//2 1//2 4//2
f 4//1 6//1 2//1
f 2//2 6//2 4//2
f 5//1 1//1 7//1
f 7//2 1//2 5//2
f 8//1 6//1 4//1
f 4//2 6//2 8//2
f 7//1 1//1 9//1
f 9//2 1//2 7//2
f 8//1 10//1 6//1
f 6//2 10//2 8//2
f 9//1 1//1 11//1
f 11//2 1//2 9//2
f 8//1 12//1 10//1
f 10//2 12//2 8//2
f 13//1 12//1 8//1
f 8//2 12//2 13//2
f 13//1 14//1 12//1
f 12//2 14//2 13//2
f 13//1 15//1 14//1
f 14//2 15//2 13//2
f 16//1 15//1 13//1
f 13//2 15//2 16//2
f 16//1 17//1 15//1
f 15//2 17//2 16//2
f 18//1 17//1 16//1
f 16//2 17//2 18//2
f 18//1 19//1 17//1
f 17//2 19//2 18//2
f 20//1 19//1 18//1
f 18//2 19//2 20//2
f 20//1 21//1 19//1
f 19//2 21//2 20//2
f 22//1 21//1 20//1
f 20//2 21//2 22//2
f 22//1 23//1 21//1
f 21//2 23//2 22//2
f 22//1 24//1 23//1
f 23//2 24//2 22//2
f 22//1 25//1 24//1
f 24//2 25//2 22//2
f 26//1 25//1 22//1
f 22//2 25//2 26//2
f 26//1 27//1 25//1
f 25//2 27//2 26//2
f 26//1 28//1 27//1
f 27//2 28//2 26//2
f 29//1 28//1 26//1
f 26//2 28//2 29//2
f 28//1 29//1 30//1
f 30//2 29//2 28//2
f 31//1 29//1 26//1
f 26//2 29//2 31//2
