# SSTK version 0.8.0
# 141
mtllib original_141.mtl
o mesh58/mesh58-geometry#mesh58-geometry
v 0.627507 0.031674 -0.105990
v 0.626244 0.031972 -0.110701
v 0.626244 0.031674 -0.105990
v 0.626575 0.032136 -0.113291
v 0.626908 0.032119 -0.113021
v 0.626213 0.032013 -0.111355
v 0.627170 0.032097 -0.112672
v 0.626179 0.032148 -0.113484
v 0.627357 0.032069 -0.112239
v 0.626121 0.032041 -0.111796
v 0.627470 0.032036 -0.111723
v 0.625947 0.032060 -0.112098
v 0.627507 0.031999 -0.111124
v 0.625718 0.032155 -0.113599
v 0.625673 0.032075 -0.112335
v 0.625320 0.032085 -0.112488
v 0.625193 0.032158 -0.113638
v 0.624911 0.032088 -0.112539
v 0.624514 0.032152 -0.113556
v 0.624187 0.032080 -0.112408
v 0.623902 0.032137 -0.113310
v 0.623598 0.032055 -0.112014
v 0.623370 0.032036 -0.111713
v 0.623356 0.032111 -0.112901
v 0.623207 0.032012 -0.111332
v 0.623076 0.031949 -0.110335
v 0.622878 0.032075 -0.112328
v 0.623076 0.031674 -0.105990
v 0.622581 0.032110 -0.112879
v 0.622127 0.032136 -0.113293
v 0.621806 0.031981 -0.110849
v 0.621806 0.031674 -0.105990
v 0.621728 0.032028 -0.111588
v 0.621519 0.032152 -0.113551
v 0.621495 0.032061 -0.112116
v 0.621086 0.032081 -0.112433
v 0.620762 0.032158 -0.113638
v 0.620479 0.032088 -0.112539
v 0.620054 0.032152 -0.113554
v 0.619963 0.032084 -0.112469
v 0.619488 0.032070 -0.112257
v 0.619428 0.032136 -0.113303
v 0.619095 0.032048 -0.111910
v 0.618900 0.032112 -0.112915
v 0.618828 0.032018 -0.111433
v 0.618675 0.031976 -0.110771
v 0.618489 0.032081 -0.112419
v 0.618623 0.031919 -0.109870
v 0.618623 0.031674 -0.105990
v 0.617353 0.032147 -0.113469
v 0.617353 0.031674 -0.105990
v 0.618489 0.032147 -0.113469
vn 0 0.998002551082325 0.06317363400321015
vn 0 -0.998002551082325 -0.06317363400321015
usemtl material_0_0
f 1//1 2//1 3//1
f 2//1 1//1 4//1
f 3//2 2//2 1//2
f 4//2 1//2 2//2
f 4//1 1//1 5//1
f 5//2 1//2 4//2
f 4//1 6//1 2//1
f 2//2 6//2 4//2
f 5//1 1//1 7//1
f 7//2 1//2 5//2
f 8//1 6//1 4//1
f 4//2 6//2 8//2
f 7//1 1//1 9//1
f 9//2 1//2 7//2
f 8//1 10//1 6//1
f 6//2 10//2 8//2
f 9//1 1//1 11//1
f 11//2 1//2 9//2
f 8//1 12//1 10//1
f 10//2 12//2 8//2
f 11//1 1//1 13//1
f 13//2 1//2 11//2
f 14//1 12//1 8//1
f 8//2 12//2 14//2
f 14//1 15//1 12//1
f 12//2 15//2 14//2
f 14//1 16//1 15//1
f 15//2 16//2 14//2
f 17//1 16//1 14//1
f 14//2 16//2 17//2
f 17//1 18//1 16//1
f 16//2 18//2 17//2
f 19//1 18//1 17//1
f 17//2 18//2 19//2
f 19//1 20//1 18//1
f 18//2 20//2 19//2
f 21//1 20//1 19//1
f 19//2 20//2 21//2
f 21//1 22//1 20//1
f 20//2 22//2 21//2
f 21//1 23//1 22//1
f 22//2 23//2 21//2
f 24//1 23//1 21//1
f 21//2 23//2 24//2
f 24//1 25//1 23//1
f 23//2 25//2 24//2
f 24//1 26//1 25//1
f 25//2 26//2 24//2
f 27//1 26//1 24//1
f 24//2 26//2 27//2
f 27//1 28//1 26//1
f 26//2 28//2 27//2
f 29//1 28//1 27//1
f 27//2 28//2 29//2
f 30//1 28//1 29//1
f 29//2 28//2 30//2
f 31//1 28//1 30//1
f 30//2 28//2 31//2
f 28//1 31//1 32//1
f 32//2 31//2 28//2
f 30//1 33//1 31//1
f 31//2 33//2 30//2
f 34//1 33//1 30//1
f 30//2 33//2 34//2
f 34//1 35//1 33//1
f 33//2 35//2 34//2
f 34//1 36//1 35//1
f 35//2 36//2 34//2
f 37//1 36//1 34//1
f 34//2 36//2 37//2
f 37//1 38//1 36//1
f 36//2 38//2 37//2
f 39//1 38//1 37//1
f 37//2 38//2 39//2
f 39//1 40//1 38//1
f 38//2 40//2 39//2
f 39//1 41//1 40//1
f 40//2 41//2 39//2
f 42//1 41//1 39//1
f 39//2 41//2 42//2
f 42//1 43//1 41//1
f 41//2 43//2 42//2
f 44//1 43//1 42//1
f 42//2 43//2 44//2
f 44//1 45//1 43//1
f 43//2 45//2 44//2
f 44//1 46//1 45//1
f 45//2 46//2 44//2
f 47//1 46//1 44//1
f 44//2 46//2 47//2
f 47//1 48//1 46//1
f 46//2 48//2 47//2
f 47//1 49//1 48//1
f 48//2 49//2 47//2
f 50//1 49//1 47//1
f 47//2 49//2 50//2
f 49//1 50//1 51//1
f 51//2 50//2 49//2
f 52//1 50//1 47//1
f 47//2 50//2 52//2
