# SSTK version 0.8.0
# 125
mtllib original_125.mtl
o mesh42/mesh42-geometry#mesh42-geometry
v 0.154578 0.021462 0.055334
v 0.154758 0.021555 0.053867
v 0.154691 0.021599 0.053170
v 0.155192 0.021458 0.055388
v 0.154691 0.022103 0.045198
v 0.154977 0.021539 0.054114
v 0.154119 0.021472 0.055170
v 0.154691 0.021876 0.048797
v 0.155411 0.021533 0.054205
v 0.153795 0.021488 0.054917
v 0.154691 0.021938 0.047811
v 0.156152 0.021465 0.055276
v 0.153583 0.021508 0.054596
v 0.155968 0.021876 0.048797
v 0.155968 0.021536 0.054156
v 0.153467 0.021543 0.054044
v 0.155968 0.021938 0.047811
v 0.153428 0.022055 0.045959
v 0.153428 0.021938 0.047811
v 0.153428 0.021876 0.048797
v 0.153428 0.021603 0.053100
v 0.152497 0.021938 0.047811
v 0.152497 0.021876 0.048797
vn 0 0.998002551082325 0.06317363400321015
vn 0 -0.998002551082325 -0.06317363400321015
usemtl material_0_0
f 1//1 2//1 3//1
f 2//1 1//1 4//1
f 3//2 2//2 1//2
f 4//2 1//2 2//2
f 5//1 1//1 3//1
f 3//2 1//2 5//2
f 2//1 4//1 6//1
f 6//2 4//2 2//2
f 5//1 7//1 1//1
f 1//2 7//2 5//2
f 5//1 3//1 8//1
f 8//2 3//2 5//2
f 6//1 4//1 9//1
f 9//2 4//2 6//2
f 5//1 10//1 7//1
f 7//2 10//2 5//2
f 5//1 8//1 11//1
f 11//2 8//2 5//2
f 9//1 4//1 12//1
f 12//2 4//2 9//2
f 5//1 13//1 10//1
f 10//2 13//2 5//2
f 14//1 11//1 8//1
f 8//2 11//2 14//2
f 9//1 12//1 15//1
f 15//2 12//2 9//2
f 5//1 16//1 13//1
f 13//2 16//2 5//2
f 11//1 14//1 17//1
f 17//2 14//2 11//2
f 18//1 16//1 5//1
f 5//2 16//2 18//2
f 19//1 16//1 18//1
f 18//2 16//2 19//2
f 20//1 16//1 19//1
f 19//2 16//2 20//2
f 16//1 20//1 21//1
f 21//2 20//2 16//2
f 22//1 20//1 19//1
f 19//2 20//2 22//2
f 20//1 22//1 23//1
f 23//2 22//2 20//2
