# SSTK version 0.8.0
# 238
mtllib original_238.mtl
o mesh155/mesh155-geometry#mesh155-geometry
v -0.192882 0.016349 0.136098
v -0.196048 0.017662 0.115361
v -0.196048 0.016349 0.136098
v -0.192882 0.017918 0.111321
v -0.197302 0.017918 0.111321
v -0.203246 0.016826 0.128560
v -0.203263 0.016349 0.136098
v -0.204567 0.016575 0.132532
v -0.206226 0.016349 0.136098
v -0.205752 0.016807 0.128865
v -0.211629 0.017918 0.111321
v -0.213407 0.017685 0.115006
v -0.216574 0.017918 0.111321
v -0.213407 0.016349 0.136098
v -0.216574 0.016349 0.136098
vn 0 0.998002551082325 0.06317363400321015
vn 0 -0.998002551082325 -0.06317363400321015
usemtl material_0_0
f 1//1 2//1 3//1
f 4//1 2//1 1//1
f 3//2 2//2 1//2
f 1//2 2//2 4//2
f 5//1 2//1 4//1
f 4//2 2//2 5//2
f 6//1 2//1 5//1
f 5//2 2//2 6//2
f 6//1 7//1 2//1
f 2//2 7//2 6//2
f 8//1 7//1 6//1
f 6//2 7//2 8//2
f 8//1 9//1 7//1
f 7//2 9//2 8//2
f 10//1 9//1 8//1
f 8//2 9//2 10//2
f 11//1 9//1 10//1
f 10//2 9//2 11//2
f 11//1 12//1 9//1
f 9//2 12//2 11//2
f 13//1 12//1 11//1
f 11//2 12//2 13//2
f 13//1 14//1 12//1
f 12//2 14//2 13//2
f 14//1 13//1 15//1
f 15//2 13//2 14//2
