# SSTK version 0.8.0
# 253
mtllib original_253.mtl
o mesh170/mesh170-geometry#mesh170-geometry
v -0.031585 0.027196 -0.035254
v -0.037953 0.027381 -0.038178
v -0.037953 0.027196 -0.035254
v -0.031534 0.027381 -0.038178
v -0.037953 0.027942 -0.047034
v -0.029155 0.027205 -0.035391
v -0.037953 0.026558 -0.025181
v -0.028812 0.027400 -0.038474
v -0.041238 0.028127 -0.049958
v -0.027131 0.027231 -0.035801
v -0.041238 0.026558 -0.025181
v -0.031873 0.028127 -0.049958
v -0.027797 0.027423 -0.038844
v -0.031602 0.027942 -0.047034
v -0.027012 0.027456 -0.039361
v -0.028096 0.028112 -0.049722
v -0.025514 0.027274 -0.036485
v -0.028537 0.027928 -0.046815
v -0.026427 0.027497 -0.040013
v -0.027374 0.027893 -0.046272
v -0.026009 0.027546 -0.040785
v -0.026415 0.028084 -0.049280
v -0.025675 0.027667 -0.042691
v -0.026462 0.027835 -0.045353
v -0.025031 0.028038 -0.048564
v -0.025871 0.027758 -0.044134
v -0.024303 0.027335 -0.037443
v -0.023915 0.027974 -0.047539
v -0.023421 0.027408 -0.038598
v -0.023041 0.027887 -0.046172
v -0.022791 0.027488 -0.039875
v -0.022476 0.027785 -0.044558
v -0.022413 0.027577 -0.041273
v -0.022288 0.027673 -0.042792
vn 0 0.998002551082325 0.06317363400321015
vn 0 -0.998002551082325 -0.06317363400321015
usemtl material_0_0
f 1//1 2//1 3//1
f 2//1 1//1 4//1
f 3//2 2//2 1//2
f 4//2 1//2 2//2
f 5//1 3//1 2//1
f 2//2 3//2 5//2
f 4//1 1//1 6//1
f 6//2 1//2 4//2
f 5//1 7//1 3//1
f 3//2 7//2 5//2
f 4//1 6//1 8//1
f 8//2 6//2 4//2
f 9//1 7//1 5//1
f 5//2 7//2 9//2
f 8//1 6//1 10//1
f 10//2 6//2 8//2
f 7//1 9//1 11//1
f 11//2 9//2 7//2
f 9//1 5//1 12//1
f 12//2 5//2 9//2
f 8//1 10//1 13//1
f 13//2 10//2 8//2
f 12//1 5//1 14//1
f 14//2 5//2 12//2
f 13//1 10//1 15//1
f 15//2 10//2 13//2
f 12//1 14//1 16//1
f 16//2 14//2 12//2
f 15//1 10//1 17//1
f 17//2 10//2 15//2
f 16//1 14//1 18//1
f 18//2 14//2 16//2
f 15//1 17//1 19//1
f 19//2 17//2 15//2
f 16//1 18//1 20//1
f 20//2 18//2 16//2
f 19//1 17//1 21//1
f 21//2 17//2 19//2
f 16//1 20//1 22//1
f 22//2 20//2 16//2
f 21//1 17//1 23//1
f 23//2 17//2 21//2
f 22//1 20//1 24//1
f 24//2 20//2 22//2
f 25//1 23//1 17//1
f 17//2 23//2 25//2
f 22//1 24//1 26//1
f 26//2 24//2 22//2
f 25//1 26//1 23//1
f 23//2 26//2 25//2
f 25//1 17//1 27//1
f 27//2 17//2 25//2
f 22//1 26//1 25//1
f 25//2 26//2 22//2
f 25//1 27//1 28//1
f 28//2 27//2 25//2
f 28//1 27//1 29//1
f 29//2 27//2 28//2
f 28//1 29//1 30//1
f 30//2 29//2 28//2
f 30//1 29//1 31//1
f 31//2 29//2 30//2
f 30//1 31//1 32//1
f 32//2 31//2 30//2
f 32//1 31//1 33//1
f 33//2 31//2 32//2
f 32//1 33//1 34//1
f 34//2 33//2 32//2
