# SSTK version 0.8.0
# 233
mtllib original_233.mtl
o mesh150/mesh150-geometry#mesh150-geometry
v -0.484132 0.032006 -0.111247
v -0.481199 0.032118 -0.113004
v -0.484400 0.032100 -0.112733
v -0.483635 0.031922 -0.109915
v -0.482909 0.031847 -0.108737
v -0.481952 0.031783 -0.107714
v -0.480803 0.031730 -0.106885
v -0.480608 0.031988 -0.110961
v -0.479499 0.031693 -0.106294
v -0.479548 0.031896 -0.109497
v -0.478119 0.031840 -0.108616
v -0.478039 0.031670 -0.105939
v -0.476423 0.031821 -0.108322
v -0.476423 0.031663 -0.105821
v -0.474466 0.031675 -0.106009
v -0.475365 0.031828 -0.108426
v -0.474391 0.031847 -0.108736
v -0.472727 0.031710 -0.106573
v -0.473502 0.031880 -0.109254
v -0.472697 0.031926 -0.109978
v -0.471206 0.031770 -0.107513
v -0.472030 0.031983 -0.110874
v -0.471554 0.032048 -0.111905
v -0.471268 0.032122 -0.113071
v -0.471173 0.032204 -0.114373
v -0.469903 0.031853 -0.108829
v -0.470174 0.032587 -0.120423
v -0.469196 0.032511 -0.119219
v -0.471265 0.032282 -0.115606
v -0.469044 0.031934 -0.110112
v -0.471355 0.032649 -0.121407
v -0.468497 0.032425 -0.117854
v -0.471539 0.032352 -0.116701
v -0.468430 0.032023 -0.111508
v -0.471997 0.032412 -0.117659
v -0.468078 0.032328 -0.116329
v -0.472638 0.032464 -0.118480
v -0.468061 0.032118 -0.113019
v -0.472663 0.032694 -0.122109
v -0.467939 0.032221 -0.114643
v -0.473427 0.032506 -0.119138
v -0.474099 0.032721 -0.122531
v -0.474329 0.032536 -0.119608
v -0.475345 0.032553 -0.119890
v -0.475661 0.032729 -0.122671
v -0.476474 0.032559 -0.119984
v -0.476875 0.032723 -0.122574
v -0.477875 0.032549 -0.119817
v -0.478062 0.032705 -0.122283
v -0.479133 0.032517 -0.119316
v -0.480191 0.032469 -0.118550
v -0.480352 0.032631 -0.121116
v -0.480996 0.032407 -0.117584
v -0.481453 0.033237 -0.130683
v -0.483858 0.032431 -0.117956
v -0.479014 0.033053 -0.127776
v -0.469107 0.033237 -0.130683
v -0.469107 0.033053 -0.127776
vn 0 0.998002551082325 0.06317363400321015
vn 0 -0.998002551082325 -0.06317363400321015
usemtl material_0_0
f 1//1 2//1 3//1
f 2//1 1//1 4//1
f 3//2 2//2 1//2
f 4//2 1//2 2//2
f 2//1 4//1 5//1
f 5//2 4//2 2//2
f 2//1 5//1 6//1
f 6//2 5//2 2//2
f 2//1 6//1 7//1
f 7//2 6//2 2//2
f 2//1 7//1 8//1
f 8//2 7//2 2//2
f 8//1 7//1 9//1
f 9//2 7//2 8//2
f 8//1 9//1 10//1
f 10//2 9//2 8//2
f 10//1 9//1 11//1
f 11//2 9//2 10//2
f 11//1 9//1 12//1
f 12//2 9//2 11//2
f 11//1 12//1 13//1
f 13//2 12//2 11//2
f 13//1 12//1 14//1
f 14//2 12//2 13//2
f 13//1 14//1 15//1
f 15//2 14//2 13//2
f 13//1 15//1 16//1
f 16//2 15//2 13//2
f 16//1 15//1 17//1
f 17//2 15//2 16//2
f 17//1 15//1 18//1
f 18//2 15//2 17//2
f 17//1 18//1 19//1
f 19//2 18//2 17//2
f 19//1 18//1 20//1
f 20//2 18//2 19//2
f 20//1 18//1 21//1
f 21//2 18//2 20//2
f 20//1 21//1 22//1
f 22//2 21//2 20//2
f 22//1 21//1 23//1
f 23//2 21//2 22//2
f 23//1 21//1 24//1
f 24//2 21//2 23//2
f 24//1 21//1 25//1
f 25//2 21//2 24//2
f 25//1 21//1 26//1
f 26//2 21//2 25//2
f 25//1 26//1 27//1
f 27//2 26//2 25//2
f 27//1 26//1 28//1
f 28//2 26//2 27//2
f 27//1 29//1 25//1
f 25//2 29//2 27//2
f 28//1 26//1 30//1
f 30//2 26//2 28//2
f 31//1 29//1 27//1
f 27//2 29//2 31//2
f 28//1 30//1 32//1
f 32//2 30//2 28//2
f 31//1 33//1 29//1
f 29//2 33//2 31//2
f 32//1 30//1 34//1
f 34//2 30//2 32//2
f 31//1 35//1 33//1
f 33//2 35//2 31//2
f 32//1 34//1 36//1
f 36//2 34//2 32//2
f 31//1 37//1 35//1
f 35//2 37//2 31//2
f 36//1 34//1 38//1
f 38//2 34//2 36//2
f 39//1 37//1 31//1
f 31//2 37//2 39//2
f 36//1 38//1 40//1
f 40//2 38//2 36//2
f 39//1 41//1 37//1
f 37//2 41//2 39//2
f 42//1 41//1 39//1
f 39//2 41//2 42//2
f 42//1 43//1 41//1
f 41//2 43//2 42//2
f 42//1 44//1 43//1
f 43//2 44//2 42//2
f 45//1 44//1 42//1
f 42//2 44//2 45//2
f 45//1 46//1 44//1
f 44//2 46//2 45//2
f 47//1 46//1 45//1
f 45//2 46//2 47//2
f 47//1 48//1 46//1
f 46//2 48//2 47//2
f 49//1 48//1 47//1
f 47//2 48//2 49//2
f 49//1 50//1 48//1
f 48//2 50//2 49//2
f 49//1 51//1 50//1
f 50//2 51//2 49//2
f 52//1 51//1 49//1
f 49//2 51//2 52//2
f 51//1 52//1 53//1
f 53//2 52//2 51//2
f 54//1 53//1 52//1
f 52//2 53//2 54//2
f 53//1 54//1 55//1
f 55//2 54//2 53//2
f 54//1 52//1 56//1
f 56//2 52//2 54//2
f 54//1 56//1 57//1
f 57//2 56//2 54//2
f 57//1 56//1 58//1
f 58//2 56//2 57//2
