# SSTK version 0.8.0
# 123
mtllib original_123.mtl
o mesh40/mesh40-geometry#mesh40-geometry
v -0.520414 0.027255 -0.036184
v -0.524224 0.027435 -0.039023
v -0.524224 0.027255 -0.036184
v -0.517162 0.027435 -0.039023
v -0.524224 0.027953 -0.047220
v -0.518585 0.027247 -0.036065
v -0.524224 0.026558 -0.025181
v -0.517086 0.027206 -0.035406
v -0.527510 0.028127 -0.049958
v -0.515156 0.027442 -0.039139
v -0.527510 0.026558 -0.025181
v -0.516502 0.028127 -0.049958
v -0.515418 0.027101 -0.033750
v -0.516366 0.027953 -0.047220
v -0.514656 0.027272 -0.036454
v -0.513581 0.028116 -0.049791
v -0.513047 0.026885 -0.030336
v -0.513640 0.027464 -0.039488
v -0.513976 0.027936 -0.046937
v -0.512675 0.027194 -0.035220
v -0.512986 0.027293 -0.036782
v -0.513059 0.027913 -0.046583
v -0.509762 0.026558 -0.025181
v -0.512522 0.027502 -0.040092
v -0.511455 0.028084 -0.049291
v -0.511273 0.027100 -0.033737
v -0.511548 0.027324 -0.037274
v -0.512327 0.027882 -0.046088
v -0.509948 0.026985 -0.031925
v -0.511709 0.027558 -0.040975
v -0.511368 0.027800 -0.044799
v -0.505629 0.026558 -0.025181
v -0.511214 0.027626 -0.042042
v -0.509901 0.028026 -0.048368
v -0.510344 0.027365 -0.037931
v -0.511049 0.027699 -0.043198
v -0.509372 0.027417 -0.038753
v -0.508695 0.027935 -0.046933
v -0.508624 0.027478 -0.039709
v -0.507920 0.027823 -0.045154
v -0.508089 0.027545 -0.040768
v -0.507769 0.027619 -0.041931
v -0.507662 0.027699 -0.043198
vn 0 0.998002551082325 0.06317363400321015
vn 0 -0.998002551082325 -0.06317363400321015
usemtl material_0_0
f 1//1 2//1 3//1
f 2//1 1//1 4//1
f 3//2 2//2 1//2
f 4//2 1//2 2//2
f 5//1 3//1 2//1
f 2//2 3//2 5//2
f 4//1 1//1 6//1
f 6//2 1//2 4//2
f 5//1 7//1 3//1
f 3//2 7//2 5//2
f 4//1 6//1 8//1
f 8//2 6//2 4//2
f 9//1 7//1 5//1
f 5//2 7//2 9//2
f 4//1 8//1 10//1
f 10//2 8//2 4//2
f 7//1 9//1 11//1
f 11//2 9//2 7//2
f 9//1 5//1 12//1
f 12//2 5//2 9//2
f 10//1 8//1 13//1
f 13//2 8//2 10//2
f 12//1 5//1 14//1
f 14//2 5//2 12//2
f 10//1 13//1 15//1
f 15//2 13//2 10//2
f 12//1 14//1 16//1
f 16//2 14//2 12//2
f 15//1 13//1 17//1
f 17//2 13//2 15//2
f 15//1 18//1 10//1
f 10//2 18//2 15//2
f 16//1 14//1 19//1
f 19//2 14//2 16//2
f 15//1 17//1 20//1
f 20//2 17//2 15//2
f 18//1 15//1 21//1
f 21//2 15//2 18//2
f 16//1 19//1 22//1
f 22//2 19//2 16//2
f 20//1 17//1 23//1
f 23//2 17//2 20//2
f 18//1 21//1 24//1
f 24//2 21//2 18//2
f 16//1 22//1 25//1
f 25//2 22//2 16//2
f 20//1 23//1 26//1
f 26//2 23//2 20//2
f 24//1 21//1 27//1
f 27//2 21//2 24//2
f 25//1 22//1 28//1
f 28//2 22//2 25//2
f 26//1 23//1 29//1
f 29//2 23//2 26//2
f 24//1 27//1 30//1
f 30//2 27//2 24//2
f 25//1 28//1 31//1
f 31//2 28//2 25//2
f 29//1 23//1 32//1
f 32//2 23//2 29//2
f 30//1 27//1 33//1
f 33//2 27//2 30//2
f 25//1 31//1 34//1
f 34//2 31//2 25//2
f 33//1 27//1 35//1
f 35//2 27//2 33//2
f 34//1 31//1 36//1
f 36//2 31//2 34//2
f 33//1 35//1 36//1
f 36//2 35//2 33//2
f 34//1 36//1 35//1
f 35//2 36//2 34//2
f 34//1 35//1 37//1
f 37//2 35//2 34//2
f 34//1 37//1 38//1
f 38//2 37//2 34//2
f 38//1 37//1 39//1
f 39//2 37//2 38//2
f 38//1 39//1 40//1
f 40//2 39//2 38//2
f 40//1 39//1 41//1
f 41//2 39//2 40//2
f 40//1 41//1 42//1
f 42//2 41//2 40//2
f 40//1 42//1 43//1
f 43//2 42//2 40//2
