# SSTK version 0.8.0
# 257
mtllib original_257.mtl
o mesh174/mesh174-geometry#mesh174-geometry
v 0.527828 0.025745 -0.012329
v 0.526558 0.026033 -0.016878
v 0.526558 0.025745 -0.012329
v 0.527008 0.026196 -0.019453
v 0.527362 0.026173 -0.019096
v 0.526521 0.026076 -0.017555
v 0.527602 0.026146 -0.018665
v 0.526512 0.026214 -0.019734
v 0.527757 0.026114 -0.018160
v 0.526409 0.026106 -0.018037
v 0.527828 0.026036 -0.016927
v 0.526204 0.026128 -0.018382
v 0.525916 0.026225 -0.019916
v 0.525884 0.026145 -0.018649
v 0.525474 0.026156 -0.018821
v 0.525266 0.026229 -0.019977
v 0.524998 0.026159 -0.018878
v 0.524532 0.026224 -0.019900
v 0.524242 0.026151 -0.018750
v 0.523890 0.026209 -0.019669
v 0.523597 0.026127 -0.018364
v 0.523340 0.026185 -0.019284
v 0.523340 0.026107 -0.018049
v 0.523156 0.026080 -0.017619
v 0.523045 0.026045 -0.017074
v 0.522881 0.026151 -0.018744
v 0.523008 0.026003 -0.016413
v 0.523008 0.025745 -0.012329
v 0.521738 0.026218 -0.019808
v 0.521738 0.025745 -0.012329
v 0.522881 0.026218 -0.019808
vn 0 0.998002551082325 0.06317363400321015
vn 0 -0.998002551082325 -0.06317363400321015
usemtl material_0_0
f 1//1 2//1 3//1
f 2//1 1//1 4//1
f 3//2 2//2 1//2
f 4//2 1//2 2//2
f 4//1 1//1 5//1
f 5//2 1//2 4//2
f 4//1 6//1 2//1
f 2//2 6//2 4//2
f 5//1 1//1 7//1
f 7//2 1//2 5//2
f 8//1 6//1 4//1
f 4//2 6//2 8//2
f 7//1 1//1 9//1
f 9//2 1//2 7//2
f 8//1 10//1 6//1
f 6//2 10//2 8//2
f 9//1 1//1 11//1
f 11//2 1//2 9//2
f 8//1 12//1 10//1
f 10//2 12//2 8//2
f 13//1 12//1 8//1
f 8//2 12//2 13//2
f 13//1 14//1 12//1
f 12//2 14//2 13//2
f 13//1 15//1 14//1
f 14//2 15//2 13//2
f 16//1 15//1 13//1
f 13//2 15//2 16//2
f 16//1 17//1 15//1
f 15//2 17//2 16//2
f 18//1 17//1 16//1
f 16//2 17//2 18//2
f 18//1 19//1 17//1
f 17//2 19//2 18//2
f 20//1 19//1 18//1
f 18//2 19//2 20//2
f 20//1 21//1 19//1
f 19//2 21//2 20//2
f 22//1 21//1 20//1
f 20//2 21//2 22//2
f 22//1 23//1 21//1
f 21//2 23//2 22//2
f 22//1 24//1 23//1
f 23//2 24//2 22//2
f 22//1 25//1 24//1
f 24//2 25//2 22//2
f 26//1 25//1 22//1
f 22//2 25//2 26//2
f 26//1 27//1 25//1
f 25//2 27//2 26//2
f 26//1 28//1 27//1
f 27//2 28//2 26//2
f 29//1 28//1 26//1
f 26//2 28//2 29//2
f 28//1 29//1 30//1
f 30//2 29//2 28//2
f 31//1 29//1 26//1
f 26//2 29//2 31//2
