# SSTK version 0.8.0
# 115
mtllib original_115.mtl
o mesh32/mesh32-geometry#mesh32-geometry
v 0.154983 0.031844 -0.108687
v 0.156352 0.031921 -0.109905
v 0.154983 0.032498 -0.119011
v 0.158928 0.031844 -0.108687
v 0.156352 0.032421 -0.117792
v 0.158928 0.031921 -0.109905
v 0.158864 0.032498 -0.119011
v 0.156352 0.032146 -0.113454
v 0.159839 0.031847 -0.108730
v 0.158420 0.032421 -0.117792
v 0.156352 0.032223 -0.114673
v 0.159859 0.031925 -0.109954
v 0.159371 0.032418 -0.117756
v 0.158744 0.032146 -0.113454
v 0.160597 0.031855 -0.108859
v 0.159933 0.032493 -0.118932
v 0.158589 0.032223 -0.114673
v 0.160293 0.031932 -0.110067
v 0.159993 0.032412 -0.117648
v 0.159371 0.032225 -0.114703
v 0.160650 0.031942 -0.110236
v 0.160766 0.032478 -0.118697
v 0.159617 0.032143 -0.113411
v 0.161220 0.031869 -0.109073
v 0.160399 0.032398 -0.117442
v 0.159895 0.032231 -0.114793
v 0.160939 0.031958 -0.110478
v 0.160699 0.032378 -0.117113
v 0.160258 0.032135 -0.113282
v 0.161172 0.031979 -0.110810
v 0.160884 0.032351 -0.116691
v 0.160352 0.032244 -0.114998
v 0.161325 0.032004 -0.111216
v 0.161405 0.032453 -0.118300
v 0.160726 0.032120 -0.113046
v 0.161729 0.031888 -0.109370
v 0.160946 0.032320 -0.116208
v 0.160681 0.032263 -0.115307
v 0.161376 0.032034 -0.111680
v 0.161482 0.032218 -0.114595
v 0.160880 0.032289 -0.115712
v 0.161677 0.032168 -0.113808
v 0.161888 0.032417 -0.117733
v 0.160847 0.032192 -0.114180
v 0.162290 0.032133 -0.113243
v 0.161302 0.032068 -0.112219
v 0.161934 0.032252 -0.115123
v 0.161080 0.032097 -0.112683
v 0.162145 0.031913 -0.109779
v 0.162192 0.032375 -0.117066
v 0.162488 0.031948 -0.110331
v 0.162204 0.032290 -0.115727
v 0.162669 0.032087 -0.112521
v 0.162294 0.032331 -0.116370
v 0.162718 0.031989 -0.110980
v 0.162795 0.032034 -0.111680
vn 0 0.998002551082325 0.06317363400321015
vn 0 -0.998002551082325 -0.06317363400321015
usemtl material_0_0
f 1//1 2//1 3//1
f 2//1 1//1 4//1
f 3//2 2//2 1//2
f 4//2 1//2 2//2
f 5//1 3//1 2//1
f 2//2 3//2 5//2
f 2//1 4//1 6//1
f 6//2 4//2 2//2
f 3//1 5//1 7//1
f 7//2 5//2 3//2
f 5//1 2//1 8//1
f 8//2 2//2 5//2
f 6//1 4//1 9//1
f 9//2 4//2 6//2
f 7//1 5//1 10//1
f 10//2 5//2 7//2
f 5//1 8//1 11//1
f 11//2 8//2 5//2
f 6//1 9//1 12//1
f 12//2 9//2 6//2
f 7//1 10//1 13//1
f 13//2 10//2 7//2
f 14//1 11//1 8//1
f 8//2 11//2 14//2
f 12//1 9//1 15//1
f 15//2 9//2 12//2
f 7//1 13//1 16//1
f 16//2 13//2 7//2
f 11//1 14//1 17//1
f 17//2 14//2 11//2
f 12//1 15//1 18//1
f 18//2 15//2 12//2
f 16//1 13//1 19//1
f 19//2 13//2 16//2
f 17//1 14//1 20//1
f 20//2 14//2 17//2
f 18//1 15//1 21//1
f 21//2 15//2 18//2
f 16//1 19//1 22//1
f 22//2 19//2 16//2
f 20//1 14//1 23//1
f 23//2 14//2 20//2
f 21//1 15//1 24//1
f 24//2 15//2 21//2
f 22//1 19//1 25//1
f 25//2 19//2 22//2
f 20//1 23//1 26//1
f 26//2 23//2 20//2
f 21//1 24//1 27//1
f 27//2 24//2 21//2
f 22//1 25//1 28//1
f 28//2 25//2 22//2
f 26//1 23//1 29//1
f 29//2 23//2 26//2
f 27//1 24//1 30//1
f 30//2 24//2 27//2
f 22//1 28//1 31//1
f 31//2 28//2 22//2
f 26//1 29//1 32//1
f 32//2 29//2 26//2
f 30//1 24//1 33//1
f 33//2 24//2 30//2
f 22//1 31//1 34//1
f 34//2 31//2 22//2
f 32//1 29//1 35//1
f 35//2 29//2 32//2
f 33//1 24//1 36//1
f 36//2 24//2 33//2
f 34//1 31//1 37//1
f 37//2 31//2 34//2
f 32//1 35//1 38//1
f 38//2 35//2 32//2
f 33//1 36//1 39//1
f 39//2 36//2 33//2
f 37//1 40//1 34//1
f 34//2 40//2 37//2
f 38//1 35//1 41//1
f 41//2 35//2 38//2
f 39//1 36//1 42//1
f 42//2 36//2 39//2
f 41//1 40//1 37//1
f 37//2 40//2 41//2
f 34//1 40//1 43//1
f 43//2 40//2 34//2
f 41//1 35//1 44//1
f 44//2 35//2 41//2
f 42//1 36//1 45//1
f 45//2 36//2 42//2
f 42//1 46//1 39//1
f 39//2 46//2 42//2
f 41//1 44//1 40//1
f 40//2 44//2 41//2
f 43//1 40//1 47//1
f 47//2 40//2 43//2
f 48//1 44//1 35//1
f 35//2 44//2 48//2
f 45//1 36//1 49//1
f 49//2 36//2 45//2
f 42//1 48//1 46//1
f 46//2 48//2 42//2
f 43//1 47//1 50//1
f 50//2 47//2 43//2
f 44//1 48//1 42//1
f 42//2 48//2 44//2
f 45//1 49//1 51//1
f 51//2 49//2 45//2
f 50//1 47//1 52//1
f 52//2 47//2 50//2
f 45//1 51//1 53//1
f 53//2 51//2 45//2
f 50//1 52//1 54//1
f 54//2 52//2 50//2
f 53//1 51//1 55//1
f 55//2 51//2 53//2
f 53//1 55//1 56//1
f 56//2 55//2 53//2
