# SSTK version 0.8.0
# 236
mtllib original_236.mtl
o mesh153/mesh153-geometry#mesh153-geometry
v -0.710367 0.031663 -0.105821
v -0.726706 0.031731 -0.106898
v -0.726778 0.031663 -0.105821
v -0.726422 0.031797 -0.107933
v -0.722544 0.031848 -0.108745
v -0.710367 0.031848 -0.108745
v -0.725607 0.031902 -0.109594
v -0.724415 0.032005 -0.111229
v -0.722728 0.032116 -0.112978
v -0.720427 0.032243 -0.114981
v -0.721257 0.031952 -0.110393
v -0.717734 0.032150 -0.113511
v -0.717036 0.032431 -0.117950
v -0.714917 0.032306 -0.115987
v -0.714957 0.032575 -0.120229
v -0.713890 0.032694 -0.122111
v -0.713035 0.032426 -0.117871
v -0.713534 0.032807 -0.123888
v -0.712484 0.033112 -0.128722
v -0.713619 0.033167 -0.129587
v -0.711822 0.032524 -0.119422
v -0.713858 0.032912 -0.125555
v -0.711573 0.033046 -0.127674
v -0.714830 0.033000 -0.126939
v -0.711011 0.032617 -0.120897
v -0.714940 0.033206 -0.130205
v -0.710922 0.032972 -0.126508
v -0.716322 0.033059 -0.127871
v -0.710554 0.032709 -0.122346
v -0.716447 0.033230 -0.130576
v -0.710531 0.032891 -0.125223
v -0.718141 0.033238 -0.130699
v -0.710401 0.032802 -0.123821
v -0.718208 0.033078 -0.128181
v -0.719820 0.033230 -0.130585
v -0.720190 0.033057 -0.127852
v -0.721015 0.033031 -0.127440
v -0.721320 0.033209 -0.130241
v -0.721731 0.032995 -0.126863
v -0.722310 0.032949 -0.126140
v -0.722640 0.033172 -0.129668
v -0.722726 0.032895 -0.125291
v -0.723069 0.032764 -0.123212
v -0.723780 0.033122 -0.128866
v -0.724719 0.033057 -0.127845
v -0.725435 0.032979 -0.126616
v -0.725930 0.032888 -0.125179
v -0.726202 0.032784 -0.123533
vn 0 0.998002551082325 0.06317363400321015
vn 0 -0.998002551082325 -0.06317363400321015
usemtl material_0_0
f 1//1 2//1 3//1
f 2//1 1//1 4//1
f 3//2 2//2 1//2
f 4//2 1//2 2//2
f 4//1 1//1 5//1
f 5//2 1//2 4//2
f 5//1 1//1 6//1
f 6//2 1//2 5//2
f 4//1 5//1 7//1
f 7//2 5//2 4//2
f 7//1 5//1 8//1
f 8//2 5//2 7//2
f 8//1 5//1 9//1
f 9//2 5//2 8//2
f 5//1 10//1 9//1
f 9//2 10//2 5//2
f 10//1 5//1 11//1
f 11//2 5//2 10//2
f 10//1 11//1 12//1
f 12//2 11//2 10//2
f 10//1 12//1 13//1
f 13//2 12//2 10//2
f 13//1 12//1 14//1
f 14//2 12//2 13//2
f 13//1 14//1 15//1
f 15//2 14//2 13//2
f 15//1 14//1 16//1
f 16//2 14//2 15//2
f 16//1 14//1 17//1
f 17//2 14//2 16//2
f 16//1 17//1 18//1
f 18//2 17//2 16//2
f 19//1 18//1 17//1
f 17//2 18//2 19//2
f 20//1 18//1 19//1
f 19//2 18//2 20//2
f 19//1 17//1 21//1
f 21//2 17//2 19//2
f 20//1 22//1 18//1
f 18//2 22//2 20//2
f 19//1 21//1 23//1
f 23//2 21//2 19//2
f 20//1 24//1 22//1
f 22//2 24//2 20//2
f 23//1 21//1 25//1
f 25//2 21//2 23//2
f 26//1 24//1 20//1
f 20//2 24//2 26//2
f 23//1 25//1 27//1
f 27//2 25//2 23//2
f 26//1 28//1 24//1
f 24//2 28//2 26//2
f 27//1 25//1 29//1
f 29//2 25//2 27//2
f 30//1 28//1 26//1
f 26//2 28//2 30//2
f 27//1 29//1 31//1
f 31//2 29//2 27//2
f 32//1 28//1 30//1
f 30//2 28//2 32//2
f 31//1 29//1 33//1
f 33//2 29//2 31//2
f 32//1 34//1 28//1
f 28//2 34//2 32//2
f 35//1 34//1 32//1
f 32//2 34//2 35//2
f 35//1 36//1 34//1
f 34//2 36//2 35//2
f 35//1 37//1 36//1
f 36//2 37//2 35//2
f 38//1 37//1 35//1
f 35//2 37//2 38//2
f 38//1 39//1 37//1
f 37//2 39//2 38//2
f 38//1 40//1 39//1
f 39//2 40//2 38//2
f 41//1 40//1 38//1
f 38//2 40//2 41//2
f 41//1 42//1 40//1
f 40//2 42//2 41//2
f 41//1 43//1 42//1
f 42//2 43//2 41//2
f 44//1 43//1 41//1
f 41//2 43//2 44//2
f 45//1 43//1 44//1
f 44//2 43//2 45//2
f 46//1 43//1 45//1
f 45//2 43//2 46//2
f 47//1 43//1 46//1
f 46//2 43//2 47//2
f 43//1 47//1 48//1
f 48//2 47//2 43//2
