# SSTK version 0.8.0
# 313
mtllib original_313.mtl
o mesh230/mesh230-geometry#mesh230-geometry
v 0.503723 0.036950 -0.189338
v 0.502453 0.037423 -0.196817
v 0.502453 0.036950 -0.189338
v 0.503596 0.037351 -0.195683
v 0.503723 0.037197 -0.193254
v 0.503596 0.037423 -0.196817
v 0.503776 0.037246 -0.194025
v 0.504017 0.037393 -0.196344
v 0.503935 0.037291 -0.194733
v 0.504124 0.037316 -0.195128
v 0.504404 0.037418 -0.196733
v 0.504408 0.037335 -0.195426
v 0.504793 0.037430 -0.196923
v 0.504761 0.037347 -0.195614
v 0.505156 0.037351 -0.195676
v 0.505219 0.037434 -0.196986
v 0.505621 0.037346 -0.195608
v 0.505867 0.037427 -0.196884
v 0.506087 0.037333 -0.195402
v 0.506525 0.037408 -0.196578
vn 0 0.998002551082325 0.06317363400321015
vn 0 -0.998002551082325 -0.06317363400321015
usemtl material_0_0
f 1//1 2//1 3//1
f 2//1 1//1 4//1
f 3//2 2//2 1//2
f 4//2 1//2 2//2
f 4//1 1//1 5//1
f 5//2 1//2 4//2
f 6//1 2//1 4//1
f 4//2 2//2 6//2
f 4//1 5//1 7//1
f 7//2 5//2 4//2
f 4//1 7//1 8//1
f 8//2 7//2 4//2
f 8//1 7//1 9//1
f 9//2 7//2 8//2
f 8//1 9//1 10//1
f 10//2 9//2 8//2
f 8//1 10//1 11//1
f 11//2 10//2 8//2
f 11//1 10//1 12//1
f 12//2 10//2 11//2
f 11//1 12//1 13//1
f 13//2 12//2 11//2
f 13//1 12//1 14//1
f 14//2 12//2 13//2
f 13//1 14//1 15//1
f 15//2 14//2 13//2
f 13//1 15//1 16//1
f 16//2 15//2 13//2
f 16//1 15//1 17//1
f 17//2 15//2 16//2
f 16//1 17//1 18//1
f 18//2 17//2 16//2
f 18//1 17//1 19//1
f 19//2 17//2 18//2
f 18//1 19//1 20//1
f 20//2 19//2 18//2
