# SSTK version 0.8.0
# 140
mtllib original_140.mtl
o mesh57/mesh57-geometry#mesh57-geometry
v 0.331388 0.026569 -0.025350
v 0.332757 0.026646 -0.026568
v 0.331388 0.027223 -0.035674
v 0.335121 0.026569 -0.025350
v 0.332757 0.027145 -0.034456
v 0.334966 0.026646 -0.026568
v 0.334952 0.027223 -0.035674
v 0.332757 0.026896 -0.030512
v 0.335879 0.026649 -0.026616
v 0.334931 0.027145 -0.034456
v 0.336006 0.026572 -0.025394
v 0.335984 0.027142 -0.034403
v 0.336571 0.026658 -0.026758
v 0.336016 0.027220 -0.035637
v 0.336783 0.026580 -0.025526
v 0.336702 0.027132 -0.034244
v 0.337094 0.026673 -0.026987
v 0.336794 0.027213 -0.035526
v 0.337453 0.026594 -0.025743
v 0.337407 0.027104 -0.033805
v 0.337499 0.026692 -0.027294
v 0.337617 0.027195 -0.035239
v 0.338018 0.026613 -0.026044
v 0.337997 0.027058 -0.033079
v 0.337932 0.026728 -0.027863
v 0.338311 0.027166 -0.034787
v 0.338258 0.026775 -0.028600
v 0.338230 0.027028 -0.032597
v 0.338509 0.026639 -0.026449
v 0.338396 0.026991 -0.032022
v 0.338461 0.026832 -0.029508
v 0.339026 0.027117 -0.034000
v 0.338529 0.026901 -0.030589
v 0.338960 0.026672 -0.026980
v 0.339351 0.026715 -0.027654
v 0.339535 0.027055 -0.033022
v 0.339665 0.026767 -0.028484
v 0.339839 0.026982 -0.031872
v 0.339872 0.026829 -0.029459
v 0.339941 0.026899 -0.030568
vn 0 0.998002551082325 0.06317363400321015
vn 0 -0.998002551082325 -0.06317363400321015
usemtl material_0_0
f 1//1 2//1 3//1
f 2//1 1//1 4//1
f 3//2 2//2 1//2
f 4//2 1//2 2//2
f 5//1 3//1 2//1
f 2//2 3//2 5//2
f 2//1 4//1 6//1
f 6//2 4//2 2//2
f 3//1 5//1 7//1
f 7//2 5//2 3//2
f 5//1 2//1 8//1
f 8//2 2//2 5//2
f 6//1 4//1 9//1
f 9//2 4//2 6//2
f 7//1 5//1 10//1
f 10//2 5//2 7//2
f 9//1 4//1 11//1
f 11//2 4//2 9//2
f 7//1 10//1 12//1
f 12//2 10//2 7//2
f 9//1 11//1 13//1
f 13//2 11//2 9//2
f 7//1 12//1 14//1
f 14//2 12//2 7//2
f 13//1 11//1 15//1
f 15//2 11//2 13//2
f 14//1 12//1 16//1
f 16//2 12//2 14//2
f 13//1 15//1 17//1
f 17//2 15//2 13//2
f 14//1 16//1 18//1
f 18//2 16//2 14//2
f 17//1 15//1 19//1
f 19//2 15//2 17//2
f 18//1 16//1 20//1
f 20//2 16//2 18//2
f 17//1 19//1 21//1
f 21//2 19//2 17//2
f 18//1 20//1 22//1
f 22//2 20//2 18//2
f 21//1 19//1 23//1
f 23//2 19//2 21//2
f 22//1 20//1 24//1
f 24//2 20//2 22//2
f 21//1 23//1 25//1
f 25//2 23//2 21//2
f 22//1 24//1 26//1
f 26//2 24//2 22//2
f 25//1 23//1 27//1
f 27//2 23//2 25//2
f 26//1 24//1 28//1
f 28//2 24//2 26//2
f 27//1 23//1 29//1
f 29//2 23//2 27//2
f 26//1 28//1 30//1
f 30//2 28//2 26//2
f 27//1 29//1 31//1
f 31//2 29//2 27//2
f 26//1 30//1 32//1
f 32//2 30//2 26//2
f 31//1 29//1 33//1
f 33//2 29//2 31//2
f 32//1 30//1 33//1
f 33//2 30//2 32//2
f 33//1 29//1 34//1
f 34//2 29//2 33//2
f 32//1 33//1 34//1
f 34//2 33//2 32//2
f 32//1 34//1 35//1
f 35//2 34//2 32//2
f 32//1 35//1 36//1
f 36//2 35//2 32//2
f 36//1 35//1 37//1
f 37//2 35//2 36//2
f 36//1 37//1 38//1
f 38//2 37//2 36//2
f 38//1 37//1 39//1
f 39//2 37//2 38//2
f 38//1 39//1 40//1
f 40//2 39//2 38//2
