# SSTK version 0.8.0
# 271
mtllib original_271.mtl
o mesh188/mesh188-geometry#mesh188-geometry
v 0.118821 0.025396 -0.006815
v 0.112098 0.025555 -0.009334
v 0.112098 0.025396 -0.006815
v 0.115772 0.025555 -0.009334
v 0.115772 0.027240 -0.035953
v 0.118821 0.027400 -0.038472
v 0.112098 0.027400 -0.038472
v 0.112098 0.027240 -0.035953
vn 0 0.998002551082325 0.06317363400321015
vn 0 -0.998002551082325 -0.06317363400321015
usemtl material_0_0
f 1//1 2//1 3//1
f 2//1 1//1 4//1
f 3//2 2//2 1//2
f 4//2 1//2 2//2
f 4//1 1//1 5//1
f 5//2 1//2 4//2
f 6//1 5//1 1//1
f 1//2 5//2 6//2
f 7//1 5//1 6//1
f 6//2 5//2 7//2
f 5//1 7//1 8//1
f 8//2 7//2 5//2
