# SSTK version 0.8.0
# 15
mtllib original_15.mtl
o Group15/mesh13/mesh13-geometry#mesh13-geometry
v -0.756726 0.001662 0.145456
v -0.766146 0.011186 0.136132
v -0.757315 0.001637 0.146044
v -0.766146 0.013553 0.079665
v -0.921568 0.011186 0.136132
v -0.756726 0.004608 0.075165
v -0.921568 0.013553 0.079665
v -0.930399 0.001637 0.146044
v -0.757315 0.004633 0.074577
v -0.930399 0.004633 0.074577
v -0.930988 0.001662 0.145456
v -0.930988 0.004608 0.075165
vt 0 0
vt 1 -0.998235
vt 1 0
vt 0 -0.998235
vn 0.5641542635500852 0.7907013693837426 0.23774211106351184
vn 0.3962847583010461 0.8169615017251199 0.4189657444676335
vn 0.20375807029512008 0.7894512723552097 0.5790071997534655
vn -0.20375807029512008 -0.7894512723552097 -0.5790071997534655
vn -0.3962847583010461 -0.8169615017251199 -0.4189657444676335
vn -0.5641542635500852 -0.7907013693837426 -0.23774211106351184
vn 0.45032212770867147 0.7444582111239119 -0.49294213979545276
vn -0.45032212770867147 -0.7444582111239119 0.49294213979545276
vn -0.3962847583010461 0.8169615017251199 0.4189657444676335
vn 0.3962847583010461 -0.8169615017251199 -0.4189657444676335
vn 0 -0.9991228159091404 -0.04187599228424466
vn 0 0.9991228159091404 0.04187599228424466
vn 0.6137912797115016 0.7577763453270948 -0.22143910091225696
vn -0.6137912797115016 -0.7577763453270948 0.22143910091225696
vn -0.20375807029512008 0.7894512723552097 0.5790071997534655
vn 0.20375807029512008 -0.7894512723552097 -0.5790071997534655
vn 0.25961398857932133 0.659430970990973 -0.7055149689636916
vn -0.25961398857932133 -0.659430970990973 0.7055149689636916
vn -0.25961398857932133 0.659430970990973 -0.7055149689636916
vn -0.45032212770867147 0.7444582111239119 -0.49294213979545276
vn 0.45032212770867147 -0.7444582111239119 0.49294213979545276
vn 0.25961398857932133 -0.659430970990973 0.7055149689636916
vn -0.5641542635500852 0.7907013693837426 0.23774211106351184
vn 0.5641542635500852 -0.7907013693837426 -0.23774211106351184
vn -0.6137912797115016 0.7577763453270948 -0.22143910091225696
vn 0.6137912797115016 -0.7577763453270948 0.22143910091225696
usemtl material_0_0
f 1//1 2//2 3//3
f 3//4 2//5 1//6
f 1//1 4//7 2//2
f 2//5 4//8 1//6
f 5//9 3//3 2//2
f 2//5 3//4 5//10
f 3//11 6//11 1//11
f 1//12 6//12 3//12
f 4//7 1//1 6//13
f 6//14 1//6 4//8
f 4//11 2//11 7//11
f 3//3 5//9 8//15
f 8//16 5//10 3//4
f 5//11 7//11 2//11
f 3//11 9//11 6//11
f 6//12 9//12 3//12
f 6//13 9//17 4//7
f 4//8 9//18 6//14
f 4//7 10//19 7//20
f 7//21 10//22 4//8
f 5//9 11//23 8//15
f 8//16 11//24 5//10
f 8//11 9//11 3//11
f 3//12 9//12 8//12
f 12//25 5//9 7//20
f 7//21 5//10 12//26
f 10//19 4//7 9//17
f 9//18 4//8 10//22
f 7//20 10//19 12//25
f 12//26 10//22 7//21
f 5//9 12//25 11//23
f 11//24 12//26 5//10
f 11//11 10//11 8//11
f 8//12 10//12 11//12
f 8//11 10//11 9//11
f 9//12 10//12 8//12
f 10//11 11//11 12//11
f 12//12 11//12 10//12
usemtl material_1_0
f 7/1/12 2/2/12 4/3/12
f 2/2/12 7/1/12 5/4/12
