# SSTK version 0.8.0
# 117
mtllib original_117.mtl
o Group117/mesh108/mesh108-geometry#mesh108-geometry
v 0.668564 0.016184 -0.215081
v 0.667976 0.015503 -0.198832
v 0.667976 0.016159 -0.214493
v 0.668564 0.015478 -0.198244
v 0.668270 0.021759 -0.214553
v 0.844592 0.016184 -0.215081
v 0.668270 0.021078 -0.198304
v 0.844886 0.021759 -0.214553
v 0.844592 0.015478 -0.198244
v 0.844886 0.021078 -0.198304
v 0.845180 0.016159 -0.214493
v 0.845180 0.015503 -0.198832
vt 0.999392 -1
vt 0 0
vt 0 -1
vt 0.999392 0
vn 0 -0.9991228159091404 -0.04187599228424466
vn 0 0.9991228159091404 0.04187599228424466
vn -0.9233957975819677 0.01239799728222903 0.38364891590013855
vn -0.6428564597241758 0.4430533168395027 -0.6248514468483004
vn -0.9233957925425375 0.0444579900117135 -0.3812659143417592
vn 0.9233957925425375 -0.0444579900117135 0.3812659143417592
vn 0.6428564597241758 -0.4430533168395027 0.6248514468483004
vn 0.9233957975819677 -0.01239799728222903 -0.38364891590013855
vn -0.3827931421500683 0.06709602491608013 -0.9213943421593919
vn 0.3827931421500683 -0.06709602491608013 0.9213943421593919
vn -0.38279313700589895 -0.010240003665010813 0.9237773306301273
vn -0.6428561456516119 0.3892130881838246 0.6597341494756533
vn 0.6428561456516119 -0.3892130881838246 -0.6597341494756533
vn 0.38279313700589895 0.010240003665010813 -0.9237773306301273
vn 0.6428564597241758 0.4430533168395027 -0.6248514468483004
vn -0.6428564597241758 -0.4430533168395027 0.6248514468483004
vn 0.3827931421500683 0.06709602491608013 -0.9213943421593919
vn -0.3827931421500683 -0.06709602491608013 0.9213943421593919
vn 0.6428561456516119 0.3892130881838246 0.6597341494756533
vn -0.6428561456516119 -0.3892130881838246 -0.6597341494756533
vn 0.9233957925425375 0.0444579900117135 -0.3812659143417592
vn -0.9233957925425375 -0.0444579900117135 0.3812659143417592
vn 0.38279313700589895 -0.010240003665010813 0.9237773306301273
vn -0.38279313700589895 0.010240003665010813 -0.9237773306301273
vn 0.9233957975819677 0.01239799728222903 0.38364891590013855
vn -0.9233957975819677 -0.01239799728222903 -0.38364891590013855
usemtl material_0_0
f 1//1 2//1 3//1
f 2//1 1//1 4//1
f 3//2 2//2 1//2
f 4//2 1//2 2//2
f 2//3 5//4 3//5
f 3//6 5//7 2//8
f 1//9 3//5 5//4
f 5//7 3//6 1//10
f 4//1 1//1 6//1
f 6//2 1//2 4//2
f 2//3 4//11 7//12
f 7//13 4//14 2//8
f 5//4 2//3 7//12
f 7//13 2//8 5//7
f 8//15 1//9 5//4
f 5//7 1//10 8//16
f 1//9 8//15 6//17
f 6//18 8//16 1//10
f 4//1 6//1 9//1
f 9//2 6//2 4//2
f 4//11 10//19 7//12
f 7//13 10//20 4//14
f 7//13 5//7 10//20
f 8//16 10//20 5//7
f 6//17 8//15 11//21
f 11//22 8//16 6//18
f 9//1 6//1 11//1
f 11//2 6//2 9//2
f 10//19 4//11 9//23
f 9//24 4//14 10//20
f 12//25 8//15 10//19
f 10//20 8//16 12//26
f 8//15 12//25 11//21
f 11//22 12//26 8//16
f 9//1 11//1 12//1
f 12//2 11//2 9//2
f 12//25 10//19 9//23
f 9//24 10//20 12//26
usemtl material_1_0
f 10/1/19 5/2/4 7/3/12
f 5/2/4 10/1/19 8/4/15
