# SSTK version 0.8.0
# 116
mtllib original_116.mtl
o Group116/mesh107/mesh107-geometry#mesh107-geometry
v 0.557591 0.016171 -0.214787
v 0.557296 0.015503 -0.198832
v 0.557296 0.016159 -0.214493
v 0.557591 0.015490 -0.198538
v 0.557591 0.021759 -0.214553
v 0.557885 0.016184 -0.215081
v 0.557591 0.021078 -0.198304
v 0.557885 0.015478 -0.198244
v 0.645604 0.021078 -0.198304
v 0.645604 0.021759 -0.214553
v 0.645310 0.016184 -0.215081
v 0.645310 0.015478 -0.198244
v 0.645899 0.015503 -0.198832
v 0.645604 0.016171 -0.214787
v 0.645604 0.015490 -0.198538
v 0.645899 0.016159 -0.214493
vt 0.995607 -1
vt 0 0
vt 0 -1
vt 0.995607 0
vn 0 -0.9991228159091404 -0.04187599228424466
vn 0 0.9991228159091404 0.04187599228424466
vn -0.9233957975819677 0.01239799728222903 0.38364891590013855
vn -0.6727060496615169 0.336011024805511 -0.65921404866549
vn -0.9233957925425375 0.0444579900117135 -0.3812659143417592
vn 0.9233957925425375 -0.0444579900117135 0.3812659143417592
vn 0.6727060496615169 -0.336011024805511 0.65921404866549
vn 0.9233957975819677 -0.01239799728222903 -0.38364891590013855
vn -0.7071066457612261 0.02961098516580344 -0.7064866460718269
vn 0.7071066457612261 -0.02961098516580344 0.7064866460718269
vn -0.7071066457612261 -0.02961098516580344 0.7064866460718269
vn -0.6727059121991027 0.27967096349762777 0.6850189105920228
vn 0.6727059121991027 -0.27967096349762777 -0.6850189105920228
vn 0.7071066457612261 0.02961098516580344 -0.7064866460718269
vn -0.3827931421500683 0.06709602491608013 -0.9213943421593919
vn 0.3827931421500683 -0.06709602491608013 0.9213943421593919
vn -0.38279313700589895 -0.010240003665010813 0.9237773306301273
vn 0.38279313700589895 0.010240003665010813 -0.9237773306301273
vn -0.6727059121991027 -0.27967096349762777 -0.6850189105920228
vn 0.6727060496615169 0.336011024805511 -0.65921404866549
vn -0.6727060496615169 -0.336011024805511 0.65921404866549
vn 0.6727059121991027 0.27967096349762777 0.6850189105920228
vn 0.3827931421500683 0.06709602491608013 -0.9213943421593919
vn -0.3827931421500683 -0.06709602491608013 0.9213943421593919
vn 0.38279313700589895 -0.010240003665010813 0.9237773306301273
vn -0.38279313700589895 0.010240003665010813 -0.9237773306301273
vn 0.9233957975819677 0.01239799728222903 0.38364891590013855
vn -0.9233957975819677 -0.01239799728222903 -0.38364891590013855
vn 0.9233957925425375 0.0444579900117135 -0.3812659143417592
vn -0.9233957925425375 -0.0444579900117135 0.3812659143417592
usemtl material_0_0
f 1//1 2//1 3//1
f 2//1 1//1 4//1
f 3//2 2//2 1//2
f 4//2 1//2 2//2
f 2//3 5//4 3//5
f 3//6 5//7 2//8
f 1//9 3//5 5//4
f 5//7 3//6 1//10
f 4//1 1//1 6//1
f 6//2 1//2 4//2
f 2//3 4//11 7//12
f 7//13 4//14 2//8
f 5//4 2//3 7//12
f 7//13 2//8 5//7
f 6//15 1//9 5//4
f 5//7 1//10 6//16
f 4//1 6//1 8//1
f 8//2 6//2 4//2
f 4//11 8//17 7//12
f 7//13 8//18 4//14
f 7//13 5//7 9//19
f 10//20 6//15 5//4
f 5//7 6//16 10//21
f 8//1 6//1 11//1
f 11//2 6//2 8//2
f 8//17 9//22 7//12
f 7//13 9//19 8//18
f 10//21 9//19 5//7
f 6//15 10//20 11//23
f 11//24 10//21 6//16
f 8//1 11//1 12//1
f 12//2 11//2 8//2
f 9//22 8//17 12//25
f 12//26 8//18 9//19
f 13//27 10//20 9//22
f 9//19 10//21 13//28
f 11//23 10//20 14//14
f 14//11 10//21 11//24
f 12//1 11//1 14//1
f 14//2 11//2 12//2
f 9//22 12//25 15//10
f 15//9 12//26 9//19
f 10//20 13//27 16//29
f 16//30 13//28 10//21
f 13//27 9//22 15//10
f 15//9 9//19 13//28
f 10//20 16//29 14//14
f 14//11 16//30 10//21
f 12//1 14//1 15//1
f 15//2 14//2 12//2
f 15//1 16//1 13//1
f 13//2 16//2 15//2
f 15//1 14//1 16//1
f 16//2 14//2 15//2
usemtl material_1_0
f 9/1/22 5/2/4 7/3/12
f 5/2/4 9/1/22 10/4/20
