# SSTK version 0.8.0
# 106
mtllib original_106.mtl
o Group106/mesh97/mesh97-geometry#mesh97-geometry
v 0.717428 0.014137 -0.152175
v 0.716839 0.011166 -0.081297
v 0.716839 0.014112 -0.151587
v 0.717428 0.011141 -0.080709
v 0.726259 0.020690 -0.090620
v 0.726259 0.023056 -0.147088
v 0.791607 0.014137 -0.152175
v 0.791607 0.011141 -0.080709
v 0.782776 0.020690 -0.090620
v 0.782776 0.023056 -0.147088
v 0.792196 0.014112 -0.151587
v 0.792196 0.011166 -0.081297
vt 1 -1
vt 0 0
vt 0 -1
vt 1 0
vn 0 -0.9991228159091404 -0.04187599228424466
vn 0 0.9991228159091404 0.04187599228424466
vn -0.3962847583010461 0.8169615017251199 0.4189657444676335
vn -0.6137912797115016 0.7577763453270948 -0.22143910091225696
vn -0.5641542635500852 0.7907013693837426 0.23774211106351184
vn 0.5641542635500852 -0.7907013693837426 -0.23774211106351184
vn 0.6137912797115016 -0.7577763453270948 0.22143910091225696
vn 0.3962847583010461 -0.8169615017251199 -0.4189657444676335
vn -0.45032212770867147 0.7444582111239119 -0.49294213979545276
vn -0.25961398857932133 0.659430970990973 -0.7055149689636916
vn 0.25961398857932133 -0.659430970990973 0.7055149689636916
vn 0.45032212770867147 -0.7444582111239119 0.49294213979545276
vn -0.20375807029512008 0.7894512723552097 0.5790071997534655
vn 0.20375807029512008 -0.7894512723552097 -0.5790071997534655
vn 0.25961398857932133 0.659430970990973 -0.7055149689636916
vn -0.25961398857932133 -0.659430970990973 0.7055149689636916
vn 0.20375807029512008 0.7894512723552097 0.5790071997534655
vn -0.20375807029512008 -0.7894512723552097 -0.5790071997534655
vn 0.45032212770867147 0.7444582111239119 -0.49294213979545276
vn -0.45032212770867147 -0.7444582111239119 0.49294213979545276
vn 0.3962847583010461 0.8169615017251199 0.4189657444676335
vn -0.3962847583010461 -0.8169615017251199 -0.4189657444676335
vn 0.6137912797115016 0.7577763453270948 -0.22143910091225696
vn -0.6137912797115016 -0.7577763453270948 0.22143910091225696
vn 0.5641542635500852 0.7907013693837426 0.23774211106351184
vn -0.5641542635500852 -0.7907013693837426 -0.23774211106351184
usemtl material_0_0
f 1//1 2//1 3//1
f 2//1 1//1 4//1
f 3//2 2//2 1//2
f 4//2 1//2 2//2
f 5//3 3//4 2//5
f 2//6 3//7 5//8
f 6//9 1//10 3//4
f 3//7 1//11 6//12
f 4//1 1//1 7//1
f 7//2 1//2 4//2
f 5//3 2//5 4//13
f 4//14 2//6 5//8
f 3//4 5//3 6//9
f 6//12 5//8 3//7
f 6//9 7//15 1//10
f 1//11 7//16 6//12
f 4//1 7//1 8//1
f 8//2 7//2 4//2
f 8//17 5//3 4//13
f 4//14 5//8 8//18
f 5//1 6//1 9//1
f 7//15 6//9 10//19
f 10//20 6//12 7//16
f 8//1 7//1 11//1
f 11//2 7//2 8//2
f 5//3 8//17 9//21
f 9//22 8//18 5//8
f 10//1 9//1 6//1
f 11//23 7//15 10//19
f 10//20 7//16 11//24
f 8//1 11//1 12//1
f 12//2 11//2 8//2
f 12//25 9//21 8//17
f 8//18 9//22 12//26
f 12//25 10//19 9//21
f 9//22 10//20 12//26
f 10//19 12//25 11//23
f 11//24 12//26 10//20
usemtl material_1_0
f 9/1/2 6/2/2 5/3/2
f 6/2/2 9/1/2 10/4/2
