# SSTK version 0.8.0
# 69
mtllib original_69.mtl
o Group69/mesh66/mesh66-geometry#mesh66-geometry
v 0.197588 0.015135 -0.175998
v 0.188169 0.026231 -0.222819
v 0.188169 0.024659 -0.185321
v 0.197588 0.017286 -0.227318
v 0.131652 0.026231 -0.222819
v 0.197000 0.015110 -0.175409
v 0.197000 0.017311 -0.227907
v 0.131652 0.024659 -0.185321
v 0.122232 0.017286 -0.227318
v 0.122821 0.017311 -0.227907
v 0.122821 0.015110 -0.175409
v 0.122232 0.015135 -0.175998
vt 0 0
vt 1 -0.997624
vt 1 0
vt 0 -0.997624
vn 0.5641542635500852 0.7907013693837426 0.23774211106351184
vn 0.45032212770867147 0.7444582111239119 -0.49294213979545276
vn 0.3962847583010461 0.8169615017251199 0.4189657444676335
vn 0.6137912797115016 0.7577763453270948 -0.22143910091225696
vn -0.3962847583010461 -0.8169615017251199 -0.4189657444676335
vn -0.45032212770867147 -0.7444582111239119 0.49294213979545276
vn -0.5641542635500852 -0.7907013693837426 -0.23774211106351184
vn -0.6137912797115016 -0.7577763453270948 0.22143910091225696
vn 0 -0.9991228159091404 -0.04187599228424466
vn 0.20375807029512008 0.7894512723552097 0.5790071997534655
vn -0.20375807029512008 -0.7894512723552097 -0.5790071997534655
vn 0 0.9991228159091404 0.04187599228424466
vn 0.25961398857932133 0.659430970990973 -0.7055149689636916
vn -0.25961398857932133 -0.659430970990973 0.7055149689636916
vn -0.45032212770867147 0.7444582111239119 -0.49294213979545276
vn 0.45032212770867147 -0.7444582111239119 0.49294213979545276
vn -0.3962847583010461 0.8169615017251199 0.4189657444676335
vn 0.3962847583010461 -0.8169615017251199 -0.4189657444676335
vn -0.6137912797115016 0.7577763453270948 -0.22143910091225696
vn 0.6137912797115016 -0.7577763453270948 0.22143910091225696
vn -0.25961398857932133 0.659430970990973 -0.7055149689636916
vn 0.25961398857932133 -0.659430970990973 0.7055149689636916
vn -0.20375807029512008 0.7894512723552097 0.5790071997534655
vn 0.20375807029512008 -0.7894512723552097 -0.5790071997534655
vn -0.5641542635500852 0.7907013693837426 0.23774211106351184
vn 0.5641542635500852 -0.7907013693837426 -0.23774211106351184
usemtl material_0_0
f 1//1 2//2 3//3
f 2//2 1//1 4//4
f 3//5 2//6 1//7
f 4//8 1//7 2//6
f 2//9 3//9 5//9
f 1//1 3//3 6//10
f 6//11 3//5 1//7
f 6//9 4//9 1//9
f 1//12 4//12 6//12
f 4//4 7//13 2//2
f 2//6 7//14 4//8
f 8//9 5//9 3//9
f 7//13 5//15 2//2
f 2//6 5//16 7//14
f 8//17 6//10 3//3
f 3//5 6//11 8//18
f 6//9 7//9 4//9
f 4//12 7//12 6//12
f 9//19 8//17 5//15
f 5//16 8//18 9//20
f 5//15 7//13 10//21
f 10//22 7//14 5//16
f 6//10 8//17 11//23
f 11//24 8//18 6//11
f 11//9 7//9 6//9
f 6//12 7//12 11//12
f 8//17 9//19 12//25
f 12//26 9//20 8//18
f 5//15 10//21 9//19
f 9//20 10//22 5//16
f 11//9 10//9 7//9
f 7//12 10//12 11//12
f 8//17 12//25 11//23
f 11//24 12//26 8//18
f 10//9 12//9 9//9
f 9//12 12//12 10//12
f 12//9 10//9 11//9
f 11//12 10//12 12//12
usemtl material_1_0
f 5/1/12 3/2/12 2/3/12
f 3/2/12 5/1/12 8/4/12
