# SSTK version 0.8.0
# 22
mtllib original_22.mtl
o Group22/mesh20/mesh20-geometry#mesh20-geometry
v -0.584232 0.013553 0.079665
v -0.593062 0.004633 0.074577
v -0.593651 0.004608 0.075165
v -0.518884 0.004633 0.074577
v -0.593651 0.001662 0.145456
v -0.584232 0.011186 0.136132
v -0.527714 0.013553 0.079665
v -0.593062 0.001637 0.146044
v -0.527714 0.011186 0.136132
v -0.518295 0.004608 0.075165
v -0.518884 0.001637 0.146044
v -0.518295 0.001662 0.145456
vt 1 -1
vt 0 0
vt 0 -1
vt 1 0
vn -0.45032212770867147 0.7444582111239119 -0.49294213979545276
vn -0.25961398857932133 0.659430970990973 -0.7055149689636916
vn -0.6137912797115016 0.7577763453270948 -0.22143910091225696
vn 0.6137912797115016 -0.7577763453270948 0.22143910091225696
vn 0.25961398857932133 -0.659430970990973 0.7055149689636916
vn 0.45032212770867147 -0.7444582111239119 0.49294213979545276
vn 0.25961398857932133 0.659430970990973 -0.7055149689636916
vn -0.25961398857932133 -0.659430970990973 0.7055149689636916
vn 0 -0.9991228159091404 -0.04187599228424466
vn 0 0.9991228159091404 0.04187599228424466
vn -0.3962847583010461 0.8169615017251199 0.4189657444676335
vn 0.3962847583010461 -0.8169615017251199 -0.4189657444676335
vn 0.45032212770867147 0.7444582111239119 -0.49294213979545276
vn -0.45032212770867147 -0.7444582111239119 0.49294213979545276
vn -0.5641542635500852 0.7907013693837426 0.23774211106351184
vn 0.5641542635500852 -0.7907013693837426 -0.23774211106351184
vn 0.6137912797115016 0.7577763453270948 -0.22143910091225696
vn -0.6137912797115016 -0.7577763453270948 0.22143910091225696
vn -0.20375807029512008 0.7894512723552097 0.5790071997534655
vn 0.20375807029512008 -0.7894512723552097 -0.5790071997534655
vn 0.20375807029512008 0.7894512723552097 0.5790071997534655
vn 0.3962847583010461 0.8169615017251199 0.4189657444676335
vn -0.3962847583010461 -0.8169615017251199 -0.4189657444676335
vn -0.20375807029512008 -0.7894512723552097 -0.5790071997534655
vn 0.5641542635500852 0.7907013693837426 0.23774211106351184
vn -0.5641542635500852 -0.7907013693837426 -0.23774211106351184
usemtl material_0_0
f 1//1 2//2 3//3
f 3//4 2//5 1//6
f 1//1 4//7 2//2
f 2//5 4//8 1//6
f 2//9 5//9 3//9
f 3//10 5//10 2//10
f 3//3 6//11 1//1
f 1//6 6//12 3//4
f 4//7 1//1 7//13
f 7//14 1//6 4//8
f 8//9 2//9 4//9
f 4//10 2//10 8//10
f 5//9 2//9 8//9
f 8//10 2//10 5//10
f 6//11 3//3 5//15
f 5//16 3//4 6//12
f 6//9 1//9 9//9
f 7//9 9//9 1//9
f 10//17 4//7 7//13
f 7//14 4//8 10//18
f 8//9 4//9 11//9
f 11//10 4//10 8//10
f 6//11 5//15 8//19
f 8//20 5//16 6//12
f 6//11 11//21 9//22
f 9//23 11//24 6//12
f 12//25 7//13 9//22
f 9//23 7//14 12//26
f 11//9 4//9 10//9
f 10//10 4//10 11//10
f 7//13 12//25 10//17
f 10//18 12//26 7//14
f 11//21 6//11 8//19
f 8//20 6//12 11//24
f 12//25 9//22 11//21
f 11//24 9//23 12//26
f 11//9 10//9 12//9
f 12//10 10//10 11//10
usemtl material_1_0
f 9/1/10 1/2/10 6/3/10
f 1/2/10 9/1/10 7/4/10
