# SSTK version 0.8.0
# 1
mtllib original_1.mtl
o Group1/mesh1/mesh1-geometry#mesh1-geometry
v 0.801448 0.011241 -0.301002
v 0.769061 -0.004052 -0.301643
v 0.801448 -0.004052 -0.301643
v 0.769061 0.011241 -0.301002
v 0.802403 -0.004063 -0.301387
v 0.803358 -0.006919 -0.233255
v 0.768106 -0.004063 -0.301387
v 0.802403 0.011173 -0.300749
v 0.768106 0.011173 -0.300749
v 0.803102 0.010988 -0.300057
v 0.767407 0.010988 -0.300057
v 0.767407 -0.004092 -0.300689
v 0.803102 -0.004092 -0.300689
v 0.767151 -0.006919 -0.233255
v 0.803358 0.010734 -0.299112
v 0.803358 -0.004132 -0.299735
v 0.767151 0.010734 -0.299112
v 0.803358 0.001713 -0.289180
v 0.767151 0.001713 -0.289180
v 0.767151 -0.004132 -0.299735
v 0.803358 0.000532 -0.291439
v 0.803358 0.000409 -0.288498
v 0.803358 0.001775 -0.290651
v 0.767151 0.000409 -0.288498
v 0.767151 0.001775 -0.290651
v 0.767151 0.000532 -0.291439
v 0.803358 -0.000772 -0.290757
v 0.802475 0.000409 -0.288498
v 0.803358 -0.000834 -0.289287
v 0.802475 0.001775 -0.290651
v 0.767151 -0.000834 -0.289287
v 0.768034 0.001713 -0.289180
v 0.767151 -0.000772 -0.290757
v 0.802475 0.000532 -0.291439
v 0.802475 0.001713 -0.289180
v 0.802475 -0.000834 -0.289287
v 0.768034 0.000409 -0.288498
v 0.768034 0.001775 -0.290651
v 0.768034 0.000532 -0.291439
v 0.768034 -0.000772 -0.290757
v 0.802475 -0.000772 -0.290757
v 0.802475 0.002808 -0.288485
v 0.802475 -0.001984 -0.288686
v 0.802475 0.002924 -0.291252
v 0.768034 -0.000834 -0.289287
v 0.768034 0.002808 -0.288485
v 0.768034 0.002924 -0.291252
v 0.802475 -0.001868 -0.291453
v 0.802475 0.000354 -0.287202
v 0.768034 -0.001984 -0.288686
v 0.768034 0.000354 -0.287202
v 0.768034 -0.001868 -0.291453
v 0.802475 0.000586 -0.292736
v 0.802180 0.000354 -0.287202
v 0.802180 0.002924 -0.291252
v 0.802180 -0.001984 -0.288686
v 0.768329 0.002808 -0.288485
v 0.768034 0.000586 -0.292736
v 0.802180 0.000586 -0.292736
v 0.802180 0.002808 -0.288485
v 0.802180 -0.001868 -0.291453
v 0.768329 0.000354 -0.287202
v 0.768329 -0.001868 -0.291453
v 0.768329 0.002924 -0.291252
v 0.768329 0.000586 -0.292736
v 0.802180 0.005667 -0.288389
v 0.802180 0.002828 -0.284956
v 0.802180 -0.027625 -0.309872
v 0.768329 -0.001984 -0.288686
v 0.768329 0.005667 -0.288389
v 0.802180 0.007508 -0.292445
v 0.802180 0.004362 -0.286578
v 0.802180 -0.004178 -0.284822
v 0.802180 0.006722 -0.290356
v 0.768329 0.002828 -0.284956
v 0.768329 -0.027625 -0.309872
v 0.768329 0.004362 -0.286578
v 0.768329 0.006722 -0.290356
v 0.768329 0.007508 -0.292445
v 0.802180 -0.000323 -0.283802
v 0.801003 -0.004178 -0.284822
v 0.768329 -0.004178 -0.284822
v 0.768329 -0.027440 -0.314284
v 0.802180 -0.027440 -0.314284
v 0.801003 -0.027625 -0.309872
v 0.768329 -0.000323 -0.283802
v 0.769506 -0.004178 -0.284822
v 0.769506 -0.027514 -0.312519
v 0.801003 -0.027514 -0.312519
v 0.769506 -0.027625 -0.309872
vn -0.13052603076564173 -0.04151700978576817 0.990575233483563
vn 0.13052603076564173 -0.04151700978576817 0.990575233483563
vn 0.13052603076564173 0.04151700978576817 -0.990575233483563
vn -0.13052603076564173 0.04151700978576817 -0.990575233483563
vn -0.4999998997547801 -0.03626499272921439 0.8652658265224391
vn 0.4999998997547801 0.03626499272921439 -0.8652658265224391
vn 0 -0.9659017373303024 -0.25890892959166817
vn 0 0.9659017373303024 0.25890892959166817
vn 0.4999998997547801 -0.03626499272921439 0.8652658265224391
vn -0.4999998997547801 0.03626499272921439 -0.8652658265224391
vn -0.866025479262963 -0.02093801158720362 0.4995612764597847
vn 0.866025479262963 0.02093801158720362 -0.4995612764597847
vn 0.866025479262963 -0.02093801158720362 0.4995612764597847
vn -0.866025479262963 0.02093801158720362 -0.4995612764597847
vn -0.9914448240557384 -0.005465999029990262 0.1304119768567666
vn 0.9914448240557384 0.005465999029990262 -0.1304119768567666
vn 0.9914448240557384 -0.005465999029990262 0.1304119768567666
vn -0.9914448240557384 0.005465999029990262 -0.1304119768567666
vn -1 0 0
vn 1 0 0
vn 0 0.8443278541368875 0.5358269074324271
vn 0 -0.04187599228424466 0.9991228159091404
vn 0 0.04187599228424466 -0.9991228159091404
vn 0 -0.8443278541368875 -0.5358269074324271
vn 0 0.8862036839656436 -0.4632958347813219
vn 0 -0.8862036839656436 0.4632958347813219
vn 0 0.8480481878999376 0.5299191174128673
vn 0 0.7705728766185777 0.6373518979494531
vn 0 -0.8480481878999376 -0.5299191174128673
vn 0 -0.7705728766185777 -0.6373518979494531
vn 0 0.5499931213807451 0.8351691843176836
vn 0 -0.5499931213807451 -0.8351691843176836
vn 0 0.9106448669889436 0.41318993964844897
vn 0 -0.9106448669889436 -0.41318993964844897
vn 0 -0.7300750137568037 0.6833670128766846
vn 0 0.7300750137568037 -0.6833670128766846
vn 0 0.9472326516562036 -0.3205468821192261
vn 0 -0.9472326516562036 0.3205468821192261
vn 0 0.04621198406684981 0.9989316555844074
vn 0 -0.04621198406684981 -0.9989316555844074
vn -0.464379243669605 -0.47396924870168355 0.7481343925619294
vn 0 -0.2559120202498073 0.9667000764930466
vn 0 0.2559120202498073 -0.9667000764930466
vn 0.464379243669605 0.47396924870168355 -0.7481343925619294
vn 0 0.5299191174128673 -0.8480481878999376
vn 0 -0.5299191174128673 0.8480481878999376
vn 0 -0.9991228159091404 -0.04187599228424466
vn 0.4727628984822154 -0.8338888209365712 0.28482393883890755
vn 0 0.9991228159091404 0.04187599228424466
vn -0.4727628984822154 0.8338888209365712 -0.28482393883890755
vn -0.707106645761226 -0.7064866460718268 -0.029610985165803436
vn 0.707106645761226 0.7064866460718268 0.029610985165803436
vn 0.464379243669605 -0.47396924870168355 0.7481343925619294
vn -0.464379243669605 0.47396924870168355 -0.7481343925619294
vn -0.4727628984822154 -0.8338888209365712 0.28482393883890755
vn 0.4727628984822154 0.8338888209365712 -0.28482393883890755
vn 0.707106645761226 -0.7064866460718268 -0.029610985165803436
vn -0.707106645761226 0.7064866460718268 0.029610985165803436
usemtl material_0_0
f 1//1 2//2 3//1
f 2//2 1//1 4//2
f 3//3 2//4 1//3
f 4//4 1//3 2//4
f 5//5 1//1 3//1
f 3//3 1//3 5//6
f 6//7 4//7 1//7
f 1//8 4//8 6//8
f 4//2 7//9 2//2
f 2//4 7//10 4//4
f 1//1 5//5 8//5
f 8//6 5//6 1//3
f 6//7 9//7 4//7
f 4//8 9//8 6//8
f 6//7 1//7 8//7
f 8//8 1//8 6//8
f 7//9 4//2 9//9
f 9//10 4//4 7//10
f 5//5 10//11 8//5
f 8//6 10//12 5//6
f 6//7 11//7 9//7
f 9//8 11//8 6//8
f 6//7 8//7 10//7
f 10//8 8//8 6//8
f 9//9 12//13 7//9
f 7//10 12//14 9//10
f 10//11 5//5 13//11
f 13//12 5//6 10//12
f 14//7 11//7 6//7
f 6//8 11//8 14//8
f 12//13 9//9 11//13
f 11//14 9//10 12//14
f 6//7 10//7 15//7
f 15//8 10//8 6//8
f 16//15 10//11 13//11
f 13//12 10//12 16//16
f 11//7 14//7 17//7
f 17//8 14//8 11//8
f 17//17 12//13 11//13
f 11//14 12//14 17//18
f 10//11 16//15 15//15
f 15//16 16//16 10//12
f 18//19 6//19 15//15
f 15//16 6//20 18//20
f 14//20 19//20 17//17
f 17//18 19//19 14//19
f 12//13 17//17 20//17
f 20//18 17//18 12//14
f 16//15 21//19 15//15
f 15//16 21//20 16//16
f 6//19 18//19 22//19
f 22//20 18//20 6//20
f 18//19 15//15 23//19
f 23//20 15//16 18//20
f 19//20 14//20 24//20
f 24//19 14//19 19//19
f 17//17 19//20 25//20
f 25//19 19//19 17//18
f 17//17 26//20 20//17
f 20//18 26//19 17//18
f 16//15 27//19 21//19
f 21//20 27//20 16//16
f 23//19 15//15 21//19
f 21//20 15//16 23//20
f 18//21 28//22 22//22
f 22//23 28//23 18//24
f 22//20 29//20 18//20
f 29//19 6//19 22//19
f 22//20 6//20 29//20
f 30//25 18//21 23//25
f 23//26 18//24 30//26
f 23//20 18//20 27//20
f 14//20 31//20 24//20
f 24//19 31//19 14//19
f 24//22 32//21 19//21
f 19//24 32//24 24//23
f 24//19 19//19 31//19
f 32//21 25//25 19//21
f 19//24 25//26 32//24
f 25//19 33//19 19//19
f 17//17 25//20 26//20
f 26//19 25//19 17//18
f 33//20 20//17 26//20
f 26//19 20//18 33//19
f 16//15 29//19 27//19
f 27//20 29//20 16//16
f 27//24 34//23 21//23
f 21//22 34//22 27//21
f 21//20 23//20 27//20
f 21//23 30//25 23//25
f 23//26 30//26 21//22
f 28//22 18//21 35//21
f 35//24 18//24 28//23
f 36//26 22//22 28//22
f 28//23 22//23 36//25
f 27//20 18//20 29//20
f 22//22 36//26 29//26
f 29//25 36//25 22//23
f 6//19 29//19 16//15
f 16//16 29//20 6//20
f 18//21 30//25 35//21
f 35//24 30//26 18//24
f 31//20 14//20 20//17
f 20//18 14//19 31//19
f 31//26 37//22 24//22
f 24//23 37//23 31//25
f 32//21 24//22 37//22
f 37//23 24//23 32//24
f 33//19 31//19 19//19
f 25//25 32//21 38//25
f 38//26 32//24 25//26
f 26//19 33//19 25//19
f 25//25 39//23 26//23
f 26//22 39//22 25//26
f 31//20 20//17 33//20
f 33//19 20//18 31//19
f 26//23 40//24 33//24
f 33//21 40//21 26//22
f 36//26 27//24 29//26
f 29//25 27//21 36//25
f 34//23 27//24 41//24
f 41//21 27//21 34//22
f 30//25 21//23 34//23
f 34//22 21//22 30//26
f 42//20 28//20 35//20
f 35//19 28//19 42//19
f 28//20 43//20 36//20
f 36//19 43//19 28//19
f 44//20 35//20 30//20
f 30//19 35//19 44//19
f 37//22 31//26 45//26
f 45//25 31//25 37//23
f 37//19 46//19 32//19
f 32//20 46//20 37//20
f 40//24 31//26 33//24
f 33//21 31//25 40//21
f 32//19 47//19 38//19
f 38//20 47//20 32//20
f 39//23 25//25 38//25
f 38//26 25//26 39//22
f 40//24 26//23 39//23
f 39//22 26//22 40//21
f 27//24 36//26 41//24
f 41//21 36//25 27//21
f 41//20 48//20 34//20
f 34//19 48//19 41//19
f 44//20 30//20 34//20
f 34//19 30//19 44//19
f 28//20 42//20 49//20
f 49//19 42//19 28//19
f 42//20 35//20 44//20
f 44//19 35//19 42//19
f 43//20 28//20 49//20
f 49//19 28//19 43//19
f 36//20 43//20 48//20
f 48//19 43//19 36//19
f 31//26 40//24 45//26
f 45//25 40//21 31//25
f 50//19 37//19 45//19
f 45//20 37//20 50//20
f 46//19 37//19 51//19
f 51//20 37//20 46//20
f 32//19 46//19 47//19
f 47//20 46//20 32//20
f 38//19 47//19 39//19
f 39//20 47//20 38//20
f 52//19 40//19 39//19
f 39//20 40//20 52//20
f 36//20 48//20 41//20
f 41//19 48//19 36//19
f 34//20 48//20 53//20
f 53//19 48//19 34//19
f 44//20 34//20 53//20
f 53//19 34//19 44//19
f 42//21 54//22 49//22
f 49//23 54//23 42//24
f 55//25 42//21 44//25
f 44//26 42//24 55//26
f 49//22 56//26 43//26
f 43//25 56//25 49//23
f 56//26 48//24 43//26
f 43//25 48//21 56//25
f 52//19 45//19 40//19
f 40//20 45//20 52//20
f 37//19 50//19 51//19
f 51//20 50//20 37//20
f 50//19 45//19 52//19
f 52//20 45//20 50//20
f 51//22 57//21 46//21
f 46//24 57//24 51//23
f 57//21 47//25 46//21
f 46//24 47//26 57//24
f 39//19 47//19 58//19
f 58//20 47//20 39//20
f 52//19 39//19 58//19
f 58//20 39//20 52//20
f 48//24 59//23 53//23
f 53//22 59//22 48//21
f 53//23 55//25 44//25
f 44//26 55//26 53//22
f 54//22 42//21 60//21
f 60//24 42//24 54//23
f 56//26 49//22 54//22
f 54//23 49//23 56//25
f 42//21 55//25 60//21
f 60//24 55//26 42//24
f 48//24 56//26 61//24
f 61//21 56//25 48//21
f 50//26 62//22 51//22
f 51//23 62//23 50//25
f 63//24 50//26 52//24
f 52//21 50//25 63//21
f 57//21 51//22 62//22
f 62//23 51//23 57//24
f 47//25 57//21 64//25
f 64//26 57//24 47//26
f 47//25 65//23 58//23
f 58//22 65//22 47//26
f 58//23 63//24 52//24
f 52//21 63//21 58//22
f 59//23 48//24 61//24
f 61//21 48//21 59//22
f 55//25 53//23 59//23
f 59//22 53//22 55//26
f 66//20 54//20 60//20
f 60//19 54//19 66//19
f 67//20 56//20 54//20
f 54//19 56//19 67//19
f 66//20 60//20 55//20
f 55//19 60//19 66//19
f 56//20 68//20 61//20
f 61//19 68//19 56//19
f 62//22 50//26 69//26
f 69//25 50//25 62//23
f 50//26 63//24 69//26
f 69//25 63//21 50//25
f 62//19 70//19 57//19
f 57//20 70//20 62//20
f 57//19 70//19 64//19
f 64//20 70//20 57//20
f 65//23 47//25 64//25
f 64//26 47//26 65//22
f 63//24 58//23 65//23
f 65//22 58//22 63//21
f 61//20 68//20 59//20
f 59//19 68//19 61//19
f 71//20 55//20 59//20
f 59//19 55//19 71//19
f 54//20 66//20 72//20
f 72//19 66//19 54//19
f 67//20 73//20 56//20
f 56//19 73//19 67//19
f 67//20 54//20 72//20
f 72//19 54//19 67//19
f 66//20 55//20 74//20
f 74//19 55//19 66//19
f 56//20 73//20 68//20
f 68//19 73//19 56//19
f 69//19 75//19 62//19
f 62//20 75//20 69//20
f 76//19 69//19 63//19
f 63//20 69//20 76//20
f 70//19 62//19 77//19
f 77//20 62//20 70//20
f 64//19 70//19 78//19
f 78//20 70//20 64//20
f 64//19 79//19 65//19
f 65//20 79//20 64//20
f 76//19 63//19 65//19
f 65//20 63//20 76//20
f 59//20 68//20 71//20
f 71//19 68//19 59//19
f 74//20 55//20 71//20
f 71//19 55//19 74//19
f 70//27 72//28 66//27
f 66//29 72//30 70//29
f 73//20 67//20 80//20
f 80//19 67//19 73//19
f 77//28 67//31 72//28
f 72//30 67//32 77//30
f 78//33 66//27 74//33
f 74//34 66//29 78//34
f 81//35 68//35 73//35
f 73//36 68//36 81//36
f 82//19 75//19 69//19
f 69//20 75//20 82//20
f 62//19 75//19 77//19
f 77//20 75//20 62//20
f 82//19 69//19 76//19
f 76//20 69//20 82//20
f 72//28 70//27 77//28
f 77//30 70//29 72//30
f 66//27 78//33 70//27
f 70//29 78//34 66//29
f 64//19 78//19 79//19
f 79//20 78//20 64//20
f 65//19 79//19 83//19
f 83//20 79//20 65//20
f 65//19 83//19 76//19
f 76//20 83//20 65//20
f 71//20 68//20 84//20
f 84//19 68//19 71//19
f 79//37 74//33 71//37
f 71//38 74//34 79//38
f 75//31 80//39 67//31
f 67//32 80//40 75//32
f 80//39 81//41 73//42
f 73//43 81//44 80//40
f 67//31 77//28 75//31
f 75//32 77//30 67//32
f 74//33 79//37 78//33
f 78//34 79//38 74//34
f 68//35 81//35 85//35
f 85//36 81//36 68//36
f 75//19 82//19 86//19
f 86//20 82//20 75//20
f 76//35 87//35 82//35
f 82//36 87//36 76//36
f 71//37 83//45 79//37
f 79//38 83//46 71//38
f 83//47 88//48 76//47
f 76//49 88//50 83//49
f 85//51 84//47 68//47
f 68//49 84//49 85//52
f 83//45 71//37 84//45
f 84//46 71//38 83//46
f 80//39 75//31 86//39
f 86//40 75//32 80//40
f 81//41 80//39 87//53
f 87//54 80//40 81//44
f 89//55 85//51 81//41
f 81//44 85//52 89//56
f 82//42 80//39 86//39
f 86//40 80//40 82//43
f 87//35 76//35 90//35
f 90//36 76//36 87//36
f 87//53 80//39 82//42
f 82//43 80//40 87//54
f 88//48 83//47 84//47
f 84//49 83//49 88//50
f 90//57 76//47 88//48
f 88//50 76//49 90//58
f 89//55 84//47 85//51
f 85//52 84//49 89//56
f 87//53 89//55 81//41
f 81//44 89//56 87//54
f 88//48 87//53 90//57
f 90//58 87//54 88//50
f 88//48 84//47 89//55
f 89//56 84//49 88//50
f 89//55 87//53 88//48
f 88//50 87//54 89//56
usemtl material_1_0
f 18//19 29//19 22//19
f 27//19 18//19 23//19
f 31//20 19//20 24//20
f 19//20 33//20 25//20
f 27//19 23//19 21//19
f 29//19 18//19 27//19
f 19//20 31//20 33//20
f 25//20 33//20 26//20
