# SSTK version 0.8.0
# 11
mtllib original_11.mtl
o Group11/mesh9/mesh9-geometry#mesh9-geometry
v -0.706097 0.020690 -0.090620
v -0.762614 0.023056 -0.147088
v -0.762614 0.020690 -0.090620
v -0.706097 0.023056 -0.147088
v -0.772033 0.014112 -0.151587
v -0.697266 0.011141 -0.080709
v -0.696677 0.011166 -0.081297
v -0.697266 0.014137 -0.152175
v -0.772033 0.011166 -0.081297
v -0.771444 0.014137 -0.152175
v -0.771444 0.011141 -0.080709
v -0.696677 0.014112 -0.151587
vt 1 -1
vt 0 0
vt 0 -1
vt 1 0
vn 0 0.9991228159091404 0.04187599228424466
vn 0 -0.9991228159091404 -0.04187599228424466
vn -0.6137912797115016 0.7577763453270948 -0.22143910091225696
vn -0.3962847583010461 0.8169615017251199 0.4189657444676335
vn -0.45032212770867147 0.7444582111239119 -0.49294213979545276
vn 0.45032212770867147 -0.7444582111239119 0.49294213979545276
vn 0.3962847583010461 -0.8169615017251199 -0.4189657444676335
vn 0.6137912797115016 -0.7577763453270948 0.22143910091225696
vn 0.20375807029512008 0.7894512723552097 0.5790071997534655
vn 0.3962847583010461 0.8169615017251199 0.4189657444676335
vn -0.3962847583010461 -0.8169615017251199 -0.4189657444676335
vn -0.20375807029512008 -0.7894512723552097 -0.5790071997534655
vn 0.5641542635500852 0.7907013693837426 0.23774211106351184
vn 0.45032212770867147 0.7444582111239119 -0.49294213979545276
vn -0.45032212770867147 -0.7444582111239119 0.49294213979545276
vn -0.5641542635500852 -0.7907013693837426 -0.23774211106351184
vn 0.25961398857932133 0.659430970990973 -0.7055149689636916
vn -0.25961398857932133 -0.659430970990973 0.7055149689636916
vn -0.5641542635500852 0.7907013693837426 0.23774211106351184
vn 0.5641542635500852 -0.7907013693837426 -0.23774211106351184
vn -0.25961398857932133 0.659430970990973 -0.7055149689636916
vn 0.25961398857932133 -0.659430970990973 0.7055149689636916
vn -0.20375807029512008 0.7894512723552097 0.5790071997534655
vn 0.20375807029512008 -0.7894512723552097 -0.5790071997534655
vn 0.6137912797115016 0.7577763453270948 -0.22143910091225696
vn -0.6137912797115016 -0.7577763453270948 0.22143910091225696
usemtl material_0_0
f 1/1/1 2/2/1 3/3/1
f 2/2/1 1/1/1 4/4/1
usemtl material_1_0
f 3//2 2//2 1//2
f 4//2 1//2 2//2
f 5//3 3//4 2//5
f 2//6 3//7 5//8
f 3//4 6//9 1//10
f 1//11 6//12 3//7
f 7//13 4//14 1//10
f 1//11 4//15 7//16
f 8//17 2//5 4//14
f 4//15 2//6 8//18
f 3//4 5//3 9//19
f 9//20 5//8 3//7
f 2//5 10//21 5//3
f 5//8 10//22 2//6
f 6//9 3//4 11//23
f 11//24 3//7 6//12
f 7//13 1//10 6//9
f 6//12 1//11 7//16
f 4//14 7//13 12//25
f 12//26 7//16 4//15
f 2//5 8//17 10//21
f 10//22 8//18 2//6
f 12//25 8//17 4//14
f 4//15 8//18 12//26
f 10//2 9//2 5//2
f 5//1 9//1 10//1
f 3//4 9//19 11//23
f 11//24 9//20 3//7
f 11//2 8//2 6//2
f 6//1 8//1 11//1
f 6//2 12//2 7//2
f 7//1 12//1 6//1
f 11//2 10//2 8//2
f 8//1 10//1 11//1
f 6//2 8//2 12//2
f 12//1 8//1 6//1
f 9//2 10//2 11//2
f 11//1 10//1 9//1
