# SSTK version 0.8.0
# 8
mtllib original_8.mtl
o Group8/mesh6/mesh6-geometry#mesh6-geometry
v -0.735305 0.007973 -0.005125
v -0.800653 0.017522 -0.015036
v -0.809484 0.007973 -0.005125
v -0.744136 0.017522 -0.015036
v -0.810072 0.007998 -0.005713
v -0.735305 0.010969 -0.076591
v -0.734716 0.007998 -0.005713
v -0.800653 0.019889 -0.071503
v -0.810072 0.010944 -0.076003
v -0.809484 0.010969 -0.076591
v -0.734716 0.010944 -0.076003
v -0.744136 0.019889 -0.071503
vt 1 0
vt 0 1
vt 0 0
vt 1 1
vn 0.20375807029512008 0.7894512723552097 0.5790071997534655
vn -0.3962847583010461 0.8169615017251199 0.4189657444676335
vn -0.20375807029512008 0.7894512723552097 0.5790071997534655
vn 0.3962847583010461 0.8169615017251199 0.4189657444676335
vn 0.20375807029512008 -0.7894512723552097 -0.5790071997534655
vn 0.3962847583010461 -0.8169615017251199 -0.4189657444676335
vn -0.20375807029512008 -0.7894512723552097 -0.5790071997534655
vn -0.3962847583010461 -0.8169615017251199 -0.4189657444676335
vn -0.5641542635500852 0.7907013693837426 0.23774211106351184
vn 0.5641542635500852 -0.7907013693837426 -0.23774211106351184
vn 0 -0.9991228159091404 -0.04187599228424466
vn 0 0.9991228159091404 0.04187599228424466
vn 0.5641542635500852 0.7907013693837426 0.23774211106351184
vn -0.5641542635500852 -0.7907013693837426 -0.23774211106351184
vn -0.6137912797115016 0.7577763453270948 -0.22143910091225696
vn 0.6137912797115016 -0.7577763453270948 0.22143910091225696
vn 0.45032212770867147 0.7444582111239119 -0.49294213979545276
vn -0.45032212770867147 -0.7444582111239119 0.49294213979545276
vn -0.45032212770867147 0.7444582111239119 -0.49294213979545276
vn 0.45032212770867147 -0.7444582111239119 0.49294213979545276
vn 0.25961398857932133 0.659430970990973 -0.7055149689636916
vn -0.25961398857932133 0.659430970990973 -0.7055149689636916
vn 0.25961398857932133 -0.659430970990973 0.7055149689636916
vn -0.25961398857932133 -0.659430970990973 0.7055149689636916
vn 0.6137912797115016 0.7577763453270948 -0.22143910091225696
vn -0.6137912797115016 -0.7577763453270948 0.22143910091225696
usemtl material_0_0
f 1//1 2//2 3//3
f 2//2 1//1 4//4
f 3//5 2//6 1//7
f 4//8 1//7 2//6
f 2//2 5//9 3//3
f 3//5 5//10 2//6
f 3//11 6//11 1//11
f 1//12 6//12 3//12
f 7//13 4//4 1//1
f 1//7 4//8 7//14
f 2//11 8//11 4//11
f 2//2 9//15 5//9
f 5//10 9//16 2//6
f 5//11 10//11 3//11
f 3//12 10//12 5//12
f 3//11 10//11 6//11
f 6//12 10//12 3//12
f 1//11 6//11 11//11
f 11//12 6//12 1//12
f 7//13 12//17 4//4
f 4//8 12//18 7//14
f 1//11 11//11 7//11
f 7//12 11//12 1//12
f 12//11 4//11 8//11
f 9//15 2//2 8//19
f 8//20 2//6 9//16
f 10//11 5//11 9//11
f 9//12 5//12 10//12
f 8//19 6//21 10//22
f 10//23 6//24 8//20
f 11//25 6//21 12//17
f 12//18 6//24 11//26
f 12//17 7//13 11//25
f 11//26 7//14 12//18
f 6//21 8//19 12//17
f 12//18 8//20 6//24
f 8//19 10//22 9//15
f 9//16 10//23 8//20
usemtl material_1_0
f 4/1/12 8/2/12 2/3/12
f 8/2/12 4/1/12 12/4/12
