# SSTK version 0.8.0
# 51
mtllib original_51.mtl
o Group51/mesh49/mesh49-geometry#mesh49-geometry
v -0.323790 0.017522 -0.015036
v -0.333209 0.007998 -0.005713
v -0.332621 0.007973 -0.005125
v -0.333209 0.010944 -0.076003
v -0.332621 0.010969 -0.076591
v -0.258442 0.007973 -0.005125
v -0.323790 0.019889 -0.071503
v -0.258442 0.010969 -0.076591
v -0.267273 0.017522 -0.015036
v -0.257853 0.007998 -0.005713
v -0.257853 0.010944 -0.076003
v -0.267273 0.019889 -0.071503
vt 1 -1
vt 0 0
vt 0 -1
vt 1 0
vn -0.3962847583010461 0.8169615017251199 0.4189657444676335
vn -0.5641542635500852 0.7907013693837426 0.23774211106351184
vn -0.20375807029512008 0.7894512723552097 0.5790071997534655
vn 0.20375807029512008 -0.7894512723552097 -0.5790071997534655
vn 0.5641542635500852 -0.7907013693837426 -0.23774211106351184
vn 0.3962847583010461 -0.8169615017251199 -0.4189657444676335
vn -0.6137912797115016 0.7577763453270948 -0.22143910091225696
vn 0.6137912797115016 -0.7577763453270948 0.22143910091225696
vn 0 -0.9991228159091404 -0.04187599228424466
vn 0 0.9991228159091404 0.04187599228424466
vn 0.20375807029512008 0.7894512723552097 0.5790071997534655
vn -0.20375807029512008 -0.7894512723552097 -0.5790071997534655
vn -0.45032212770867147 0.7444582111239119 -0.49294213979545276
vn 0.45032212770867147 -0.7444582111239119 0.49294213979545276
vn 0.3962847583010461 0.8169615017251199 0.4189657444676335
vn -0.3962847583010461 -0.8169615017251199 -0.4189657444676335
vn -0.25961398857932133 0.659430970990973 -0.7055149689636916
vn 0.25961398857932133 -0.659430970990973 0.7055149689636916
vn 0.25961398857932133 0.659430970990973 -0.7055149689636916
vn -0.25961398857932133 -0.659430970990973 0.7055149689636916
vn 0.5641542635500852 0.7907013693837426 0.23774211106351184
vn -0.5641542635500852 -0.7907013693837426 -0.23774211106351184
vn 0.45032212770867147 0.7444582111239119 -0.49294213979545276
vn -0.45032212770867147 -0.7444582111239119 0.49294213979545276
vn 0.6137912797115016 0.7577763453270948 -0.22143910091225696
vn -0.6137912797115016 -0.7577763453270948 0.22143910091225696
usemtl material_0_0
f 1//1 2//2 3//3
f 3//4 2//5 1//6
f 1//1 4//7 2//2
f 2//5 4//8 1//6
f 2//9 5//9 3//9
f 3//10 5//10 2//10
f 6//11 1//1 3//3
f 3//4 1//6 6//12
f 4//7 1//1 7//13
f 7//14 1//6 4//8
f 5//9 2//9 4//9
f 4//10 2//10 5//10
f 3//9 5//9 8//9
f 8//10 5//10 3//10
f 1//1 6//11 9//15
f 9//16 6//12 1//6
f 3//9 8//9 6//9
f 6//10 8//10 3//10
f 1//9 7//9 9//9
f 7//13 5//17 4//7
f 4//8 5//18 7//14
f 7//13 8//19 5//17
f 5//18 8//20 7//14
f 10//21 9//15 6//11
f 6//12 9//16 10//22
f 6//9 8//9 11//9
f 11//10 8//10 6//10
f 12//9 9//9 7//9
f 8//19 7//13 12//23
f 12//24 7//14 8//20
f 10//21 12//23 9//15
f 9//16 12//24 10//22
f 6//9 11//9 10//9
f 10//10 11//10 6//10
f 11//25 8//19 12//23
f 12//24 8//20 11//26
f 12//23 10//21 11//25
f 11//26 10//22 12//24
usemtl material_1_0
f 9/1/10 7/2/10 1/3/10
f 7/2/10 9/1/10 12/4/10
