# SSTK version 0.8.0
# 62
mtllib original_62.mtl
o Group62/mesh60/mesh60-geometry#mesh60-geometry
v 0.139533 0.010944 -0.076003
v 0.138944 0.010969 -0.076591
v 0.130113 0.019889 -0.071503
v 0.138944 0.007973 -0.005125
v 0.073596 0.019889 -0.071503
v 0.139533 0.007998 -0.005713
v 0.064765 0.007973 -0.005125
v 0.064765 0.010969 -0.076591
v 0.130113 0.017522 -0.015036
v 0.073596 0.017522 -0.015036
v 0.064177 0.010944 -0.076003
v 0.064177 0.007998 -0.005713
vt 0 0
vt 1 -1
vt 1 0
vt 0 -1
vn 0.6137912797115016 0.7577763453270948 -0.22143910091225696
vn 0.25961398857932133 0.659430970990973 -0.7055149689636916
vn 0.45032212770867147 0.7444582111239119 -0.49294213979545276
vn -0.45032212770867147 -0.7444582111239119 0.49294213979545276
vn -0.25961398857932133 -0.659430970990973 0.7055149689636916
vn -0.6137912797115016 -0.7577763453270948 0.22143910091225696
vn 0 -0.9991228159091404 -0.04187599228424466
vn 0 0.9991228159091404 0.04187599228424466
vn -0.45032212770867147 0.7444582111239119 -0.49294213979545276
vn 0.45032212770867147 -0.7444582111239119 0.49294213979545276
vn 0.5641542635500852 0.7907013693837426 0.23774211106351184
vn -0.5641542635500852 -0.7907013693837426 -0.23774211106351184
vn -0.25961398857932133 0.659430970990973 -0.7055149689636916
vn 0.25961398857932133 -0.659430970990973 0.7055149689636916
vn 0.3962847583010461 0.8169615017251199 0.4189657444676335
vn -0.3962847583010461 -0.8169615017251199 -0.4189657444676335
vn 0.20375807029512008 0.7894512723552097 0.5790071997534655
vn -0.3962847583010461 0.8169615017251199 0.4189657444676335
vn -0.20375807029512008 0.7894512723552097 0.5790071997534655
vn 0.20375807029512008 -0.7894512723552097 -0.5790071997534655
vn 0.3962847583010461 -0.8169615017251199 -0.4189657444676335
vn -0.20375807029512008 -0.7894512723552097 -0.5790071997534655
vn -0.6137912797115016 0.7577763453270948 -0.22143910091225696
vn 0.6137912797115016 -0.7577763453270948 0.22143910091225696
vn -0.5641542635500852 0.7907013693837426 0.23774211106351184
vn 0.5641542635500852 -0.7907013693837426 -0.23774211106351184
usemtl material_0_0
f 1//1 2//2 3//3
f 3//4 2//5 1//6
f 4//7 2//7 1//7
f 1//8 2//8 4//8
f 2//2 5//9 3//3
f 3//4 5//10 2//5
f 3//3 6//11 1//1
f 1//6 6//12 3//4
f 7//7 2//7 4//7
f 4//8 2//8 7//8
f 4//7 1//7 6//7
f 6//8 1//8 4//8
f 5//9 2//2 8//13
f 8//14 2//5 5//10
f 3//7 9//7 5//7
f 6//11 3//3 9//15
f 9//16 3//4 6//12
f 7//7 8//7 2//7
f 2//8 8//8 7//8
f 4//17 10//18 7//19
f 7//20 10//21 4//22
f 6//11 9//15 4//17
f 4//22 9//16 6//12
f 5//9 8//13 11//23
f 11//24 8//14 5//10
f 10//7 5//7 9//7
f 12//7 8//7 7//7
f 7//8 8//8 12//8
f 10//18 4//17 9//15
f 9//16 4//22 10//21
f 10//18 12//25 7//19
f 7//20 12//26 10//21
f 8//7 12//7 11//7
f 11//8 12//8 8//8
f 11//23 10//18 5//9
f 5//10 10//21 11//24
f 10//18 11//23 12//25
f 12//26 11//24 10//21
usemtl material_1_0
f 5/1/8 9/2/8 3/3/8
f 9/2/8 5/1/8 10/4/8
